<?xml version="1.0" encoding="UTF-8" standalone="no"?>
<!DOCTYPE svg PUBLIC "-//W3C//DTD SVG 1.1//EN" "http://www.w3.org/Graphics/SVG/1.1/DTD/svg11.dtd">
<svg xmlns="http://www.w3.org/2000/svg" version="1.1" viewBox="0.00 0.00 1693.00 1046.00">
<g stroke-width="2.00" fill="none" stroke-linecap="butt">
<path stroke="#a58826" vector-effect="non-scaling-stroke" d="
  M 1043.96 206.00
  L 1043.00 208.96"
/>
<path stroke="#a58826" vector-effect="non-scaling-stroke" d="
  M 1041.71 212.50
  L 1041.00 214.96"
/>
<path stroke="#a58826" vector-effect="non-scaling-stroke" d="
  M 991.96 364.00
  Q 991.00 365.33 991.00 367.00"
/>
<path stroke="#a58826" vector-effect="non-scaling-stroke" d="
  M 991.00 367.00
  Q 989.51 369.81 989.00 372.96"
/>
<path stroke="#a58826" vector-effect="non-scaling-stroke" d="
  M 734.00 477.46
  Q 733.58 474.17 732.04 471.25"
/>
<path stroke="#a58826" vector-effect="non-scaling-stroke" d="
  M 708.00 397.46
  L 707.04 394.25"
/>
<path stroke="#a58826" vector-effect="non-scaling-stroke" d="
  M 681.25 314.96
  Q 681.09 312.96 680.04 311.25"
/>
<path stroke="#a58826" vector-effect="non-scaling-stroke" d="
  M 654.71 234.00
  Q 654.91 232.07 653.79 230.50"
/>
<path stroke="#869426" vector-effect="non-scaling-stroke" d="
  M 701.88 562.13
  Q 633.17 489.86 564.46 417.54
  Q 560.10 412.95 554.95 409.31
  C 544.93 402.23 532.14 407.54 526.75 417.33
  C 521.48 426.91 524.89 437.92 530.05 447.19
  Q 576.22 530.14 622.41 613.07
  Q 622.78 613.73 622.25 614.46"
/>
<path stroke="#869426" vector-effect="non-scaling-stroke" d="
  M 526.25 602.71
  Q 524.61 600.79 522.29 599.75"
/>
<path stroke="#869426" vector-effect="non-scaling-stroke" d="
  M 284.71 425.25
  Q 283.45 423.40 281.29 422.75"
/>
<path stroke="#869426" vector-effect="non-scaling-stroke" d="
  M 281.00 422.46
  Q 280.22 421.20 278.79 420.75"
/>
<path stroke="#869426" vector-effect="non-scaling-stroke" d="
  M 277.25 419.71
  Q 276.40 418.20 274.75 417.79"
/>
</g>
<path fill="#ffc400" d="
  M 1043.96 206.00
  L 1043.00 208.96
  L 1041.71 212.50
  L 1041.00 214.96
  L 991.96 364.00
  Q 991.00 365.33 991.00 367.00
  Q 989.51 369.81 989.00 372.96
  L 932.73 544.02
  Q 932.56 544.55 932.02 544.41
  C 874.42 529.03 813.72 528.89 756.83 542.81
  Q 755.23 543.21 754.72 541.64
  L 734.00 477.46
  Q 733.58 474.17 732.04 471.25
  L 731.67 470.67
  Q 731.41 470.26 731.30 469.78
  Q 730.74 467.12 728.96 462.05
  Q 725.39 451.83 718.64 429.60
  C 718.31 428.48 717.32 427.45 717.10 426.01
  Q 716.93 424.87 716.79 424.45
  Q 712.24 410.99 708.00 397.46
  L 707.04 394.25
  L 681.25 314.96
  Q 681.09 312.96 680.04 311.25
  L 654.71 234.00
  Q 654.91 232.07 653.79 230.50
  L 632.68 165.83
  Q 632.27 164.58 633.54 164.24
  Q 706.93 144.46 781.79 138.75
  C 812.37 136.41 843.66 136.63 874.32 137.36
  C 887.42 137.67 900.54 138.83 913.67 139.99
  Q 985.28 146.29 1055.87 166.04
  Q 1057.18 166.40 1056.75 167.70
  L 1043.96 206.00
  Z"
/>
<path fill="#c1dd00" d="
  M 701.88 562.13
  Q 633.17 489.86 564.46 417.54
  Q 560.10 412.95 554.95 409.31
  C 544.93 402.23 532.14 407.54 526.75 417.33
  C 521.48 426.91 524.89 437.92 530.05 447.19
  Q 576.22 530.14 622.41 613.07
  Q 622.78 613.73 622.25 614.46
  Q 605.15 630.14 590.64 649.02
  A 0.87 0.86 -52.8 0 1 589.45 649.19
  L 526.25 602.71
  Q 524.61 600.79 522.29 599.75
  L 517.13 596.40
  Q 516.71 596.13 516.39 595.75
  C 515.02 594.08 513.14 593.57 511.74 592.12
  Q 510.40 590.73 509.43 590.06
  Q 486.30 574.19 478.49 567.75
  Q 473.36 563.52 469.56 561.12
  C 467.02 559.52 465.43 557.65 463.10 556.01
  Q 453.65 549.32 444.15 542.70
  Q 443.86 542.49 443.72 542.15
  Q 443.64 541.94 443.45 541.80
  C 415.05 521.16 386.91 500.17 358.55 479.52
  Q 338.88 465.19 319.34 450.73
  Q 319.27 450.67 317.15 449.31
  C 315.68 448.37 314.64 446.85 313.28 445.93
  Q 298.68 436.01 284.71 425.25
  Q 283.45 423.40 281.29 422.75
  L 281.00 422.46
  Q 280.22 421.20 278.79 420.75
  L 277.25 419.71
  Q 276.40 418.20 274.75 417.79
  L 265.82 411.42
  Q 265.38 411.10 265.62 410.62
  Q 266.21 409.41 267.26 408.01
  C 354.88 292.05 477.31 210.82 616.15 169.36
  Q 616.46 169.27 616.56 169.58
  L 739.39 547.23
  Q 739.55 547.71 739.07 547.85
  Q 720.10 553.55 701.88 562.13
  Z"
/>
<path fill="#ff7300" d="
  M 966.25 492.06
  Q 966.24 491.66 966.28 491.51
  Q 989.10 422.05 1011.97 352.59
  Q 1011.98 352.56 1013.40 349.05
  C 1013.67 348.38 1014.52 344.25 1014.82 344.22
  Q 1015.04 344.19 1015.12 343.98
  C 1017.69 336.84 1020.04 328.24 1021.98 322.33
  Q 1046.18 248.45 1070.66 174.66
  C 1071.33 172.64 1070.83 170.62 1073.80 171.53
  C 1212.02 214.22 1333.98 296.85 1419.91 413.74
  A 0.55 0.54 54.2 0 1 1419.79 414.51
  L 1094.20 650.23
  A 0.62 0.61 -36.5 0 1 1093.35 650.11
  C 1056.42 602.13 1005.49 567.58 947.97 549.13
  A 0.68 0.67 18.2 0 1 947.53 548.27
  Q 956.20 522.07 964.99 495.71
  C 965.31 494.73 964.98 493.83 965.90 492.93
  Q 966.27 492.57 966.25 492.06
  Z"
/>
<path fill="#4b4b4b" d="
  M 1043.96 206.00
  Q 1044.31 207.79 1043.00 208.96
  L 1043.96 206.00
  Z"
/>
<path fill="#4b4b4b" d="
  M 1041.71 212.50
  Q 1042.35 214.00 1041.00 214.96
  L 1041.71 212.50
  Z"
/>
<path fill="#4b4b4b" d="
  M 653.79 230.50
  Q 654.91 232.07 654.71 234.00
  Q 653.79 232.40 653.79 230.50
  Z"
/>
<path fill="#4b4b4b" d="
  M 680.04 311.25
  Q 681.09 312.96 681.25 314.96
  Q 679.93 313.34 680.04 311.25
  Z"
/>
<path fill="#4b4b4b" d="
  M 991.96 364.00
  Q 992.23 365.77 991.00 367.00
  Q 991.00 365.33 991.96 364.00
  Z"
/>
<path fill="#4b4b4b" d="
  M 991.00 367.00
  Q 990.71 370.23 989.00 372.96
  Q 989.51 369.81 991.00 367.00
  Z"
/>
<path fill="#4b4b4b" d="
  M 707.04 394.25
  L 708.00 397.46
  Q 706.80 396.10 707.04 394.25
  Z"
/>
<path fill="#4b4b4b" d="
  M 701.88 562.13
  Q 702.60 563.17 703.56 564.18
  Q 801.80 667.26 899.86 770.49
  C 917.08 788.61 933.81 806.99 938.16 832.71
  Q 942.64 859.28 929.55 882.58
  C 919.66 900.17 904.83 916.17 886.31 924.31
  Q 877.81 928.05 866.17 931.53
  C 864.42 932.06 862.40 932.01 860.29 932.54
  C 853.24 934.29 844.39 932.81 837.08 932.31
  C 815.74 930.85 793.55 912.68 781.20 896.45
  Q 777.04 890.98 770.64 879.49
  Q 697.62 748.41 624.71 617.27
  Q 623.43 614.97 622.25 614.46
  Q 622.78 613.73 622.41 613.07
  Q 576.22 530.14 530.05 447.19
  C 524.89 437.92 521.48 426.91 526.75 417.33
  C 532.14 407.54 544.93 402.23 554.95 409.31
  Q 560.10 412.95 564.46 417.54
  Q 633.17 489.86 701.88 562.13
  Z
  M 886.43 844.76
  A 35.77 35.77 0.0 0 0 850.66 808.99
  A 35.77 35.77 0.0 0 0 814.89 844.76
  A 35.77 35.77 0.0 0 0 850.66 880.53
  A 35.77 35.77 0.0 0 0 886.43 844.76
  Z"
/>
<path fill="#4b4b4b" d="
  M 274.75 417.79
  Q 276.40 418.20 277.25 419.71
  Q 275.47 419.39 274.75 417.79
  Z"
/>
<path fill="#4b4b4b" d="
  M 278.79 420.75
  Q 280.22 421.20 281.00 422.46
  Q 279.34 422.29 278.79 420.75
  Z"
/>
<path fill="#4b4b4b" d="
  M 281.29 422.75
  Q 283.45 423.40 284.71 425.25
  Q 282.52 424.65 281.29 422.75
  Z"
/>
<path fill="#21b600" d="
  M 255.98 426.76
  L 578.65 663.81
  A 0.95 0.95 0.0 0 1 578.88 665.09
  C 544.07 718.53 527.51 781.73 528.96 845.29
  A 0.70 0.69 89.6 0 1 528.27 846.00
  L 133.51 846.00
  Q 132.99 846.00 132.99 845.49
  C 131.26 697.21 169.36 550.47 253.48 427.19
  Q 254.51 425.68 255.98 426.76
  Z"
/>
<path fill="#ff1c18" d="
  M 1105.48 665.21
  L 1430.45 429.94
  Q 1431.01 429.53 1431.40 430.10
  C 1514.43 552.06 1551.40 698.06 1550.04 845.25
  Q 1550.03 846.00 1549.29 846.00
  L 1154.72 846.00
  A 0.77 0.76 -89.3 0 1 1153.96 845.21
  C 1155.62 782.72 1139.20 719.44 1105.19 666.74
  A 1.13 1.13 0.0 0 1 1105.48 665.21
  Z"
/>
<path fill="#4b4b4b" d="
  M 732.04 471.25
  Q 733.58 474.17 734.00 477.46
  Q 732.42 474.55 732.04 471.25
  Z"
/>
<path fill="#4b4b4b" d="
  M 522.29 599.75
  Q 524.61 600.79 526.25 602.71
  Q 523.81 601.85 522.29 599.75
  Z"
/>
</svg>
