<?xml version="1.0" encoding="UTF-8" standalone="no"?>
<!DOCTYPE svg PUBLIC "-//W3C//DTD SVG 1.1//EN" "http://www.w3.org/Graphics/SVG/1.1/DTD/svg11.dtd">
<svg xmlns="http://www.w3.org/2000/svg" version="1.1" viewBox="0.00 0.00 1693.00 1046.00">
<g stroke-width="2.00" fill="none" stroke-linecap="butt">
<path stroke="#a58826" vector-effect="non-scaling-stroke" d="
  M 1043.96 206.00
  L 1043.00 208.96"
/>
<path stroke="#a58826" vector-effect="non-scaling-stroke" d="
  M 1041.71 212.50
  L 1041.00 214.96"
/>
<path stroke="#a58826" vector-effect="non-scaling-stroke" d="
  M 991.96 364.00
  Q 991.00 365.33 991.00 367.00"
/>
<path stroke="#a58826" vector-effect="non-scaling-stroke" d="
  M 991.00 367.00
  Q 989.51 369.81 989.00 372.96"
/>
<path stroke="#a58826" vector-effect="non-scaling-stroke" d="
  M 734.00 477.46
  Q 733.58 474.17 732.04 471.25"
/>
<path stroke="#a58826" vector-effect="non-scaling-stroke" d="
  M 708.00 397.46
  L 707.04 394.25"
/>
<path stroke="#a58826" vector-effect="non-scaling-stroke" d="
  M 681.25 314.96
  Q 681.09 312.96 680.04 311.25"
/>
<path stroke="#a58826" vector-effect="non-scaling-stroke" d="
  M 654.71 234.00
  Q 654.91 232.07 653.79 230.50"
/>
<path stroke="#869426" vector-effect="non-scaling-stroke" d="
  M 526.25 602.71
  Q 524.61 600.79 522.29 599.75"
/>
<path stroke="#869426" vector-effect="non-scaling-stroke" d="
  M 284.71 425.25
  Q 283.45 423.40 281.29 422.75"
/>
<path stroke="#869426" vector-effect="non-scaling-stroke" d="
  M 281.00 422.46
  Q 280.22 421.20 278.79 420.75"
/>
<path stroke="#869426" vector-effect="non-scaling-stroke" d="
  M 277.25 419.71
  Q 276.40 418.20 274.75 417.79"
/>
<path stroke="#ff3d0c" vector-effect="non-scaling-stroke" d="
  M 1549.96 815.00
  C 1547.62 817.12 1527.30 801.69 1523.64 798.66
  C 1512.11 789.09 1503.61 781.94 1491.75 775.04"
/>
<path stroke="#ff480c" vector-effect="non-scaling-stroke" d="
  M 1491.75 775.04
  C 1467.94 761.58 1444.50 751.49 1416.78 749.68
  C 1415.33 749.58 1413.42 750.28 1411.73 750.05
  Q 1410.84 749.93 1411.62 749.47
  C 1421.22 743.86 1432.43 741.60 1443.50 740.46"
/>
<path stroke="#ff3d0c" vector-effect="non-scaling-stroke" d="
  M 1443.50 740.46
  Q 1470.86 737.87 1501.51 740.48
  C 1507.52 740.99 1513.19 734.25 1507.97 729.26
  C 1450.68 674.45 1361.36 658.63 1286.49 680.75
  Q 1284.47 681.35 1278.47 682.91
  C 1273.55 684.19 1268.31 686.74 1262.95 688.14
  Q 1262.46 688.26 1262.14 688.65
  Q 1261.28 689.71 1260.04 690.09
  C 1257.52 690.86 1252.37 692.43 1250.75 694.46"
/>
<path stroke="#a53432" vector-effect="non-scaling-stroke" d="
  M 1250.75 694.46
  Q 1171.61 707.39 1130.75 713.75
  Q 1130.30 713.82 1129.79 713.25"
/>
<path stroke="#ff6900" vector-effect="non-scaling-stroke" d="
  M 1443.50 740.46
  L 1443.37 739.66
  Q 1443.32 739.35 1443.64 739.35
  L 1449.65 739.37
  A 0.47 0.47 0.0 0 0 1450.02 738.61
  Q 1447.42 735.32 1443.80 733.28
  Q 1443.31 733.00 1443.01 732.53
  Q 1441.15 729.65 1437.86 728.89
  Q 1437.38 728.78 1437.31 728.29
  Q 1437.17 727.28 1436.19 727.13
  Q 1435.65 727.05 1435.25 726.68
  C 1430.34 722.18 1424.94 719.63 1419.49 715.80
  C 1416.01 713.34 1412.04 711.83 1408.54 709.36
  C 1405.49 707.20 1402.23 706.48 1399.26 703.71
  Q 1398.89 703.38 1398.40 703.31
  C 1394.93 702.86 1391.65 699.64 1387.01 698.14
  Q 1386.49 697.97 1386.16 697.54
  Q 1384.75 695.73 1382.43 696.00
  Q 1381.91 696.06 1381.47 695.78
  Q 1375.87 692.24 1369.45 690.69
  Q 1368.92 690.56 1368.63 690.10
  Q 1367.57 688.39 1365.75 689.54"
/>
<path stroke="#a55526" vector-effect="non-scaling-stroke" d="
  M 1365.75 689.54
  C 1358.82 680.27 1347.00 679.13 1336.27 680.85
  Q 1293.52 687.73 1250.75 694.46"
/>
<path stroke="#a55f26" vector-effect="non-scaling-stroke" d="
  M 1365.75 689.54
  C 1369.45 695.11 1371.15 702.43 1369.04 708.87
  C 1366.98 715.15 1359.83 719.66 1353.36 722.52
  Q 1340.43 728.23 1327.50 733.96"
/>
<path stroke="#a56926" vector-effect="non-scaling-stroke" d="
  M 1327.50 733.96
  L 1266.95 760.44"
/>
<path stroke="#a5a175" vector-effect="non-scaling-stroke" d="
  M 1266.95 760.44
  Q 1242.90 770.37 1219.29 781.28"
/>
<path stroke="#a5915d" vector-effect="non-scaling-stroke" d="
  M 1219.29 781.28
  Q 1190.62 793.18 1162.46 806.00"
/>
<path stroke="#a56926" vector-effect="non-scaling-stroke" d="
  M 1162.46 806.00
  L 1152.55 810.22"
/>
<path stroke="#ff6900" vector-effect="non-scaling-stroke" d="
  M 1491.75 775.04
  L 1490.10 775.10
  Q 1489.53 775.12 1489.74 775.65
  C 1491.75 780.74 1495.61 785.72 1498.40 790.47
  C 1499.87 792.97 1500.74 796.06 1502.06 798.81
  Q 1503.78 802.36 1504.53 805.13
  Q 1505.65 809.21 1506.91 813.24
  C 1508.30 817.67 1508.39 822.28 1509.17 826.89
  C 1509.67 829.89 1509.79 834.73 1511.15 839.07
  C 1511.90 841.47 1510.81 844.56 1510.79 846.74
  C 1510.77 851.91 1511.45 856.97 1510.15 862.09
  C 1508.19 869.87 1509.87 876.99 1504.39 883.36
  Q 1504.06 883.74 1504.00 884.25
  C 1502.88 893.89 1497.03 894.49 1492.47 901.91
  Q 1488.66 908.08 1483.36 914.88
  Q 1475.53 924.91 1467.25 932.64"
/>
<path stroke="#ff6900" vector-effect="non-scaling-stroke" d="
  M 1399.96 958.00
  Q 1398.65 958.25 1398.54 957.00
  Q 1398.25 953.81 1398.25 957.00
  L 1398.25 957.51
  Q 1398.25 958.44 1397.52 957.87
  Q 1396.50 957.08 1395.15 957.26
  Q 1394.67 957.33 1394.28 957.62
  C 1392.51 958.97 1390.78 959.09 1389.03 960.41
  C 1385.41 963.16 1381.19 964.39 1377.44 966.70
  C 1372.05 970.03 1365.81 971.88 1360.40 975.17
  C 1357.55 976.91 1354.59 977.03 1351.78 978.85
  C 1346.03 982.58 1338.92 982.65 1333.02 985.89
  C 1327.02 989.17 1319.20 991.00 1313.26 992.52
  C 1311.48 992.98 1310.21 994.11 1308.73 994.52
  Q 1302.40 996.28 1296.01 997.84
  C 1293.26 998.51 1290.36 1000.55 1286.39 999.93
  Q 1285.81 999.84 1285.32 1000.18
  Q 1281.62 1002.73 1277.09 1001.90
  Q 1276.58 1001.81 1276.15 1002.09
  C 1270.64 1005.68 1263.67 1003.60 1259.85 1006.84
  Q 1259.51 1007.13 1259.83 1007.45
  L 1260.46 1008.09
  Q 1261.53 1009.16 1260.14 1008.58
  L 1258.42 1007.86
  Q 1258.11 1007.73 1258.27 1008.03
  L 1258.45 1008.38
  Q 1258.69 1008.82 1258.22 1009.00
  Q 1257.99 1009.08 1257.75 1009.04"
/>
<path stroke="#ff7d00" vector-effect="non-scaling-stroke" d="
  M 1204.50 976.79
  Q 1206.27 975.97 1207.53 977.52
  Q 1207.84 977.90 1207.83 977.42
  Q 1207.83 977.10 1207.51 976.87
  Q 1206.97 976.49 1207.47 976.06
  C 1209.52 974.30 1212.35 975.19 1214.84 973.47
  Q 1215.26 973.18 1215.77 973.16
  C 1223.10 972.74 1230.76 971.04 1237.74 970.10
  C 1240.64 969.70 1243.63 968.62 1246.70 968.14
  C 1250.35 967.57 1253.26 965.87 1256.98 965.23
  C 1263.06 964.20 1268.92 962.36 1275.01 961.25
  Q 1275.93 961.08 1278.36 959.24
  Q 1278.77 958.92 1279.29 958.98
  C 1282.65 959.36 1284.71 957.41 1287.14 956.69
  C 1290.94 955.58 1295.14 954.82 1298.34 952.24
  Q 1298.74 951.92 1299.25 951.98
  Q 1301.67 952.28 1303.33 950.66
  Q 1303.72 950.28 1304.24 950.12
  C 1315.05 946.86 1328.46 939.28 1336.99 934.28
  C 1338.05 933.66 1339.32 933.50 1340.37 932.56
  C 1342.78 930.42 1345.56 929.14 1348.32 927.51
  C 1351.36 925.72 1353.95 922.55 1358.02 921.09
  Q 1358.53 920.90 1358.85 920.47
  Q 1361.49 916.84 1365.51 914.91
  Q 1365.99 914.67 1366.30 914.23
  Q 1369.45 909.70 1375.18 906.40
  C 1377.35 905.15 1376.52 902.65 1378.87 901.56
  Q 1379.31 901.36 1379.63 900.98
  Q 1382.77 897.30 1385.98 893.67
  C 1387.90 891.49 1389.26 888.65 1391.11 886.22
  Q 1392.97 883.78 1394.42 881.00
  C 1395.29 879.34 1397.96 876.06 1398.14 874.50
  Q 1398.20 873.97 1398.72 873.85
  Q 1400.68 873.38 1400.00 871.29"
/>
<path stroke="#ffb33c" vector-effect="non-scaling-stroke" d="
  M 1400.00 871.29
  C 1424.53 868.12 1450.61 872.22 1473.78 880.48
  C 1476.28 881.37 1478.62 881.32 1479.45 878.48
  Q 1479.60 877.98 1479.33 877.53
  Q 1478.66 876.42 1477.29 874.72
  C 1459.05 852.09 1436.52 832.87 1410.04 821.22"
/>
<path stroke="#ff7d00" vector-effect="non-scaling-stroke" d="
  M 1410.04 821.22
  Q 1409.92 815.01 1407.17 809.45
  Q 1406.94 809.00 1406.55 808.69
  Q 1404.81 807.35 1405.00 805.04
  Q 1405.04 804.47 1404.66 804.05
  Q 1401.82 800.98 1400.75 796.92
  Q 1400.63 796.44 1400.26 796.12
  C 1397.25 793.48 1396.11 789.99 1393.74 787.21
  Q 1392.21 785.43 1390.84 783.52
  C 1389.52 781.69 1387.24 780.49 1386.53 777.54
  Q 1386.41 777.05 1385.99 776.76
  Q 1382.24 774.20 1379.68 770.34
  Q 1379.38 769.89 1378.89 769.68
  Q 1374.84 767.97 1372.70 764.19
  Q 1372.44 763.74 1371.95 763.56
  Q 1367.90 762.07 1365.31 758.65
  Q 1364.99 758.22 1364.45 758.17
  Q 1362.33 757.96 1361.35 756.10
  Q 1361.10 755.63 1360.66 755.34
  C 1359.11 754.31 1356.08 750.99 1354.45 751.02
  Q 1353.94 751.03 1353.58 750.66
  C 1351.91 749.00 1349.85 748.77 1348.21 747.61
  Q 1346.19 746.18 1344.28 744.62
  Q 1343.90 744.30 1343.42 744.19
  C 1341.43 743.73 1340.24 742.19 1338.57 741.53
  Q 1336.72 740.80 1334.89 739.99
  C 1332.87 739.09 1331.24 737.11 1328.32 736.91
  Q 1327.70 736.87 1327.47 736.29
  Q 1327.26 735.77 1326.77 735.74
  Q 1325.83 735.67 1326.56 735.07
  Q 1327.13 734.61 1327.88 734.52
  Q 1328.56 734.44 1328.02 734.03
  Q 1327.80 733.86 1327.50 733.96"
/>
<path stroke="#ffaf37" vector-effect="non-scaling-stroke" d="
  M 1223.75 934.71
  Q 1199.65 929.99 1180.20 915.03
  C 1170.19 907.33 1159.66 896.12 1157.09 883.43
  C 1154.94 872.83 1153.19 861.72 1153.56 851.09
  Q 1154.38 827.92 1162.46 806.00"
/>
<path stroke="#ffbd3c" vector-effect="non-scaling-stroke" d="
  M 1410.04 821.22
  C 1378.79 808.07 1343.58 798.47 1309.88 808.28
  C 1301.74 810.66 1294.10 813.29 1285.75 814.71"
/>
<path stroke="#ffbf50" vector-effect="non-scaling-stroke" d="
  M 1285.75 814.71
  Q 1280.07 814.97 1276.91 811.84
  C 1265.37 800.40 1296.23 785.54 1303.54 783.09
  C 1306.00 782.26 1315.08 780.58 1314.47 777.20
  A 2.30 2.28 10.7 0 0 1313.40 775.64
  Q 1308.77 772.81 1303.86 770.73
  Q 1286.15 763.23 1266.95 760.44"
/>
<path stroke="#fff48c" vector-effect="non-scaling-stroke" d="
  M 1285.75 814.71
  L 1288.99 815.23
  A 1.54 1.53 -75.4 0 1 1290.18 817.27
  L 1287.78 823.83
  Q 1287.73 823.99 1287.90 824.00
  Q 1288.10 824.00 1288.31 823.99
  Q 1288.68 823.97 1288.50 824.30
  C 1287.99 825.24 1287.33 825.91 1286.89 826.84
  C 1281.46 838.24 1279.93 849.34 1282.08 861.82
  C 1282.83 866.22 1283.01 870.00 1284.44 874.26
  Q 1284.60 874.74 1284.52 875.24
  C 1284.17 877.54 1286.79 883.76 1287.88 885.58
  C 1289.69 888.58 1290.38 891.61 1292.31 894.46
  Q 1296.10 900.03 1299.93 905.57
  C 1300.78 906.81 1302.01 907.33 1303.09 908.42
  Q 1306.37 911.75 1309.13 915.81"
/>
<path stroke="#ffbf50" vector-effect="non-scaling-stroke" d="
  M 1309.13 915.81
  C 1283.12 933.17 1254.74 941.11 1223.75 934.71"
/>
<path stroke="#ffe687" vector-effect="non-scaling-stroke" d="
  M 1223.75 934.71
  Q 1223.44 931.62 1221.76 929.49
  C 1201.40 903.69 1188.95 870.64 1194.56 837.59
  Q 1199.83 806.62 1219.29 781.28"
/>
<path stroke="#ffbd3c" vector-effect="non-scaling-stroke" d="
  M 1400.00 871.29
  C 1376.72 873.92 1358.82 882.19 1339.86 895.27
  Q 1324.61 905.78 1309.13 915.81"
/>
</g>
<path fill="#ffc400" d="
  M 1043.96 206.00
  L 1043.00 208.96
  L 1041.71 212.50
  L 1041.00 214.96
  L 991.96 364.00
  Q 991.00 365.33 991.00 367.00
  Q 989.51 369.81 989.00 372.96
  L 932.73 544.02
  Q 932.56 544.55 932.02 544.41
  C 874.42 529.03 813.72 528.89 756.83 542.81
  Q 755.23 543.21 754.72 541.64
  L 734.00 477.46
  Q 733.58 474.17 732.04 471.25
  L 731.67 470.67
  Q 731.41 470.26 731.30 469.78
  Q 730.74 467.12 728.96 462.05
  Q 725.39 451.83 718.64 429.60
  C 718.31 428.48 717.32 427.45 717.10 426.01
  Q 716.93 424.87 716.79 424.45
  Q 712.24 410.99 708.00 397.46
  L 707.04 394.25
  L 681.25 314.96
  Q 681.09 312.96 680.04 311.25
  L 654.71 234.00
  Q 654.91 232.07 653.79 230.50
  L 632.68 165.83
  Q 632.27 164.58 633.54 164.24
  Q 706.93 144.46 781.79 138.75
  C 812.37 136.41 843.66 136.63 874.32 137.36
  C 887.42 137.67 900.54 138.83 913.67 139.99
  Q 985.28 146.29 1055.87 166.04
  Q 1057.18 166.40 1056.75 167.70
  L 1043.96 206.00
  Z"
/>
<path fill="#c1dd00" d="
  M 526.25 602.71
  Q 524.61 600.79 522.29 599.75
  L 517.13 596.40
  Q 516.71 596.13 516.39 595.75
  C 515.02 594.08 513.14 593.57 511.74 592.12
  Q 510.40 590.73 509.43 590.06
  Q 486.30 574.19 478.49 567.75
  Q 473.36 563.52 469.56 561.12
  C 467.02 559.52 465.43 557.65 463.10 556.01
  Q 453.65 549.32 444.15 542.70
  Q 443.86 542.49 443.72 542.15
  Q 443.64 541.94 443.45 541.80
  C 415.05 521.16 386.91 500.17 358.55 479.52
  Q 338.88 465.19 319.34 450.73
  Q 319.27 450.67 317.15 449.31
  C 315.68 448.37 314.64 446.85 313.28 445.93
  Q 298.68 436.01 284.71 425.25
  Q 283.45 423.40 281.29 422.75
  L 281.00 422.46
  Q 280.22 421.20 278.79 420.75
  L 277.25 419.71
  Q 276.40 418.20 274.75 417.79
  L 265.82 411.42
  Q 265.38 411.10 265.62 410.62
  Q 266.21 409.41 267.26 408.01
  C 354.88 292.05 477.31 210.82 616.15 169.36
  Q 616.46 169.27 616.56 169.58
  L 739.34 547.07
  Q 739.51 547.60 738.99 547.77
  Q 728.85 551.11 718.83 554.87
  C 668.44 573.75 623.43 606.49 590.53 649.17
  Q 590.14 649.69 589.61 649.30
  C 584.83 645.76 579.95 642.21 575.14 638.69
  Q 550.64 620.78 526.25 602.71
  Z"
/>
<path fill="#ff7300" d="
  M 966.25 492.06
  Q 966.24 491.66 966.28 491.51
  Q 989.10 422.05 1011.97 352.59
  Q 1011.98 352.56 1013.40 349.05
  C 1013.67 348.38 1014.52 344.25 1014.82 344.22
  Q 1015.04 344.19 1015.12 343.98
  C 1017.69 336.84 1020.04 328.24 1021.98 322.33
  Q 1046.18 248.45 1070.66 174.66
  C 1071.33 172.64 1070.83 170.62 1073.80 171.53
  C 1212.02 214.22 1333.98 296.85 1419.91 413.74
  A 0.55 0.54 54.2 0 1 1419.79 414.51
  L 1094.20 650.23
  A 0.62 0.61 -36.5 0 1 1093.35 650.11
  C 1056.42 602.13 1005.49 567.58 947.97 549.13
  A 0.68 0.67 18.2 0 1 947.53 548.27
  Q 956.20 522.07 964.99 495.71
  C 965.31 494.73 964.98 493.83 965.90 492.93
  Q 966.27 492.57 966.25 492.06
  Z"
/>
<path fill="#4b4b4b" d="
  M 1043.96 206.00
  Q 1044.31 207.79 1043.00 208.96
  L 1043.96 206.00
  Z"
/>
<path fill="#4b4b4b" d="
  M 1041.71 212.50
  Q 1042.35 214.00 1041.00 214.96
  L 1041.71 212.50
  Z"
/>
<path fill="#4b4b4b" d="
  M 653.79 230.50
  Q 654.91 232.07 654.71 234.00
  Q 653.79 232.40 653.79 230.50
  Z"
/>
<path fill="#4b4b4b" d="
  M 680.04 311.25
  Q 681.09 312.96 681.25 314.96
  Q 679.93 313.34 680.04 311.25
  Z"
/>
<path fill="#4b4b4b" d="
  M 991.96 364.00
  Q 992.23 365.77 991.00 367.00
  Q 991.00 365.33 991.96 364.00
  Z"
/>
<path fill="#4b4b4b" d="
  M 991.00 367.00
  Q 990.71 370.23 989.00 372.96
  Q 989.51 369.81 991.00 367.00
  Z"
/>
<path fill="#4b4b4b" d="
  M 707.04 394.25
  L 708.00 397.46
  Q 706.80 396.10 707.04 394.25
  Z"
/>
<path fill="#4b4b4b" d="
  M 274.75 417.79
  Q 276.40 418.20 277.25 419.71
  Q 275.47 419.39 274.75 417.79
  Z"
/>
<path fill="#4b4b4b" d="
  M 278.79 420.75
  Q 280.22 421.20 281.00 422.46
  Q 279.34 422.29 278.79 420.75
  Z"
/>
<path fill="#4b4b4b" d="
  M 281.29 422.75
  Q 283.45 423.40 284.71 425.25
  Q 282.52 424.65 281.29 422.75
  Z"
/>
<path fill="#21b600" d="
  M 255.98 426.76
  L 578.65 663.81
  A 0.95 0.95 0.0 0 1 578.88 665.09
  C 544.07 718.53 527.51 781.73 528.96 845.29
  A 0.70 0.69 89.6 0 1 528.27 846.00
  L 133.51 846.00
  Q 132.99 846.00 132.99 845.49
  C 131.26 697.21 169.36 550.47 253.48 427.19
  Q 254.51 425.68 255.98 426.76
  Z"
/>
<path fill="#ff1c18" d="
  M 1549.96 815.00
  C 1547.62 817.12 1527.30 801.69 1523.64 798.66
  C 1512.11 789.09 1503.61 781.94 1491.75 775.04
  C 1467.94 761.58 1444.50 751.49 1416.78 749.68
  C 1415.33 749.58 1413.42 750.28 1411.73 750.05
  Q 1410.84 749.93 1411.62 749.47
  C 1421.22 743.86 1432.43 741.60 1443.50 740.46
  Q 1470.86 737.87 1501.51 740.48
  C 1507.52 740.99 1513.19 734.25 1507.97 729.26
  C 1450.68 674.45 1361.36 658.63 1286.49 680.75
  Q 1284.47 681.35 1278.47 682.91
  C 1273.55 684.19 1268.31 686.74 1262.95 688.14
  Q 1262.46 688.26 1262.14 688.65
  Q 1261.28 689.71 1260.04 690.09
  C 1257.52 690.86 1252.37 692.43 1250.75 694.46
  Q 1171.61 707.39 1130.75 713.75
  Q 1130.30 713.82 1129.79 713.25
  Q 1119.40 688.80 1105.09 666.57
  A 0.93 0.92 55.8 0 1 1105.32 665.32
  L 1430.39 429.99
  Q 1431.13 429.45 1431.64 430.21
  C 1508.98 545.05 1545.71 677.53 1549.96 815.00
  Z"
/>
<path fill="#4b4b4b" d="
  M 732.04 471.25
  Q 733.58 474.17 734.00 477.46
  Q 732.42 474.55 732.04 471.25
  Z"
/>
<path fill="#4b4b4b" d="
  M 522.29 599.75
  Q 524.61 600.79 526.25 602.71
  Q 523.81 601.85 522.29 599.75
  Z"
/>
<path fill="#ff5e00" d="
  M 1443.50 740.46
  L 1443.37 739.66
  Q 1443.32 739.35 1443.64 739.35
  L 1449.65 739.37
  A 0.47 0.47 0.0 0 0 1450.02 738.61
  Q 1447.42 735.32 1443.80 733.28
  Q 1443.31 733.00 1443.01 732.53
  Q 1441.15 729.65 1437.86 728.89
  Q 1437.38 728.78 1437.31 728.29
  Q 1437.17 727.28 1436.19 727.13
  Q 1435.65 727.05 1435.25 726.68
  C 1430.34 722.18 1424.94 719.63 1419.49 715.80
  C 1416.01 713.34 1412.04 711.83 1408.54 709.36
  C 1405.49 707.20 1402.23 706.48 1399.26 703.71
  Q 1398.89 703.38 1398.40 703.31
  C 1394.93 702.86 1391.65 699.64 1387.01 698.14
  Q 1386.49 697.97 1386.16 697.54
  Q 1384.75 695.73 1382.43 696.00
  Q 1381.91 696.06 1381.47 695.78
  Q 1375.87 692.24 1369.45 690.69
  Q 1368.92 690.56 1368.63 690.10
  Q 1367.57 688.39 1365.75 689.54
  C 1358.82 680.27 1347.00 679.13 1336.27 680.85
  Q 1293.52 687.73 1250.75 694.46
  C 1252.37 692.43 1257.52 690.86 1260.04 690.09
  Q 1261.28 689.71 1262.14 688.65
  Q 1262.46 688.26 1262.95 688.14
  C 1268.31 686.74 1273.55 684.19 1278.47 682.91
  Q 1284.47 681.35 1286.49 680.75
  C 1361.36 658.63 1450.68 674.45 1507.97 729.26
  C 1513.19 734.25 1507.52 740.99 1501.51 740.48
  Q 1470.86 737.87 1443.50 740.46
  Z"
/>
<path fill="#4b4b4b" d="
  M 1365.75 689.54
  C 1369.45 695.11 1371.15 702.43 1369.04 708.87
  C 1366.98 715.15 1359.83 719.66 1353.36 722.52
  Q 1340.43 728.23 1327.50 733.96
  L 1266.95 760.44
  Q 1242.90 770.37 1219.29 781.28
  Q 1190.62 793.18 1162.46 806.00
  L 1152.55 810.22
  Q 946.75 899.55 895.28 922.24
  C 880.19 928.89 865.67 933.37 849.61 933.76
  Q 808.92 934.76 783.93 900.81
  Q 759.49 867.61 765.76 827.76
  C 767.97 813.72 775.87 797.36 786.23 787.39
  C 804.12 770.20 823.29 763.04 847.38 759.19
  Q 988.31 736.62 1129.22 713.99
  Q 1129.62 713.93 1129.74 713.54
  Q 1129.79 713.40 1129.79 713.25
  Q 1130.30 713.82 1130.75 713.75
  Q 1171.61 707.39 1250.75 694.46
  Q 1293.52 687.73 1336.27 680.85
  C 1347.00 679.13 1358.82 680.27 1365.75 689.54
  Z
  M 871.1429 876.8560
  A 35.98 35.60 57.8 0 0 882.0945 827.4396
  A 35.98 35.60 57.8 0 0 832.7971 815.9640
  A 35.98 35.60 57.8 0 0 821.8455 865.3804
  A 35.98 35.60 57.8 0 0 871.1429 876.8560
  Z"
/>
<path fill="#ff7300" d="
  M 1443.50 740.46
  C 1432.43 741.60 1421.22 743.86 1411.62 749.47
  Q 1410.84 749.93 1411.73 750.05
  C 1413.42 750.28 1415.33 749.58 1416.78 749.68
  C 1444.50 751.49 1467.94 761.58 1491.75 775.04
  L 1490.10 775.10
  Q 1489.53 775.12 1489.74 775.65
  C 1491.75 780.74 1495.61 785.72 1498.40 790.47
  C 1499.87 792.97 1500.74 796.06 1502.06 798.81
  Q 1503.78 802.36 1504.53 805.13
  Q 1505.65 809.21 1506.91 813.24
  C 1508.30 817.67 1508.39 822.28 1509.17 826.89
  C 1509.67 829.89 1509.79 834.73 1511.15 839.07
  C 1511.90 841.47 1510.81 844.56 1510.79 846.74
  C 1510.77 851.91 1511.45 856.97 1510.15 862.09
  C 1508.19 869.87 1509.87 876.99 1504.39 883.36
  Q 1504.06 883.74 1504.00 884.25
  C 1502.88 893.89 1497.03 894.49 1492.47 901.91
  Q 1488.66 908.08 1483.36 914.88
  Q 1475.53 924.91 1467.25 932.64
  Q 1447.72 928.27 1430.76 927.94
  C 1412.16 927.57 1394.00 935.50 1399.96 958.00
  Q 1398.65 958.25 1398.54 957.00
  Q 1398.25 953.81 1398.25 957.00
  L 1398.25 957.51
  Q 1398.25 958.44 1397.52 957.87
  Q 1396.50 957.08 1395.15 957.26
  Q 1394.67 957.33 1394.28 957.62
  C 1392.51 958.97 1390.78 959.09 1389.03 960.41
  C 1385.41 963.16 1381.19 964.39 1377.44 966.70
  C 1372.05 970.03 1365.81 971.88 1360.40 975.17
  C 1357.55 976.91 1354.59 977.03 1351.78 978.85
  C 1346.03 982.58 1338.92 982.65 1333.02 985.89
  C 1327.02 989.17 1319.20 991.00 1313.26 992.52
  C 1311.48 992.98 1310.21 994.11 1308.73 994.52
  Q 1302.40 996.28 1296.01 997.84
  C 1293.26 998.51 1290.36 1000.55 1286.39 999.93
  Q 1285.81 999.84 1285.32 1000.18
  Q 1281.62 1002.73 1277.09 1001.90
  Q 1276.58 1001.81 1276.15 1002.09
  C 1270.64 1005.68 1263.67 1003.60 1259.85 1006.84
  Q 1259.51 1007.13 1259.83 1007.45
  L 1260.46 1008.09
  Q 1261.53 1009.16 1260.14 1008.58
  L 1258.42 1007.86
  Q 1258.11 1007.73 1258.27 1008.03
  L 1258.45 1008.38
  Q 1258.69 1008.82 1258.22 1009.00
  Q 1257.99 1009.08 1257.75 1009.04
  Q 1228.12 997.86 1204.50 976.79
  Q 1206.27 975.97 1207.53 977.52
  Q 1207.84 977.90 1207.83 977.42
  Q 1207.83 977.10 1207.51 976.87
  Q 1206.97 976.49 1207.47 976.06
  C 1209.52 974.30 1212.35 975.19 1214.84 973.47
  Q 1215.26 973.18 1215.77 973.16
  C 1223.10 972.74 1230.76 971.04 1237.74 970.10
  C 1240.64 969.70 1243.63 968.62 1246.70 968.14
  C 1250.35 967.57 1253.26 965.87 1256.98 965.23
  C 1263.06 964.20 1268.92 962.36 1275.01 961.25
  Q 1275.93 961.08 1278.36 959.24
  Q 1278.77 958.92 1279.29 958.98
  C 1282.65 959.36 1284.71 957.41 1287.14 956.69
  C 1290.94 955.58 1295.14 954.82 1298.34 952.24
  Q 1298.74 951.92 1299.25 951.98
  Q 1301.67 952.28 1303.33 950.66
  Q 1303.72 950.28 1304.24 950.12
  C 1315.05 946.86 1328.46 939.28 1336.99 934.28
  C 1338.05 933.66 1339.32 933.50 1340.37 932.56
  C 1342.78 930.42 1345.56 929.14 1348.32 927.51
  C 1351.36 925.72 1353.95 922.55 1358.02 921.09
  Q 1358.53 920.90 1358.85 920.47
  Q 1361.49 916.84 1365.51 914.91
  Q 1365.99 914.67 1366.30 914.23
  Q 1369.45 909.70 1375.18 906.40
  C 1377.35 905.15 1376.52 902.65 1378.87 901.56
  Q 1379.31 901.36 1379.63 900.98
  Q 1382.77 897.30 1385.98 893.67
  C 1387.90 891.49 1389.26 888.65 1391.11 886.22
  Q 1392.97 883.78 1394.42 881.00
  C 1395.29 879.34 1397.96 876.06 1398.14 874.50
  Q 1398.20 873.97 1398.72 873.85
  Q 1400.68 873.38 1400.00 871.29
  C 1424.53 868.12 1450.61 872.22 1473.78 880.48
  C 1476.28 881.37 1478.62 881.32 1479.45 878.48
  Q 1479.60 877.98 1479.33 877.53
  Q 1478.66 876.42 1477.29 874.72
  C 1459.05 852.09 1436.52 832.87 1410.04 821.22
  Q 1409.92 815.01 1407.17 809.45
  Q 1406.94 809.00 1406.55 808.69
  Q 1404.81 807.35 1405.00 805.04
  Q 1405.04 804.47 1404.66 804.05
  Q 1401.82 800.98 1400.75 796.92
  Q 1400.63 796.44 1400.26 796.12
  C 1397.25 793.48 1396.11 789.99 1393.74 787.21
  Q 1392.21 785.43 1390.84 783.52
  C 1389.52 781.69 1387.24 780.49 1386.53 777.54
  Q 1386.41 777.05 1385.99 776.76
  Q 1382.24 774.20 1379.68 770.34
  Q 1379.38 769.89 1378.89 769.68
  Q 1374.84 767.97 1372.70 764.19
  Q 1372.44 763.74 1371.95 763.56
  Q 1367.90 762.07 1365.31 758.65
  Q 1364.99 758.22 1364.45 758.17
  Q 1362.33 757.96 1361.35 756.10
  Q 1361.10 755.63 1360.66 755.34
  C 1359.11 754.31 1356.08 750.99 1354.45 751.02
  Q 1353.94 751.03 1353.58 750.66
  C 1351.91 749.00 1349.85 748.77 1348.21 747.61
  Q 1346.19 746.18 1344.28 744.62
  Q 1343.90 744.30 1343.42 744.19
  C 1341.43 743.73 1340.24 742.19 1338.57 741.53
  Q 1336.72 740.80 1334.89 739.99
  C 1332.87 739.09 1331.24 737.11 1328.32 736.91
  Q 1327.70 736.87 1327.47 736.29
  Q 1327.26 735.77 1326.77 735.74
  Q 1325.83 735.67 1326.56 735.07
  Q 1327.13 734.61 1327.88 734.52
  Q 1328.56 734.44 1328.02 734.03
  Q 1327.80 733.86 1327.50 733.96
  Q 1340.43 728.23 1353.36 722.52
  C 1359.83 719.66 1366.98 715.15 1369.04 708.87
  C 1371.15 702.43 1369.45 695.11 1365.75 689.54
  Q 1367.57 688.39 1368.63 690.10
  Q 1368.92 690.56 1369.45 690.69
  Q 1375.87 692.24 1381.47 695.78
  Q 1381.91 696.06 1382.43 696.00
  Q 1384.75 695.73 1386.16 697.54
  Q 1386.49 697.97 1387.01 698.14
  C 1391.65 699.64 1394.93 702.86 1398.40 703.31
  Q 1398.89 703.38 1399.26 703.71
  C 1402.23 706.48 1405.49 707.20 1408.54 709.36
  C 1412.04 711.83 1416.01 713.34 1419.49 715.80
  C 1424.94 719.63 1430.34 722.18 1435.25 726.68
  Q 1435.65 727.05 1436.19 727.13
  Q 1437.17 727.28 1437.31 728.29
  Q 1437.38 728.78 1437.86 728.89
  Q 1441.15 729.65 1443.01 732.53
  Q 1443.31 733.00 1443.80 733.28
  Q 1447.42 735.32 1450.02 738.61
  A 0.47 0.47 0.0 0 1 1449.65 739.37
  L 1443.64 739.35
  Q 1443.32 739.35 1443.37 739.66
  L 1443.50 740.46
  Z"
/>
<path fill="#ff8700" d="
  M 1327.50 733.96
  Q 1327.80 733.86 1328.02 734.03
  Q 1328.56 734.44 1327.88 734.52
  Q 1327.13 734.61 1326.56 735.07
  Q 1325.83 735.67 1326.77 735.74
  Q 1327.26 735.77 1327.47 736.29
  Q 1327.70 736.87 1328.32 736.91
  C 1331.24 737.11 1332.87 739.09 1334.89 739.99
  Q 1336.72 740.80 1338.57 741.53
  C 1340.24 742.19 1341.43 743.73 1343.42 744.19
  Q 1343.90 744.30 1344.28 744.62
  Q 1346.19 746.18 1348.21 747.61
  C 1349.85 748.77 1351.91 749.00 1353.58 750.66
  Q 1353.94 751.03 1354.45 751.02
  C 1356.08 750.99 1359.11 754.31 1360.66 755.34
  Q 1361.10 755.63 1361.35 756.10
  Q 1362.33 757.96 1364.45 758.17
  Q 1364.99 758.22 1365.31 758.65
  Q 1367.90 762.07 1371.95 763.56
  Q 1372.44 763.74 1372.70 764.19
  Q 1374.84 767.97 1378.89 769.68
  Q 1379.38 769.89 1379.68 770.34
  Q 1382.24 774.20 1385.99 776.76
  Q 1386.41 777.05 1386.53 777.54
  C 1387.24 780.49 1389.52 781.69 1390.84 783.52
  Q 1392.21 785.43 1393.74 787.21
  C 1396.11 789.99 1397.25 793.48 1400.26 796.12
  Q 1400.63 796.44 1400.75 796.92
  Q 1401.82 800.98 1404.66 804.05
  Q 1405.04 804.47 1405.00 805.04
  Q 1404.81 807.35 1406.55 808.69
  Q 1406.94 809.00 1407.17 809.45
  Q 1409.92 815.01 1410.04 821.22
  C 1378.79 808.07 1343.58 798.47 1309.88 808.28
  C 1301.74 810.66 1294.10 813.29 1285.75 814.71
  Q 1280.07 814.97 1276.91 811.84
  C 1265.37 800.40 1296.23 785.54 1303.54 783.09
  C 1306.00 782.26 1315.08 780.58 1314.47 777.20
  A 2.30 2.28 10.7 0 0 1313.40 775.64
  Q 1308.77 772.81 1303.86 770.73
  Q 1286.15 763.23 1266.95 760.44
  L 1327.50 733.96
  Z"
/>
<path fill="#fff69f" d="
  M 1266.95 760.44
  Q 1286.15 763.23 1303.86 770.73
  Q 1308.77 772.81 1313.40 775.64
  A 2.30 2.28 10.7 0 1 1314.47 777.20
  C 1315.08 780.58 1306.00 782.26 1303.54 783.09
  C 1296.23 785.54 1265.37 800.40 1276.91 811.84
  Q 1280.07 814.97 1285.75 814.71
  L 1288.99 815.23
  A 1.54 1.53 -75.4 0 1 1290.18 817.27
  L 1287.78 823.83
  Q 1287.73 823.99 1287.90 824.00
  Q 1288.10 824.00 1288.31 823.99
  Q 1288.68 823.97 1288.50 824.30
  C 1287.99 825.24 1287.33 825.91 1286.89 826.84
  C 1281.46 838.24 1279.93 849.34 1282.08 861.82
  C 1282.83 866.22 1283.01 870.00 1284.44 874.26
  Q 1284.60 874.74 1284.52 875.24
  C 1284.17 877.54 1286.79 883.76 1287.88 885.58
  C 1289.69 888.58 1290.38 891.61 1292.31 894.46
  Q 1296.10 900.03 1299.93 905.57
  C 1300.78 906.81 1302.01 907.33 1303.09 908.42
  Q 1306.37 911.75 1309.13 915.81
  C 1283.12 933.17 1254.74 941.11 1223.75 934.71
  Q 1223.44 931.62 1221.76 929.49
  C 1201.40 903.69 1188.95 870.64 1194.56 837.59
  Q 1199.83 806.62 1219.29 781.28
  Q 1242.90 770.37 1266.95 760.44
  Z"
/>
<path fill="#ff5e00" d="
  M 1491.75 775.04
  C 1503.61 781.94 1512.11 789.09 1523.64 798.66
  C 1527.30 801.69 1547.62 817.12 1549.96 815.00
  Q 1550.07 815.09 1550.15 815.28
  Q 1550.26 815.52 1550.51 815.63
  C 1583.20 829.87 1617.64 823.09 1644.28 800.02
  Q 1645.90 798.62 1649.84 798.20
  C 1658.48 797.27 1659.25 803.10 1658.71 810.07
  C 1657.04 831.76 1652.10 853.49 1641.44 872.63
  C 1607.97 932.74 1528.45 945.59 1467.25 932.64
  Q 1475.53 924.91 1483.36 914.88
  Q 1488.66 908.08 1492.47 901.91
  C 1497.03 894.49 1502.88 893.89 1504.00 884.25
  Q 1504.06 883.74 1504.39 883.36
  C 1509.87 876.99 1508.19 869.87 1510.15 862.09
  C 1511.45 856.97 1510.77 851.91 1510.79 846.74
  C 1510.81 844.56 1511.90 841.47 1511.15 839.07
  C 1509.79 834.73 1509.67 829.89 1509.17 826.89
  C 1508.39 822.28 1508.30 817.67 1506.91 813.24
  Q 1505.65 809.21 1504.53 805.13
  Q 1503.78 802.36 1502.06 798.81
  C 1500.74 796.06 1499.87 792.97 1498.40 790.47
  C 1495.61 785.72 1491.75 780.74 1489.74 775.65
  Q 1489.53 775.12 1490.10 775.10
  L 1491.75 775.04
  Z"
/>
<path fill="#ffd66e" d="
  M 1219.29 781.28
  Q 1199.83 806.62 1194.56 837.59
  C 1188.95 870.64 1201.40 903.69 1221.76 929.49
  Q 1223.44 931.62 1223.75 934.71
  Q 1199.65 929.99 1180.20 915.03
  C 1170.19 907.33 1159.66 896.12 1157.09 883.43
  C 1154.94 872.83 1153.19 861.72 1153.56 851.09
  Q 1154.38 827.92 1162.46 806.00
  Q 1190.62 793.18 1219.29 781.28
  Z"
/>
<path fill="#fff278" d="
  M 1410.04 821.22
  C 1436.52 832.87 1459.05 852.09 1477.29 874.72
  Q 1478.66 876.42 1479.33 877.53
  Q 1479.60 877.98 1479.45 878.48
  C 1478.62 881.32 1476.28 881.37 1473.78 880.48
  C 1450.61 872.22 1424.53 868.12 1400.00 871.29
  C 1376.72 873.92 1358.82 882.19 1339.86 895.27
  Q 1324.61 905.78 1309.13 915.81
  Q 1306.37 911.75 1303.09 908.42
  C 1302.01 907.33 1300.78 906.81 1299.93 905.57
  Q 1296.10 900.03 1292.31 894.46
  C 1290.38 891.61 1289.69 888.58 1287.88 885.58
  C 1286.79 883.76 1284.17 877.54 1284.52 875.24
  Q 1284.60 874.74 1284.44 874.26
  C 1283.01 870.00 1282.83 866.22 1282.08 861.82
  C 1279.93 849.34 1281.46 838.24 1286.89 826.84
  C 1287.33 825.91 1287.99 825.24 1288.50 824.30
  Q 1288.68 823.97 1288.31 823.99
  Q 1288.10 824.00 1287.90 824.00
  Q 1287.73 823.99 1287.78 823.83
  L 1290.18 817.27
  A 1.54 1.53 -75.4 0 0 1288.99 815.23
  L 1285.75 814.71
  C 1294.10 813.29 1301.74 810.66 1309.88 808.28
  C 1343.58 798.47 1378.79 808.07 1410.04 821.22
  Z"
/>
<path fill="#ff8700" d="
  M 1162.46 806.00
  Q 1154.38 827.92 1153.56 851.09
  C 1153.19 861.72 1154.94 872.83 1157.09 883.43
  C 1159.66 896.12 1170.19 907.33 1180.20 915.03
  Q 1199.65 929.99 1223.75 934.71
  C 1254.74 941.11 1283.12 933.17 1309.13 915.81
  Q 1324.61 905.78 1339.86 895.27
  C 1358.82 882.19 1376.72 873.92 1400.00 871.29
  Q 1400.68 873.38 1398.72 873.85
  Q 1398.20 873.97 1398.14 874.50
  C 1397.96 876.06 1395.29 879.34 1394.42 881.00
  Q 1392.97 883.78 1391.11 886.22
  C 1389.26 888.65 1387.90 891.49 1385.98 893.67
  Q 1382.77 897.30 1379.63 900.98
  Q 1379.31 901.36 1378.87 901.56
  C 1376.52 902.65 1377.35 905.15 1375.18 906.40
  Q 1369.45 909.70 1366.30 914.23
  Q 1365.99 914.67 1365.51 914.91
  Q 1361.49 916.84 1358.85 920.47
  Q 1358.53 920.90 1358.02 921.09
  C 1353.95 922.55 1351.36 925.72 1348.32 927.51
  C 1345.56 929.14 1342.78 930.42 1340.37 932.56
  C 1339.32 933.50 1338.05 933.66 1336.99 934.28
  C 1328.46 939.28 1315.05 946.86 1304.24 950.12
  Q 1303.72 950.28 1303.33 950.66
  Q 1301.67 952.28 1299.25 951.98
  Q 1298.74 951.92 1298.34 952.24
  C 1295.14 954.82 1290.94 955.58 1287.14 956.69
  C 1284.71 957.41 1282.65 959.36 1279.29 958.98
  Q 1278.77 958.92 1278.36 959.24
  Q 1275.93 961.08 1275.01 961.25
  C 1268.92 962.36 1263.06 964.20 1256.98 965.23
  C 1253.26 965.87 1250.35 967.57 1246.70 968.14
  C 1243.63 968.62 1240.64 969.70 1237.74 970.10
  C 1230.76 971.04 1223.10 972.74 1215.77 973.16
  Q 1215.26 973.18 1214.84 973.47
  C 1212.35 975.19 1209.52 974.30 1207.47 976.06
  Q 1206.97 976.49 1207.51 976.87
  Q 1207.83 977.10 1207.83 977.42
  Q 1207.84 977.90 1207.53 977.52
  Q 1206.27 975.97 1204.50 976.79
  C 1168.64 945.62 1145.96 900.08 1147.06 852.33
  Q 1147.51 833.11 1152.55 810.22
  L 1162.46 806.00
  Z"
/>
<path fill="#ff5e00" d="
  M 1399.96 958.00
  C 1404.23 968.97 1415.06 974.90 1425.51 978.24
  C 1431.14 980.04 1431.85 986.46 1427.18 989.93
  Q 1390.90 1016.94 1345.55 1020.21
  C 1315.88 1022.35 1285.61 1019.74 1257.75 1009.04
  Q 1257.99 1009.08 1258.22 1009.00
  Q 1258.69 1008.82 1258.45 1008.38
  L 1258.27 1008.03
  Q 1258.11 1007.73 1258.42 1007.86
  L 1260.14 1008.58
  Q 1261.53 1009.16 1260.46 1008.09
  L 1259.83 1007.45
  Q 1259.51 1007.13 1259.85 1006.84
  C 1263.67 1003.60 1270.64 1005.68 1276.15 1002.09
  Q 1276.58 1001.81 1277.09 1001.90
  Q 1281.62 1002.73 1285.32 1000.18
  Q 1285.81 999.84 1286.39 999.93
  C 1290.36 1000.55 1293.26 998.51 1296.01 997.84
  Q 1302.40 996.28 1308.73 994.52
  C 1310.21 994.11 1311.48 992.98 1313.26 992.52
  C 1319.20 991.00 1327.02 989.17 1333.02 985.89
  C 1338.92 982.65 1346.03 982.58 1351.78 978.85
  C 1354.59 977.03 1357.55 976.91 1360.40 975.17
  C 1365.81 971.88 1372.05 970.03 1377.44 966.70
  C 1381.19 964.39 1385.41 963.16 1389.03 960.41
  C 1390.78 959.09 1392.51 958.97 1394.28 957.62
  Q 1394.67 957.33 1395.15 957.26
  Q 1396.50 957.08 1397.52 957.87
  Q 1398.25 958.44 1398.25 957.51
  L 1398.25 957.00
  Q 1398.25 953.81 1398.54 957.00
  Q 1398.65 958.25 1399.96 958.00
  Z"
/>
</svg>
