<?xml version="1.0" encoding="UTF-8" standalone="no"?>
<!DOCTYPE svg PUBLIC "-//W3C//DTD SVG 1.1//EN" "http://www.w3.org/Graphics/SVG/1.1/DTD/svg11.dtd">
<svg xmlns="http://www.w3.org/2000/svg" version="1.1" viewBox="0.00 0.00 1693.00 1046.00">
<g stroke-width="2.00" fill="none" stroke-linecap="butt">
<path stroke="#a58826" vector-effect="non-scaling-stroke" d="
  M 1043.96 206.00
  L 1043.00 208.96"
/>
<path stroke="#a58826" vector-effect="non-scaling-stroke" d="
  M 1041.71 212.50
  L 1041.00 214.96"
/>
<path stroke="#a58826" vector-effect="non-scaling-stroke" d="
  M 991.96 364.00
  Q 991.00 365.33 991.00 367.00"
/>
<path stroke="#a58826" vector-effect="non-scaling-stroke" d="
  M 991.00 367.00
  Q 989.51 369.81 989.00 372.96"
/>
<path stroke="#a58826" vector-effect="non-scaling-stroke" d="
  M 734.00 477.46
  Q 733.58 474.17 732.04 471.25"
/>
<path stroke="#a58826" vector-effect="non-scaling-stroke" d="
  M 708.00 397.46
  L 707.04 394.25"
/>
<path stroke="#a58826" vector-effect="non-scaling-stroke" d="
  M 681.25 314.96
  Q 681.09 312.96 680.04 311.25"
/>
<path stroke="#a58826" vector-effect="non-scaling-stroke" d="
  M 654.71 234.00
  Q 654.91 232.07 653.79 230.50"
/>
<path stroke="#869426" vector-effect="non-scaling-stroke" d="
  M 526.25 602.71
  Q 524.61 600.79 522.29 599.75"
/>
<path stroke="#869426" vector-effect="non-scaling-stroke" d="
  M 284.71 425.25
  Q 283.45 423.40 281.29 422.75"
/>
<path stroke="#869426" vector-effect="non-scaling-stroke" d="
  M 281.00 422.46
  Q 280.22 421.20 278.79 420.75"
/>
<path stroke="#869426" vector-effect="non-scaling-stroke" d="
  M 277.25 419.71
  Q 276.40 418.20 274.75 417.79"
/>
<path stroke="#a55f26" vector-effect="non-scaling-stroke" d="
  M 1068.46 622.00
  Q 1068.46 621.90 1068.44 621.84
  Q 1068.40 621.67 1068.44 621.59
  Q 1117.31 529.14 1166.10 436.65
  C 1171.08 427.21 1173.41 417.24 1165.43 409.16
  Q 1156.81 400.42 1144.70 403.00
  C 1139.57 404.10 1132.44 408.29 1129.04 412.04
  Q 1061.40 486.57 993.73 561.05
  C 992.11 562.83 991.40 564.55 988.75 565.29"
/>
</g>
<path fill="#ffc400" d="
  M 1043.96 206.00
  L 1043.00 208.96
  L 1041.71 212.50
  L 1041.00 214.96
  L 991.96 364.00
  Q 991.00 365.33 991.00 367.00
  Q 989.51 369.81 989.00 372.96
  L 932.73 544.02
  Q 932.56 544.55 932.02 544.41
  C 874.42 529.03 813.72 528.89 756.83 542.81
  Q 755.23 543.21 754.72 541.64
  L 734.00 477.46
  Q 733.58 474.17 732.04 471.25
  L 731.67 470.67
  Q 731.41 470.26 731.30 469.78
  Q 730.74 467.12 728.96 462.05
  Q 725.39 451.83 718.64 429.60
  C 718.31 428.48 717.32 427.45 717.10 426.01
  Q 716.93 424.87 716.79 424.45
  Q 712.24 410.99 708.00 397.46
  L 707.04 394.25
  L 681.25 314.96
  Q 681.09 312.96 680.04 311.25
  L 654.71 234.00
  Q 654.91 232.07 653.79 230.50
  L 632.68 165.83
  Q 632.27 164.58 633.54 164.24
  Q 706.93 144.46 781.79 138.75
  C 812.37 136.41 843.66 136.63 874.32 137.36
  C 887.42 137.67 900.54 138.83 913.67 139.99
  Q 985.28 146.29 1055.87 166.04
  Q 1057.18 166.40 1056.75 167.70
  L 1043.96 206.00
  Z"
/>
<path fill="#c1dd00" d="
  M 526.25 602.71
  Q 524.61 600.79 522.29 599.75
  L 517.13 596.40
  Q 516.71 596.13 516.39 595.75
  C 515.02 594.08 513.14 593.57 511.74 592.12
  Q 510.40 590.73 509.43 590.06
  Q 486.30 574.19 478.49 567.75
  Q 473.36 563.52 469.56 561.12
  C 467.02 559.52 465.43 557.65 463.10 556.01
  Q 453.65 549.32 444.15 542.70
  Q 443.86 542.49 443.72 542.15
  Q 443.64 541.94 443.45 541.80
  C 415.05 521.16 386.91 500.17 358.55 479.52
  Q 338.88 465.19 319.34 450.73
  Q 319.27 450.67 317.15 449.31
  C 315.68 448.37 314.64 446.85 313.28 445.93
  Q 298.68 436.01 284.71 425.25
  Q 283.45 423.40 281.29 422.75
  L 281.00 422.46
  Q 280.22 421.20 278.79 420.75
  L 277.25 419.71
  Q 276.40 418.20 274.75 417.79
  L 265.82 411.42
  Q 265.38 411.10 265.62 410.62
  Q 266.21 409.41 267.26 408.01
  C 354.88 292.05 477.31 210.82 616.15 169.36
  Q 616.46 169.27 616.57 169.60
  L 739.34 547.07
  Q 739.51 547.60 738.99 547.77
  Q 728.85 551.11 718.83 554.87
  C 668.44 573.75 623.43 606.49 590.53 649.17
  Q 590.14 649.69 589.61 649.30
  C 584.83 645.76 579.95 642.21 575.14 638.69
  Q 550.64 620.78 526.25 602.71
  Z"
/>
<path fill="#ff7300" d="
  M 1068.46 622.00
  Q 1068.46 621.90 1068.44 621.84
  Q 1068.40 621.67 1068.44 621.59
  Q 1117.31 529.14 1166.10 436.65
  C 1171.08 427.21 1173.41 417.24 1165.43 409.16
  Q 1156.81 400.42 1144.70 403.00
  C 1139.57 404.10 1132.44 408.29 1129.04 412.04
  Q 1061.40 486.57 993.73 561.05
  C 992.11 562.83 991.40 564.55 988.75 565.29
  Q 968.80 556.02 947.85 549.04
  Q 947.37 548.89 947.53 548.41
  Q 979.78 450.57 1011.95 352.60
  Q 1011.99 352.48 1013.40 349.04
  C 1013.68 348.36 1014.51 344.26 1014.82 344.22
  Q 1015.04 344.19 1015.12 343.98
  C 1017.69 336.84 1020.04 328.24 1021.98 322.33
  Q 1046.18 248.45 1070.66 174.66
  C 1071.33 172.64 1070.83 170.62 1073.80 171.53
  C 1212.02 214.22 1333.98 296.85 1419.91 413.74
  A 0.55 0.54 54.2 0 1 1419.79 414.51
  L 1094.78 649.81
  Q 1093.64 650.64 1092.80 649.52
  Q 1081.51 634.67 1068.46 622.00
  Z"
/>
<path fill="#4b4b4b" d="
  M 1043.96 206.00
  Q 1044.31 207.79 1043.00 208.96
  L 1043.96 206.00
  Z"
/>
<path fill="#4b4b4b" d="
  M 1041.71 212.50
  Q 1042.35 214.00 1041.00 214.96
  L 1041.71 212.50
  Z"
/>
<path fill="#4b4b4b" d="
  M 653.79 230.50
  Q 654.91 232.07 654.71 234.00
  Q 653.79 232.40 653.79 230.50
  Z"
/>
<path fill="#4b4b4b" d="
  M 680.04 311.25
  Q 681.09 312.96 681.25 314.96
  Q 679.93 313.34 680.04 311.25
  Z"
/>
<path fill="#4b4b4b" d="
  M 991.96 364.00
  Q 992.23 365.77 991.00 367.00
  Q 991.00 365.33 991.96 364.00
  Z"
/>
<path fill="#4b4b4b" d="
  M 991.00 367.00
  Q 990.71 370.23 989.00 372.96
  Q 989.51 369.81 991.00 367.00
  Z"
/>
<path fill="#4b4b4b" d="
  M 707.04 394.25
  L 708.00 397.46
  Q 706.80 396.10 707.04 394.25
  Z"
/>
<path fill="#4b4b4b" d="
  M 1068.46 622.00
  Q 1051.59 653.34 1034.99 684.83
  C 999.08 752.92 963.44 821.16 927.20 889.09
  Q 926.82 889.80 925.43 891.60
  C 921.51 896.67 918.20 902.08 913.39 907.34
  C 899.74 922.24 882.97 931.68 862.74 933.94
  C 846.04 935.80 827.96 930.86 812.88 923.63
  C 794.24 914.68 779.62 898.85 770.26 880.48
  Q 767.69 875.44 765.36 863.48
  C 765.11 862.22 764.10 861.53 764.08 860.31
  Q 764.06 858.55 763.42 856.91
  Q 763.24 856.45 763.34 855.96
  Q 763.72 854.12 763.10 850.84
  Q 762.47 847.48 763.43 841.54
  C 767.48 816.57 776.99 799.33 793.76 780.88
  Q 891.31 673.50 988.93 566.18
  Q 989.24 565.83 988.75 565.29
  C 991.40 564.55 992.11 562.83 993.73 561.05
  Q 1061.40 486.57 1129.04 412.04
  C 1132.44 408.29 1139.57 404.10 1144.70 403.00
  Q 1156.81 400.42 1165.43 409.16
  C 1173.41 417.24 1171.08 427.21 1166.10 436.65
  Q 1117.31 529.14 1068.44 621.59
  Q 1068.40 621.67 1068.44 621.84
  Q 1068.46 621.90 1068.46 622.00
  Z
  M 887.64 846.07
  A 35.80 35.80 0.0 0 0 851.84 810.27
  A 35.80 35.80 0.0 0 0 816.04 846.07
  A 35.80 35.80 0.0 0 0 851.84 881.87
  A 35.80 35.80 0.0 0 0 887.64 846.07
  Z"
/>
<path fill="#4b4b4b" d="
  M 274.75 417.79
  Q 276.40 418.20 277.25 419.71
  Q 275.47 419.39 274.75 417.79
  Z"
/>
<path fill="#4b4b4b" d="
  M 278.79 420.75
  Q 280.22 421.20 281.00 422.46
  Q 279.34 422.29 278.79 420.75
  Z"
/>
<path fill="#4b4b4b" d="
  M 281.29 422.75
  Q 283.45 423.40 284.71 425.25
  Q 282.52 424.65 281.29 422.75
  Z"
/>
<path fill="#21b600" d="
  M 255.84 426.66
  L 578.65 663.81
  A 0.95 0.95 0.0 0 1 578.88 665.09
  C 544.07 718.53 527.51 781.73 528.96 845.29
  A 0.70 0.69 89.6 0 1 528.27 846.00
  L 133.51 846.00
  Q 132.99 846.00 132.99 845.49
  C 131.26 697.21 169.36 550.47 253.48 427.19
  Q 254.51 425.68 255.84 426.66
  Z"
/>
<path fill="#ff1c18" d="
  M 1105.48 665.21
  L 1430.46 429.94
  Q 1431.01 429.53 1431.40 430.10
  C 1514.43 552.06 1551.40 698.06 1550.04 845.25
  Q 1550.03 846.00 1549.29 846.00
  L 1154.72 846.00
  A 0.77 0.76 -89.3 0 1 1153.96 845.21
  C 1155.62 782.72 1139.20 719.44 1105.19 666.74
  A 1.13 1.13 0.0 0 1 1105.48 665.21
  Z"
/>
<path fill="#4b4b4b" d="
  M 732.04 471.25
  Q 733.58 474.17 734.00 477.46
  Q 732.42 474.55 732.04 471.25
  Z"
/>
<path fill="#4b4b4b" d="
  M 522.29 599.75
  Q 524.61 600.79 526.25 602.71
  Q 523.81 601.85 522.29 599.75
  Z"
/>
</svg>
