<?xml version="1.0" encoding="UTF-8" standalone="no"?>
<!DOCTYPE svg PUBLIC "-//W3C//DTD SVG 1.1//EN" "http://www.w3.org/Graphics/SVG/1.1/DTD/svg11.dtd">
<svg xmlns="http://www.w3.org/2000/svg" version="1.1" viewBox="0.00 0.00 1693.00 1046.00">
<g stroke-width="2.00" fill="none" stroke-linecap="butt">
<path stroke="#a58826" vector-effect="non-scaling-stroke" d="
  M 1043.96 206.00
  L 1043.00 208.96"
/>
<path stroke="#a58826" vector-effect="non-scaling-stroke" d="
  M 1041.71 212.50
  L 1041.00 214.96"
/>
<path stroke="#a58826" vector-effect="non-scaling-stroke" d="
  M 991.96 364.00
  Q 991.00 365.33 991.00 367.00"
/>
<path stroke="#a58826" vector-effect="non-scaling-stroke" d="
  M 991.00 367.00
  Q 989.51 369.81 989.00 372.96"
/>
<path stroke="#a58826" vector-effect="non-scaling-stroke" d="
  M 896.57 537.01
  L 892.29 506.91
  Q 892.23 506.52 892.43 506.18
  C 892.52 506.04 890.30 492.15 889.80 490.26
  Q 889.67 489.78 889.88 489.33
  C 890.41 488.20 888.58 478.60 888.28 476.68
  Q 888.21 476.26 887.95 475.92
  Q 887.59 475.45 887.88 474.96
  Q 888.13 474.56 888.06 474.10
  Q 882.79 437.60 878.04 401.03
  C 877.90 399.97 877.23 399.46 877.30 398.25
  Q 877.42 396.53 877.38 396.23
  Q 874.81 377.94 872.34 359.63
  C 872.16 358.24 871.19 356.82 871.69 355.14
  Q 871.82 354.68 871.71 354.22
  Q 870.82 350.38 870.61 346.45
  C 870.48 344.18 869.57 342.09 869.37 339.74
  Q 869.09 336.47 868.76 334.70
  C 868.08 331.11 868.62 327.44 867.20 323.99
  C 865.87 320.79 864.98 316.45 862.73 313.90
  Q 857.06 307.44 847.96 307.35
  C 823.46 307.12 823.21 335.01 821.34 352.08
  C 821.15 353.87 820.16 356.51 820.67 358.95
  Q 820.78 359.48 820.55 359.96
  Q 819.38 362.33 820.21 364.74
  Q 820.41 365.30 820.07 365.78
  Q 818.50 368.06 819.48 370.50
  Q 819.68 370.98 819.43 371.45
  Q 817.97 374.23 818.40 377.30
  Q 818.47 377.79 818.34 378.26
  Q 817.89 379.87 817.54 383.56
  Q 815.95 400.63 811.25 437.53
  C 811.04 439.24 811.52 441.24 810.36 443.36
  Q 810.11 443.81 810.24 444.30
  Q 810.93 446.93 809.76 449.34
  Q 809.51 449.85 809.64 450.39
  C 810.34 453.22 808.88 455.23 808.83 457.79
  C 808.69 464.60 807.27 471.86 806.68 477.94
  C 806.50 479.70 805.47 481.96 806.16 484.32
  Q 806.33 484.88 806.01 485.37
  Q 804.56 487.60 805.37 490.08
  Q 805.54 490.61 805.29 491.12
  C 804.12 493.54 804.98 495.19 804.48 497.49
  Q 804.21 498.74 804.06 500.01
  Q 802.27 515.83 800.34 531.65
  C 800.20 532.77 801.01 534.18 799.75 535.06"
/>
<path stroke="#a58826" vector-effect="non-scaling-stroke" d="
  M 734.00 477.46
  Q 733.58 474.17 732.04 471.25"
/>
<path stroke="#a58826" vector-effect="non-scaling-stroke" d="
  M 708.00 397.46
  L 707.04 394.25"
/>
<path stroke="#a58826" vector-effect="non-scaling-stroke" d="
  M 681.25 314.96
  Q 681.09 312.96 680.04 311.25"
/>
<path stroke="#a58826" vector-effect="non-scaling-stroke" d="
  M 654.71 234.00
  Q 654.91 232.07 653.79 230.50"
/>
<path stroke="#869426" vector-effect="non-scaling-stroke" d="
  M 526.25 602.71
  Q 524.61 600.79 522.29 599.75"
/>
<path stroke="#869426" vector-effect="non-scaling-stroke" d="
  M 284.71 425.25
  Q 283.45 423.40 281.29 422.75"
/>
<path stroke="#869426" vector-effect="non-scaling-stroke" d="
  M 281.00 422.46
  Q 280.22 421.20 278.79 420.75"
/>
<path stroke="#869426" vector-effect="non-scaling-stroke" d="
  M 277.25 419.71
  Q 276.40 418.20 274.75 417.79"
/>
</g>
<path fill="#ffc400" d="
  M 1043.96 206.00
  L 1043.00 208.96
  L 1041.71 212.50
  L 1041.00 214.96
  L 991.96 364.00
  Q 991.00 365.33 991.00 367.00
  Q 989.51 369.81 989.00 372.96
  Q 976.86 411.37 966.43 441.73
  C 962.55 453.03 958.82 465.43 955.70 474.71
  Q 944.04 509.30 932.68 544.00
  Q 932.53 544.46 932.06 544.33
  C 922.65 541.77 913.13 540.03 903.63 537.94
  Q 900.27 537.20 896.57 537.01
  L 892.29 506.91
  Q 892.23 506.52 892.43 506.18
  C 892.52 506.04 890.30 492.15 889.80 490.26
  Q 889.67 489.78 889.88 489.33
  C 890.41 488.20 888.58 478.60 888.28 476.68
  Q 888.21 476.26 887.95 475.92
  Q 887.59 475.45 887.88 474.96
  Q 888.13 474.56 888.06 474.10
  Q 882.79 437.60 878.04 401.03
  C 877.90 399.97 877.23 399.46 877.30 398.25
  Q 877.42 396.53 877.38 396.23
  Q 874.81 377.94 872.34 359.63
  C 872.16 358.24 871.19 356.82 871.69 355.14
  Q 871.82 354.68 871.71 354.22
  Q 870.82 350.38 870.61 346.45
  C 870.48 344.18 869.57 342.09 869.37 339.74
  Q 869.09 336.47 868.76 334.70
  C 868.08 331.11 868.62 327.44 867.20 323.99
  C 865.87 320.79 864.98 316.45 862.73 313.90
  Q 857.06 307.44 847.96 307.35
  C 823.46 307.12 823.21 335.01 821.34 352.08
  C 821.15 353.87 820.16 356.51 820.67 358.95
  Q 820.78 359.48 820.55 359.96
  Q 819.38 362.33 820.21 364.74
  Q 820.41 365.30 820.07 365.78
  Q 818.50 368.06 819.48 370.50
  Q 819.68 370.98 819.43 371.45
  Q 817.97 374.23 818.40 377.30
  Q 818.47 377.79 818.34 378.26
  Q 817.89 379.87 817.54 383.56
  Q 815.95 400.63 811.25 437.53
  C 811.04 439.24 811.52 441.24 810.36 443.36
  Q 810.11 443.81 810.24 444.30
  Q 810.93 446.93 809.76 449.34
  Q 809.51 449.85 809.64 450.39
  C 810.34 453.22 808.88 455.23 808.83 457.79
  C 808.69 464.60 807.27 471.86 806.68 477.94
  C 806.50 479.70 805.47 481.96 806.16 484.32
  Q 806.33 484.88 806.01 485.37
  Q 804.56 487.60 805.37 490.08
  Q 805.54 490.61 805.29 491.12
  C 804.12 493.54 804.98 495.19 804.48 497.49
  Q 804.21 498.74 804.06 500.01
  Q 802.27 515.83 800.34 531.65
  C 800.20 532.77 801.01 534.18 799.75 535.06
  Q 777.84 537.64 756.76 542.83
  Q 755.23 543.21 754.74 541.70
  L 734.00 477.46
  Q 733.58 474.17 732.04 471.25
  L 731.67 470.67
  Q 731.41 470.26 731.30 469.78
  Q 730.74 467.12 728.96 462.05
  Q 725.39 451.83 718.64 429.60
  C 718.31 428.48 717.32 427.45 717.10 426.01
  Q 716.93 424.87 716.79 424.45
  Q 712.24 410.99 708.00 397.46
  L 707.04 394.25
  L 681.25 314.96
  Q 681.09 312.96 680.04 311.25
  L 654.71 234.00
  Q 654.91 232.07 653.79 230.50
  L 632.68 165.83
  Q 632.27 164.58 633.54 164.24
  Q 706.93 144.46 781.79 138.75
  C 812.37 136.41 843.66 136.63 874.32 137.36
  C 887.42 137.67 900.54 138.83 913.67 139.99
  Q 985.28 146.29 1055.87 166.04
  Q 1057.18 166.40 1056.75 167.70
  L 1043.96 206.00
  Z"
/>
<path fill="#c1dd00" d="
  M 526.25 602.71
  Q 524.61 600.79 522.29 599.75
  L 517.13 596.40
  Q 516.71 596.13 516.39 595.75
  C 515.02 594.08 513.14 593.57 511.74 592.12
  Q 510.40 590.73 509.43 590.06
  Q 486.30 574.19 478.49 567.75
  Q 473.36 563.52 469.56 561.12
  C 467.02 559.52 465.43 557.65 463.10 556.01
  Q 453.65 549.32 444.15 542.70
  Q 443.86 542.49 443.72 542.15
  Q 443.64 541.94 443.45 541.80
  C 415.05 521.16 386.91 500.17 358.55 479.52
  Q 338.88 465.19 319.34 450.73
  Q 319.27 450.67 317.15 449.31
  C 315.68 448.37 314.64 446.85 313.28 445.93
  Q 298.68 436.01 284.71 425.25
  Q 283.45 423.40 281.29 422.75
  L 281.00 422.46
  Q 280.22 421.20 278.79 420.75
  L 277.25 419.71
  Q 276.40 418.20 274.75 417.79
  L 265.82 411.42
  Q 265.38 411.10 265.62 410.62
  Q 266.21 409.41 267.26 408.01
  C 354.89 292.05 477.31 210.82 616.15 169.36
  Q 616.46 169.27 616.56 169.58
  L 739.34 547.07
  Q 739.51 547.60 738.98 547.77
  Q 728.85 551.11 718.83 554.87
  C 668.44 573.75 623.43 606.49 590.53 649.17
  Q 590.14 649.69 589.61 649.30
  C 584.83 645.76 579.95 642.21 575.14 638.69
  Q 550.64 620.78 526.25 602.71
  Z"
/>
<path fill="#ff7300" d="
  M 966.25 492.06
  Q 966.24 491.66 966.28 491.51
  Q 989.10 422.05 1011.97 352.59
  Q 1011.98 352.56 1013.40 349.05
  C 1013.67 348.38 1014.52 344.25 1014.82 344.22
  Q 1015.04 344.19 1015.12 343.98
  C 1017.69 336.84 1020.04 328.24 1021.98 322.33
  Q 1046.18 248.45 1070.66 174.66
  C 1071.33 172.64 1070.83 170.62 1073.80 171.53
  C 1212.02 214.22 1333.98 296.85 1419.91 413.74
  A 0.55 0.54 54.2 0 1 1419.79 414.51
  L 1094.20 650.23
  A 0.62 0.61 -36.5 0 1 1093.35 650.11
  C 1056.42 602.13 1005.49 567.58 947.97 549.13
  A 0.68 0.67 18.2 0 1 947.53 548.27
  Q 956.20 522.07 964.99 495.71
  C 965.31 494.73 964.98 493.83 965.90 492.93
  Q 966.27 492.57 966.25 492.06
  Z"
/>
<path fill="#4b4b4b" d="
  M 1043.96 206.00
  Q 1044.31 207.79 1043.00 208.96
  L 1043.96 206.00
  Z"
/>
<path fill="#4b4b4b" d="
  M 1041.71 212.50
  Q 1042.35 214.00 1041.00 214.96
  L 1041.71 212.50
  Z"
/>
<path fill="#4b4b4b" d="
  M 653.79 230.50
  Q 654.91 232.07 654.71 234.00
  Q 653.79 232.40 653.79 230.50
  Z"
/>
<path fill="#4b4b4b" d="
  M 896.57 537.01
  C 897.19 539.24 897.26 542.12 897.47 543.67
  Q 916.93 685.56 936.23 827.47
  C 938.47 843.89 938.22 861.08 933.24 876.55
  C 921.55 912.80 888.82 930.19 852.46 932.59
  C 848.07 932.88 843.21 932.06 838.54 931.68
  C 832.47 931.19 825.85 928.97 820.00 927.24
  C 801.68 921.82 783.85 907.76 775.34 890.53
  Q 763.10 865.72 764.72 836.98
  Q 764.94 833.21 765.56 830.32
  C 766.00 828.25 765.40 825.93 766.50 823.70
  Q 766.73 823.24 766.64 822.73
  Q 766.10 819.78 767.30 817.09
  Q 767.52 816.60 767.37 816.08
  Q 766.64 813.59 767.96 811.22
  Q 768.23 810.74 768.03 810.23
  Q 767.09 807.79 768.58 805.49
  Q 768.81 805.13 768.71 804.71
  Q 767.93 801.54 769.55 798.60
  Q 769.82 798.09 769.65 797.54
  C 768.77 794.69 770.75 793.02 770.19 791.03
  Q 770.07 790.61 770.12 790.18
  L 771.77 775.08
  Q 771.82 774.57 772.07 774.13
  Q 772.90 772.66 772.24 771.02
  Q 772.04 770.55 772.20 770.05
  L 773.21 766.88
  Q 773.36 766.41 773.19 765.93
  Q 772.36 763.58 773.81 761.34
  Q 774.12 760.85 773.97 760.29
  L 773.48 758.52
  Q 773.36 758.09 773.59 757.69
  C 774.86 755.43 774.13 753.50 774.54 751.47
  Q 775.74 745.60 775.88 739.61
  Q 775.90 738.49 776.31 737.33
  C 777.22 734.74 776.07 732.66 777.35 729.94
  Q 777.57 729.49 777.47 728.99
  Q 776.88 725.89 778.43 723.08
  Q 778.66 722.66 778.49 722.22
  Q 777.58 719.83 778.85 717.51
  Q 779.12 717.02 779.02 716.46
  Q 778.53 713.88 779.50 711.40
  Q 779.73 710.82 779.64 710.21
  Q 779.20 707.31 780.37 704.61
  Q 780.60 704.10 780.49 703.55
  C 780.00 701.10 781.00 699.44 780.92 697.07
  C 780.85 694.60 781.35 693.47 782.03 691.35
  Q 782.19 690.85 782.03 690.35
  Q 781.33 688.13 782.48 686.08
  Q 782.76 685.59 782.68 685.04
  C 782.37 682.85 782.97 680.67 783.15 678.94
  C 784.36 667.67 785.80 659.81 786.08 652.65
  C 786.16 650.50 787.06 648.64 786.84 646.39
  C 786.71 645.04 787.07 644.10 787.23 642.80
  Q 793.70 588.97 799.75 535.06
  C 801.01 534.18 800.20 532.77 800.34 531.65
  Q 802.27 515.83 804.06 500.01
  Q 804.21 498.74 804.48 497.49
  C 804.98 495.19 804.12 493.54 805.29 491.12
  Q 805.54 490.61 805.37 490.08
  Q 804.56 487.60 806.01 485.37
  Q 806.33 484.88 806.16 484.32
  C 805.47 481.96 806.50 479.70 806.68 477.94
  C 807.27 471.86 808.69 464.60 808.83 457.79
  C 808.88 455.23 810.34 453.22 809.64 450.39
  Q 809.51 449.85 809.76 449.34
  Q 810.93 446.93 810.24 444.30
  Q 810.11 443.81 810.36 443.36
  C 811.52 441.24 811.04 439.24 811.25 437.53
  Q 815.95 400.63 817.54 383.56
  Q 817.89 379.87 818.34 378.26
  Q 818.47 377.79 818.40 377.30
  Q 817.97 374.23 819.43 371.45
  Q 819.68 370.98 819.48 370.50
  Q 818.50 368.06 820.07 365.78
  Q 820.41 365.30 820.21 364.74
  Q 819.38 362.33 820.55 359.96
  Q 820.78 359.48 820.67 358.95
  C 820.16 356.51 821.15 353.87 821.34 352.08
  C 823.21 335.01 823.46 307.12 847.96 307.35
  Q 857.06 307.44 862.73 313.90
  C 864.98 316.45 865.87 320.79 867.20 323.99
  C 868.62 327.44 868.08 331.11 868.76 334.70
  Q 869.09 336.47 869.37 339.74
  C 869.57 342.09 870.48 344.18 870.61 346.45
  Q 870.82 350.38 871.71 354.22
  Q 871.82 354.68 871.69 355.14
  C 871.19 356.82 872.16 358.24 872.34 359.63
  Q 874.81 377.94 877.38 396.23
  Q 877.42 396.53 877.30 398.25
  C 877.23 399.46 877.90 399.97 878.04 401.03
  Q 882.79 437.60 888.06 474.10
  Q 888.13 474.56 887.88 474.96
  Q 887.59 475.45 887.95 475.92
  Q 888.21 476.26 888.28 476.68
  C 888.58 478.60 890.41 488.20 889.88 489.33
  Q 889.67 489.78 889.80 490.26
  C 890.30 492.15 892.52 506.04 892.43 506.18
  Q 892.23 506.52 892.29 506.91
  L 896.57 537.01
  Z
  M 886.88 845.51
  A 35.77 35.77 0.0 0 0 851.11 809.74
  A 35.77 35.77 0.0 0 0 815.34 845.51
  A 35.77 35.77 0.0 0 0 851.11 881.28
  A 35.77 35.77 0.0 0 0 886.88 845.51
  Z"
/>
<path fill="#4b4b4b" d="
  M 680.04 311.25
  Q 681.09 312.96 681.25 314.96
  Q 679.93 313.34 680.04 311.25
  Z"
/>
<path fill="#4b4b4b" d="
  M 991.96 364.00
  Q 992.23 365.77 991.00 367.00
  Q 991.00 365.33 991.96 364.00
  Z"
/>
<path fill="#4b4b4b" d="
  M 991.00 367.00
  Q 990.71 370.23 989.00 372.96
  Q 989.51 369.81 991.00 367.00
  Z"
/>
<path fill="#4b4b4b" d="
  M 707.04 394.25
  L 708.00 397.46
  Q 706.80 396.10 707.04 394.25
  Z"
/>
<path fill="#4b4b4b" d="
  M 274.75 417.79
  Q 276.40 418.20 277.25 419.71
  Q 275.47 419.39 274.75 417.79
  Z"
/>
<path fill="#4b4b4b" d="
  M 278.79 420.75
  Q 280.22 421.20 281.00 422.46
  Q 279.34 422.29 278.79 420.75
  Z"
/>
<path fill="#4b4b4b" d="
  M 281.29 422.75
  Q 283.45 423.40 284.71 425.25
  Q 282.52 424.65 281.29 422.75
  Z"
/>
<path fill="#21b600" d="
  M 255.98 426.76
  L 578.65 663.81
  A 0.95 0.95 0.0 0 1 578.88 665.09
  C 544.07 718.53 527.51 781.73 528.96 845.29
  A 0.70 0.69 89.6 0 1 528.27 846.00
  L 133.51 846.00
  Q 132.99 846.00 132.99 845.49
  C 131.26 697.21 169.36 550.47 253.48 427.19
  Q 254.51 425.68 255.98 426.76
  Z"
/>
<path fill="#ff1c18" d="
  M 1105.48 665.21
  L 1430.46 429.94
  Q 1431.01 429.53 1431.40 430.10
  C 1514.43 552.06 1551.40 698.06 1550.04 845.25
  Q 1550.03 846.00 1549.29 846.00
  L 1154.72 846.00
  A 0.77 0.76 -89.3 0 1 1153.96 845.21
  C 1155.62 782.72 1139.20 719.44 1105.19 666.74
  A 1.13 1.13 0.0 0 1 1105.48 665.21
  Z"
/>
<path fill="#4b4b4b" d="
  M 732.04 471.25
  Q 733.58 474.17 734.00 477.46
  Q 732.42 474.55 732.04 471.25
  Z"
/>
<path fill="#4b4b4b" d="
  M 522.29 599.75
  Q 524.61 600.79 526.25 602.71
  Q 523.81 601.85 522.29 599.75
  Z"
/>
</svg>
