<?xml version="1.0" encoding="UTF-8" standalone="no"?>
<!DOCTYPE svg PUBLIC "-//W3C//DTD SVG 1.1//EN" "http://www.w3.org/Graphics/SVG/1.1/DTD/svg11.dtd">
<svg xmlns="http://www.w3.org/2000/svg" version="1.1" viewBox="0.00 0.00 1010.00 732.00">
<g stroke-width="2.00" fill="none" stroke-linecap="butt">
<path stroke="#ecdbd0" vector-effect="non-scaling-stroke" d="
  M 989.00 689.04
  C 932.11 662.24 879.67 627.65 823.79 598.99
  C 796.04 584.76 769.75 576.11 737.78 564.91
  C 734.94 563.92 733.75 564.47 731.03 565.00
  C 726.06 565.97 717.80 564.50 714.47 563.62
  Q 687.90 556.59 662.05 547.27
  C 610.17 528.58 556.43 519.14 501.25 519.08
  Q 485.67 519.07 470.14 517.93
  Q 459.38 517.14 455.19 517.31
  C 437.79 518.02 420.40 525.86 401.32 529.13
  C 385.31 531.88 371.59 535.64 354.09 541.53
  C 349.32 543.13 344.49 542.95 339.54 543.67
  Q 334.89 544.34 329.40 546.52
  Q 292.21 561.29 254.22 573.87
  C 246.79 576.33 241.25 583.29 233.81 586.51
  Q 180.26 609.67 128.81 637.20
  C 123.21 640.19 115.89 641.46 112.31 646.99
  Q 111.13 648.82 109.45 649.81
  Q 78.76 667.92 47.84 685.62
  Q 42.44 688.71 35.90 688.04"
/>
<path stroke="#85746e" vector-effect="non-scaling-stroke" d="
  M 980.25 700.20
  C 980.99 699.32 980.24 698.42 979.41 697.91
  C 955.52 683.24 928.72 674.65 904.07 661.44
  Q 821.87 617.38 734.25 585.46"
/>
<path stroke="#9e8270" vector-effect="non-scaling-stroke" d="
  M 734.25 585.46
  C 682.99 563.95 629.18 546.31 574.36 536.67
  C 493.97 522.52 410.74 546.26 334.99 572.30
  Q 213.42 614.10 104.75 670.71"
/>
<path stroke="#85746e" vector-effect="non-scaling-stroke" d="
  M 104.75 670.71
  L 43.75 694.04"
/>
<path stroke="#2d1002" vector-effect="non-scaling-stroke" d="
  M 734.25 585.46
  Q 730.89 588.50 733.00 592.71"
/>
<path stroke="#573114" vector-effect="non-scaling-stroke" d="
  M 733.00 592.71
  L 726.21 593.00"
/>
<path stroke="#6d4122" vector-effect="non-scaling-stroke" d="
  M 726.21 593.00
  C 715.87 586.62 706.49 583.88 693.45 579.58
  Q 687.56 577.65 674.80 572.90
  Q 648.74 563.21 621.25 558.46"
/>
<path stroke="#573114" vector-effect="non-scaling-stroke" d="
  M 621.25 558.46
  Q 597.39 549.42 572.72 554.15
  C 557.18 557.13 543.60 557.17 527.97 555.49
  Q 521.91 554.83 517.49 555.35
  C 508.87 556.36 500.69 559.24 492.24 559.74
  Q 455.42 561.89 419.51 570.29
  Q 411.99 572.05 406.74 576.96
  Q 406.37 577.30 405.88 577.39
  Q 404.82 577.58 403.75 577.68
  C 381.17 579.73 360.56 587.60 339.30 594.81
  C 334.58 596.41 329.94 600.85 324.60 602.50
  C 297.16 610.97 268.99 622.63 244.73 631.46
  C 243.58 631.88 242.45 632.45 241.79 633.60
  C 236.72 642.51 228.68 644.33 220.27 647.99
  C 217.63 649.13 215.71 652.81 211.93 653.91
  Q 190.43 660.13 168.83 666.12
  Q 164.54 667.30 162.77 669.00
  C 160.42 671.24 157.29 677.66 161.00 680.02
  C 165.84 683.11 171.76 681.95 176.41 682.08
  C 194.28 682.57 208.50 680.54 227.64 677.73
  Q 238.42 676.15 244.95 676.46
  Q 257.05 677.04 268.81 680.80"
/>
<path stroke="#2d1002" vector-effect="non-scaling-stroke" d="
  M 268.81 680.80
  Q 232.97 683.68 197.00 683.25
  C 195.00 683.22 192.65 683.79 190.32 683.63
  Q 174.27 682.52 168.81 683.31
  Q 148.80 686.19 143.69 685.94
  C 131.40 685.34 119.92 680.68 108.11 677.54
  Q 107.58 677.40 107.30 676.94
  Q 106.39 675.50 106.34 673.74
  Q 106.32 673.25 106.06 672.82
  L 104.75 670.71"
/>
<path stroke="#7e5332" vector-effect="non-scaling-stroke" d="
  M 621.25 558.46
  Q 612.95 562.10 604.08 563.01
  C 596.94 563.74 588.04 561.47 581.75 560.72
  Q 558.49 557.96 532.20 563.83
  C 526.40 565.12 520.94 567.00 514.91 567.23
  Q 503.77 567.65 492.74 569.09
  C 486.87 569.85 477.71 571.81 481.33 579.79
  C 483.28 584.07 480.72 586.53 476.73 587.33
  Q 461.19 590.44 449.91 601.50
  C 446.55 604.80 441.04 605.60 437.17 608.25
  Q 432.21 611.65 428.39 616.35
  C 425.25 620.22 418.36 621.83 414.14 625.38
  Q 394.23 642.11 372.21 655.91
  C 367.76 658.70 360.10 665.51 360.69 671.05
  C 360.99 673.90 365.44 674.83 367.25 674.77
  C 374.77 674.50 383.47 674.94 390.77 673.43
  Q 391.27 673.32 391.56 672.90
  Q 396.45 665.92 405.08 666.48
  Q 405.63 666.52 406.11 666.25
  C 419.33 658.72 430.21 643.59 444.28 634.52
  C 447.26 632.60 493.31 604.17 491.70 616.37
  C 491.47 618.12 490.80 619.41 489.13 620.33
  Q 479.51 625.62 474.23 634.81
  A 1.00 1.00 0.0 0 0 475.36 636.27
  Q 490.74 632.09 505.01 628.29
  Q 508.28 627.42 508.48 631.02
  Q 508.51 631.49 508.21 631.86
  C 501.79 639.91 490.96 644.61 481.16 647.35
  C 465.15 651.82 448.57 655.87 435.92 667.40
  C 431.30 671.61 432.02 678.50 439.26 678.32
  C 450.16 678.06 458.09 677.23 467.62 678.80
  C 486.17 681.84 503.89 681.94 522.56 679.88
  C 535.26 678.48 546.93 681.49 559.44 680.46
  Q 560.04 680.41 560.39 680.91
  L 562.54 684.02
  Q 562.91 684.55 563.56 684.51
  Q 573.81 683.84 582.59 679.01
  C 590.20 674.82 596.90 665.73 603.04 662.03
  Q 633.60 643.62 664.07 625.05
  C 668.77 622.18 674.57 623.92 678.24 621.99
  Q 698.25 611.49 720.26 606.27
  C 729.15 604.16 729.67 600.35 726.21 593.00"
/>
<path stroke="#3e2212" vector-effect="non-scaling-stroke" d="
  M 733.00 592.71
  Q 736.95 596.26 739.73 600.74
  C 743.52 606.82 745.81 601.92 750.06 604.19
  C 778.15 619.22 808.22 628.96 836.71 642.87
  Q 872.66 660.41 908.62 677.93
  C 911.82 679.49 913.76 681.87 913.78 685.31
  A 1.75 1.75 0.0 0 1 911.57 687.02
  C 895.19 682.58 880.74 686.09 863.55 684.71
  C 850.08 683.63 836.78 684.77 824.07 685.06
  Q 816.32 685.25 805.08 684.66
  Q 709.71 679.73 614.25 683.04
  Q 603.92 683.40 579.13 685.62
  C 575.02 685.99 569.85 686.04 565.91 685.82
  C 544.11 684.61 522.78 686.76 501.05 686.72
  C 485.70 686.69 470.72 686.23 455.07 687.05
  C 438.34 687.93 426.09 687.10 411.49 686.29
  C 392.90 685.26 374.10 685.76 355.46 685.73
  C 350.50 685.73 346.00 684.27 341.22 683.13
  Q 339.02 682.61 332.50 682.71
  Q 306.58 683.07 268.81 680.80"
/>
</g>
<path fill="#e3cfc3" d="
  M 989.00 689.04
  C 932.11 662.24 879.67 627.65 823.79 598.99
  C 796.04 584.76 769.75 576.11 737.78 564.91
  C 734.94 563.92 733.75 564.47 731.03 565.00
  C 726.06 565.97 717.80 564.50 714.47 563.62
  Q 687.90 556.59 662.05 547.27
  C 610.17 528.58 556.43 519.14 501.25 519.08
  Q 485.67 519.07 470.14 517.93
  Q 459.38 517.14 455.19 517.31
  C 437.79 518.02 420.40 525.86 401.32 529.13
  C 385.31 531.88 371.59 535.64 354.09 541.53
  C 349.32 543.13 344.49 542.95 339.54 543.67
  Q 334.89 544.34 329.40 546.52
  Q 292.21 561.29 254.22 573.87
  C 246.79 576.33 241.25 583.29 233.81 586.51
  Q 180.26 609.67 128.81 637.20
  C 123.21 640.19 115.89 641.46 112.31 646.99
  Q 111.13 648.82 109.45 649.81
  Q 78.76 667.92 47.84 685.62
  Q 42.44 688.71 35.90 688.04
  C 35.93 675.49 34.56 663.38 37.15 650.56
  Q 37.27 650.00 37.83 650.00
  L 39.22 650.00
  Q 39.84 650.00 39.95 649.38
  C 42.40 634.67 43.01 619.32 47.62 604.84
  Q 89.58 472.97 162.42 353.68
  Q 178.90 326.69 201.01 305.57
  C 208.83 298.10 218.73 290.51 227.81 283.31
  Q 243.83 270.59 261.48 249.98
  C 285.72 221.68 304.17 192.69 324.17 162.93
  C 343.72 133.85 365.80 113.72 395.46 92.21
  C 415.12 77.95 438.29 64.08 460.91 50.10
  Q 476.02 40.75 491.74 33.13
  A 1.16 1.16 0.0 0 1 493.22 33.52
  Q 532.19 91.22 569.93 147.55
  Q 586.87 172.83 608.01 192.49
  C 609.38 193.76 611.10 194.19 613.05 193.74
  Q 623.36 191.35 633.55 186.29
  Q 677.58 164.47 717.24 140.98
  C 741.18 126.79 754.44 137.37 767.43 157.86
  C 814.58 232.23 863.86 310.91 903.77 384.49
  C 922.39 418.83 933.81 458.75 945.00 497.07
  Q 963.76 561.31 982.35 635.68
  Q 985.84 649.61 992.39 666.30
  C 992.57 666.77 992.77 666.92 993.15 667.20
  Q 993.45 667.43 993.54 667.80
  C 995.56 676.16 993.41 681.66 989.00 689.04
  Z"
/>
<path fill="#f5e6dc" d="
  M 989.00 689.04
  L 983.73 703.31
  Q 983.50 703.93 983.18 703.35
  Q 982.18 701.54 980.25 700.20
  C 980.99 699.32 980.24 698.42 979.41 697.91
  C 955.52 683.24 928.72 674.65 904.07 661.44
  Q 821.87 617.38 734.25 585.46
  C 682.99 563.95 629.18 546.31 574.36 536.67
  C 493.97 522.52 410.74 546.26 334.99 572.30
  Q 213.42 614.10 104.75 670.71
  L 43.75 694.04
  Q 37.80 693.57 35.90 688.04
  Q 42.44 688.71 47.84 685.62
  Q 78.76 667.92 109.45 649.81
  Q 111.13 648.82 112.31 646.99
  C 115.89 641.46 123.21 640.19 128.81 637.20
  Q 180.26 609.67 233.81 586.51
  C 241.25 583.29 246.79 576.33 254.22 573.87
  Q 292.21 561.29 329.40 546.52
  Q 334.89 544.34 339.54 543.67
  C 344.49 542.95 349.32 543.13 354.09 541.53
  C 371.59 535.64 385.31 531.88 401.32 529.13
  C 420.40 525.86 437.79 518.02 455.19 517.31
  Q 459.38 517.14 470.14 517.93
  Q 485.67 519.07 501.25 519.08
  C 556.43 519.14 610.17 528.58 662.05 547.27
  Q 687.90 556.59 714.47 563.62
  C 717.80 564.50 726.06 565.97 731.03 565.00
  C 733.75 564.47 734.94 563.92 737.78 564.91
  C 769.75 576.11 796.04 584.76 823.79 598.99
  C 879.67 627.65 932.11 662.24 989.00 689.04
  Z"
/>
<path fill="#461e03" d="
  M 734.25 585.46
  Q 730.89 588.50 733.00 592.71
  L 726.21 593.00
  C 715.87 586.62 706.49 583.88 693.45 579.58
  Q 687.56 577.65 674.80 572.90
  Q 648.74 563.21 621.25 558.46
  Q 597.39 549.42 572.72 554.15
  C 557.18 557.13 543.60 557.17 527.97 555.49
  Q 521.91 554.83 517.49 555.35
  C 508.87 556.36 500.69 559.24 492.24 559.74
  Q 455.42 561.89 419.51 570.29
  Q 411.99 572.05 406.74 576.96
  Q 406.37 577.30 405.88 577.39
  Q 404.82 577.58 403.75 577.68
  C 381.17 579.73 360.56 587.60 339.30 594.81
  C 334.58 596.41 329.94 600.85 324.60 602.50
  C 297.16 610.97 268.99 622.63 244.73 631.46
  C 243.58 631.88 242.45 632.45 241.79 633.60
  C 236.72 642.51 228.68 644.33 220.27 647.99
  C 217.63 649.13 215.71 652.81 211.93 653.91
  Q 190.43 660.13 168.83 666.12
  Q 164.54 667.30 162.77 669.00
  C 160.42 671.24 157.29 677.66 161.00 680.02
  C 165.84 683.11 171.76 681.95 176.41 682.08
  C 194.28 682.57 208.50 680.54 227.64 677.73
  Q 238.42 676.15 244.95 676.46
  Q 257.05 677.04 268.81 680.80
  Q 232.97 683.68 197.00 683.25
  C 195.00 683.22 192.65 683.79 190.32 683.63
  Q 174.27 682.52 168.81 683.31
  Q 148.80 686.19 143.69 685.94
  C 131.40 685.34 119.92 680.68 108.11 677.54
  Q 107.58 677.40 107.30 676.94
  Q 106.39 675.50 106.34 673.74
  Q 106.32 673.25 106.06 672.82
  L 104.75 670.71
  Q 213.42 614.10 334.99 572.30
  C 410.74 546.26 493.97 522.52 574.36 536.67
  C 629.18 546.31 682.99 563.95 734.25 585.46
  Z"
/>
<path fill="#674324" d="
  M 621.25 558.46
  Q 612.95 562.10 604.08 563.01
  C 596.94 563.74 588.04 561.47 581.75 560.72
  Q 558.49 557.96 532.20 563.83
  C 526.40 565.12 520.94 567.00 514.91 567.23
  Q 503.77 567.65 492.74 569.09
  C 486.87 569.85 477.71 571.81 481.33 579.79
  C 483.28 584.07 480.72 586.53 476.73 587.33
  Q 461.19 590.44 449.91 601.50
  C 446.55 604.80 441.04 605.60 437.17 608.25
  Q 432.21 611.65 428.39 616.35
  C 425.25 620.22 418.36 621.83 414.14 625.38
  Q 394.23 642.11 372.21 655.91
  C 367.76 658.70 360.10 665.51 360.69 671.05
  C 360.99 673.90 365.44 674.83 367.25 674.77
  C 374.77 674.50 383.47 674.94 390.77 673.43
  Q 391.27 673.32 391.56 672.90
  Q 396.45 665.92 405.08 666.48
  Q 405.63 666.52 406.11 666.25
  C 419.33 658.72 430.21 643.59 444.28 634.52
  C 447.26 632.60 493.31 604.17 491.70 616.37
  C 491.47 618.12 490.80 619.41 489.13 620.33
  Q 479.51 625.62 474.23 634.81
  A 1.00 1.00 0.0 0 0 475.36 636.27
  Q 490.74 632.09 505.01 628.29
  Q 508.28 627.42 508.48 631.02
  Q 508.51 631.49 508.21 631.86
  C 501.79 639.91 490.96 644.61 481.16 647.35
  C 465.15 651.82 448.57 655.87 435.92 667.40
  C 431.30 671.61 432.02 678.50 439.26 678.32
  C 450.16 678.06 458.09 677.23 467.62 678.80
  C 486.17 681.84 503.89 681.94 522.56 679.88
  C 535.26 678.48 546.93 681.49 559.44 680.46
  Q 560.04 680.41 560.39 680.91
  L 562.54 684.02
  Q 562.91 684.55 563.56 684.51
  Q 573.81 683.84 582.59 679.01
  C 590.20 674.82 596.90 665.73 603.04 662.03
  Q 633.60 643.62 664.07 625.05
  C 668.77 622.18 674.57 623.92 678.24 621.99
  Q 698.25 611.49 720.26 606.27
  C 729.15 604.16 729.67 600.35 726.21 593.00
  L 733.00 592.71
  Q 736.95 596.26 739.73 600.74
  C 743.52 606.82 745.81 601.92 750.06 604.19
  C 778.15 619.22 808.22 628.96 836.71 642.87
  Q 872.66 660.41 908.62 677.93
  C 911.82 679.49 913.76 681.87 913.78 685.31
  A 1.75 1.75 0.0 0 1 911.57 687.02
  C 895.19 682.58 880.74 686.09 863.55 684.71
  C 850.08 683.63 836.78 684.77 824.07 685.06
  Q 816.32 685.25 805.08 684.66
  Q 709.71 679.73 614.25 683.04
  Q 603.92 683.40 579.13 685.62
  C 575.02 685.99 569.85 686.04 565.91 685.82
  C 544.11 684.61 522.78 686.76 501.05 686.72
  C 485.70 686.69 470.72 686.23 455.07 687.05
  C 438.34 687.93 426.09 687.10 411.49 686.29
  C 392.90 685.26 374.10 685.76 355.46 685.73
  C 350.50 685.73 346.00 684.27 341.22 683.13
  Q 339.02 682.61 332.50 682.71
  Q 306.58 683.07 268.81 680.80
  Q 257.05 677.04 244.95 676.46
  Q 238.42 676.15 227.64 677.73
  C 208.50 680.54 194.28 682.57 176.41 682.08
  C 171.76 681.95 165.84 683.11 161.00 680.02
  C 157.29 677.66 160.42 671.24 162.77 669.00
  Q 164.54 667.30 168.83 666.12
  Q 190.43 660.13 211.93 653.91
  C 215.71 652.81 217.63 649.13 220.27 647.99
  C 228.68 644.33 236.72 642.51 241.79 633.60
  C 242.45 632.45 243.58 631.88 244.73 631.46
  C 268.99 622.63 297.16 610.97 324.60 602.50
  C 329.94 600.85 334.58 596.41 339.30 594.81
  C 360.56 587.60 381.17 579.73 403.75 577.68
  Q 404.82 577.58 405.88 577.39
  Q 406.37 577.30 406.74 576.96
  Q 411.99 572.05 419.51 570.29
  Q 455.42 561.89 492.24 559.74
  C 500.69 559.24 508.87 556.36 517.49 555.35
  Q 521.91 554.83 527.97 555.49
  C 543.60 557.17 557.18 557.13 572.72 554.15
  Q 597.39 549.42 621.25 558.46
  Z"
/>
<path fill="#946340" d="
  M 621.25 558.46
  Q 648.74 563.21 674.80 572.90
  Q 687.56 577.65 693.45 579.58
  C 706.49 583.88 715.87 586.62 726.21 593.00
  C 729.67 600.35 729.15 604.16 720.26 606.27
  Q 698.25 611.49 678.24 621.99
  C 674.57 623.92 668.77 622.18 664.07 625.05
  Q 633.60 643.62 603.04 662.03
  C 596.90 665.73 590.20 674.82 582.59 679.01
  Q 573.81 683.84 563.56 684.51
  Q 562.91 684.55 562.54 684.02
  L 560.39 680.91
  Q 560.04 680.41 559.44 680.46
  C 546.93 681.49 535.26 678.48 522.56 679.88
  C 503.89 681.94 486.17 681.84 467.62 678.80
  C 458.09 677.23 450.16 678.06 439.26 678.32
  C 432.02 678.50 431.30 671.61 435.92 667.40
  C 448.57 655.87 465.15 651.82 481.16 647.35
  C 490.96 644.61 501.79 639.91 508.21 631.86
  Q 508.51 631.49 508.48 631.02
  Q 508.28 627.42 505.01 628.29
  Q 490.74 632.09 475.36 636.27
  A 1.00 1.00 0.0 0 1 474.23 634.81
  Q 479.51 625.62 489.13 620.33
  C 490.80 619.41 491.47 618.12 491.70 616.37
  C 493.31 604.17 447.26 632.60 444.28 634.52
  C 430.21 643.59 419.33 658.72 406.11 666.25
  Q 405.63 666.52 405.08 666.48
  Q 396.45 665.92 391.56 672.90
  Q 391.27 673.32 390.77 673.43
  C 383.47 674.94 374.77 674.50 367.25 674.77
  C 365.44 674.83 360.99 673.90 360.69 671.05
  C 360.10 665.51 367.76 658.70 372.21 655.91
  Q 394.23 642.11 414.14 625.38
  C 418.36 621.83 425.25 620.22 428.39 616.35
  Q 432.21 611.65 437.17 608.25
  C 441.04 605.60 446.55 604.80 449.91 601.50
  Q 461.19 590.44 476.73 587.33
  C 480.72 586.53 483.28 584.07 481.33 579.79
  C 477.71 571.81 486.87 569.85 492.74 569.09
  Q 503.77 567.65 514.91 567.23
  C 520.94 567.00 526.40 565.12 532.20 563.83
  Q 558.49 557.96 581.75 560.72
  C 588.04 561.47 596.94 563.74 604.08 563.01
  Q 612.95 562.10 621.25 558.46
  Z"
/>
<path fill="#140100" d="
  M 734.25 585.46
  Q 821.87 617.38 904.07 661.44
  C 928.72 674.65 955.52 683.24 979.41 697.91
  C 980.24 698.42 980.99 699.32 980.25 700.20
  L 915.71 699.71
  Q 915.27 699.71 914.91 699.46
  Q 914.63 699.27 914.50 699.27
  Q 795.43 698.78 726.25 698.71
  C 725.17 698.71 724.49 698.25 723.57 698.25
  Q 569.72 698.25 415.88 698.25
  C 415.27 698.25 414.71 698.71 414.19 698.71
  Q 243.18 698.97 72.17 699.28
  C 69.56 699.29 66.19 700.13 63.49 699.75
  Q 54.11 698.42 43.75 694.04
  L 104.75 670.71
  L 106.06 672.82
  Q 106.32 673.25 106.34 673.74
  Q 106.39 675.50 107.30 676.94
  Q 107.58 677.40 108.11 677.54
  C 119.92 680.68 131.40 685.34 143.69 685.94
  Q 148.80 686.19 168.81 683.31
  Q 174.27 682.52 190.32 683.63
  C 192.65 683.79 195.00 683.22 197.00 683.25
  Q 232.97 683.68 268.81 680.80
  Q 306.58 683.07 332.50 682.71
  Q 339.02 682.61 341.22 683.13
  C 346.00 684.27 350.50 685.73 355.46 685.73
  C 374.10 685.76 392.90 685.26 411.49 686.29
  C 426.09 687.10 438.34 687.93 455.07 687.05
  C 470.72 686.23 485.70 686.69 501.05 686.72
  C 522.78 686.76 544.11 684.61 565.91 685.82
  C 569.85 686.04 575.02 685.99 579.13 685.62
  Q 603.92 683.40 614.25 683.04
  Q 709.71 679.73 805.08 684.66
  Q 816.32 685.25 824.07 685.06
  C 836.78 684.77 850.08 683.63 863.55 684.71
  C 880.74 686.09 895.19 682.58 911.57 687.02
  A 1.75 1.75 0.0 0 0 913.78 685.31
  C 913.76 681.87 911.82 679.49 908.62 677.93
  Q 872.66 660.41 836.71 642.87
  C 808.22 628.96 778.15 619.22 750.06 604.19
  C 745.81 601.92 743.52 606.82 739.73 600.74
  Q 736.95 596.26 733.00 592.71
  Q 730.89 588.50 734.25 585.46
  Z"
/>
</svg>
