<?xml version="1.0" encoding="UTF-8" standalone="no"?>
<!DOCTYPE svg PUBLIC "-//W3C//DTD SVG 1.1//EN" "http://www.w3.org/Graphics/SVG/1.1/DTD/svg11.dtd">
<svg xmlns="http://www.w3.org/2000/svg" version="1.1" viewBox="0.00 0.00 1014.00 836.00">
<g stroke-width="2.00" fill="none" stroke-linecap="butt">
<path stroke="#f1e2d7" vector-effect="non-scaling-stroke" d="
  M 986.43 725.36
  Q 925.24 725.69 906.31 725.43
  C 735.28 723.08 587.47 723.11 428.06 723.82
  C 342.71 724.19 257.35 723.20 172.00 724.12
  Q 123.53 724.65 75.07 723.51
  C 67.02 723.32 60.82 725.87 52.44 729.22
  Q 45.48 732.00 36.41 728.98"
/>
<path stroke="#8a7b75" vector-effect="non-scaling-stroke" d="
  M 991.06 745.05
  Q 989.43 745.06 987.84 744.83
  Q 985.88 744.54 984.64 744.58
  Q 959.44 745.30 934.25 746.29"
/>
<path stroke="#a38977" vector-effect="non-scaling-stroke" d="
  M 934.25 746.29
  L 728.75 746.26
  Q 728.72 746.26 727.78 746.42
  Q 727.47 746.47 727.00 746.47
  Q 483.17 746.42 36.31 746.99
  Q 32.68 746.99 32.07 750.46
  A 0.39 0.39 0.0 0 1 31.61 750.77
  Q 31.14 750.67 31.21 750.25"
/>
<path stroke="#2d1002" vector-effect="non-scaling-stroke" d="
  M 947.00 791.71
  C 946.72 791.46 946.35 791.22 945.95 791.21
  Q 858.45 790.83 770.94 791.05
  Q 770.76 791.05 770.85 791.21
  L 771.00 791.46"
/>
<path stroke="#2d1002" vector-effect="non-scaling-stroke" d="
  M 560.00 791.46
  Q 559.98 791.33 559.96 791.19
  Q 559.94 791.06 559.81 791.07
  L 518.75 791.21"
/>
<path stroke="#2d1002" vector-effect="non-scaling-stroke" d="
  M 30.94 759.28
  Q 31.84 755.69 31.60 751.94
  Q 31.56 751.29 32.19 751.10
  L 39.38 748.91
  A 1.86 1.86 0.0 0 1 41.59 749.88
  C 43.65 754.09 45.32 759.96 49.60 762.15
  C 65.05 770.05 78.56 771.75 96.75 771.39
  C 114.65 771.05 132.66 770.40 150.49 770.53
  C 219.23 771.03 276.48 772.65 356.56 771.96
  C 528.63 770.49 700.69 768.67 872.76 771.51
  C 893.04 771.84 913.52 769.85 933.70 771.10
  C 936.21 771.26 937.26 772.41 939.02 773.98
  Q 946.11 780.36 956.00 780.66
  C 959.74 780.77 959.66 773.05 960.11 770.16
  Q 960.32 768.78 961.71 768.64
  L 976.97 767.08
  A 1.86 1.86 0.0 0 0 978.62 764.96
  C 977.06 753.92 958.30 755.26 950.76 756.03
  C 946.85 756.42 921.85 760.42 926.04 750.74
  Q 926.26 750.26 926.77 750.12
  C 929.62 749.39 932.63 749.10 934.25 746.29"
/>
</g>
<path fill="#e3cfc3" d="
  M 986.43 725.36
  Q 925.24 725.69 906.31 725.43
  C 735.28 723.08 587.47 723.11 428.06 723.82
  C 342.71 724.19 257.35 723.20 172.00 724.12
  Q 123.53 724.65 75.07 723.51
  C 67.02 723.32 60.82 725.87 52.44 729.22
  Q 45.48 732.00 36.41 728.98
  C 61.81 620.41 114.80 519.77 172.08 427.43
  C 177.81 418.19 182.92 409.60 191.56 403.83
  C 217.68 386.40 240.68 367.14 259.06 342.31
  C 282.72 310.34 312.48 265.25 342.91 231.17
  C 360.40 211.59 380.87 194.61 403.06 179.67
  Q 446.73 150.27 493.18 125.61
  Q 494.48 124.92 495.33 126.11
  Q 551.40 204.96 607.17 283.32
  Q 608.80 285.62 610.82 286.36
  Q 611.35 286.56 611.87 286.32
  Q 614.24 285.20 616.37 284.07
  Q 644.78 268.95 707.03 236.07
  C 723.56 227.34 738.92 216.48 755.31 232.59
  Q 760.41 237.61 762.51 241.26
  C 801.81 309.59 843.29 376.93 887.19 448.06
  Q 894.02 459.11 897.46 465.20
  C 918.23 501.99 932.40 541.43 944.36 581.83
  Q 964.11 648.55 983.35 715.43
  Q 984.83 720.59 986.43 725.36
  Z"
/>
<path fill="#fff4ea" d="
  M 986.43 725.36
  Q 991.15 734.79 991.06 745.05
  Q 989.43 745.06 987.84 744.83
  Q 985.88 744.54 984.64 744.58
  Q 959.44 745.30 934.25 746.29
  L 728.75 746.26
  Q 728.72 746.26 727.78 746.42
  Q 727.47 746.47 727.00 746.47
  Q 483.17 746.42 36.31 746.99
  Q 32.68 746.99 32.07 750.46
  A 0.39 0.39 0.0 0 1 31.61 750.77
  Q 31.14 750.67 31.21 750.25
  L 36.41 728.98
  Q 45.48 732.00 52.44 729.22
  C 60.82 725.87 67.02 723.32 75.07 723.51
  Q 123.53 724.65 172.00 724.12
  C 257.35 723.20 342.71 724.19 428.06 723.82
  C 587.47 723.11 735.28 723.08 906.31 725.43
  Q 925.24 725.69 986.43 725.36
  Z"
/>
<path fill="#140100" d="
  M 991.06 745.05
  Q 990.94 763.46 990.52 781.99
  C 990.42 786.36 991.26 792.01 985.06 792.05
  Q 966.01 792.20 947.00 791.71
  C 946.72 791.46 946.35 791.22 945.95 791.21
  Q 858.45 790.83 770.94 791.05
  Q 770.76 791.05 770.85 791.21
  L 771.00 791.46
  Q 767.47 791.57 763.94 791.59
  Q 661.97 792.00 560.00 791.46
  Q 559.98 791.33 559.96 791.19
  Q 559.94 791.06 559.81 791.07
  L 518.75 791.21
  Q 346.78 791.02 174.81 792.01
  C 149.24 792.16 123.75 792.43 98.18 791.51
  Q 70.18 790.49 49.25 792.02
  C 42.94 792.48 31.67 792.64 30.96 784.01
  Q 30.24 775.39 30.94 759.28
  Q 31.84 755.69 31.60 751.94
  Q 31.56 751.29 32.19 751.10
  L 39.38 748.91
  A 1.86 1.86 0.0 0 1 41.59 749.88
  C 43.65 754.09 45.32 759.96 49.60 762.15
  C 65.05 770.05 78.56 771.75 96.75 771.39
  C 114.65 771.05 132.66 770.40 150.49 770.53
  C 219.23 771.03 276.48 772.65 356.56 771.96
  C 528.63 770.49 700.69 768.67 872.76 771.51
  C 893.04 771.84 913.52 769.85 933.70 771.10
  C 936.21 771.26 937.26 772.41 939.02 773.98
  Q 946.11 780.36 956.00 780.66
  C 959.74 780.77 959.66 773.05 960.11 770.16
  Q 960.32 768.78 961.71 768.64
  L 976.97 767.08
  A 1.86 1.86 0.0 0 0 978.62 764.96
  C 977.06 753.92 958.30 755.26 950.76 756.03
  C 946.85 756.42 921.85 760.42 926.04 750.74
  Q 926.26 750.26 926.77 750.12
  C 929.62 749.39 932.63 749.10 934.25 746.29
  Q 959.44 745.30 984.64 744.58
  Q 985.88 744.54 987.84 744.83
  Q 989.43 745.06 991.06 745.05
  Z"
/>
<path fill="#461e03" d="
  M 934.25 746.29
  C 932.63 749.10 929.62 749.39 926.77 750.12
  Q 926.26 750.26 926.04 750.74
  C 921.85 760.42 946.85 756.42 950.76 756.03
  C 958.30 755.26 977.06 753.92 978.62 764.96
  A 1.86 1.86 0.0 0 1 976.97 767.08
  L 961.71 768.64
  Q 960.32 768.78 960.11 770.16
  C 959.66 773.05 959.74 780.77 956.00 780.66
  Q 946.11 780.36 939.02 773.98
  C 937.26 772.41 936.21 771.26 933.70 771.10
  C 913.52 769.85 893.04 771.84 872.76 771.51
  C 700.69 768.67 528.63 770.49 356.56 771.96
  C 276.48 772.65 219.23 771.03 150.49 770.53
  C 132.66 770.40 114.65 771.05 96.75 771.39
  C 78.56 771.75 65.05 770.05 49.60 762.15
  C 45.32 759.96 43.65 754.09 41.59 749.88
  A 1.86 1.86 0.0 0 0 39.38 748.91
  L 32.19 751.10
  Q 31.56 751.29 31.60 751.94
  Q 31.84 755.69 30.94 759.28
  Q 30.34 754.69 31.21 750.25
  Q 31.14 750.67 31.61 750.77
  A 0.39 0.39 0.0 0 0 32.07 750.46
  Q 32.68 746.99 36.31 746.99
  Q 483.17 746.42 727.00 746.47
  Q 727.47 746.47 727.78 746.42
  Q 728.72 746.26 728.75 746.26
  L 934.25 746.29
  Z"
/>
<path fill="#461e03" d="
  M 560.00 791.46
  L 518.75 791.21
  L 559.81 791.07
  Q 559.94 791.06 559.96 791.19
  Q 559.98 791.33 560.00 791.46
  Z"
/>
<path fill="#461e03" d="
  M 947.00 791.71
  L 771.00 791.46
  L 770.85 791.21
  Q 770.76 791.05 770.94 791.05
  Q 858.45 790.83 945.95 791.21
  C 946.35 791.22 946.72 791.46 947.00 791.71
  Z"
/>
</svg>
