<?xml version="1.0" encoding="UTF-8" standalone="no"?>
<!DOCTYPE svg PUBLIC "-//W3C//DTD SVG 1.1//EN" "http://www.w3.org/Graphics/SVG/1.1/DTD/svg11.dtd">
<svg xmlns="http://www.w3.org/2000/svg" version="1.1" viewBox="0.00 0.00 1057.00 776.00">
<g stroke-width="2.00" fill="none" stroke-linecap="butt">
<path stroke="#8a7b75" vector-effect="non-scaling-stroke" d="
  M 1033.65 743.21
  C 1025.81 727.51 1021.83 712.38 1017.73 695.47
  Q 993.60 595.86 968.43 496.50
  Q 965.27 484.03 962.85 477.29
  C 956.54 459.71 947.46 444.61 937.57 428.88
  Q 859.31 304.45 779.60 180.93
  C 774.98 173.77 756.72 182.88 750.09 186.12
  C 714.59 203.42 680.66 224.82 647.42 246.07
  C 645.50 247.30 644.04 247.73 642.24 246.24
  C 629.67 235.89 620.75 225.12 611.06 210.80
  Q 569.64 149.65 528.83 88.10
  C 524.88 82.14 521.45 78.14 514.43 82.93
  Q 467.29 115.06 426.81 144.24
  C 405.85 159.35 385.90 176.04 370.24 196.76
  Q 314.43 270.55 258.50 344.25
  Q 254.50 349.52 249.08 353.29
  C 247.38 354.47 246.56 354.51 244.91 353.34
  Q 238.53 348.80 232.11 344.30
  C 226.06 340.06 219.84 338.12 215.58 345.57
  Q 156.97 448.05 98.04 550.35
  Q 85.90 571.42 80.53 584.80
  Q 75.04 598.47 73.93 603.99
  Q 59.86 674.44 47.64 745.24
  C 47.38 746.73 47.66 747.83 47.75 749.29"
/>
<path stroke="#3e2212" vector-effect="non-scaling-stroke" d="
  M 345.46 257.25
  Q 338.53 265.54 331.77 273.97
  C 319.38 289.44 309.27 306.98 295.23 321.05
  C 280.63 335.67 268.98 351.12 250.85 361.37
  Q 249.06 362.38 247.07 363.01
  Q 246.58 363.16 246.09 362.99
  C 238.95 360.52 231.45 359.42 228.48 367.93"
/>
<path stroke="#543220" vector-effect="non-scaling-stroke" d="
  M 228.48 367.93
  C 214.10 391.00 198.65 413.66 185.61 437.15
  Q 182.28 443.16 180.31 449.74
  Q 180.17 450.24 180.28 450.74
  L 180.82 453.05
  Q 180.95 453.63 180.58 454.09
  C 154.93 486.09 132.21 519.26 112.93 555.51"
/>
<path stroke="#3e2212" vector-effect="non-scaling-stroke" d="
  M 112.93 555.51
  L 110.21 562.00"
/>
<path stroke="#2d1002" vector-effect="non-scaling-stroke" d="
  M 110.21 562.00
  C 93.01 588.64 78.85 619.89 79.22 652.02
  Q 79.23 652.53 78.94 652.96
  C 70.64 665.29 71.51 679.54 69.08 690.77
  Q 67.97 695.89 64.12 700.47
  Q 62.60 702.28 62.20 704.06
  Q 58.85 718.82 68.86 730.32"
/>
<path stroke="#3e2212" vector-effect="non-scaling-stroke" d="
  M 68.86 730.32
  Q 72.06 731.64 73.57 731.64
  Q 86.22 731.60 114.06 732.13
  Q 237.03 734.47 375.44 734.17
  C 394.01 734.13 424.41 736.32 453.00 736.29
  Q 561.79 736.18 670.56 734.60
  C 702.50 734.14 743.16 735.04 785.50 734.98
  Q 829.29 734.91 841.75 734.26
  Q 920.98 730.09 1000.25 732.88
  C 1004.64 733.03 1016.34 729.29 1014.25 722.71
  Q 998.39 672.71 985.28 621.92
  Q 982.78 612.22 979.71 602.73
  C 972.09 579.16 965.64 555.23 957.79 531.75"
/>
<path stroke="#543220" vector-effect="non-scaling-stroke" d="
  M 957.79 531.75
  C 955.87 522.74 952.63 513.91 951.27 505.05
  C 949.90 496.14 949.82 487.90 944.72 480.02
  C 937.42 468.74 930.80 457.08 923.19 446.13
  Q 904.89 419.78 888.69 392.06
  C 856.88 337.58 823.80 283.69 793.78 228.21
  C 787.36 216.35 772.59 190.83 755.33 197.82
  C 740.49 203.83 727.50 216.91 713.47 225.94
  Q 702.43 233.04 691.46 240.25"
/>
<path stroke="#3e2212" vector-effect="non-scaling-stroke" d="
  M 691.46 240.25
  C 674.88 247.94 656.70 253.08 642.46 263.25
  A 2.08 2.07 -48.0 0 1 640.23 263.37
  Q 614.69 248.95 598.71 224.50"
/>
<path stroke="#543220" vector-effect="non-scaling-stroke" d="
  M 598.71 224.50
  C 593.48 210.55 584.12 200.86 577.16 188.23
  C 571.86 178.61 564.71 169.84 558.33 160.92
  Q 551.81 151.81 545.34 138.19
  C 538.26 123.28 529.55 109.48 518.34 98.91
  C 516.60 97.28 513.32 97.94 511.33 99.42
  C 501.53 106.67 489.50 113.44 482.53 119.02
  Q 478.75 122.04 465.18 135.43
  Q 454.26 146.20 426.09 170.25
  C 395.71 196.19 368.86 224.81 345.46 257.25"
/>
<path stroke="#7e5332" vector-effect="non-scaling-stroke" d="
  M 598.71 224.50
  C 596.74 224.59 594.01 222.42 592.96 222.76
  A 0.59 0.59 0.0 0 0 592.71 223.72
  Q 602.89 234.58 612.93 245.53
  C 615.81 248.66 615.00 252.04 618.27 255.44
  C 632.01 269.70 641.59 284.72 653.03 302.11
  C 661.17 314.46 671.13 328.00 679.45 341.55
  Q 688.10 355.63 702.66 363.41
  Q 703.76 363.99 704.41 365.08
  Q 714.73 382.41 724.94 399.81
  C 728.31 405.53 723.45 407.82 718.34 408.93
  Q 717.87 409.04 717.45 408.79
  Q 713.39 406.41 710.53 403.47
  C 701.88 394.60 693.40 384.92 684.10 376.78
  Q 678.52 371.88 675.46 370.27
  C 654.10 359.04 637.49 343.81 620.26 327.10
  C 606.96 314.21 593.49 301.94 578.46 290.79
  Q 563.60 279.78 548.83 268.68
  Q 538.66 261.03 531.27 270.99
  Q 529.46 273.44 530.05 275.94
  Q 532.51 286.34 525.90 293.61
  C 523.86 295.86 522.16 296.35 523.50 300.04
  Q 534.62 330.70 528.85 362.51
  Q 526.96 372.92 526.70 376.07
  C 525.92 385.85 526.93 397.93 526.65 405.19
  C 526.19 417.03 523.95 427.18 525.83 440.03
  C 526.05 441.53 525.17 442.64 523.60 442.08
  Q 523.15 441.92 522.93 441.48
  C 499.67 395.25 473.05 345.81 441.46 302.96
  C 435.66 295.09 431.05 281.10 418.23 284.72
  Q 407.66 287.70 396.47 293.31
  C 383.63 299.74 369.51 302.38 356.72 308.64
  Q 350.64 311.61 348.06 313.80
  C 341.50 319.36 307.34 345.06 299.91 335.38
  C 296.44 330.85 298.14 326.82 301.88 322.89
  Q 316.17 307.88 325.74 289.47
  C 328.54 284.08 333.57 283.31 338.66 281.36
  Q 339.13 281.18 339.37 280.74
  Q 345.51 269.77 345.46 257.25"
/>
<path stroke="#573114" vector-effect="non-scaling-stroke" d="
  M 68.86 730.32
  Q 69.32 723.15 74.79 719.19
  Q 75.25 718.86 75.38 718.31
  Q 77.30 710.19 82.86 704.01
  Q 83.22 703.61 83.22 703.07
  C 83.24 686.97 82.63 669.01 91.01 653.56
  C 91.31 653.00 91.77 651.78 91.75 651.01
  Q 90.95 622.27 101.01 595.38
  C 105.18 584.24 109.78 574.16 110.21 562.00"
/>
<path stroke="#7e5332" vector-effect="non-scaling-stroke" d="
  M 112.93 555.51
  Q 116.64 554.76 119.95 552.99
  Q 120.44 552.73 120.92 553.03
  C 122.80 554.25 126.07 557.55 128.63 557.52
  Q 129.14 557.51 129.56 557.21
  C 139.98 549.64 149.14 545.67 162.17 551.07
  Q 162.60 551.25 163.06 551.25
  L 165.41 551.25
  Q 165.95 551.25 166.45 551.03
  Q 187.82 541.65 211.16 540.36
  Q 211.68 540.33 212.06 539.98
  C 221.19 531.54 228.03 518.54 232.87 507.65
  Q 241.73 487.75 248.63 466.66
  A 1.39 1.38 -59.3 0 1 250.89 466.08
  Q 285.06 498.14 318.42 532.44
  C 330.16 544.52 341.95 553.46 355.82 561.81
  A 1.47 1.46 85.7 0 0 357.70 559.62
  C 322.65 517.02 283.69 473.92 263.21 422.12
  Q 257.45 407.54 255.52 403.78
  Q 245.15 383.57 228.48 367.93"
/>
<path stroke="#7e5332" vector-effect="non-scaling-stroke" d="
  M 957.79 531.75
  Q 957.13 532.87 956.53 534.06
  C 954.77 537.56 949.68 538.25 948.46 533.76
  C 941.86 509.43 935.69 483.97 923.62 461.64
  Q 920.12 455.17 913.08 445.41
  Q 890.82 414.53 868.55 383.65
  C 864.17 377.57 858.53 373.49 855.65 366.26
  Q 855.46 365.79 855.04 365.49
  Q 849.02 361.25 842.57 357.68
  C 822.11 346.40 801.35 336.03 782.16 321.66
  Q 781.82 321.41 781.40 321.39
  L 772.64 321.06
  Q 772.13 321.05 771.74 320.71
  C 769.20 318.47 767.02 318.06 763.60 319.13
  C 726.80 330.71 697.52 312.35 679.18 281.41
  Q 678.91 280.95 678.42 280.76
  C 674.16 279.10 668.78 278.08 668.58 272.25
  Q 668.56 271.76 668.85 271.37
  L 691.46 240.25"
/>
</g>
<path fill="#fff4ea" d="
  M 1033.65 743.21
  C 1025.81 727.51 1021.83 712.38 1017.73 695.47
  Q 993.60 595.86 968.43 496.50
  Q 965.27 484.03 962.85 477.29
  C 956.54 459.71 947.46 444.61 937.57 428.88
  Q 859.31 304.45 779.60 180.93
  C 774.98 173.77 756.72 182.88 750.09 186.12
  C 714.59 203.42 680.66 224.82 647.42 246.07
  C 645.50 247.30 644.04 247.73 642.24 246.24
  C 629.67 235.89 620.75 225.12 611.06 210.80
  Q 569.64 149.65 528.83 88.10
  C 524.88 82.14 521.45 78.14 514.43 82.93
  Q 467.29 115.06 426.81 144.24
  C 405.85 159.35 385.90 176.04 370.24 196.76
  Q 314.43 270.55 258.50 344.25
  Q 254.50 349.52 249.08 353.29
  C 247.38 354.47 246.56 354.51 244.91 353.34
  Q 238.53 348.80 232.11 344.30
  C 226.06 340.06 219.84 338.12 215.58 345.57
  Q 156.97 448.05 98.04 550.35
  Q 85.90 571.42 80.53 584.80
  Q 75.04 598.47 73.93 603.99
  Q 59.86 674.44 47.64 745.24
  C 47.38 746.73 47.66 747.83 47.75 749.29
  C 45.32 743.34 44.07 735.95 40.39 730.79
  Q 40.10 730.38 40.10 729.87
  C 40.11 718.68 38.14 708.18 37.68 693.74
  Q 37.05 674.16 36.78 654.56
  C 36.74 651.27 35.76 644.44 36.95 639.99
  Q 41.23 624.03 44.38 607.82
  Q 46.91 594.77 48.76 588.32
  C 59.99 549.30 81.21 512.89 104.97 480.20
  C 112.19 470.27 116.13 459.16 122.93 449.09
  Q 129.33 439.63 133.78 429.05
  C 143.74 405.42 156.74 382.92 168.62 360.21
  C 169.91 357.74 170.24 354.79 173.22 352.65
  Q 173.64 352.35 173.71 351.85
  C 173.82 351.11 173.84 350.40 174.23 349.74
  Q 184.72 331.76 197.09 319.33
  Q 199.09 317.32 203.32 316.62
  Q 216.12 314.51 228.90 312.30
  Q 229.40 312.21 229.86 312.44
  C 237.20 316.01 244.66 316.78 250.50 310.23
  Q 263.69 295.43 278.28 274.79
  Q 298.27 246.53 319.19 218.96
  Q 325.90 210.11 331.03 202.84
  C 338.75 191.88 346.53 179.75 354.71 170.37
  C 367.27 155.99 381.75 143.75 396.78 132.06
  C 433.48 103.52 469.16 74.85 509.36 51.09
  A 0.60 0.59 -20.5 0 1 510.25 51.49
  L 511.34 57.71
  A 1.28 1.28 0.0 0 0 512.47 58.76
  C 516.20 59.15 522.99 59.33 525.95 61.56
  Q 537.40 70.19 548.49 79.26
  Q 550.33 80.76 551.58 83.03
  C 556.12 91.32 561.14 95.83 569.30 101.22
  C 574.75 104.82 572.12 113.80 570.40 118.75
  C 568.70 123.67 576.74 137.81 579.48 142.27
  C 589.77 159.08 599.04 173.23 613.05 185.96
  Q 623.12 195.12 633.07 204.42
  C 637.37 208.45 640.88 210.62 646.49 210.05
  C 651.11 209.58 653.84 205.80 658.30 204.77
  Q 668.62 202.38 674.96 198.72
  Q 688.69 190.79 724.20 170.72
  C 745.16 158.88 778.54 143.40 792.99 174.74
  Q 793.65 176.16 796.94 178.31
  C 801.75 181.44 808.12 194.45 811.83 200.24
  C 814.90 205.03 819.15 207.57 824.15 209.66
  Q 824.63 209.86 824.91 210.31
  Q 830.56 219.39 837.73 227.32
  Q 838.10 227.73 838.06 228.28
  C 837.84 231.87 837.56 234.71 839.73 237.02
  C 851.19 249.20 859.10 261.39 868.54 277.71
  Q 872.15 283.96 885.08 299.94
  C 899.08 317.25 913.93 333.98 925.10 353.33
  C 927.98 358.33 929.38 365.71 934.12 369.08
  Q 945.74 377.30 952.98 389.38
  C 957.63 397.13 960.40 405.20 965.52 413.08
  C 971.64 422.49 975.11 429.71 976.20 440.73
  C 977.61 454.96 981.43 469.44 988.75 481.81
  C 991.22 485.99 993.80 489.90 995.55 494.36
  Q 1001.80 510.26 1004.66 527.06
  C 1006.78 539.50 1006.14 552.57 1010.01 564.88
  C 1020.22 597.43 1027.49 622.66 1036.77 663.25
  C 1037.18 665.07 1035.81 668.20 1036.10 670.62
  Q 1037.31 680.59 1036.69 690.58
  C 1035.90 703.19 1035.99 713.37 1035.99 724.87
  Q 1036.00 729.74 1035.29 734.08
  Q 1034.56 738.51 1033.65 743.21
  Z"
/>
<path fill="#140100" d="
  M 1033.65 743.21
  Q 1034.56 744.79 1033.23 746.22
  Q 1032.87 746.59 1032.98 747.09
  C 1033.41 749.06 1031.87 749.52 1030.23 749.52
  C 1025.08 749.52 1019.53 750.32 1014.83 750.31
  C 736.57 749.29 458.27 749.62 180.00 750.00
  Q 179.82 750.00 179.74 750.12
  Q 179.64 750.28 179.46 750.28
  Q 115.48 750.11 51.50 750.57
  Q 50.20 750.58 47.75 749.29
  C 47.66 747.83 47.38 746.73 47.64 745.24
  Q 59.86 674.44 73.93 603.99
  Q 75.04 598.47 80.53 584.80
  Q 85.90 571.42 98.04 550.35
  Q 156.97 448.05 215.58 345.57
  C 219.84 338.12 226.06 340.06 232.11 344.30
  Q 238.53 348.80 244.91 353.34
  C 246.56 354.51 247.38 354.47 249.08 353.29
  Q 254.50 349.52 258.50 344.25
  Q 314.43 270.55 370.24 196.76
  C 385.90 176.04 405.85 159.35 426.81 144.24
  Q 467.29 115.06 514.43 82.93
  C 521.45 78.14 524.88 82.14 528.83 88.10
  Q 569.64 149.65 611.06 210.80
  C 620.75 225.12 629.67 235.89 642.24 246.24
  C 644.04 247.73 645.50 247.30 647.42 246.07
  C 680.66 224.82 714.59 203.42 750.09 186.12
  C 756.72 182.88 774.98 173.77 779.60 180.93
  Q 859.31 304.45 937.57 428.88
  C 947.46 444.61 956.54 459.71 962.85 477.29
  Q 965.27 484.03 968.43 496.50
  Q 993.60 595.86 1017.73 695.47
  C 1021.83 712.38 1025.81 727.51 1033.65 743.21
  Z
  M 345.46 257.25
  Q 338.53 265.54 331.77 273.97
  C 319.38 289.44 309.27 306.98 295.23 321.05
  C 280.63 335.67 268.98 351.12 250.85 361.37
  Q 249.06 362.38 247.07 363.01
  Q 246.58 363.16 246.09 362.99
  C 238.95 360.52 231.45 359.42 228.48 367.93
  C 214.10 391.00 198.65 413.66 185.61 437.15
  Q 182.28 443.16 180.31 449.74
  Q 180.17 450.24 180.28 450.74
  L 180.82 453.05
  Q 180.95 453.63 180.58 454.09
  C 154.93 486.09 132.21 519.26 112.93 555.51
  L 110.21 562.00
  C 93.01 588.64 78.85 619.89 79.22 652.02
  Q 79.23 652.53 78.94 652.96
  C 70.64 665.29 71.51 679.54 69.08 690.77
  Q 67.97 695.89 64.12 700.47
  Q 62.60 702.28 62.20 704.06
  Q 58.85 718.82 68.86 730.32
  Q 72.06 731.64 73.57 731.64
  Q 86.22 731.60 114.06 732.13
  Q 237.03 734.47 375.44 734.17
  C 394.01 734.13 424.41 736.32 453.00 736.29
  Q 561.79 736.18 670.56 734.60
  C 702.50 734.14 743.16 735.04 785.50 734.98
  Q 829.29 734.91 841.75 734.26
  Q 920.98 730.09 1000.25 732.88
  C 1004.64 733.03 1016.34 729.29 1014.25 722.71
  Q 998.39 672.71 985.28 621.92
  Q 982.78 612.22 979.71 602.73
  C 972.09 579.16 965.64 555.23 957.79 531.75
  C 955.87 522.74 952.63 513.91 951.27 505.05
  C 949.90 496.14 949.82 487.90 944.72 480.02
  C 937.42 468.74 930.80 457.08 923.19 446.13
  Q 904.89 419.78 888.69 392.06
  C 856.88 337.58 823.80 283.69 793.78 228.21
  C 787.36 216.35 772.59 190.83 755.33 197.82
  C 740.49 203.83 727.50 216.91 713.47 225.94
  Q 702.43 233.04 691.46 240.25
  C 674.88 247.94 656.70 253.08 642.46 263.25
  A 2.08 2.07 -48.0 0 1 640.23 263.37
  Q 614.69 248.95 598.71 224.50
  C 593.48 210.55 584.12 200.86 577.16 188.23
  C 571.86 178.61 564.71 169.84 558.33 160.92
  Q 551.81 151.81 545.34 138.19
  C 538.26 123.28 529.55 109.48 518.34 98.91
  C 516.60 97.28 513.32 97.94 511.33 99.42
  C 501.53 106.67 489.50 113.44 482.53 119.02
  Q 478.75 122.04 465.18 135.43
  Q 454.26 146.20 426.09 170.25
  C 395.71 196.19 368.86 224.81 345.46 257.25
  Z"
/>
<path fill="#946340" d="
  M 598.71 224.50
  C 596.74 224.59 594.01 222.42 592.96 222.76
  A 0.59 0.59 0.0 0 0 592.71 223.72
  Q 602.89 234.58 612.93 245.53
  C 615.81 248.66 615.00 252.04 618.27 255.44
  C 632.01 269.70 641.59 284.72 653.03 302.11
  C 661.17 314.46 671.13 328.00 679.45 341.55
  Q 688.10 355.63 702.66 363.41
  Q 703.76 363.99 704.41 365.08
  Q 714.73 382.41 724.94 399.81
  C 728.31 405.53 723.45 407.82 718.34 408.93
  Q 717.87 409.04 717.45 408.79
  Q 713.39 406.41 710.53 403.47
  C 701.88 394.60 693.40 384.92 684.10 376.78
  Q 678.52 371.88 675.46 370.27
  C 654.10 359.04 637.49 343.81 620.26 327.10
  C 606.96 314.21 593.49 301.94 578.46 290.79
  Q 563.60 279.78 548.83 268.68
  Q 538.66 261.03 531.27 270.99
  Q 529.46 273.44 530.05 275.94
  Q 532.51 286.34 525.90 293.61
  C 523.86 295.86 522.16 296.35 523.50 300.04
  Q 534.62 330.70 528.85 362.51
  Q 526.96 372.92 526.70 376.07
  C 525.92 385.85 526.93 397.93 526.65 405.19
  C 526.19 417.03 523.95 427.18 525.83 440.03
  C 526.05 441.53 525.17 442.64 523.60 442.08
  Q 523.15 441.92 522.93 441.48
  C 499.67 395.25 473.05 345.81 441.46 302.96
  C 435.66 295.09 431.05 281.10 418.23 284.72
  Q 407.66 287.70 396.47 293.31
  C 383.63 299.74 369.51 302.38 356.72 308.64
  Q 350.64 311.61 348.06 313.80
  C 341.50 319.36 307.34 345.06 299.91 335.38
  C 296.44 330.85 298.14 326.82 301.88 322.89
  Q 316.17 307.88 325.74 289.47
  C 328.54 284.08 333.57 283.31 338.66 281.36
  Q 339.13 281.18 339.37 280.74
  Q 345.51 269.77 345.46 257.25
  C 368.86 224.81 395.71 196.19 426.09 170.25
  Q 454.26 146.20 465.18 135.43
  Q 478.75 122.04 482.53 119.02
  C 489.50 113.44 501.53 106.67 511.33 99.42
  C 513.32 97.94 516.60 97.28 518.34 98.91
  C 529.55 109.48 538.26 123.28 545.34 138.19
  Q 551.81 151.81 558.33 160.92
  C 564.71 169.84 571.86 178.61 577.16 188.23
  C 584.12 200.86 593.48 210.55 598.71 224.50
  Z"
/>
<path fill="#946340" d="
  M 957.79 531.75
  Q 957.13 532.87 956.53 534.06
  C 954.77 537.56 949.68 538.25 948.46 533.76
  C 941.86 509.43 935.69 483.97 923.62 461.64
  Q 920.12 455.17 913.08 445.41
  Q 890.82 414.53 868.55 383.65
  C 864.17 377.57 858.53 373.49 855.65 366.26
  Q 855.46 365.79 855.04 365.49
  Q 849.02 361.25 842.57 357.68
  C 822.11 346.40 801.35 336.03 782.16 321.66
  Q 781.82 321.41 781.40 321.39
  L 772.64 321.06
  Q 772.13 321.05 771.74 320.71
  C 769.20 318.47 767.02 318.06 763.60 319.13
  C 726.80 330.71 697.52 312.35 679.18 281.41
  Q 678.91 280.95 678.42 280.76
  C 674.16 279.10 668.78 278.08 668.58 272.25
  Q 668.56 271.76 668.85 271.37
  L 691.46 240.25
  Q 702.43 233.04 713.47 225.94
  C 727.50 216.91 740.49 203.83 755.33 197.82
  C 772.59 190.83 787.36 216.35 793.78 228.21
  C 823.80 283.69 856.88 337.58 888.69 392.06
  Q 904.89 419.78 923.19 446.13
  C 930.80 457.08 937.42 468.74 944.72 480.02
  C 949.82 487.90 949.90 496.14 951.27 505.05
  C 952.63 513.91 955.87 522.74 957.79 531.75
  Z"
/>
<path fill="#674324" d="
  M 598.71 224.50
  Q 614.69 248.95 640.23 263.37
  A 2.08 2.07 -48.0 0 0 642.46 263.25
  C 656.70 253.08 674.88 247.94 691.46 240.25
  L 668.85 271.37
  Q 668.56 271.76 668.58 272.25
  C 668.78 278.08 674.16 279.10 678.42 280.76
  Q 678.91 280.95 679.18 281.41
  C 697.52 312.35 726.80 330.71 763.60 319.13
  C 767.02 318.06 769.20 318.47 771.74 320.71
  Q 772.13 321.05 772.64 321.06
  L 781.40 321.39
  Q 781.82 321.41 782.16 321.66
  C 801.35 336.03 822.11 346.40 842.57 357.68
  Q 849.02 361.25 855.04 365.49
  Q 855.46 365.79 855.65 366.26
  C 858.53 373.49 864.17 377.57 868.55 383.65
  Q 890.82 414.53 913.08 445.41
  Q 920.12 455.17 923.62 461.64
  C 935.69 483.97 941.86 509.43 948.46 533.76
  C 949.68 538.25 954.77 537.56 956.53 534.06
  Q 957.13 532.87 957.79 531.75
  C 965.64 555.23 972.09 579.16 979.71 602.73
  Q 982.78 612.22 985.28 621.92
  Q 998.39 672.71 1014.25 722.71
  C 1016.34 729.29 1004.64 733.03 1000.25 732.88
  Q 920.98 730.09 841.75 734.26
  Q 829.29 734.91 785.50 734.98
  C 743.16 735.04 702.50 734.14 670.56 734.60
  Q 561.79 736.18 453.00 736.29
  C 424.41 736.32 394.01 734.13 375.44 734.17
  Q 237.03 734.47 114.06 732.13
  Q 86.22 731.60 73.57 731.64
  Q 72.06 731.64 68.86 730.32
  Q 69.32 723.15 74.79 719.19
  Q 75.25 718.86 75.38 718.31
  Q 77.30 710.19 82.86 704.01
  Q 83.22 703.61 83.22 703.07
  C 83.24 686.97 82.63 669.01 91.01 653.56
  C 91.31 653.00 91.77 651.78 91.75 651.01
  Q 90.95 622.27 101.01 595.38
  C 105.18 584.24 109.78 574.16 110.21 562.00
  L 112.93 555.51
  Q 116.64 554.76 119.95 552.99
  Q 120.44 552.73 120.92 553.03
  C 122.80 554.25 126.07 557.55 128.63 557.52
  Q 129.14 557.51 129.56 557.21
  C 139.98 549.64 149.14 545.67 162.17 551.07
  Q 162.60 551.25 163.06 551.25
  L 165.41 551.25
  Q 165.95 551.25 166.45 551.03
  Q 187.82 541.65 211.16 540.36
  Q 211.68 540.33 212.06 539.98
  C 221.19 531.54 228.03 518.54 232.87 507.65
  Q 241.73 487.75 248.63 466.66
  A 1.39 1.38 -59.3 0 1 250.89 466.08
  Q 285.06 498.14 318.42 532.44
  C 330.16 544.52 341.95 553.46 355.82 561.81
  A 1.47 1.46 85.7 0 0 357.70 559.62
  C 322.65 517.02 283.69 473.92 263.21 422.12
  Q 257.45 407.54 255.52 403.78
  Q 245.15 383.57 228.48 367.93
  C 231.45 359.42 238.95 360.52 246.09 362.99
  Q 246.58 363.16 247.07 363.01
  Q 249.06 362.38 250.85 361.37
  C 268.98 351.12 280.63 335.67 295.23 321.05
  C 309.27 306.98 319.38 289.44 331.77 273.97
  Q 338.53 265.54 345.46 257.25
  Q 345.51 269.77 339.37 280.74
  Q 339.13 281.18 338.66 281.36
  C 333.57 283.31 328.54 284.08 325.74 289.47
  Q 316.17 307.88 301.88 322.89
  C 298.14 326.82 296.44 330.85 299.91 335.38
  C 307.34 345.06 341.50 319.36 348.06 313.80
  Q 350.64 311.61 356.72 308.64
  C 369.51 302.38 383.63 299.74 396.47 293.31
  Q 407.66 287.70 418.23 284.72
  C 431.05 281.10 435.66 295.09 441.46 302.96
  C 473.05 345.81 499.67 395.25 522.93 441.48
  Q 523.15 441.92 523.60 442.08
  C 525.17 442.64 526.05 441.53 525.83 440.03
  C 523.95 427.18 526.19 417.03 526.65 405.19
  C 526.93 397.93 525.92 385.85 526.70 376.07
  Q 526.96 372.92 528.85 362.51
  Q 534.62 330.70 523.50 300.04
  C 522.16 296.35 523.86 295.86 525.90 293.61
  Q 532.51 286.34 530.05 275.94
  Q 529.46 273.44 531.27 270.99
  Q 538.66 261.03 548.83 268.68
  Q 563.60 279.78 578.46 290.79
  C 593.49 301.94 606.96 314.21 620.26 327.10
  C 637.49 343.81 654.10 359.04 675.46 370.27
  Q 678.52 371.88 684.10 376.78
  C 693.40 384.92 701.88 394.60 710.53 403.47
  Q 713.39 406.41 717.45 408.79
  Q 717.87 409.04 718.34 408.93
  C 723.45 407.82 728.31 405.53 724.94 399.81
  Q 714.73 382.41 704.41 365.08
  Q 703.76 363.99 702.66 363.41
  Q 688.10 355.63 679.45 341.55
  C 671.13 328.00 661.17 314.46 653.03 302.11
  C 641.59 284.72 632.01 269.70 618.27 255.44
  C 615.00 252.04 615.81 248.66 612.93 245.53
  Q 602.89 234.58 592.71 223.72
  A 0.59 0.59 0.0 0 1 592.96 222.76
  C 594.01 222.42 596.74 224.59 598.71 224.50
  Z"
/>
<path fill="#946340" d="
  M 228.48 367.93
  Q 245.15 383.57 255.52 403.78
  Q 257.45 407.54 263.21 422.12
  C 283.69 473.92 322.65 517.02 357.70 559.62
  A 1.47 1.46 85.7 0 1 355.82 561.81
  C 341.95 553.46 330.16 544.52 318.42 532.44
  Q 285.06 498.14 250.89 466.08
  A 1.39 1.38 -59.3 0 0 248.63 466.66
  Q 241.73 487.75 232.87 507.65
  C 228.03 518.54 221.19 531.54 212.06 539.98
  Q 211.68 540.33 211.16 540.36
  Q 187.82 541.65 166.45 551.03
  Q 165.95 551.25 165.41 551.25
  L 163.06 551.25
  Q 162.60 551.25 162.17 551.07
  C 149.14 545.67 139.98 549.64 129.56 557.21
  Q 129.14 557.51 128.63 557.52
  C 126.07 557.55 122.80 554.25 120.92 553.03
  Q 120.44 552.73 119.95 552.99
  Q 116.64 554.76 112.93 555.51
  C 132.21 519.26 154.93 486.09 180.58 454.09
  Q 180.95 453.63 180.82 453.05
  L 180.28 450.74
  Q 180.17 450.24 180.31 449.74
  Q 182.28 443.16 185.61 437.15
  C 198.65 413.66 214.10 391.00 228.48 367.93
  Z"
/>
<path fill="#461e03" d="
  M 110.21 562.00
  C 109.78 574.16 105.18 584.24 101.01 595.38
  Q 90.95 622.27 91.75 651.01
  C 91.77 651.78 91.31 653.00 91.01 653.56
  C 82.63 669.01 83.24 686.97 83.22 703.07
  Q 83.22 703.61 82.86 704.01
  Q 77.30 710.19 75.38 718.31
  Q 75.25 718.86 74.79 719.19
  Q 69.32 723.15 68.86 730.32
  Q 58.85 718.82 62.20 704.06
  Q 62.60 702.28 64.12 700.47
  Q 67.97 695.89 69.08 690.77
  C 71.51 679.54 70.64 665.29 78.94 652.96
  Q 79.23 652.53 79.22 652.02
  C 78.85 619.89 93.01 588.64 110.21 562.00
  Z"
/>
</svg>
