<?xml version="1.0" encoding="UTF-8" standalone="no"?>
<!DOCTYPE svg PUBLIC "-//W3C//DTD SVG 1.1//EN" "http://www.w3.org/Graphics/SVG/1.1/DTD/svg11.dtd">
<svg xmlns="http://www.w3.org/2000/svg" version="1.1" viewBox="0.00 0.00 1044.00 743.00">
<g stroke-width="2.00" fill="none" stroke-linecap="butt">
<path stroke="#f1e2d7" vector-effect="non-scaling-stroke" d="
  M 977.50 581.79
  Q 976.87 581.51 976.54 580.95
  Q 940.04 518.56 900.99 457.74
  Q 876.94 420.27 860.81 397.94
  C 828.86 353.69 792.39 312.05 741.14 289.90
  C 715.68 278.90 693.28 286.65 669.15 296.54
  C 652.07 303.53 638.50 309.68 625.05 320.85
  A 0.40 0.39 54.2 0 1 624.47 320.75
  Q 619.50 312.86 612.59 307.29
  C 604.30 300.60 598.26 294.33 593.29 284.73
  C 586.75 272.10 580.33 255.58 570.66 245.85
  Q 553.27 228.37 528.31 212.27
  C 502.81 195.83 474.38 191.58 445.68 202.18
  Q 419.41 211.88 391.21 227.72
  C 368.67 240.39 351.20 254.58 334.12 273.00
  Q 297.15 312.88 261.77 354.08
  A 0.60 0.60 0.0 0 1 260.78 353.96
  L 257.73 348.03
  A 1.18 1.18 0.0 0 0 255.64 348.02
  Q 246.35 365.63 236.18 382.46
  C 223.59 403.28 204.94 420.21 191.96 440.97
  Q 136.40 529.86 77.80 616.77
  C 76.76 618.31 75.50 620.85 73.95 622.98
  Q 66.55 633.15 59.04 643.25"
/>
<path stroke="#8a7b75" vector-effect="non-scaling-stroke" d="
  M 1011.45 709.03
  C 979.57 630.65 939.87 555.53 894.91 483.89
  C 859.01 426.69 820.82 373.72 769.61 331.15
  Q 760.63 323.68 754.57 319.66
  Q 723.90 299.27 690.07 312.31
  Q 655.05 325.81 623.30 351.39
  C 618.15 355.54 613.53 353.01 610.64 347.69
  Q 591.95 313.20 572.65 287.09
  C 551.24 258.12 520.06 226.13 481.29 225.30
  Q 471.51 225.09 463.30 227.28
  C 423.84 237.82 385.80 263.00 355.74 292.25
  C 297.07 349.33 243.08 412.43 194.59 478.35
  Q 110.82 592.26 41.75 715.71"
/>
<path stroke="#b39c87" vector-effect="non-scaling-stroke" d="
  M 41.75 715.71
  L 41.29 715.75"
/>
<path stroke="#3e2212" vector-effect="non-scaling-stroke" d="
  M 1008.25 716.46
  L 994.14 716.12
  Q 994.05 716.11 994.04 716.20
  Q 994.02 716.33 994.00 716.46"
/>
<path stroke="#3e2212" vector-effect="non-scaling-stroke" d="
  M 198.25 716.29
  Q 127.82 716.25 57.39 716.02
  C 52.96 716.00 47.83 716.36 43.04 716.34
  Q 42.56 716.34 42.18 716.04
  L 41.75 715.71"
/>
<path stroke="#543220" vector-effect="non-scaling-stroke" d="
  M 454.25 253.21
  Q 428.11 263.79 408.56 279.56
  Q 306.38 362.05 227.46 471.25"
/>
<path stroke="#3e2212" vector-effect="non-scaling-stroke" d="
  M 227.46 471.25
  C 197.05 507.16 167.82 548.30 141.58 585.14
  C 138.19 589.90 135.25 595.19 132.18 600.26
  C 122.14 616.85 108.12 630.56 97.12 646.11
  Q 81.18 668.65 70.27 693.30
  C 68.70 696.86 72.24 698.00 74.85 698.13
  C 100.79 699.38 126.34 698.42 152.24 698.57
  C 390.94 700.01 651.44 700.93 895.69 698.16
  C 920.53 697.87 955.14 699.31 986.13 696.94
  C 992.04 696.49 994.94 693.52 992.52 687.40
  Q 980.71 657.52 964.54 629.76
  Q 962.27 625.85 956.61 620.15
  C 955.02 618.55 951.85 617.18 950.80 614.95
  Q 935.15 581.85 920.19 559.06
  C 913.07 548.23 906.39 538.03 899.56 526.19
  Q 894.36 517.18 890.95 512.55
  Q 861.43 472.56 833.26 431.59"
/>
<path stroke="#543220" vector-effect="non-scaling-stroke" d="
  M 833.26 431.59
  Q 793.20 370.79 734.70 330.30
  C 706.69 310.91 676.36 343.86 651.25 351.74
  Q 636.19 356.47 625.41 364.54"
/>
<path stroke="#3e2212" vector-effect="non-scaling-stroke" d="
  M 625.41 364.54
  L 594.21 355.20"
/>
<path stroke="#543220" vector-effect="non-scaling-stroke" d="
  M 594.21 355.20
  C 567.14 324.36 550.77 284.63 516.75 259.71"
/>
<path stroke="#3e2212" vector-effect="non-scaling-stroke" d="
  M 516.75 259.71
  C 499.08 242.84 475.18 240.54 454.25 253.21"
/>
<path stroke="#7e5332" vector-effect="non-scaling-stroke" d="
  M 516.75 259.71
  Q 515.93 259.81 512.75 259.50
  Q 483.47 256.62 454.25 253.21"
/>
<path stroke="#7e5332" vector-effect="non-scaling-stroke" d="
  M 594.21 355.20
  Q 603.89 363.95 608.46 375.65
  C 612.22 385.24 610.76 395.52 615.79 405.26
  C 620.09 413.61 630.93 430.84 632.01 443.03
  Q 632.06 443.54 632.46 443.86
  Q 636.80 447.36 637.37 452.97
  Q 637.41 453.45 637.72 453.82
  L 647.75 466.03
  A 2.39 2.39 0.0 0 1 647.84 468.96
  Q 645.14 472.65 641.91 476.67
  C 640.47 478.47 639.21 477.71 638.23 476.07
  Q 631.94 465.58 625.53 455.16
  Q 624.87 454.09 624.08 453.66
  C 596.53 438.82 565.23 428.55 534.04 434.50
  Q 527.81 435.69 514.84 439.99
  C 484.40 450.06 449.97 462.92 417.45 455.70
  Q 411.39 454.36 399.45 449.80
  Q 375.55 440.67 350.81 434.13
  Q 340.12 431.31 332.99 431.17
  C 297.78 430.47 263.60 460.79 237.95 481.98
  C 232.93 486.13 228.96 486.12 226.24 479.55
  Q 226.04 479.06 226.26 478.57
  Q 227.86 475.05 227.46 471.25"
/>
<path stroke="#7e5332" vector-effect="non-scaling-stroke" d="
  M 833.26 431.59
  C 831.49 437.03 827.07 437.51 824.03 433.12
  Q 818.61 425.26 808.86 423.28
  Q 808.33 423.17 808.19 422.66
  C 805.00 411.15 793.00 411.64 783.49 408.81
  Q 778.50 407.32 776.79 405.95
  Q 763.96 395.63 747.80 392.09
  Q 747.30 391.99 746.84 392.19
  C 744.06 393.45 736.86 399.43 734.31 398.50
  C 706.09 388.16 672.38 387.07 646.81 404.64
  A 1.98 1.98 0.0 0 1 643.74 403.34
  Q 641.01 387.18 628.97 376.27
  C 625.27 372.91 626.98 364.83 633.21 366.31
  Q 634.96 366.73 636.41 366.05
  Q 637.21 365.68 636.38 365.39
  Q 631.10 363.57 625.41 364.54"
/>
</g>
<path fill="#e3cfc3" d="
  M 977.50 581.79
  Q 976.87 581.51 976.54 580.95
  Q 940.04 518.56 900.99 457.74
  Q 876.94 420.27 860.81 397.94
  C 828.86 353.69 792.39 312.05 741.14 289.90
  C 715.68 278.90 693.28 286.65 669.15 296.54
  C 652.07 303.53 638.50 309.68 625.05 320.85
  A 0.40 0.39 54.2 0 1 624.47 320.75
  Q 619.50 312.86 612.59 307.29
  C 604.30 300.60 598.26 294.33 593.29 284.73
  C 586.75 272.10 580.33 255.58 570.66 245.85
  Q 553.27 228.37 528.31 212.27
  C 502.81 195.83 474.38 191.58 445.68 202.18
  Q 419.41 211.88 391.21 227.72
  C 368.67 240.39 351.20 254.58 334.12 273.00
  Q 297.15 312.88 261.77 354.08
  A 0.60 0.60 0.0 0 1 260.78 353.96
  L 257.73 348.03
  A 1.18 1.18 0.0 0 0 255.64 348.02
  Q 246.35 365.63 236.18 382.46
  C 223.59 403.28 204.94 420.21 191.96 440.97
  Q 136.40 529.86 77.80 616.77
  C 76.76 618.31 75.50 620.85 73.95 622.98
  Q 66.55 633.15 59.04 643.25
  C 58.76 641.26 58.97 636.28 61.57 635.71
  Q 62.17 635.57 62.03 634.98
  C 61.32 631.88 63.69 631.37 64.59 628.83
  C 65.80 625.41 67.61 621.88 67.81 618.21
  Q 67.94 615.88 68.46 614.20
  Q 75.98 589.56 88.77 550.96
  Q 88.93 550.48 89.34 550.20
  Q 112.39 534.29 115.77 506.59
  C 116.18 503.25 116.84 499.16 118.06 496.10
  Q 124.00 481.25 126.95 465.49
  Q 127.62 461.92 130.57 453.23
  C 143.15 416.16 154.73 379.71 180.70 349.39
  Q 181.02 349.02 181.01 348.52
  C 180.84 341.89 182.56 335.97 188.33 332.46
  C 192.59 329.87 197.39 332.23 200.94 327.62
  Q 211.75 313.56 222.19 299.22
  Q 222.54 298.74 223.08 298.98
  L 225.58 300.04
  A 2.08 2.08 0.0 0 0 228.32 298.93
  Q 230.37 294.06 233.63 289.89
  C 238.86 283.21 243.70 275.97 250.09 270.35
  Q 256.65 264.59 263.02 258.61
  C 273.09 249.14 281.71 237.57 290.49 226.73
  C 295.91 220.03 303.47 217.49 309.53 211.42
  Q 318.08 202.86 329.47 198.42
  Q 329.94 198.24 330.23 197.82
  C 349.95 169.45 369.71 143.62 396.68 122.18
  Q 429.37 96.20 493.67 50.41
  Q 496.11 48.67 502.11 42.21
  Q 502.49 41.80 502.89 42.20
  Q 507.84 47.19 512.24 52.52
  Q 529.88 73.91 549.75 102.25
  Q 573.67 136.39 581.68 148.81
  Q 584.93 153.85 587.37 162.83
  Q 587.52 163.38 588.08 163.49
  C 590.35 163.93 593.04 163.83 594.96 164.37
  Q 607.03 167.82 607.10 181.00
  Q 607.11 181.50 607.47 181.85
  Q 619.64 193.61 628.64 200.09
  Q 633.65 203.71 640.04 201.10
  C 677.33 185.92 707.58 169.44 739.63 151.04
  C 746.45 147.12 753.39 145.10 760.73 143.17
  A 1.75 1.74 -22.7 0 1 762.67 143.96
  Q 789.23 188.15 817.82 230.94
  Q 846.45 273.80 856.95 290.56
  Q 868.19 308.51 898.49 361.23
  C 903.30 369.60 914.42 380.55 920.83 392.00
  C 927.52 403.95 930.81 417.40 936.91 429.74
  C 948.30 452.77 959.94 472.82 959.89 500.21
  Q 959.89 500.72 960.16 501.14
  C 966.57 511.27 978.18 532.36 975.38 544.66
  C 974.78 547.30 973.94 549.83 974.02 552.48
  Q 974.34 563.28 981.64 571.28
  Q 982.00 571.68 982.00 572.21
  L 982.00 577.06
  Q 982.00 577.56 981.64 577.90
  L 977.50 581.79
  Z"
/>
<path fill="#fff4ea" d="
  M 977.50 581.79
  C 976.84 583.00 976.74 584.37 977.39 585.68
  C 984.69 600.40 991.60 617.12 1000.97 630.56
  C 1016.53 652.89 1044.87 685.36 1011.45 709.03
  C 979.57 630.65 939.87 555.53 894.91 483.89
  C 859.01 426.69 820.82 373.72 769.61 331.15
  Q 760.63 323.68 754.57 319.66
  Q 723.90 299.27 690.07 312.31
  Q 655.05 325.81 623.30 351.39
  C 618.15 355.54 613.53 353.01 610.64 347.69
  Q 591.95 313.20 572.65 287.09
  C 551.24 258.12 520.06 226.13 481.29 225.30
  Q 471.51 225.09 463.30 227.28
  C 423.84 237.82 385.80 263.00 355.74 292.25
  C 297.07 349.33 243.08 412.43 194.59 478.35
  Q 110.82 592.26 41.75 715.71
  L 41.29 715.75
  C 39.50 713.54 41.53 701.38 42.25 695.59
  Q 42.63 692.57 44.01 689.19
  Q 47.84 679.80 48.98 669.71
  C 49.85 662.12 54.49 656.75 56.29 649.63
  Q 56.41 649.15 56.76 648.78
  Q 58.98 646.47 59.04 643.25
  Q 66.55 633.15 73.95 622.98
  C 75.50 620.85 76.76 618.31 77.80 616.77
  Q 136.40 529.86 191.96 440.97
  C 204.94 420.21 223.59 403.28 236.18 382.46
  Q 246.35 365.63 255.64 348.02
  A 1.18 1.18 0.0 0 1 257.73 348.03
  L 260.78 353.96
  A 0.60 0.60 0.0 0 0 261.77 354.08
  Q 297.15 312.88 334.12 273.00
  C 351.20 254.58 368.67 240.39 391.21 227.72
  Q 419.41 211.88 445.68 202.18
  C 474.38 191.58 502.81 195.83 528.31 212.27
  Q 553.27 228.37 570.66 245.85
  C 580.33 255.58 586.75 272.10 593.29 284.73
  C 598.26 294.33 604.30 300.60 612.59 307.29
  Q 619.50 312.86 624.47 320.75
  A 0.40 0.39 54.2 0 0 625.05 320.85
  C 638.50 309.68 652.07 303.53 669.15 296.54
  C 693.28 286.65 715.68 278.90 741.14 289.90
  C 792.39 312.05 828.86 353.69 860.81 397.94
  Q 876.94 420.27 900.99 457.74
  Q 940.04 518.56 976.54 580.95
  Q 976.87 581.51 977.50 581.79
  Z"
/>
<path fill="#140100" d="
  M 1011.45 709.03
  Q 1014.15 715.24 1008.25 716.46
  L 994.14 716.12
  Q 994.05 716.11 994.04 716.20
  Q 994.02 716.33 994.00 716.46
  C 993.69 716.37 993.67 716.27 993.32 716.27
  Q 768.02 715.95 335.75 716.05
  Q 335.00 716.05 334.75 716.26
  Q 266.50 716.21 198.25 716.29
  Q 127.82 716.25 57.39 716.02
  C 52.96 716.00 47.83 716.36 43.04 716.34
  Q 42.56 716.34 42.18 716.04
  L 41.75 715.71
  Q 110.82 592.26 194.59 478.35
  C 243.08 412.43 297.07 349.33 355.74 292.25
  C 385.80 263.00 423.84 237.82 463.30 227.28
  Q 471.51 225.09 481.29 225.30
  C 520.06 226.13 551.24 258.12 572.65 287.09
  Q 591.95 313.20 610.64 347.69
  C 613.53 353.01 618.15 355.54 623.30 351.39
  Q 655.05 325.81 690.07 312.31
  Q 723.90 299.27 754.57 319.66
  Q 760.63 323.68 769.61 331.15
  C 820.82 373.72 859.01 426.69 894.91 483.89
  C 939.87 555.53 979.57 630.65 1011.45 709.03
  Z
  M 454.25 253.21
  Q 428.11 263.79 408.56 279.56
  Q 306.38 362.05 227.46 471.25
  C 197.05 507.16 167.82 548.30 141.58 585.14
  C 138.19 589.90 135.25 595.19 132.18 600.26
  C 122.14 616.85 108.12 630.56 97.12 646.11
  Q 81.18 668.65 70.27 693.30
  C 68.70 696.86 72.24 698.00 74.85 698.13
  C 100.79 699.38 126.34 698.42 152.24 698.57
  C 390.94 700.01 651.44 700.93 895.69 698.16
  C 920.53 697.87 955.14 699.31 986.13 696.94
  C 992.04 696.49 994.94 693.52 992.52 687.40
  Q 980.71 657.52 964.54 629.76
  Q 962.27 625.85 956.61 620.15
  C 955.02 618.55 951.85 617.18 950.80 614.95
  Q 935.15 581.85 920.19 559.06
  C 913.07 548.23 906.39 538.03 899.56 526.19
  Q 894.36 517.18 890.95 512.55
  Q 861.43 472.56 833.26 431.59
  Q 793.20 370.79 734.70 330.30
  C 706.69 310.91 676.36 343.86 651.25 351.74
  Q 636.19 356.47 625.41 364.54
  L 594.21 355.20
  C 567.14 324.36 550.77 284.63 516.75 259.71
  C 499.08 242.84 475.18 240.54 454.25 253.21
  Z"
/>
<path fill="#674324" d="
  M 516.75 259.71
  Q 515.93 259.81 512.75 259.50
  Q 483.47 256.62 454.25 253.21
  C 475.18 240.54 499.08 242.84 516.75 259.71
  Z"
/>
<path fill="#946340" d="
  M 454.25 253.21
  Q 483.47 256.62 512.75 259.50
  Q 515.93 259.81 516.75 259.71
  C 550.77 284.63 567.14 324.36 594.21 355.20
  Q 603.89 363.95 608.46 375.65
  C 612.22 385.24 610.76 395.52 615.79 405.26
  C 620.09 413.61 630.93 430.84 632.01 443.03
  Q 632.06 443.54 632.46 443.86
  Q 636.80 447.36 637.37 452.97
  Q 637.41 453.45 637.72 453.82
  L 647.75 466.03
  A 2.39 2.39 0.0 0 1 647.84 468.96
  Q 645.14 472.65 641.91 476.67
  C 640.47 478.47 639.21 477.71 638.23 476.07
  Q 631.94 465.58 625.53 455.16
  Q 624.87 454.09 624.08 453.66
  C 596.53 438.82 565.23 428.55 534.04 434.50
  Q 527.81 435.69 514.84 439.99
  C 484.40 450.06 449.97 462.92 417.45 455.70
  Q 411.39 454.36 399.45 449.80
  Q 375.55 440.67 350.81 434.13
  Q 340.12 431.31 332.99 431.17
  C 297.78 430.47 263.60 460.79 237.95 481.98
  C 232.93 486.13 228.96 486.12 226.24 479.55
  Q 226.04 479.06 226.26 478.57
  Q 227.86 475.05 227.46 471.25
  Q 306.38 362.05 408.56 279.56
  Q 428.11 263.79 454.25 253.21
  Z"
/>
<path fill="#946340" d="
  M 833.26 431.59
  C 831.49 437.03 827.07 437.51 824.03 433.12
  Q 818.61 425.26 808.86 423.28
  Q 808.33 423.17 808.19 422.66
  C 805.00 411.15 793.00 411.64 783.49 408.81
  Q 778.50 407.32 776.79 405.95
  Q 763.96 395.63 747.80 392.09
  Q 747.30 391.99 746.84 392.19
  C 744.06 393.45 736.86 399.43 734.31 398.50
  C 706.09 388.16 672.38 387.07 646.81 404.64
  A 1.98 1.98 0.0 0 1 643.74 403.34
  Q 641.01 387.18 628.97 376.27
  C 625.27 372.91 626.98 364.83 633.21 366.31
  Q 634.96 366.73 636.41 366.05
  Q 637.21 365.68 636.38 365.39
  Q 631.10 363.57 625.41 364.54
  Q 636.19 356.47 651.25 351.74
  C 676.36 343.86 706.69 310.91 734.70 330.30
  Q 793.20 370.79 833.26 431.59
  Z"
/>
<path fill="#674324" d="
  M 594.21 355.20
  L 625.41 364.54
  Q 631.10 363.57 636.38 365.39
  Q 637.21 365.68 636.41 366.05
  Q 634.96 366.73 633.21 366.31
  C 626.98 364.83 625.27 372.91 628.97 376.27
  Q 641.01 387.18 643.74 403.34
  A 1.98 1.98 0.0 0 0 646.81 404.64
  C 672.38 387.07 706.09 388.16 734.31 398.50
  C 736.86 399.43 744.06 393.45 746.84 392.19
  Q 747.30 391.99 747.80 392.09
  Q 763.96 395.63 776.79 405.95
  Q 778.50 407.32 783.49 408.81
  C 793.00 411.64 805.00 411.15 808.19 422.66
  Q 808.33 423.17 808.86 423.28
  Q 818.61 425.26 824.03 433.12
  C 827.07 437.51 831.49 437.03 833.26 431.59
  Q 861.43 472.56 890.95 512.55
  Q 894.36 517.18 899.56 526.19
  C 906.39 538.03 913.07 548.23 920.19 559.06
  Q 935.15 581.85 950.80 614.95
  C 951.85 617.18 955.02 618.55 956.61 620.15
  Q 962.27 625.85 964.54 629.76
  Q 980.71 657.52 992.52 687.40
  C 994.94 693.52 992.04 696.49 986.13 696.94
  C 955.14 699.31 920.53 697.87 895.69 698.16
  C 651.44 700.93 390.94 700.01 152.24 698.57
  C 126.34 698.42 100.79 699.38 74.85 698.13
  C 72.24 698.00 68.70 696.86 70.27 693.30
  Q 81.18 668.65 97.12 646.11
  C 108.12 630.56 122.14 616.85 132.18 600.26
  C 135.25 595.19 138.19 589.90 141.58 585.14
  C 167.82 548.30 197.05 507.16 227.46 471.25
  Q 227.86 475.05 226.26 478.57
  Q 226.04 479.06 226.24 479.55
  C 228.96 486.12 232.93 486.13 237.95 481.98
  C 263.60 460.79 297.78 430.47 332.99 431.17
  Q 340.12 431.31 350.81 434.13
  Q 375.55 440.67 399.45 449.80
  Q 411.39 454.36 417.45 455.70
  C 449.97 462.92 484.40 450.06 514.84 439.99
  Q 527.81 435.69 534.04 434.50
  C 565.23 428.55 596.53 438.82 624.08 453.66
  Q 624.87 454.09 625.53 455.16
  Q 631.94 465.58 638.23 476.07
  C 639.21 477.71 640.47 478.47 641.91 476.67
  Q 645.14 472.65 647.84 468.96
  A 2.39 2.39 0.0 0 0 647.75 466.03
  L 637.72 453.82
  Q 637.41 453.45 637.37 452.97
  Q 636.80 447.36 632.46 443.86
  Q 632.06 443.54 632.01 443.03
  C 630.93 430.84 620.09 413.61 615.79 405.26
  C 610.76 395.52 612.22 385.24 608.46 375.65
  Q 603.89 363.95 594.21 355.20
  Z"
/>
<path fill="#674324" d="
  M 41.29 715.75
  L 41.75 715.71
  L 42.18 716.04
  Q 42.56 716.34 43.04 716.34
  C 47.83 716.36 52.96 716.00 57.39 716.02
  Q 127.82 716.25 198.25 716.29
  Q 197.26 716.77 196.50 716.77
  Q 120.00 716.62 43.50 717.09
  Q 42.09 717.10 41.29 715.75
  Z"
/>
<path fill="#674324" d="
  M 1008.25 716.46
  L 994.00 716.46
  Q 994.02 716.33 994.04 716.20
  Q 994.05 716.11 994.14 716.12
  L 1008.25 716.46
  Z"
/>
</svg>
