<?xml version="1.0" encoding="UTF-8" standalone="no"?>
<!DOCTYPE svg PUBLIC "-//W3C//DTD SVG 1.1//EN" "http://www.w3.org/Graphics/SVG/1.1/DTD/svg11.dtd">
<svg xmlns="http://www.w3.org/2000/svg" version="1.1" viewBox="0.00 0.00 988.00 723.00">
<g stroke-width="2.00" fill="none" stroke-linecap="butt">
<path stroke="#ecdbd0" vector-effect="non-scaling-stroke" d="
  M 971.21 654.25
  Q 970.95 654.45 970.93 654.83
  Q 970.93 654.97 970.84 654.87
  Q 970.73 654.74 970.70 654.53
  Q 970.65 654.13 970.30 654.34
  L 969.97 654.53
  Q 969.80 654.63 969.76 654.82
  C 968.58 660.39 957.43 657.73 953.88 655.90
  C 938.23 647.83 924.29 635.75 909.95 625.54
  Q 905.37 622.28 898.41 619.73
  Q 896.44 619.00 895.13 617.52
  C 880.64 601.12 868.23 585.18 850.43 562.82
  Q 830.97 538.38 807.03 513.62
  C 772.02 477.42 742.49 431.06 695.42 409.84
  Q 687.51 406.28 679.13 406.25
  Q 675.55 406.25 672.93 405.64
  Q 645.61 399.33 617.62 400.71
  Q 611.37 401.01 606.92 400.37
  C 600.19 399.41 591.45 396.19 584.79 397.89
  Q 563.86 403.23 545.75 404.05
  C 530.41 404.74 517.31 401.14 501.74 395.09
  Q 461.26 379.35 420.33 364.79
  C 408.10 360.44 396.47 357.49 384.74 356.77
  C 361.37 355.32 340.42 364.16 320.46 375.97
  C 297.30 389.67 272.23 402.43 252.00 420.00
  C 222.67 445.47 195.30 473.28 171.26 506.24
  Q 167.38 511.57 158.27 520.93
  C 152.00 527.38 147.11 535.69 141.93 542.97
  Q 137.45 549.24 131.77 555.35
  Q 99.79 589.69 68.90 625.01
  C 58.00 637.47 46.61 646.95 33.68 657.15
  C 25.17 663.87 17.90 666.29 7.50 662.79"
/>
<path stroke="#85746e" vector-effect="non-scaling-stroke" d="
  M 966.51 701.47
  L 965.83 700.29
  Q 965.59 699.86 965.25 699.51
  C 950.70 684.91 930.39 673.97 915.17 657.58
  C 853.71 591.40 797.97 520.27 732.70 457.62
  C 683.52 410.42 613.37 416.65 552.25 429.04"
/>
<path stroke="#ae9580" vector-effect="non-scaling-stroke" d="
  M 552.25 429.04
  L 534.03 430.15"
/>
<path stroke="#85746e" vector-effect="non-scaling-stroke" d="
  M 534.03 430.15
  C 492.35 416.95 453.83 395.92 412.18 383.08
  C 339.08 360.55 258.92 442.56 215.56 490.56
  C 173.34 537.29 125.61 596.25 81.67 649.68
  C 72.27 661.12 61.75 671.78 49.03 679.51
  Q 30.75 690.62 11.79 700.50"
/>
<path stroke="#3e2212" vector-effect="non-scaling-stroke" d="
  M 534.03 430.15
  Q 527.14 435.82 518.89 438.74
  C 500.64 445.19 489.91 436.29 477.06 425.22
  Q 472.60 421.38 466.31 418.45
  Q 439.94 406.20 414.33 397.89
  C 405.48 395.02 387.09 389.58 380.18 396.52
  Q 378.21 398.50 376.76 399.27
  C 361.99 407.16 346.25 413.57 331.00 420.51
  C 308.72 430.64 288.28 449.34 268.78 465.26
  C 267.08 466.65 264.72 465.89 262.85 467.30
  Q 260.47 469.09 260.10 470.44
  C 257.16 481.05 252.53 488.10 244.05 495.95
  Q 172.24 562.39 112.62 639.98
  C 100.82 655.33 85.40 666.45 73.87 681.86
  Q 73.06 682.95 72.54 684.40
  Q 72.35 684.93 72.60 685.43
  Q 73.77 687.76 77.50 687.54
  Q 139.49 683.87 210.00 688.21"
/>
<path stroke="#543220" vector-effect="non-scaling-stroke" d="
  M 210.00 688.21
  Q 255.40 688.81 300.79 689.42
  C 301.96 689.44 303.24 689.18 304.36 689.01"
/>
<path stroke="#3e2212" vector-effect="non-scaling-stroke" d="
  M 304.36 689.01
  Q 335.88 688.62 367.08 686.71
  C 449.60 681.64 532.57 683.60 615.18 684.48
  Q 688.19 685.26 761.12 681.68
  Q 768.51 681.31 777.39 681.74
  Q 793.80 682.54 810.22 681.95
  C 823.61 681.46 837.17 681.98 850.66 682.74
  Q 880.70 684.44 910.76 685.85
  C 913.64 685.99 917.01 686.71 919.34 684.80
  C 922.99 681.82 920.67 678.27 918.00 675.47
  C 902.10 658.77 881.26 645.38 866.27 630.47
  C 859.04 623.28 855.80 618.79 850.52 609.49
  Q 846.53 602.48 842.62 597.13
  C 825.12 573.24 806.29 546.78 782.35 526.93
  Q 779.45 524.52 770.20 518.17
  C 754.39 507.31 743.56 492.50 731.21 478.75"
/>
<path stroke="#2d1002" vector-effect="non-scaling-stroke" d="
  M 731.21 478.75
  C 709.74 443.83 672.91 431.29 633.50 435.29"
/>
<path stroke="#3e2212" vector-effect="non-scaling-stroke" d="
  M 633.50 435.29
  C 625.27 436.56 616.73 438.78 608.77 438.59
  C 593.28 438.23 580.12 437.01 559.72 437.04
  Q 552.37 437.04 552.25 429.04"
/>
<path stroke="#3e2212" vector-effect="non-scaling-stroke" d="
  M 723.50 699.71
  L 723.36 699.49
  Q 723.28 699.37 723.14 699.37
  L 691.50 699.36"
/>
<path stroke="#3e2212" vector-effect="non-scaling-stroke" d="
  M 231.25 699.46
  C 230.40 698.57 207.70 699.27 202.01 699.23
  Q 201.81 699.22 201.76 699.42
  Q 201.73 699.59 201.75 699.71"
/>
<path stroke="#573114" vector-effect="non-scaling-stroke" d="
  M 633.50 435.29
  Q 635.77 439.26 639.19 442.60
  Q 639.57 442.96 640.09 442.99
  Q 665.41 444.21 688.86 453.46
  C 701.24 458.35 709.63 464.83 722.54 473.72
  Q 726.09 476.17 731.21 478.75"
/>
<path stroke="#7e5332" vector-effect="non-scaling-stroke" d="
  M 304.36 689.01
  Q 326.67 682.06 333.00 660.55
  C 334.43 655.69 334.99 650.23 335.14 645.05
  Q 335.17 644.13 335.84 643.48
  Q 353.05 626.99 369.72 610.17
  C 380.37 599.43 391.63 592.20 405.18 586.43
  C 433.36 574.43 461.81 568.09 492.22 565.32
  C 548.58 560.20 604.79 559.37 659.45 542.62
  Q 663.61 541.34 665.56 539.50
  C 673.21 532.24 669.44 513.85 665.33 505.17
  C 660.39 494.73 653.58 483.28 644.01 477.11
  C 639.30 474.07 631.23 472.29 627.05 469.22
  C 622.35 465.76 621.75 463.29 619.80 458.79
  Q 619.60 458.31 619.18 458.03
  Q 600.21 445.11 577.08 446.97
  Q 574.98 447.14 572.29 449.56
  C 569.44 452.12 564.94 448.90 563.25 452.20
  Q 563.00 452.69 563.28 453.16
  Q 566.30 458.10 569.57 461.94
  Q 582.88 477.59 600.57 497.45
  Q 609.71 507.71 613.95 523.49
  Q 614.10 524.02 613.75 524.46
  Q 612.45 526.04 609.72 527.46
  Q 588.12 538.68 566.23 540.28
  C 508.93 544.48 451.32 545.71 396.76 562.27
  C 351.69 575.94 310.21 597.64 270.03 622.53
  C 259.56 629.01 251.28 635.22 242.91 643.16
  Q 234.22 651.40 225.59 659.68
  C 218.36 666.60 207.77 677.14 210.00 688.21"
/>
</g>
<path fill="#e3cfc3" d="
  M 971.21 654.25
  Q 970.95 654.45 970.93 654.83
  Q 970.93 654.97 970.84 654.87
  Q 970.73 654.74 970.70 654.53
  Q 970.65 654.13 970.30 654.34
  L 969.97 654.53
  Q 969.80 654.63 969.76 654.82
  C 968.58 660.39 957.43 657.73 953.88 655.90
  C 938.23 647.83 924.29 635.75 909.95 625.54
  Q 905.37 622.28 898.41 619.73
  Q 896.44 619.00 895.13 617.52
  C 880.64 601.12 868.23 585.18 850.43 562.82
  Q 830.97 538.38 807.03 513.62
  C 772.02 477.42 742.49 431.06 695.42 409.84
  Q 687.51 406.28 679.13 406.25
  Q 675.55 406.25 672.93 405.64
  Q 645.61 399.33 617.62 400.71
  Q 611.37 401.01 606.92 400.37
  C 600.19 399.41 591.45 396.19 584.79 397.89
  Q 563.86 403.23 545.75 404.05
  C 530.41 404.74 517.31 401.14 501.74 395.09
  Q 461.26 379.35 420.33 364.79
  C 408.10 360.44 396.47 357.49 384.74 356.77
  C 361.37 355.32 340.42 364.16 320.46 375.97
  C 297.30 389.67 272.23 402.43 252.00 420.00
  C 222.67 445.47 195.30 473.28 171.26 506.24
  Q 167.38 511.57 158.27 520.93
  C 152.00 527.38 147.11 535.69 141.93 542.97
  Q 137.45 549.24 131.77 555.35
  Q 99.79 589.69 68.90 625.01
  C 58.00 637.47 46.61 646.95 33.68 657.15
  C 25.17 663.87 17.90 666.29 7.50 662.79
  Q 5.35 654.63 4.07 646.26
  C 3.27 641.02 8.92 632.57 10.45 627.46
  Q 14.00 615.56 15.74 603.27
  Q 16.44 598.30 17.84 594.07
  C 22.45 580.12 26.44 564.19 30.98 551.91
  C 36.14 537.95 42.97 524.17 50.10 511.12
  C 82.71 451.38 114.55 391.25 147.98 331.96
  C 155.42 318.75 159.95 308.85 171.57 301.81
  Q 178.61 297.55 194.33 291.15
  Q 210.32 284.64 220.68 270.90
  Q 262.79 215.04 304.16 158.62
  C 328.68 125.19 359.19 99.52 394.16 76.97
  Q 427.61 55.40 461.44 34.44
  C 466.65 31.22 476.70 41.61 479.22 45.54
  Q 502.07 81.18 524.88 116.84
  Q 544.35 147.27 568.38 174.17
  C 573.49 179.89 580.28 187.03 585.55 190.73
  C 590.53 194.24 608.73 187.66 613.46 185.47
  C 641.49 172.50 664.39 156.41 693.05 137.80
  Q 703.55 130.98 718.86 126.11
  Q 719.32 125.96 719.66 126.31
  Q 720.95 127.61 721.25 128.02
  C 771.37 196.88 809.64 261.69 859.01 342.97
  C 879.74 377.10 896.50 410.67 907.39 449.18
  C 917.49 484.94 926.63 521.05 941.60 555.17
  Q 947.70 569.07 951.03 573.45
  Q 954.38 577.85 955.13 580.04
  C 957.25 586.31 958.32 593.62 959.83 598.94
  C 961.84 606.04 963.74 613.98 967.52 620.36
  Q 967.79 620.82 968.25 621.09
  L 969.46 621.81
  Q 970.01 622.12 970.00 622.75
  Q 969.80 638.54 971.21 654.25
  Z"
/>
<path fill="#f5e6dc" d="
  M 971.21 654.25
  C 972.34 662.48 970.56 672.19 969.96 680.53
  Q 969.91 681.14 970.09 681.72
  L 971.01 684.74
  Q 971.18 685.29 970.65 685.52
  Q 968.46 686.48 968.09 689.51
  Q 967.38 695.28 966.51 701.47
  L 965.83 700.29
  Q 965.59 699.86 965.25 699.51
  C 950.70 684.91 930.39 673.97 915.17 657.58
  C 853.71 591.40 797.97 520.27 732.70 457.62
  C 683.52 410.42 613.37 416.65 552.25 429.04
  L 534.03 430.15
  C 492.35 416.95 453.83 395.92 412.18 383.08
  C 339.08 360.55 258.92 442.56 215.56 490.56
  C 173.34 537.29 125.61 596.25 81.67 649.68
  C 72.27 661.12 61.75 671.78 49.03 679.51
  Q 30.75 690.62 11.79 700.50
  L 7.50 662.79
  C 17.90 666.29 25.17 663.87 33.68 657.15
  C 46.61 646.95 58.00 637.47 68.90 625.01
  Q 99.79 589.69 131.77 555.35
  Q 137.45 549.24 141.93 542.97
  C 147.11 535.69 152.00 527.38 158.27 520.93
  Q 167.38 511.57 171.26 506.24
  C 195.30 473.28 222.67 445.47 252.00 420.00
  C 272.23 402.43 297.30 389.67 320.46 375.97
  C 340.42 364.16 361.37 355.32 384.74 356.77
  C 396.47 357.49 408.10 360.44 420.33 364.79
  Q 461.26 379.35 501.74 395.09
  C 517.31 401.14 530.41 404.74 545.75 404.05
  Q 563.86 403.23 584.79 397.89
  C 591.45 396.19 600.19 399.41 606.92 400.37
  Q 611.37 401.01 617.62 400.71
  Q 645.61 399.33 672.93 405.64
  Q 675.55 406.25 679.13 406.25
  Q 687.51 406.28 695.42 409.84
  C 742.49 431.06 772.02 477.42 807.03 513.62
  Q 830.97 538.38 850.43 562.82
  C 868.23 585.18 880.64 601.12 895.13 617.52
  Q 896.44 619.00 898.41 619.73
  Q 905.37 622.28 909.95 625.54
  C 924.29 635.75 938.23 647.83 953.88 655.90
  C 957.43 657.73 968.58 660.39 969.76 654.82
  Q 969.80 654.63 969.97 654.53
  L 970.30 654.34
  Q 970.65 654.13 970.70 654.53
  Q 970.73 654.74 970.84 654.87
  Q 970.93 654.97 970.93 654.83
  Q 970.95 654.45 971.21 654.25
  Z"
/>
<path fill="#140100" d="
  M 534.03 430.15
  Q 527.14 435.82 518.89 438.74
  C 500.64 445.19 489.91 436.29 477.06 425.22
  Q 472.60 421.38 466.31 418.45
  Q 439.94 406.20 414.33 397.89
  C 405.48 395.02 387.09 389.58 380.18 396.52
  Q 378.21 398.50 376.76 399.27
  C 361.99 407.16 346.25 413.57 331.00 420.51
  C 308.72 430.64 288.28 449.34 268.78 465.26
  C 267.08 466.65 264.72 465.89 262.85 467.30
  Q 260.47 469.09 260.10 470.44
  C 257.16 481.05 252.53 488.10 244.05 495.95
  Q 172.24 562.39 112.62 639.98
  C 100.82 655.33 85.40 666.45 73.87 681.86
  Q 73.06 682.95 72.54 684.40
  Q 72.35 684.93 72.60 685.43
  Q 73.77 687.76 77.50 687.54
  Q 139.49 683.87 210.00 688.21
  Q 255.40 688.81 300.79 689.42
  C 301.96 689.44 303.24 689.18 304.36 689.01
  Q 335.88 688.62 367.08 686.71
  C 449.60 681.64 532.57 683.60 615.18 684.48
  Q 688.19 685.26 761.12 681.68
  Q 768.51 681.31 777.39 681.74
  Q 793.80 682.54 810.22 681.95
  C 823.61 681.46 837.17 681.98 850.66 682.74
  Q 880.70 684.44 910.76 685.85
  C 913.64 685.99 917.01 686.71 919.34 684.80
  C 922.99 681.82 920.67 678.27 918.00 675.47
  C 902.10 658.77 881.26 645.38 866.27 630.47
  C 859.04 623.28 855.80 618.79 850.52 609.49
  Q 846.53 602.48 842.62 597.13
  C 825.12 573.24 806.29 546.78 782.35 526.93
  Q 779.45 524.52 770.20 518.17
  C 754.39 507.31 743.56 492.50 731.21 478.75
  C 709.74 443.83 672.91 431.29 633.50 435.29
  C 625.27 436.56 616.73 438.78 608.77 438.59
  C 593.28 438.23 580.12 437.01 559.72 437.04
  Q 552.37 437.04 552.25 429.04
  C 613.37 416.65 683.52 410.42 732.70 457.62
  C 797.97 520.27 853.71 591.40 915.17 657.58
  C 930.39 673.97 950.70 684.91 965.25 699.51
  Q 965.59 699.86 965.83 700.29
  L 966.51 701.47
  L 723.50 699.71
  L 723.36 699.49
  Q 723.28 699.37 723.14 699.37
  L 691.50 699.36
  C 612.37 698.98 541.36 700.05 476.44 700.40
  Q 453.19 700.53 422.19 700.00
  Q 326.72 698.37 231.25 699.46
  C 230.40 698.57 207.70 699.27 202.01 699.23
  Q 201.81 699.22 201.76 699.42
  Q 201.73 699.59 201.75 699.71
  Q 108.26 701.33 14.75 702.00
  Q 12.32 702.02 11.79 700.50
  Q 30.75 690.62 49.03 679.51
  C 61.75 671.78 72.27 661.12 81.67 649.68
  C 125.61 596.25 173.34 537.29 215.56 490.56
  C 258.92 442.56 339.08 360.55 412.18 383.08
  C 453.83 395.92 492.35 416.95 534.03 430.15
  Z"
/>
<path fill="#674324" d="
  M 534.03 430.15
  L 552.25 429.04
  Q 552.37 437.04 559.72 437.04
  C 580.12 437.01 593.28 438.23 608.77 438.59
  C 616.73 438.78 625.27 436.56 633.50 435.29
  Q 635.77 439.26 639.19 442.60
  Q 639.57 442.96 640.09 442.99
  Q 665.41 444.21 688.86 453.46
  C 701.24 458.35 709.63 464.83 722.54 473.72
  Q 726.09 476.17 731.21 478.75
  C 743.56 492.50 754.39 507.31 770.20 518.17
  Q 779.45 524.52 782.35 526.93
  C 806.29 546.78 825.12 573.24 842.62 597.13
  Q 846.53 602.48 850.52 609.49
  C 855.80 618.79 859.04 623.28 866.27 630.47
  C 881.26 645.38 902.10 658.77 918.00 675.47
  C 920.67 678.27 922.99 681.82 919.34 684.80
  C 917.01 686.71 913.64 685.99 910.76 685.85
  Q 880.70 684.44 850.66 682.74
  C 837.17 681.98 823.61 681.46 810.22 681.95
  Q 793.80 682.54 777.39 681.74
  Q 768.51 681.31 761.12 681.68
  Q 688.19 685.26 615.18 684.48
  C 532.57 683.60 449.60 681.64 367.08 686.71
  Q 335.88 688.62 304.36 689.01
  Q 326.67 682.06 333.00 660.55
  C 334.43 655.69 334.99 650.23 335.14 645.05
  Q 335.17 644.13 335.84 643.48
  Q 353.05 626.99 369.72 610.17
  C 380.37 599.43 391.63 592.20 405.18 586.43
  C 433.36 574.43 461.81 568.09 492.22 565.32
  C 548.58 560.20 604.79 559.37 659.45 542.62
  Q 663.61 541.34 665.56 539.50
  C 673.21 532.24 669.44 513.85 665.33 505.17
  C 660.39 494.73 653.58 483.28 644.01 477.11
  C 639.30 474.07 631.23 472.29 627.05 469.22
  C 622.35 465.76 621.75 463.29 619.80 458.79
  Q 619.60 458.31 619.18 458.03
  Q 600.21 445.11 577.08 446.97
  Q 574.98 447.14 572.29 449.56
  C 569.44 452.12 564.94 448.90 563.25 452.20
  Q 563.00 452.69 563.28 453.16
  Q 566.30 458.10 569.57 461.94
  Q 582.88 477.59 600.57 497.45
  Q 609.71 507.71 613.95 523.49
  Q 614.10 524.02 613.75 524.46
  Q 612.45 526.04 609.72 527.46
  Q 588.12 538.68 566.23 540.28
  C 508.93 544.48 451.32 545.71 396.76 562.27
  C 351.69 575.94 310.21 597.64 270.03 622.53
  C 259.56 629.01 251.28 635.22 242.91 643.16
  Q 234.22 651.40 225.59 659.68
  C 218.36 666.60 207.77 677.14 210.00 688.21
  Q 139.49 683.87 77.50 687.54
  Q 73.77 687.76 72.60 685.43
  Q 72.35 684.93 72.54 684.40
  Q 73.06 682.95 73.87 681.86
  C 85.40 666.45 100.82 655.33 112.62 639.98
  Q 172.24 562.39 244.05 495.95
  C 252.53 488.10 257.16 481.05 260.10 470.44
  Q 260.47 469.09 262.85 467.30
  C 264.72 465.89 267.08 466.65 268.78 465.26
  C 288.28 449.34 308.72 430.64 331.00 420.51
  C 346.25 413.57 361.99 407.16 376.76 399.27
  Q 378.21 398.50 380.18 396.52
  C 387.09 389.58 405.48 395.02 414.33 397.89
  Q 439.94 406.20 466.31 418.45
  Q 472.60 421.38 477.06 425.22
  C 489.91 436.29 500.64 445.19 518.89 438.74
  Q 527.14 435.82 534.03 430.15
  Z"
/>
<path fill="#461e03" d="
  M 731.21 478.75
  Q 726.09 476.17 722.54 473.72
  C 709.63 464.83 701.24 458.35 688.86 453.46
  Q 665.41 444.21 640.09 442.99
  Q 639.57 442.96 639.19 442.60
  Q 635.77 439.26 633.50 435.29
  C 672.91 431.29 709.74 443.83 731.21 478.75
  Z"
/>
<path fill="#946340" d="
  M 304.36 689.01
  C 303.24 689.18 301.96 689.44 300.79 689.42
  Q 255.40 688.81 210.00 688.21
  C 207.77 677.14 218.36 666.60 225.59 659.68
  Q 234.22 651.40 242.91 643.16
  C 251.28 635.22 259.56 629.01 270.03 622.53
  C 310.21 597.64 351.69 575.94 396.76 562.27
  C 451.32 545.71 508.93 544.48 566.23 540.28
  Q 588.12 538.68 609.72 527.46
  Q 612.45 526.04 613.75 524.46
  Q 614.10 524.02 613.95 523.49
  Q 609.71 507.71 600.57 497.45
  Q 582.88 477.59 569.57 461.94
  Q 566.30 458.10 563.28 453.16
  Q 563.00 452.69 563.25 452.20
  C 564.94 448.90 569.44 452.12 572.29 449.56
  Q 574.98 447.14 577.08 446.97
  Q 600.21 445.11 619.18 458.03
  Q 619.60 458.31 619.80 458.79
  C 621.75 463.29 622.35 465.76 627.05 469.22
  C 631.23 472.29 639.30 474.07 644.01 477.11
  C 653.58 483.28 660.39 494.73 665.33 505.17
  C 669.44 513.85 673.21 532.24 665.56 539.50
  Q 663.61 541.34 659.45 542.62
  C 604.79 559.37 548.58 560.20 492.22 565.32
  C 461.81 568.09 433.36 574.43 405.18 586.43
  C 391.63 592.20 380.37 599.43 369.72 610.17
  Q 353.05 626.99 335.84 643.48
  Q 335.17 644.13 335.14 645.05
  C 334.99 650.23 334.43 655.69 333.00 660.55
  Q 326.67 682.06 304.36 689.01
  Z"
/>
<path fill="#674324" d="
  M 231.25 699.46
  L 201.75 699.71
  Q 201.73 699.59 201.76 699.42
  Q 201.81 699.22 202.01 699.23
  C 207.70 699.27 230.40 698.57 231.25 699.46
  Z"
/>
<path fill="#674324" d="
  M 723.50 699.71
  L 691.50 699.36
  L 723.14 699.37
  Q 723.28 699.37 723.36 699.49
  L 723.50 699.71
  Z"
/>
</svg>
