<?xml version="1.0" encoding="UTF-8" standalone="no"?>
<!DOCTYPE svg PUBLIC "-//W3C//DTD SVG 1.1//EN" "http://www.w3.org/Graphics/SVG/1.1/DTD/svg11.dtd">
<svg xmlns="http://www.w3.org/2000/svg" version="1.1" viewBox="0 0 343 343">
<path fill="rgb(0,210,230)" fill-opacity="1.000" d="M 47.31 54.45 Q 61.38 39.49 79.69 27.44 Q 88.34 21.74 96.70 17.76 Q 104.42 14.08 114.74 10.28 Q 132.73 3.67 152.25 1.50 Q 193.89 -3.12 232.56 11.70 Q 272.48 27.00 300.81 58.94 Q 303.57 62.05 310.29 71.50 Q 315.80 79.25 318.99 84.61 Q 335.82 112.90 341.00 145.75 Q 341.94 151.70 342.18 157.69 Q 342.59 168.00 342.60 168.29 Q 343.30 183.14 340.80 197.72 Q 339.08 207.72 336.56 217.26 Q 332.77 231.59 325.56 246.31 Q 298.93 300.73 244.94 326.19 Q 222.63 336.70 197.15 340.88 Q 187.18 342.52 177.27 342.77 Q 127.08 344.06 83.58 318.15 Q 45.91 295.71 23.90 257.81 Q 4.00 223.54 1.00 183.25 Q 0.28 173.60 0.50 164.74 Q 0.72 155.80 2.28 146.34 Q 6.75 119.15 19.07 94.32 Q 25.57 81.23 34.37 69.69 Q 40.29 61.91 47.31 54.45 Z M 94.71 237.75 Q 90.42 239.22 87.00 242.21 Q 85.29 242.84 86.01 243.62 Q 86.33 243.96 87.11 244.13 Q 93.66 245.61 99.79 248.30 A 0.39 0.38 30.9 0 1 99.94 248.89 Q 96.54 253.18 91.67 257.34 A 1.51 1.50 -46.3 0 0 91.72 259.67 Q 131.20 290.54 171.59 320.58 A 0.98 0.98 -45.2 0 0 172.77 320.57 L 252.74 259.59 A 1.10 1.08 49.5 0 0 252.85 257.97 L 243.99 248.74 A 0.28 0.27 -33.3 0 1 244.09 248.30 Q 250.44 245.60 257.86 244.13 A 0.48 0.48 70.9 0 0 258.19 243.44 Q 257.38 241.85 256.05 241.15 Q 250.92 238.44 245.76 234.76 A 0.22 0.22 49.0 0 1 245.78 234.39 L 261.44 225.61 A 1.62 1.61 -15.1 0 0 262.26 224.19 Q 262.19 217.86 261.65 212.49 Q 257.14 168.08 252.00 123.75 Q 251.57 120.07 250.82 107.57 Q 250.59 103.73 249.44 96.53 Q 248.52 90.84 248.25 84.50 Q 248.04 79.67 247.28 73.98 Q 246.08 64.92 245.92 63.49 Q 244.42 49.66 243.26 36.37 Q 243.15 35.16 242.31 36.03 L 200.96 78.90 A 1.87 1.82 -68.3 0 1 199.68 79.47 Q 171.36 80.13 144.44 79.57 A 1.22 1.22 68.4 0 1 143.59 79.20 Q 123.58 58.19 103.40 37.35 Q 102.67 36.59 101.98 36.06 A 0.64 0.64 22.1 0 0 100.96 36.49 Q 99.19 50.19 97.99 63.75 Q 96.15 84.45 93.69 105.08 Q 92.63 113.94 91.68 124.45 Q 90.81 134.15 89.70 143.83 Q 88.30 156.07 87.60 163.71 Q 83.89 204.13 82.50 212.25 Q 81.50 218.10 82.02 224.27 A 2.59 2.59 9.9 0 0 83.52 226.40 Q 90.71 229.69 97.58 234.46 A 0.39 0.37 -49.2 0 1 97.61 235.05 L 94.71 237.75 Z M 337.20 179.57 Q 336.89 180.85 338.03 181.35 A 0.35 0.32 -81.3 0 0 338.47 180.99 Q 338.14 175.59 338.30 170.19 Q 338.31 169.67 338.20 169.58 Q 337.98 169.40 337.90 169.99 Q 337.37 173.91 337.47 177.87 Q 337.48 178.37 337.20 179.57 Z"/>
<path fill="rgb(0,0,0)" fill-opacity="1.000" d="M 87.00 242.21 Q 89.65 242.25 91.48 240.42 Q 91.81 240.09 92.29 239.92 Q 93.96 239.34 94.71 237.75 L 97.61 235.05 A 0.39 0.37 -49.2 0 0 97.58 234.46 Q 90.71 229.69 83.52 226.40 A 2.59 2.59 9.9 0 1 82.02 224.27 Q 81.50 218.10 82.50 212.25 Q 83.89 204.13 87.60 163.71 Q 88.30 156.07 89.70 143.83 Q 90.81 134.15 91.68 124.45 Q 92.63 113.94 93.69 105.08 Q 96.15 84.45 97.99 63.75 Q 99.19 50.19 100.96 36.49 A 0.64 0.64 22.1 0 1 101.98 36.06 Q 102.67 36.59 103.40 37.35 Q 123.58 58.19 143.59 79.20 A 1.22 1.22 68.4 0 0 144.44 79.57 Q 171.36 80.13 199.68 79.47 A 1.87 1.82 -68.3 0 0 200.96 78.90 L 242.31 36.03 Q 243.15 35.16 243.26 36.37 Q 244.42 49.66 245.92 63.49 Q 246.08 64.92 247.28 73.98 Q 248.04 79.67 248.25 84.50 Q 248.52 90.84 249.44 96.53 Q 250.59 103.73 250.82 107.57 Q 251.57 120.07 252.00 123.75 Q 257.14 168.08 261.65 212.49 Q 262.19 217.86 262.26 224.19 A 1.62 1.61 -15.1 0 1 261.44 225.61 L 245.78 234.39 A 0.22 0.22 49.0 0 0 245.76 234.76 Q 250.92 238.44 256.05 241.15 Q 257.38 241.85 258.19 243.44 A 0.48 0.48 70.9 0 1 257.86 244.13 Q 250.44 245.60 244.09 248.30 A 0.28 0.27 -33.3 0 0 243.99 248.74 L 252.85 257.97 A 1.10 1.08 49.5 0 1 252.74 259.59 L 172.77 320.57 A 0.98 0.98 -45.2 0 1 171.59 320.58 Q 131.20 290.54 91.72 259.67 A 1.51 1.50 -46.3 0 1 91.67 257.34 Q 96.54 253.18 99.94 248.89 A 0.39 0.38 30.9 0 0 99.79 248.30 Q 93.66 245.61 87.11 244.13 Q 86.33 243.96 86.01 243.62 Q 85.29 242.84 87.00 242.21 Z M 235.00 55.34 L 217.94 82.51 A 0.78 0.76 45.6 0 0 217.94 83.32 Q 228.58 100.28 240.21 116.60 Q 240.51 117.01 240.58 116.50 Q 240.99 113.59 240.50 108.00 Q 238.18 81.61 235.52 55.46 Q 235.44 54.64 235.00 55.34 Z M 106.71 68.75 Q 105.23 73.11 105.79 77.75 L 103.19 116.17 Q 103.06 118.20 104.15 116.50 L 125.28 83.53 A 0.98 0.95 -45.8 0 0 125.28 82.47 L 108.42 56.64 Q 107.62 55.42 107.52 56.86 L 106.71 68.75 Z M 209.27 178.90 Q 210.76 178.04 212.38 177.45 Q 216.95 175.79 217.02 175.76 Q 220.33 174.30 223.61 172.77 Q 224.06 172.57 224.35 172.15 L 242.85 145.77 Q 244.08 144.01 242.06 144.71 Q 238.39 145.98 237.09 143.96 Q 222.75 121.73 207.82 99.64 Q 207.14 98.63 206.61 99.73 Q 205.47 102.11 203.71 104.67 Q 192.67 120.68 182.33 137.14 A 1.20 1.15 -36.7 0 0 182.18 138.05 L 191.05 172.82 A 2.52 2.30 62.2 0 1 190.43 175.19 L 180.04 185.12 A 3.45 3.10 20.9 0 1 177.75 186.00 L 164.76 186.00 A 1.23 1.23 -22.5 0 1 163.89 185.64 L 153.93 175.80 A 2.47 2.46 -61.5 0 1 153.25 173.50 L 161.14 137.75 A 1.27 1.19 -56.5 0 0 160.98 136.82 L 136.47 99.36 A 0.35 0.34 -45.2 0 0 135.90 99.37 Q 121.06 121.52 107.24 144.59 Q 106.12 146.47 104.06 145.91 L 100.47 144.92 Q 99.53 144.66 100.10 145.45 L 120.22 173.05 A 0.71 0.66 79.9 0 0 120.59 173.33 Q 128.94 176.21 135.18 179.38 A 2.75 2.47 85.2 0 1 136.23 180.37 L 153.84 209.40 A 1.76 1.71 -14.7 0 0 155.29 210.22 Q 173.26 210.61 188.98 209.79 A 2.12 2.12 13.9 0 0 190.69 208.76 Q 199.29 194.43 206.95 181.30 Q 207.89 179.69 209.27 178.90 Z M 121.68 248.88 L 112.78 258.36 A 1.30 1.24 -45.7 0 0 112.76 260.12 Q 138.70 286.60 163.57 312.62 Q 165.32 314.45 167.09 315.65 Q 168.80 316.81 171.02 318.19 Q 171.50 318.48 171.49 317.92 L 171.25 213.01 A 0.56 0.53 -87.8 0 0 170.76 212.45 L 153.80 211.21 A 0.95 0.95 75.7 0 1 153.05 210.76 Q 144.47 196.68 135.88 182.61 Q 134.69 180.65 132.86 179.65 Q 127.30 176.62 121.05 175.41 A 0.48 0.48 10.4 0 0 120.48 175.80 Q 120.04 178.34 119.75 179.25 Q 113.60 198.73 108.42 218.82 A 2.31 2.28 -56.0 0 0 108.78 220.74 Q 110.59 223.23 113.07 225.35 Q 116.61 228.36 116.67 228.42 Q 120.44 231.90 124.34 235.45 A 1.16 1.14 56.2 0 1 123.97 237.39 L 112.12 241.55 Q 110.56 242.11 112.05 242.93 L 121.59 248.22 A 0.43 0.42 -53.7 0 1 121.68 248.88 Z M 221.65 247.96 Q 226.28 244.64 231.34 242.23 Q 231.96 241.94 231.32 241.69 L 219.92 237.31 A 1.30 1.28 -55.7 0 1 219.53 235.16 L 235.03 220.72 A 1.15 1.08 61.8 0 0 235.33 219.59 Q 232.11 207.85 228.82 196.52 Q 228.81 196.47 226.35 187.43 Q 224.80 181.71 222.68 176.07 A 0.54 0.54 -19.3 0 0 222.01 175.75 Q 216.34 177.59 210.81 179.81 Q 208.20 180.86 206.79 183.71 Q 205.59 186.15 205.55 186.22 Q 198.54 198.34 190.52 210.91 A 1.98 1.84 14.7 0 1 188.90 211.78 L 173.44 211.91 A 0.55 0.52 -90.0 0 0 172.93 212.45 Q 172.45 264.36 173.02 317.92 Q 173.03 318.80 173.65 318.19 Q 203.36 289.60 231.16 260.61 A 0.62 0.61 49.5 0 0 231.22 259.84 Q 228.97 256.61 226.06 253.94 Q 224.91 252.88 221.56 248.64 A 0.48 0.47 52.8 0 1 221.65 247.96 Z"/>
<path fill="rgb(248,248,248)" fill-opacity="1.000" d="M 235.00 55.34 Q 235.44 54.64 235.52 55.46 Q 238.18 81.61 240.50 108.00 Q 240.99 113.59 240.58 116.50 Q 240.51 117.01 240.21 116.60 Q 228.58 100.28 217.94 83.32 A 0.78 0.76 45.6 0 1 217.94 82.51 L 235.00 55.34 Z"/>
<path fill="rgb(248,248,248)" fill-opacity="1.000" d="M 105.79 77.75 Q 107.29 73.36 106.71 68.75 L 107.52 56.86 Q 107.62 55.42 108.42 56.64 L 125.28 82.47 A 0.98 0.95 -45.8 0 1 125.28 83.53 L 104.15 116.50 Q 103.06 118.20 103.19 116.17 L 105.79 77.75 Z"/>
<path fill="rgb(120,121,118)" fill-opacity="1.000" d="M 106.71 68.75 Q 107.29 73.36 105.79 77.75 Q 105.23 73.11 106.71 68.75 Z"/>
<path fill="rgb(252,252,252)" fill-opacity="1.000" d="M 206.95 181.30 Q 199.29 194.43 190.69 208.76 A 2.12 2.12 13.9 0 1 188.98 209.79 Q 173.26 210.61 155.29 210.22 A 1.76 1.71 -14.7 0 1 153.84 209.40 L 136.23 180.37 A 2.75 2.47 85.2 0 0 135.18 179.38 Q 128.94 176.21 120.59 173.33 A 0.71 0.66 79.9 0 1 120.22 173.05 L 100.10 145.45 Q 99.53 144.66 100.47 144.92 L 104.06 145.91 Q 106.12 146.47 107.24 144.59 Q 121.06 121.52 135.90 99.37 A 0.35 0.34 -45.2 0 1 136.47 99.36 L 160.98 136.82 A 1.27 1.19 -56.5 0 1 161.14 137.75 L 153.25 173.50 A 2.47 2.46 -61.5 0 0 153.93 175.80 L 163.89 185.64 A 1.23 1.23 -22.5 0 0 164.76 186.00 L 177.75 186.00 A 3.45 3.10 20.9 0 0 180.04 185.12 L 190.43 175.19 A 2.52 2.30 62.2 0 0 191.05 172.82 L 182.18 138.05 A 1.20 1.15 -36.7 0 1 182.33 137.14 Q 192.67 120.68 203.71 104.67 Q 205.47 102.11 206.61 99.73 Q 207.14 98.63 207.82 99.64 Q 222.75 121.73 237.09 143.96 Q 238.39 145.98 242.06 144.71 Q 244.08 144.01 242.85 145.77 L 224.35 172.15 Q 224.06 172.57 223.61 172.77 Q 220.33 174.30 217.02 175.76 Q 216.95 175.79 212.38 177.45 Q 210.76 178.04 209.27 178.90 Q 207.89 179.69 206.95 181.30 Z"/>
<path fill="rgb(0,210,230)" fill-opacity="1.000" d="M 337.47 177.87 Q 337.37 173.91 337.90 169.99 Q 337.98 169.40 338.20 169.58 Q 338.31 169.67 338.30 170.19 Q 338.14 175.59 338.47 180.99 A 0.35 0.32 -81.3 0 1 338.03 181.35 Q 336.89 180.85 337.20 179.57 Q 337.48 178.37 337.47 177.87 Z"/>
<path fill="rgb(252,252,252)" fill-opacity="1.000" d="M 121.59 248.22 L 112.05 242.93 Q 110.56 242.11 112.12 241.55 L 123.97 237.39 A 1.16 1.14 56.2 0 0 124.34 235.45 Q 120.44 231.90 116.67 228.42 Q 116.61 228.36 113.07 225.35 Q 110.59 223.23 108.78 220.74 A 2.31 2.28 -56.0 0 1 108.42 218.82 Q 113.60 198.73 119.75 179.25 Q 120.04 178.34 120.48 175.80 A 0.48 0.48 10.4 0 1 121.05 175.41 Q 127.30 176.62 132.86 179.65 Q 134.69 180.65 135.88 182.61 Q 144.47 196.68 153.05 210.76 A 0.95 0.95 75.7 0 0 153.80 211.21 L 170.76 212.45 A 0.56 0.53 -87.8 0 1 171.25 213.01 L 171.49 317.92 Q 171.50 318.48 171.02 318.19 Q 168.80 316.81 167.09 315.65 Q 165.32 314.45 163.57 312.62 Q 138.70 286.60 112.76 260.12 A 1.30 1.24 -45.7 0 1 112.78 258.36 L 121.68 248.88 A 0.43 0.42 -53.7 0 0 121.59 248.22 Z"/>
<path fill="rgb(253,253,253)" fill-opacity="1.000" d="M 221.56 248.64 Q 224.91 252.88 226.06 253.94 Q 228.97 256.61 231.22 259.84 A 0.62 0.61 49.5 0 1 231.16 260.61 Q 203.36 289.60 173.65 318.19 Q 173.03 318.80 173.02 317.92 Q 172.45 264.36 172.93 212.45 A 0.55 0.52 -90.0 0 1 173.44 211.91 L 188.90 211.78 A 1.98 1.84 14.7 0 0 190.52 210.91 Q 198.54 198.34 205.55 186.22 Q 205.59 186.15 206.79 183.71 Q 208.20 180.86 210.81 179.81 Q 216.34 177.59 222.01 175.75 A 0.54 0.54 -19.3 0 1 222.68 176.07 Q 224.80 181.71 226.35 187.43 Q 228.81 196.47 228.82 196.52 Q 232.11 207.85 235.33 219.59 A 1.15 1.08 61.8 0 1 235.03 220.72 L 219.53 235.16 A 1.30 1.28 -55.7 0 0 219.92 237.31 L 231.32 241.69 Q 231.96 241.94 231.34 242.23 Q 226.28 244.64 221.65 247.96 A 0.48 0.47 52.8 0 0 221.56 248.64 Z"/>
<path fill="rgb(6,59,74)" fill-opacity="1.000" d="M 94.71 237.75 Q 93.96 239.34 92.29 239.92 Q 91.81 240.09 91.48 240.42 Q 89.65 242.25 87.00 242.21 Q 90.42 239.22 94.71 237.75 Z"/>
</svg>