<?xml version="1.0" encoding="utf-8"?>
<svg viewBox="102.8584 13.0086 317.172 472.9932" width="317.172" height="472.9932" xmlns="http://www.w3.org/2000/svg">
  <path fill="#ff5100" d="M 130.336 253.849 L 114.065 122.723 C 114.051 122.618 114.111 122.517 114.21 122.479 L 411.733 13.025 C 411.897 12.96 412.069 13.097 412.043 13.272 C 412.04 13.295 412.034 13.317 412.023 13.338 L 366.463 112.639 C 366.393 112.801 366.524 112.978 366.7 112.959 C 366.71 112.957 366.72 112.956 366.73 112.952 L 412.909 100.386 C 413.063 100.349 413.207 100.474 413.192 100.63 L 394.056 254.208 C 394.048 254.279 394.073 254.35 394.124 254.399 L 419.96 279.326 C 420.028 279.391 420.049 279.491 420.013 279.578 L 359.435 421.705 C 359.41 421.761 359.363 421.805 359.305 421.827 L 185.124 485.988 C 185.009 486.03 184.881 485.973 184.834 485.858 L 102.873 280.625 C 102.84 280.536 102.864 280.436 102.935 280.372 L 130.267 254.04 C 130.319 253.991 130.345 253.92 130.336 253.849 Z" style=""/>
</svg>