<?xml version="1.0" encoding="UTF-8" standalone="no"?>
<!DOCTYPE svg PUBLIC "-//W3C//DTD SVG 1.1//EN" "http://www.w3.org/Graphics/SVG/1.1/DTD/svg11.dtd">
<svg xmlns="http://www.w3.org/2000/svg" version="1.1" viewBox="0.00 0.00 1693.00 1046.00">
<g stroke-width="2.00" fill="none" stroke-linecap="butt">
<path stroke="#ffe280" vector-effect="non-scaling-stroke" d="
  M 648.53 160.27
  Q 649.99 168.20 652.49 176.52
  C 653.08 178.48 655.31 179.88 655.97 182.73
  C 657.57 189.70 660.82 196.06 662.51 204.09
  C 662.96 206.24 664.50 207.81 665.05 210.14
  Q 667.48 220.32 670.12 230.44
  C 670.87 233.28 673.10 234.58 673.87 237.49
  Q 675.29 242.87 676.83 248.23
  C 677.23 249.65 678.22 250.11 678.62 251.63
  Q 682.00 264.54 685.36 277.48
  Q 686.17 280.58 688.03 284.10
  Q 692.59 292.72 694.59 302.28
  C 695.02 304.34 696.53 305.85 697.06 308.08
  Q 699.76 319.54 702.77 330.95
  Q 703.34 333.09 704.95 335.74
  Q 707.87 340.50 708.66 346.15
  Q 708.73 346.63 709.04 347.00
  C 711.70 350.16 712.72 358.05 713.86 362.21
  C 714.21 363.53 715.29 364.27 715.63 365.65
  C 717.45 372.90 718.70 381.04 721.95 387.79
  Q 725.56 395.29 727.47 403.99
  C 727.89 405.92 729.26 407.31 729.77 409.21
  Q 733.20 421.86 736.29 434.60
  C 736.69 436.26 737.45 437.18 738.43 438.48
  C 741.26 442.22 740.59 447.02 743.52 450.97
  Q 743.81 451.36 743.86 451.85
  C 744.43 457.33 747.14 461.63 748.30 466.41
  Q 750.56 475.72 752.97 485.01
  Q 753.39 486.60 754.77 488.54
  Q 756.68 491.22 757.68 495.01
  Q 760.32 504.98 762.58 515.04
  C 763.50 519.18 760.85 529.06 758.62 532.62
  Q 756.58 535.87 753.71 538.50"
/>
<path stroke="#a5a5a5" vector-effect="non-scaling-stroke" d="
  M 701.46 560.50
  C 697.70 559.48 686.06 545.52 682.83 541.96"
/>
<path stroke="#e0ee80" vector-effect="non-scaling-stroke" d="
  M 682.83 541.96
  Q 710.16 529.10 738.40 520.20
  A 0.70 0.69 72.2 0 0 738.85 519.32
  Q 660.91 279.35 582.88 39.49
  C 582.01 36.82 580.86 37.84 578.86 38.47
  Q 540.35 50.62 512.25 61.50
  C 420.90 96.87 334.15 147.98 258.99 211.99
  Q 255.14 215.27 251.69 218.98
  Q 251.35 219.34 250.87 219.44
  L 249.98 219.61
  Q 249.48 219.71 249.14 220.09
  C 243.84 226.08 236.71 231.48 231.91 236.26
  Q 210.82 257.25 189.82 278.32
  Q 189.55 278.59 189.48 279.36
  Q 189.42 279.89 189.05 280.27
  L 178.08 291.28
  Q 177.80 291.55 177.81 291.94
  C 177.82 293.14 168.74 302.55 166.27 305.53
  Q 151.23 323.68 136.99 342.47
  Q 136.11 343.63 135.73 344.61
  Q 135.53 345.13 135.92 345.53
  Q 137.19 346.84 138.04 347.47
  Q 343.41 498.34 548.38 648.94
  A 1.02 1.02 0.0 0 0 549.78 648.75
  Q 575.98 615.31 608.67 588.66"
/>
<path stroke="#a5a5a5" vector-effect="non-scaling-stroke" d="
  M 608.67 588.66
  Q 615.15 599.20 620.50 610.46"
/>
<path stroke="#90db80" vector-effect="non-scaling-stroke" d="
  M 572.21 659.50
  Q 565.24 669.87 553.56 672.15
  C 548.14 673.21 538.55 671.27 534.22 669.51
  Q 530.68 668.07 525.27 663.89
  C 495.89 641.20 465.27 620.07 435.81 597.47
  C 435.16 596.96 434.16 596.61 433.29 595.95
  Q 416.42 583.17 394.42 567.52
  C 379.74 557.08 365.38 546.10 350.76 535.54
  C 341.94 529.17 333.04 522.62 324.43 515.92
  C 318.28 511.15 312.07 507.16 305.65 502.18
  Q 300.67 498.33 293.41 493.34
  C 288.56 490.01 282.45 484.89 276.25 480.57
  C 270.17 476.34 263.86 471.23 258.42 467.34
  Q 247.80 459.75 237.29 452.00"
/>
<path stroke="#869426" vector-effect="non-scaling-stroke" d="
  M 682.83 541.96
  Q 624.10 480.41 565.64 418.62
  Q 560.73 413.44 554.94 409.33
  C 544.92 402.22 532.14 407.54 526.75 417.34
  C 521.46 426.96 524.93 438.03 530.12 447.34
  Q 569.51 517.88 608.67 588.66"
/>
</g>
<path fill="#ffffff" d="
  M 648.53 160.27
  Q 649.99 168.20 652.49 176.52
  C 653.08 178.48 655.31 179.88 655.97 182.73
  C 657.57 189.70 660.82 196.06 662.51 204.09
  C 662.96 206.24 664.50 207.81 665.05 210.14
  Q 667.48 220.32 670.12 230.44
  C 670.87 233.28 673.10 234.58 673.87 237.49
  Q 675.29 242.87 676.83 248.23
  C 677.23 249.65 678.22 250.11 678.62 251.63
  Q 682.00 264.54 685.36 277.48
  Q 686.17 280.58 688.03 284.10
  Q 692.59 292.72 694.59 302.28
  C 695.02 304.34 696.53 305.85 697.06 308.08
  Q 699.76 319.54 702.77 330.95
  Q 703.34 333.09 704.95 335.74
  Q 707.87 340.50 708.66 346.15
  Q 708.73 346.63 709.04 347.00
  C 711.70 350.16 712.72 358.05 713.86 362.21
  C 714.21 363.53 715.29 364.27 715.63 365.65
  C 717.45 372.90 718.70 381.04 721.95 387.79
  Q 725.56 395.29 727.47 403.99
  C 727.89 405.92 729.26 407.31 729.77 409.21
  Q 733.20 421.86 736.29 434.60
  C 736.69 436.26 737.45 437.18 738.43 438.48
  C 741.26 442.22 740.59 447.02 743.52 450.97
  Q 743.81 451.36 743.86 451.85
  C 744.43 457.33 747.14 461.63 748.30 466.41
  Q 750.56 475.72 752.97 485.01
  Q 753.39 486.60 754.77 488.54
  Q 756.68 491.22 757.68 495.01
  Q 760.32 504.98 762.58 515.04
  C 763.50 519.18 760.85 529.06 758.62 532.62
  Q 756.58 535.87 753.71 538.50
  C 747.93 542.85 741.15 544.99 734.85 546.63
  C 731.61 547.48 728.70 549.25 725.89 550.17
  Q 713.23 554.29 701.46 560.50
  C 697.70 559.48 686.06 545.52 682.83 541.96
  Q 710.16 529.10 738.40 520.20
  A 0.70 0.69 72.2 0 0 738.85 519.32
  Q 660.91 279.35 582.88 39.49
  C 582.01 36.82 580.86 37.84 578.86 38.47
  Q 540.35 50.62 512.25 61.50
  C 420.90 96.87 334.15 147.98 258.99 211.99
  Q 255.14 215.27 251.69 218.98
  Q 251.35 219.34 250.87 219.44
  L 249.98 219.61
  Q 249.48 219.71 249.14 220.09
  C 243.84 226.08 236.71 231.48 231.91 236.26
  Q 210.82 257.25 189.82 278.32
  Q 189.55 278.59 189.48 279.36
  Q 189.42 279.89 189.05 280.27
  L 178.08 291.28
  Q 177.80 291.55 177.81 291.94
  C 177.82 293.14 168.74 302.55 166.27 305.53
  Q 151.23 323.68 136.99 342.47
  Q 136.11 343.63 135.73 344.61
  Q 135.53 345.13 135.92 345.53
  Q 137.19 346.84 138.04 347.47
  Q 343.41 498.34 548.38 648.94
  A 1.02 1.02 0.0 0 0 549.78 648.75
  Q 575.98 615.31 608.67 588.66
  Q 615.15 599.20 620.50 610.46
  Q 593.93 632.59 572.21 659.50
  Q 565.24 669.87 553.56 672.15
  C 548.14 673.21 538.55 671.27 534.22 669.51
  Q 530.68 668.07 525.27 663.89
  C 495.89 641.20 465.27 620.07 435.81 597.47
  C 435.16 596.96 434.16 596.61 433.29 595.95
  Q 416.42 583.17 394.42 567.52
  C 379.74 557.08 365.38 546.10 350.76 535.54
  C 341.94 529.17 333.04 522.62 324.43 515.92
  C 318.28 511.15 312.07 507.16 305.65 502.18
  Q 300.67 498.33 293.41 493.34
  C 288.56 490.01 282.45 484.89 276.25 480.57
  C 270.17 476.34 263.86 471.23 258.42 467.34
  Q 247.80 459.75 237.29 452.00
  C 226.10 442.87 212.87 434.31 200.84 425.15
  C 191.27 417.86 181.45 411.19 172.23 403.44
  C 171.39 402.73 170.25 402.78 169.45 402.17
  Q 160.98 395.70 152.62 389.09
  Q 152.23 388.78 151.75 388.69
  C 149.55 388.28 143.91 383.18 139.64 379.80
  C 130.59 372.65 122.39 370.15 116.36 359.59
  C 114.21 355.84 113.50 351.39 112.50 347.08
  C 111.54 342.93 113.90 334.22 116.15 330.65
  C 123.06 319.70 132.00 309.46 140.05 299.27
  C 144.70 293.39 150.48 287.08 155.53 280.80
  Q 160.22 274.96 165.39 269.55
  C 170.12 264.61 174.74 259.18 179.31 254.59
  Q 198.46 235.31 217.78 216.22
  Q 219.83 214.19 224.05 210.67
  C 227.65 207.68 230.66 204.08 234.41 201.27
  Q 236.69 199.57 238.61 197.64
  C 243.43 192.77 248.91 189.19 254.99 183.77
  Q 259.74 179.53 263.67 176.45
  C 294.16 152.47 320.26 134.21 353.07 113.43
  C 364.09 106.44 375.20 100.33 386.57 94.17
  Q 393.34 90.50 399.92 86.48
  C 403.16 84.49 407.02 83.13 410.46 81.11
  C 413.52 79.31 416.78 78.17 419.86 76.35
  C 422.74 74.64 426.20 73.68 429.13 71.81
  Q 431.16 70.51 433.14 69.76
  C 436.62 68.42 439.43 66.27 442.90 64.89
  C 445.92 63.68 448.04 61.79 451.21 60.99
  C 455.98 59.78 459.13 56.09 463.23 55.72
  C 466.37 55.44 470.19 52.03 473.88 51.01
  C 477.30 50.05 480.02 47.92 483.09 46.89
  Q 487.11 45.55 491.09 44.13
  C 492.49 43.63 493.34 42.64 494.75 42.21
  C 501.50 40.15 507.95 37.37 514.60 35.04
  C 517.46 34.04 519.65 32.47 522.60 31.76
  C 527.26 30.63 531.52 28.68 536.23 27.40
  C 540.88 26.12 544.91 23.77 549.51 22.60
  C 559.35 20.10 567.65 16.55 579.05 14.02
  C 582.95 13.15 589.69 14.95 593.25 16.65
  C 599.31 19.53 604.22 24.14 606.21 30.70
  Q 606.84 32.79 608.31 35.70
  Q 609.70 38.44 611.59 47.45
  C 611.98 49.33 613.30 49.97 613.70 51.65
  Q 616.25 62.30 619.00 72.89
  C 619.78 75.88 622.12 77.29 622.74 79.93
  C 623.63 83.63 624.24 86.97 626.08 90.46
  C 628.44 94.97 629.50 101.88 630.72 106.90
  C 631.10 108.48 632.30 109.06 632.66 110.58
  Q 633.76 115.31 634.89 120.03
  Q 635.01 120.52 634.90 121.00
  Q 634.53 122.72 635.45 124.32
  Q 641.65 135.04 643.99 147.23
  C 644.21 148.40 645.29 149.18 645.51 149.99
  Q 646.90 154.88 648.53 160.27
  Z"
/>
<path fill="#c1dd00" d="
  M 682.83 541.96
  Q 624.10 480.41 565.64 418.62
  Q 560.73 413.44 554.94 409.33
  C 544.92 402.22 532.14 407.54 526.75 417.34
  C 521.46 426.96 524.93 438.03 530.12 447.34
  Q 569.51 517.88 608.67 588.66
  Q 575.98 615.31 549.78 648.75
  A 1.02 1.02 0.0 0 1 548.38 648.94
  Q 343.41 498.34 138.04 347.47
  Q 137.19 346.84 135.92 345.53
  Q 135.53 345.13 135.73 344.61
  Q 136.11 343.63 136.99 342.47
  Q 151.23 323.68 166.27 305.53
  C 168.74 302.55 177.82 293.14 177.81 291.94
  Q 177.80 291.55 178.08 291.28
  L 189.05 280.27
  Q 189.42 279.89 189.48 279.36
  Q 189.55 278.59 189.82 278.32
  Q 210.82 257.25 231.91 236.26
  C 236.71 231.48 243.84 226.08 249.14 220.09
  Q 249.48 219.71 249.98 219.61
  L 250.87 219.44
  Q 251.35 219.34 251.69 218.98
  Q 255.14 215.27 258.99 211.99
  C 334.15 147.98 420.90 96.87 512.25 61.50
  Q 540.35 50.62 578.86 38.47
  C 580.86 37.84 582.01 36.82 582.88 39.49
  Q 660.91 279.35 738.85 519.32
  A 0.70 0.69 72.2 0 1 738.40 520.20
  Q 710.16 529.10 682.83 541.96
  Z"
/>
<path fill="#ffc400" d="
  M 753.71 538.50
  Q 756.58 535.87 758.62 532.62
  C 760.85 529.06 763.50 519.18 762.58 515.04
  Q 760.32 504.98 757.68 495.01
  Q 756.68 491.22 754.77 488.54
  Q 753.39 486.60 752.97 485.01
  Q 750.56 475.72 748.30 466.41
  C 747.14 461.63 744.43 457.33 743.86 451.85
  Q 743.81 451.36 743.52 450.97
  C 740.59 447.02 741.26 442.22 738.43 438.48
  C 737.45 437.18 736.69 436.26 736.29 434.60
  Q 733.20 421.86 729.77 409.21
  C 729.26 407.31 727.89 405.92 727.47 403.99
  Q 725.56 395.29 721.95 387.79
  C 718.70 381.04 717.45 372.90 715.63 365.65
  C 715.29 364.27 714.21 363.53 713.86 362.21
  C 712.72 358.05 711.70 350.16 709.04 347.00
  Q 708.73 346.63 708.66 346.15
  Q 707.87 340.50 704.95 335.74
  Q 703.34 333.09 702.77 330.95
  Q 699.76 319.54 697.06 308.08
  C 696.53 305.85 695.02 304.34 694.59 302.28
  Q 692.59 292.72 688.03 284.10
  Q 686.17 280.58 685.36 277.48
  Q 682.00 264.54 678.62 251.63
  C 678.22 250.11 677.23 249.65 676.83 248.23
  Q 675.29 242.87 673.87 237.49
  C 673.10 234.58 670.87 233.28 670.12 230.44
  Q 667.48 220.32 665.05 210.14
  C 664.50 207.81 662.96 206.24 662.51 204.09
  C 660.82 196.06 657.57 189.70 655.97 182.73
  C 655.31 179.88 653.08 178.48 652.49 176.52
  Q 649.99 168.20 648.53 160.27
  Q 722.62 141.88 791.51 138.06
  Q 826.36 136.12 874.33 137.34
  C 887.48 137.68 900.54 138.84 913.67 139.99
  Q 985.88 146.35 1055.88 166.07
  A 1.01 1.01 0.0 0 1 1056.56 167.35
  L 932.52 544.03
  Q 932.37 544.50 931.89 544.37
  C 874.00 528.94 813.08 528.88 755.81 543.06
  A 0.69 0.69 0.0 0 1 754.97 542.26
  Q 755.36 540.23 753.71 538.50
  Z"
/>
<path fill="#ff7300" d="
  M 948.01 548.02
  L 1072.05 171.32
  A 0.53 0.53 0.0 0 1 1072.73 170.98
  Q 1084.44 175.00 1096.13 179.01
  C 1225.07 223.18 1338.50 303.07 1419.35 413.01
  Q 1420.02 413.92 1419.10 414.59
  L 1094.28 649.74
  Q 1093.50 650.30 1092.90 649.54
  C 1056.10 602.04 1005.77 567.84 948.69 549.36
  Q 947.68 549.03 948.01 548.02
  Z"
/>
<path fill="#4b4b4b" d="
  M 682.83 541.96
  C 686.06 545.52 697.70 559.48 701.46 560.50
  Q 700.98 561.21 701.49 561.75
  Q 800.78 666.15 899.98 770.62
  C 917.15 788.70 933.82 807.04 938.16 832.71
  Q 942.64 859.28 929.55 882.58
  C 919.66 900.17 904.83 916.17 886.31 924.31
  Q 877.80 928.05 866.17 931.53
  C 864.41 932.06 862.39 932.00 860.29 932.53
  C 853.27 934.30 844.43 932.82 837.16 932.32
  C 812.59 930.64 787.87 907.95 775.59 888.27
  Q 774.91 887.17 765.81 870.84
  C 753.42 848.59 621.33 610.43 620.50 610.46
  Q 615.15 599.20 608.67 588.66
  Q 569.51 517.88 530.12 447.34
  C 524.93 438.03 521.46 426.96 526.75 417.34
  C 532.14 407.54 544.92 402.22 554.94 409.33
  Q 560.73 413.44 565.64 418.62
  Q 624.10 480.41 682.83 541.96
  Z
  M 886.43 844.76
  A 35.77 35.77 0.0 0 0 850.66 808.99
  A 35.77 35.77 0.0 0 0 814.89 844.76
  A 35.77 35.77 0.0 0 0 850.66 880.53
  A 35.77 35.77 0.0 0 0 886.43 844.76
  Z"
/>
<path fill="#ff1c18" d="
  M 1105.77 665.51
  L 1430.74 430.23
  A 0.69 0.64 54.9 0 1 1431.67 430.43
  C 1514.62 552.62 1551.40 698.31 1550.04 845.25
  Q 1550.03 846.00 1549.29 846.00
  L 1154.72 846.00
  A 0.74 0.74 0.0 0 1 1153.98 845.24
  C 1155.41 782.88 1139.47 719.75 1105.45 667.22
  A 1.27 1.26 -34.6 0 1 1105.77 665.51
  Z"
/>
<path fill="#21b600" d="
  M 237.29 452.00
  Q 247.80 459.75 258.42 467.34
  C 263.86 471.23 270.17 476.34 276.25 480.57
  C 282.45 484.89 288.56 490.01 293.41 493.34
  Q 300.67 498.33 305.65 502.18
  C 312.07 507.16 318.28 511.15 324.43 515.92
  C 333.04 522.62 341.94 529.17 350.76 535.54
  C 365.38 546.10 379.74 557.08 394.42 567.52
  Q 416.42 583.17 433.29 595.95
  C 434.16 596.61 435.16 596.96 435.81 597.47
  C 465.27 620.07 495.89 641.20 525.27 663.89
  Q 530.68 668.07 534.22 669.51
  C 538.55 671.27 548.14 673.21 553.56 672.15
  Q 565.24 669.87 572.21 659.50
  L 577.91 663.49
  A 1.83 1.83 0.0 0 1 578.39 666.00
  C 543.88 718.65 527.52 782.36 528.96 845.29
  A 0.69 0.69 0.0 0 1 528.27 846.00
  L 133.49 846.00
  Q 132.94 846.00 132.94 845.45
  C 131.40 707.49 164.47 569.86 237.29 452.00
  Z"
/>
</svg>
