<?xml version="1.0" encoding="UTF-8" standalone="no"?>
<!DOCTYPE svg PUBLIC "-//W3C//DTD SVG 1.1//EN" "http://www.w3.org/Graphics/SVG/1.1/DTD/svg11.dtd">
<svg xmlns="http://www.w3.org/2000/svg" version="1.1" viewBox="0.00 0.00 1693.00 1046.00">
<g stroke-width="2.00" fill="none" stroke-linecap="butt">
<path stroke="#e0ee80" vector-effect="non-scaling-stroke" d="
  M 598.96 638.25
  Q 602.63 627.25 602.80 623.26
  Q 602.97 619.48 600.74 613.45
  C 598.00 606.04 591.39 602.50 585.47 598.20
  Q 583.66 596.88 577.24 591.51
  C 572.60 587.62 567.11 584.86 562.66 581.13
  Q 559.55 578.52 556.37 575.98
  C 550.60 571.38 542.78 567.21 536.58 561.58
  C 532.00 557.42 526.59 555.22 521.89 551.17
  Q 514.65 544.93 506.29 540.24
  Q 504.79 539.40 501.17 535.51
  C 496.59 530.58 490.43 527.09 484.58 523.92
  C 480.48 521.70 475.79 516.57 471.79 513.86
  C 467.66 511.07 462.85 508.36 458.79 504.69
  Q 455.51 501.73 452.68 499.88
  Q 442.25 493.04 432.70 485.05
  C 427.88 481.02 422.15 478.79 417.31 474.33
  C 411.66 469.12 405.07 465.61 398.91 460.67
  Q 392.76 455.74 386.23 451.33
  C 379.65 446.90 372.98 441.13 365.71 436.78
  C 362.86 435.07 361.27 431.54 358.72 430.01
  Q 350.72 425.23 343.01 420.01
  C 338.68 417.08 336.72 412.98 331.46 410.56
  Q 328.11 409.02 326.45 407.77
  Q 307.60 393.58 302.35 389.39
  Q 294.57 383.17 289.36 380.18"
/>
<path stroke="#a5a5a5" vector-effect="non-scaling-stroke" d="
  M 565.16 705.28
  L 540.25 700.96"
/>
<path stroke="#90db80" vector-effect="non-scaling-stroke" d="
  M 540.25 700.96
  Q 555.15 660.60 578.35 624.33
  Q 578.69 623.79 578.23 623.34
  Q 577.30 622.42 575.58 621.16
  Q 380.30 477.69 185.01 334.24
  Q 182.72 332.56 180.97 331.59
  Q 180.44 331.30 180.11 331.79
  C 85.95 468.28 39.44 629.37 32.51 794.26
  Q 31.90 808.85 32.06 845.54
  Q 32.06 846.00 32.52 846.00
  L 516.50 846.00
  Q 517.37 846.00 517.37 845.13
  Q 517.14 817.07 519.71 788.96"
/>
<path stroke="#a5a5a5" vector-effect="non-scaling-stroke" d="
  M 519.71 788.96
  Q 530.59 793.91 541.69 799.31
  Q 543.14 800.02 542.79 801.50"
/>
<path stroke="#368126" vector-effect="non-scaling-stroke" d="
  M 540.25 700.96
  Q 538.77 700.89 535.49 700.28
  Q 495.69 692.93 362.16 668.61
  C 345.76 665.62 334.34 676.45 336.74 692.91
  C 337.98 701.42 346.99 709.10 354.09 712.38
  Q 436.92 750.58 519.71 788.96"
/>
</g>
<path fill="#ffc400" d="
  M 837.51 532.75
  Q 797.42 532.85 758.48 542.43
  Q 757.14 542.76 756.02 542.77
  A 0.73 0.72 80.1 0 1 755.32 542.27
  L 633.02 165.99
  Q 632.54 164.52 634.03 164.12
  Q 706.73 144.50 781.53 138.76
  C 812.20 136.41 843.58 136.62 874.33 137.35
  C 887.42 137.66 900.54 138.84 913.67 139.99
  Q 985.88 146.35 1055.88 166.07
  A 1.01 1.01 0.0 0 1 1056.56 167.35
  L 932.56 543.92
  Q 932.40 544.41 931.91 544.28
  C 903.66 536.90 873.77 532.29 844.50 532.99
  C 842.13 533.05 839.59 532.74 837.51 532.75
  Z"
/>
<path fill="#c1dd00" d="
  M 598.96 638.25
  Q 602.63 627.25 602.80 623.26
  Q 602.97 619.48 600.74 613.45
  C 598.00 606.04 591.39 602.50 585.47 598.20
  Q 583.66 596.88 577.24 591.51
  C 572.60 587.62 567.11 584.86 562.66 581.13
  Q 559.55 578.52 556.37 575.98
  C 550.60 571.38 542.78 567.21 536.58 561.58
  C 532.00 557.42 526.59 555.22 521.89 551.17
  Q 514.65 544.93 506.29 540.24
  Q 504.79 539.40 501.17 535.51
  C 496.59 530.58 490.43 527.09 484.58 523.92
  C 480.48 521.70 475.79 516.57 471.79 513.86
  C 467.66 511.07 462.85 508.36 458.79 504.69
  Q 455.51 501.73 452.68 499.88
  Q 442.25 493.04 432.70 485.05
  C 427.88 481.02 422.15 478.79 417.31 474.33
  C 411.66 469.12 405.07 465.61 398.91 460.67
  Q 392.76 455.74 386.23 451.33
  C 379.65 446.90 372.98 441.13 365.71 436.78
  C 362.86 435.07 361.27 431.54 358.72 430.01
  Q 350.72 425.23 343.01 420.01
  C 338.68 417.08 336.72 412.98 331.46 410.56
  Q 328.11 409.02 326.45 407.77
  Q 307.60 393.58 302.35 389.39
  Q 294.57 383.17 289.36 380.18
  C 375.11 278.89 488.47 207.80 615.31 169.59
  A 0.98 0.98 0.0 0 1 616.52 170.22
  L 739.06 547.22
  A 0.51 0.50 72.5 0 1 738.74 547.85
  C 689.47 563.97 644.75 589.29 609.22 627.32
  Q 604.12 632.77 598.96 638.25
  Z"
/>
<path fill="#ff7300" d="
  M 948.02 548.01
  L 1072.05 171.32
  A 0.53 0.53 0.0 0 1 1072.73 170.98
  Q 1084.44 175.00 1096.13 179.01
  C 1225.07 223.18 1338.50 303.07 1419.35 413.01
  Q 1420.02 413.92 1419.10 414.59
  L 1094.28 649.74
  Q 1093.50 650.30 1092.90 649.54
  C 1056.10 602.04 1005.77 567.84 948.69 549.36
  Q 947.68 549.03 948.02 548.01
  Z"
/>
<path fill="#ffffff" d="
  M 289.36 380.18
  Q 294.57 383.17 302.35 389.39
  Q 307.60 393.58 326.45 407.77
  Q 328.11 409.02 331.46 410.56
  C 336.72 412.98 338.68 417.08 343.01 420.01
  Q 350.72 425.23 358.72 430.01
  C 361.27 431.54 362.86 435.07 365.71 436.78
  C 372.98 441.13 379.65 446.90 386.23 451.33
  Q 392.76 455.74 398.91 460.67
  C 405.07 465.61 411.66 469.12 417.31 474.33
  C 422.15 478.79 427.88 481.02 432.70 485.05
  Q 442.25 493.04 452.68 499.88
  Q 455.51 501.73 458.79 504.69
  C 462.85 508.36 467.66 511.07 471.79 513.86
  C 475.79 516.57 480.48 521.70 484.58 523.92
  C 490.43 527.09 496.59 530.58 501.17 535.51
  Q 504.79 539.40 506.29 540.24
  Q 514.65 544.93 521.89 551.17
  C 526.59 555.22 532.00 557.42 536.58 561.58
  C 542.78 567.21 550.60 571.38 556.37 575.98
  Q 559.55 578.52 562.66 581.13
  C 567.11 584.86 572.60 587.62 577.24 591.51
  Q 583.66 596.88 585.47 598.20
  C 591.39 602.50 598.00 606.04 600.74 613.45
  Q 602.97 619.48 602.80 623.26
  Q 602.63 627.25 598.96 638.25
  Q 595.74 643.26 592.16 648.17
  C 590.99 649.77 590.62 651.78 589.43 653.54
  Q 583.36 662.49 579.57 672.62
  C 579.01 674.11 577.86 674.96 577.17 676.43
  Q 574.79 681.52 572.06 686.45
  C 571.30 687.81 571.17 689.92 570.53 691.02
  Q 566.81 697.36 565.16 705.28
  L 540.25 700.96
  Q 555.15 660.60 578.35 624.33
  Q 578.69 623.79 578.23 623.34
  Q 577.30 622.42 575.58 621.16
  Q 380.30 477.69 185.01 334.24
  Q 182.72 332.56 180.97 331.59
  Q 180.44 331.30 180.11 331.79
  C 85.95 468.28 39.44 629.37 32.51 794.26
  Q 31.90 808.85 32.06 845.54
  Q 32.06 846.00 32.52 846.00
  L 516.50 846.00
  Q 517.37 846.00 517.37 845.13
  Q 517.14 817.07 519.71 788.96
  Q 530.59 793.91 541.69 799.31
  Q 543.14 800.02 542.79 801.50
  Q 541.22 821.22 541.49 840.99
  C 541.76 860.52 530.19 870.00 511.38 870.00
  Q 274.36 870.00 37.34 870.00
  C 31.80 870.00 23.55 868.90 19.02 865.71
  C 11.24 860.21 8.05 851.93 8.03 842.64
  Q 7.93 810.42 8.92 778.21
  C 9.09 772.66 10.37 765.97 10.32 759.64
  Q 10.30 756.84 10.95 753.45
  C 11.83 748.85 11.16 744.53 12.03 739.94
  C 12.85 735.61 12.59 731.50 13.39 727.00
  C 13.96 723.75 13.64 720.49 14.21 717.39
  C 15.70 709.26 16.53 699.54 17.52 692.90
  Q 23.05 655.86 30.83 619.22
  C 34.01 604.25 38.57 588.51 42.28 573.11
  C 44.65 563.28 48.07 553.22 51.11 543.33
  Q 58.94 517.86 64.01 504.75
  C 67.52 495.65 69.90 487.64 72.68 481.01
  Q 79.06 465.82 85.68 450.74
  C 86.81 448.15 87.42 445.35 89.44 442.19
  C 93.95 435.15 98.11 423.22 102.35 414.98
  Q 122.10 376.64 136.68 353.18
  C 141.44 345.54 150.00 333.85 157.97 320.43
  C 162.71 312.45 169.36 308.98 178.64 307.34
  C 182.99 306.57 191.66 308.37 195.21 311.09
  Q 204.20 317.97 213.57 324.32
  C 216.56 326.34 218.69 328.97 221.68 330.86
  Q 230.52 336.45 239.09 342.40
  C 241.42 344.01 242.52 346.15 244.82 347.59
  Q 250.85 351.36 256.81 355.21
  Q 258.43 356.25 260.11 358.36
  C 263.41 362.49 268.25 364.65 272.54 367.57
  C 278.16 371.39 283.00 376.48 289.36 380.18
  Z"
/>
<path fill="#21b600" d="
  M 540.25 700.96
  Q 538.77 700.89 535.49 700.28
  Q 495.69 692.93 362.16 668.61
  C 345.76 665.62 334.34 676.45 336.74 692.91
  C 337.98 701.42 346.99 709.10 354.09 712.38
  Q 436.92 750.58 519.71 788.96
  Q 517.14 817.07 517.37 845.13
  Q 517.37 846.00 516.50 846.00
  L 32.52 846.00
  Q 32.06 846.00 32.06 845.54
  Q 31.90 808.85 32.51 794.26
  C 39.44 629.37 85.95 468.28 180.11 331.79
  Q 180.44 331.30 180.97 331.59
  Q 182.72 332.56 185.01 334.24
  Q 380.30 477.69 575.58 621.16
  Q 577.30 622.42 578.23 623.34
  Q 578.69 623.79 578.35 624.33
  Q 555.15 660.60 540.25 700.96
  Z"
/>
<path fill="#ff1c18" d="
  M 1105.77 665.51
  L 1430.70 430.26
  A 0.69 0.69 0.0 0 1 1431.67 430.43
  C 1514.62 552.62 1551.40 698.31 1550.04 845.25
  Q 1550.03 846.00 1549.29 846.00
  L 1154.72 846.00
  A 0.74 0.74 0.0 0 1 1153.98 845.24
  C 1155.41 782.88 1139.47 719.75 1105.45 667.22
  A 1.27 1.26 -34.6 0 1 1105.77 665.51
  Z"
/>
<path fill="#4b4b4b" d="
  M 540.25 700.96
  L 565.16 705.28
  Q 567.10 706.22 569.23 706.49
  Q 572.03 706.84 572.12 706.86
  Q 711.43 732.33 850.74 757.78
  C 865.87 760.54 876.93 762.78 890.95 769.27
  C 918.47 782.01 935.90 807.44 936.75 838.01
  C 937.09 850.16 936.05 863.45 932.12 874.58
  C 927.50 887.66 919.74 899.80 910.34 910.21
  Q 906.61 914.34 900.16 918.63
  C 889.00 926.05 881.74 930.18 868.78 931.95
  C 844.68 935.24 825.85 930.40 804.33 920.45
  Q 674.22 860.34 543.43 799.96
  A 0.31 0.31 0.0 0 0 543.00 800.31
  Q 543.12 800.86 542.79 801.50
  Q 543.14 800.02 541.69 799.31
  Q 530.59 793.91 519.71 788.96
  Q 436.92 750.58 354.09 712.38
  C 346.99 709.10 337.98 701.42 336.74 692.91
  C 334.34 676.45 345.76 665.62 362.16 668.61
  Q 495.69 692.93 535.49 700.28
  Q 538.77 700.89 540.25 700.96
  Z
  M 850.1984 881.8895
  A 35.99 35.55 89.7 0 0 885.5595 845.7139
  A 35.99 35.55 89.7 0 0 849.8216 809.9105
  A 35.99 35.55 89.7 0 0 814.4605 846.0861
  A 35.99 35.55 89.7 0 0 850.1984 881.8895
  Z"
/>
</svg>
