<?xml version="1.0" encoding="UTF-8" standalone="no"?>
<!DOCTYPE svg PUBLIC "-//W3C//DTD SVG 1.1//EN" "http://www.w3.org/Graphics/SVG/1.1/DTD/svg11.dtd">
<svg xmlns="http://www.w3.org/2000/svg" version="1.1" viewBox="0.00 0.00 1693.00 1046.00">
<g stroke-width="2.00" fill="none" stroke-linecap="butt">
<path stroke="#ffb980" vector-effect="non-scaling-stroke" d="
  M 1396.64 383.85
  Q 1382.22 395.21 1366.98 404.66
  C 1364.68 406.09 1362.94 408.71 1360.96 409.97
  Q 1356.22 412.97 1351.81 416.43
  C 1344.27 422.34 1336.29 427.05 1328.98 433.13
  C 1324.21 437.11 1318.58 439.76 1313.84 444.15
  C 1307.20 450.28 1298.55 453.99 1291.87 460.01
  Q 1290.06 461.64 1287.66 462.81
  C 1281.77 465.68 1276.81 470.99 1271.88 474.74
  C 1266.77 478.61 1261.31 481.07 1256.36 485.56
  C 1252.79 488.79 1248.84 489.94 1244.46 493.54
  C 1242.95 494.78 1242.48 496.98 1240.05 497.55
  Q 1239.57 497.66 1239.20 497.98
  C 1237.67 499.30 1235.88 500.30 1234.41 501.62
  C 1231.57 504.17 1228.32 505.07 1225.54 507.21
  C 1222.75 509.37 1219.85 512.00 1217.43 513.82
  Q 1203.44 524.37 1189.03 534.36
  C 1186.77 535.93 1184.44 538.88 1181.04 540.08
  C 1176.78 541.58 1174.26 543.48 1171.54 546.68
  C 1165.81 553.43 1156.52 556.64 1150.41 562.40
  C 1147.34 565.29 1144.17 566.09 1141.48 568.28
  C 1134.89 573.67 1128.92 578.59 1121.62 583.01
  Q 1119.51 584.29 1115.37 587.61
  C 1104.09 596.65 1084.22 604.84 1082.15 623.63
  Q 1081.35 630.96 1084.20 638.16"
/>
<path stroke="#fff1b8" vector-effect="non-scaling-stroke" d="
  M 1659.51 867.77
  Q 1664.52 855.69 1667.82 843.01
  C 1670.71 831.87 1671.01 819.49 1671.64 807.77
  C 1672.13 798.72 1669.30 788.23 1658.97 786.42
  Q 1653.85 785.52 1648.71 784.75"
/>
<path stroke="#ff8e8c" vector-effect="non-scaling-stroke" d="
  M 1648.71 784.75
  Q 1648.19 769.84 1645.43 740.76
  C 1631.66 595.60 1586.93 458.21 1505.46 337.68
  A 1.54 1.54 0.0 0 0 1503.28 337.29
  L 1106.11 624.83
  Q 1104.80 625.78 1105.68 627.15
  C 1118.69 647.27 1129.53 668.62 1138.31 691.14
  Q 1142.13 700.96 1146.04 710.75"
/>
<path stroke="#a5a5a5" vector-effect="non-scaling-stroke" d="
  M 1146.04 710.75
  Q 1145.30 711.53 1143.51 711.83
  Q 1129.87 714.10 1120.82 714.74"
/>
<path stroke="#ff7f45" vector-effect="non-scaling-stroke" d="
  M 1648.71 784.75
  C 1644.20 785.91 1638.61 786.25 1635.02 789.47
  C 1619.06 803.79 1596.73 812.85 1575.01 808.77
  Q 1558.40 805.65 1544.66 797.16
  Q 1540.51 794.60 1529.27 785.21
  Q 1517.36 775.26 1504.53 766.50
  C 1497.59 761.76 1488.94 758.28 1481.38 753.65
  Q 1480.65 753.21 1481.50 753.13
  C 1490.22 752.36 1499.61 755.67 1508.13 753.36
  C 1517.88 750.72 1525.26 741.37 1523.84 731.11
  C 1522.93 724.53 1518.79 719.81 1513.80 715.46
  C 1501.71 704.91 1489.59 695.71 1476.52 688.67
  C 1469.68 684.99 1463.14 681.16 1453.24 677.36
  C 1451.89 676.84 1451.18 675.84 1449.72 675.36
  C 1438.79 671.84 1427.25 667.66 1416.93 665.08
  C 1404.13 661.89 1391.60 659.31 1378.19 658.86
  C 1366.49 658.46 1354.76 658.04 1343.20 658.29
  C 1328.54 658.61 1317.48 658.70 1304.71 661.92
  C 1293.82 664.67 1286.81 666.27 1277.81 668.32
  C 1277.18 668.46 1276.76 669.28 1275.86 669.57
  Q 1255.76 676.00 1241.07 683.10
  Q 1227.98 689.43 1212.91 700.30"
/>
<path stroke="#a53432" vector-effect="non-scaling-stroke" d="
  M 1212.91 700.30
  Q 1180.89 705.94 1148.50 710.99
  Q 1147.22 711.19 1146.04 710.75"
/>
<path stroke="#a54b26" vector-effect="non-scaling-stroke" d="
  M 1367.00 691.54
  C 1377.56 711.80 1359.32 721.22 1343.25 727.04"
/>
<path stroke="#a55526" vector-effect="non-scaling-stroke" d="
  M 1343.25 727.04
  L 1267.00 760.46"
/>
<path stroke="#a59e82" vector-effect="non-scaling-stroke" d="
  M 1267.00 760.46
  Q 1242.85 770.34 1219.31 781.29"
/>
<path stroke="#a5885d" vector-effect="non-scaling-stroke" d="
  M 1219.31 781.29
  L 1161.21 806.50"
/>
<path stroke="#a55f26" vector-effect="non-scaling-stroke" d="
  M 1161.21 806.50
  L 1152.80 809.98"
/>
<path stroke="#a5975e" vector-effect="non-scaling-stroke" d="
  M 1136.96 817.50
  C 1138.11 815.72 1150.29 811.07 1152.80 809.98"
/>
<path stroke="#ffab39" vector-effect="non-scaling-stroke" d="
  M 1152.80 809.98
  Q 1148.34 828.30 1147.12 847.03
  C 1144.59 885.80 1158.75 924.48 1183.04 954.50"
/>
<path stroke="#ffa139" vector-effect="non-scaling-stroke" d="
  M 1183.04 954.50
  Q 1204.91 981.78 1235.50 998.71"
/>
<path stroke="#ff9639" vector-effect="non-scaling-stroke" d="
  M 1235.50 998.71
  Q 1267.63 1016.57 1304.38 1019.63
  Q 1304.52 1019.64 1304.61 1019.75
  Q 1304.71 1019.86 1304.81 1019.97
  Q 1304.92 1020.07 1305.08 1020.08
  Q 1327.42 1021.50 1345.06 1020.32
  Q 1389.01 1017.39 1425.19 991.37
  C 1431.43 986.89 1432.83 981.54 1424.65 978.06
  C 1411.87 972.62 1397.00 965.44 1398.90 948.23
  C 1401.67 923.20 1436.29 927.33 1452.50 929.96"
/>
<path stroke="#ff9139" vector-effect="non-scaling-stroke" d="
  M 1452.50 929.96
  C 1460.64 931.02 1469.68 933.41 1476.54 934.42
  C 1517.99 940.54 1560.33 936.93 1597.95 915.95
  C 1638.94 893.09 1656.41 851.44 1658.90 806.26
  C 1659.47 796.02 1648.58 796.75 1642.82 801.33
  C 1608.89 828.33 1567.00 830.84 1531.56 804.88
  C 1518.09 795.02 1503.29 780.91 1485.66 771.65
  C 1475.46 766.30 1466.12 761.54 1455.75 757.96"
/>
<path stroke="#ff9639" vector-effect="non-scaling-stroke" d="
  M 1455.75 757.96
  Q 1434.64 749.90 1411.98 749.71
  Q 1411.39 749.71 1411.89 749.40
  C 1422.24 742.99 1436.74 740.73 1449.25 739.71"
/>
<path stroke="#ff9139" vector-effect="non-scaling-stroke" d="
  M 1449.25 739.71
  Q 1475.27 738.17 1501.24 740.31
  C 1507.32 740.81 1513.43 734.57 1507.95 729.29
  C 1475.55 698.13 1434.38 680.95 1390.42 674.00
  C 1349.31 667.50 1307.90 671.99 1268.81 686.32
  Q 1263.50 688.26 1249.23 694.67"
/>
<path stroke="#a5975e" vector-effect="non-scaling-stroke" d="
  M 1249.23 694.67
  L 1212.91 700.30"
/>
<path stroke="#ffefb0" vector-effect="non-scaling-stroke" d="
  M 1275.07 761.96
  Q 1277.50 765.09 1274.41 767.18
  Q 1269.71 770.36 1267.72 773.28
  Q 1267.45 773.68 1267.02 773.93
  Q 1263.54 775.96 1261.39 779.33
  C 1260.12 781.31 1258.38 782.04 1257.20 783.46
  C 1242.39 801.19 1233.68 818.63 1230.97 840.14
  Q 1229.79 849.51 1229.65 851.38
  C 1229.21 857.70 1230.69 863.19 1231.36 869.16
  C 1232.30 877.55 1234.13 886.07 1237.92 893.64
  Q 1242.38 902.55 1242.46 902.72
  C 1246.72 911.83 1251.89 917.79 1257.47 924.82
  C 1258.97 926.71 1264.09 930.63 1263.84 933.11
  Q 1263.73 934.29 1263.06 935.34"
/>
<path stroke="#ffa85c" vector-effect="non-scaling-stroke" d="
  M 1263.06 935.34
  Q 1254.42 936.75 1245.75 937.04"
/>
<path stroke="#ffb25c" vector-effect="non-scaling-stroke" d="
  M 1245.75 937.04
  Q 1234.49 937.07 1223.50 934.71"
/>
<path stroke="#ffdb94" vector-effect="non-scaling-stroke" d="
  M 1223.50 934.71
  Q 1223.59 931.77 1221.53 929.20
  C 1202.38 905.38 1189.91 872.87 1193.98 841.85
  Q 1198.36 808.43 1219.31 781.29"
/>
<path stroke="#ff9c38" vector-effect="non-scaling-stroke" d="
  M 1223.50 934.71
  Q 1198.25 929.67 1178.25 913.45
  C 1170.62 907.25 1160.55 896.97 1158.01 887.23
  Q 1147.64 847.49 1161.57 808.50
  C 1161.89 807.61 1161.66 807.22 1161.21 806.50"
/>
<path stroke="#ff6900" vector-effect="non-scaling-stroke" d="
  M 1245.75 937.04
  L 1239.96 937.21
  Q 1239.71 937.22 1239.83 937.43
  L 1240.06 937.87
  Q 1240.21 938.15 1240.53 938.19
  L 1242.75 938.49
  Q 1243.81 938.63 1242.72 938.97
  Q 1242.44 939.06 1242.31 939.25
  Q 1242.07 939.61 1242.23 939.77
  L 1242.45 939.99
  Q 1242.75 940.30 1242.38 940.52
  Q 1237.92 943.28 1232.74 943.10
  Q 1232.27 943.08 1231.86 943.33
  L 1229.48 944.81
  Q 1229.05 945.08 1228.54 945.01
  Q 1223.91 944.37 1220.01 946.74
  Q 1219.54 947.03 1218.99 947.00
  Q 1216.44 946.87 1214.01 947.66
  C 1212.45 948.16 1210.91 947.67 1209.74 948.01
  Q 1207.18 948.73 1205.22 948.97
  C 1201.39 949.43 1198.25 950.39 1194.48 949.91
  Q 1193.97 949.84 1193.51 950.07
  Q 1189.94 951.87 1186.78 952.01
  Q 1184.25 952.11 1183.78 953.99
  Q 1183.69 954.36 1183.33 954.47
  Q 1183.19 954.51 1183.04 954.50"
/>
<path stroke="#ff4501" vector-effect="non-scaling-stroke" d="
  M 1455.75 757.96
  Q 1455.56 758.37 1455.87 758.82
  Q 1456.33 759.51 1455.50 759.56
  L 1453.91 759.64
  A 0.85 0.85 0.0 0 0 1453.48 761.19
  Q 1457.51 763.90 1459.44 768.38
  Q 1459.64 768.86 1460.10 769.13
  C 1464.06 771.49 1465.62 777.27 1467.76 779.49
  Q 1469.71 781.53 1471.16 783.95
  C 1472.02 785.39 1472.00 787.55 1474.05 788.82
  Q 1474.47 789.09 1474.68 789.54
  Q 1477.51 795.55 1479.94 801.74
  C 1480.48 803.10 1481.61 804.05 1482.00 805.24
  Q 1482.77 807.58 1485.01 816.00
  C 1485.46 817.71 1485.04 819.05 1486.77 820.60
  Q 1487.21 821.00 1487.21 821.59
  L 1487.21 859.47
  Q 1487.22 860.07 1486.81 860.51
  L 1485.86 861.54
  Q 1485.52 861.92 1485.46 862.43
  Q 1484.66 869.54 1481.90 876.15
  Q 1481.70 876.62 1481.25 876.86
  L 1479.50 877.79"
/>
<path stroke="#ff9639" vector-effect="non-scaling-stroke" d="
  M 1479.50 877.79
  Q 1459.01 850.59 1430.46 832.00"
/>
<path stroke="#ff5500" vector-effect="non-scaling-stroke" d="
  M 1430.46 832.00
  Q 1431.43 830.73 1432.78 831.54
  Q 1433.43 831.92 1433.09 831.25
  C 1432.06 829.20 1432.94 825.11 1432.79 822.60
  Q 1432.68 820.74 1431.46 818.14
  C 1429.33 813.61 1429.35 808.18 1426.24 804.08
  Q 1423.91 801.03 1422.73 797.33
  C 1422.02 795.11 1415.54 784.85 1413.73 784.28
  Q 1413.30 784.15 1413.10 783.73
  Q 1412.27 781.94 1409.96 779.29
  C 1408.95 778.14 1408.77 776.29 1407.21 774.95
  Q 1404.68 772.77 1402.59 770.15
  C 1401.59 768.89 1400.07 768.04 1399.07 766.72
  C 1397.11 764.13 1394.83 761.89 1392.11 760.38
  Q 1388.98 758.65 1386.96 755.59
  Q 1386.67 755.14 1386.17 754.93
  Q 1383.03 753.56 1380.81 751.02
  Q 1380.43 750.58 1379.86 750.51
  Q 1378.09 750.27 1377.36 748.62
  Q 1377.14 748.11 1376.64 747.86
  C 1370.79 744.86 1367.90 742.23 1363.38 739.37
  C 1358.73 736.43 1354.64 733.50 1349.50 731.69
  C 1347.67 731.05 1346.58 729.80 1344.70 729.13
  Q 1344.34 729.00 1344.14 728.68
  Q 1343.75 728.06 1343.00 728.56
  Q 1341.62 729.47 1342.75 728.06
  Q 1343.15 727.56 1343.25 727.04"
/>
<path stroke="#ff4501" vector-effect="non-scaling-stroke" d="
  M 1449.25 739.71
  Q 1448.02 737.54 1445.49 738.03
  Q 1444.97 738.13 1444.58 737.77
  C 1442.98 736.28 1442.03 734.54 1440.21 733.34
  Q 1437.78 731.73 1435.35 730.08
  C 1433.57 728.88 1432.13 726.81 1429.76 725.80
  C 1428.87 725.42 1428.37 724.81 1427.83 724.08
  Q 1427.53 723.68 1427.07 723.45
  Q 1423.76 721.85 1420.87 719.55
  Q 1420.48 719.24 1419.99 719.17
  Q 1416.86 718.68 1414.97 716.19
  Q 1414.66 715.77 1414.19 715.54
  Q 1411.17 714.02 1407.32 711.42
  Q 1402.87 708.41 1396.79 705.91
  C 1394.75 705.07 1393.54 703.20 1390.97 702.93
  Q 1390.47 702.88 1390.08 702.56
  C 1388.70 701.45 1378.30 695.98 1376.57 696.02
  Q 1376.03 696.03 1375.63 695.66
  Q 1373.57 693.74 1370.70 693.32
  Q 1370.44 693.28 1370.29 693.49
  L 1369.98 693.91
  Q 1369.47 694.60 1369.33 693.75
  Q 1368.98 691.66 1367.00 691.54"
/>
<path stroke="#a54526" vector-effect="non-scaling-stroke" d="
  M 1367.00 691.54
  C 1361.25 681.86 1348.92 678.75 1339.50 680.27
  Q 1294.40 687.56 1249.23 694.67"
/>
<path stroke="#ffa139" vector-effect="non-scaling-stroke" d="
  M 1430.46 832.00
  C 1409.98 819.29 1387.02 811.71 1363.32 806.69
  Q 1355.64 805.07 1347.77 804.45"
/>
<path stroke="#ffa448" vector-effect="non-scaling-stroke" d="
  M 1347.77 804.45
  L 1336.25 803.96"
/>
<path stroke="#ff6900" vector-effect="non-scaling-stroke" d="
  M 1336.25 803.96
  Q 1334.56 803.40 1332.78 803.12
  C 1330.04 802.68 1328.71 801.98 1326.49 800.66
  Q 1326.06 800.40 1325.86 799.95
  C 1324.16 796.16 1320.92 794.29 1318.67 791.69
  C 1316.52 789.19 1312.48 786.52 1311.25 784.03
  Q 1311.00 783.53 1311.32 783.07
  Q 1311.74 782.47 1310.89 782.13
  Q 1310.67 782.04 1310.47 782.17
  Q 1310.37 782.24 1310.21 782.14
  Q 1309.68 781.85 1310.28 781.78
  Q 1311.38 781.64 1311.50 780.54"
/>
<path stroke="#ffa448" vector-effect="non-scaling-stroke" d="
  M 1311.50 780.54
  Q 1313.75 780.18 1314.39 778.34
  A 2.27 2.27 0.0 0 0 1313.44 775.66
  Q 1305.86 771.00 1297.82 768.21"
/>
<path stroke="#ffa754" vector-effect="non-scaling-stroke" d="
  M 1297.82 768.21
  Q 1286.67 763.97 1275.07 761.96"
/>
<path stroke="#ffa85c" vector-effect="non-scaling-stroke" d="
  M 1275.07 761.96
  L 1267.00 760.46"
/>
<path stroke="#ff5500" vector-effect="non-scaling-stroke" d="
  M 1445.29 872.98
  Q 1444.17 874.95 1442.36 876.23
  Q 1441.94 876.53 1441.89 877.03
  Q 1441.60 879.91 1439.39 881.70
  Q 1439.00 882.01 1439.00 882.51
  L 1439.00 883.68
  Q 1439.00 884.19 1438.74 884.62
  L 1434.29 891.91
  Q 1434.00 892.39 1433.51 892.67
  Q 1432.00 893.50 1431.98 895.29
  Q 1431.97 895.81 1431.61 896.19
  Q 1428.86 899.13 1427.03 902.73
  Q 1426.79 903.20 1426.32 903.42
  C 1423.06 904.99 1422.76 908.44 1419.91 910.70
  C 1417.46 912.65 1416.31 914.14 1414.50 916.25
  C 1413.23 917.73 1411.55 918.41 1410.19 920.00
  C 1407.30 923.41 1402.81 927.36 1399.04 929.75
  C 1396.34 931.45 1394.79 933.75 1392.20 935.28
  C 1388.71 937.33 1386.80 939.65 1383.98 941.38
  C 1379.88 943.90 1375.73 947.10 1372.01 948.78
  Q 1369.24 950.03 1367.21 951.40
  C 1363.37 954.00 1360.55 955.28 1356.79 956.91
  C 1355.47 957.48 1354.61 958.44 1353.05 958.94
  Q 1351.02 959.59 1350.18 960.09
  Q 1344.52 963.48 1338.15 965.36
  Q 1337.68 965.50 1337.32 965.84
  C 1334.58 968.51 1331.11 968.71 1328.13 969.94
  C 1324.89 971.27 1320.92 971.81 1317.79 973.85
  Q 1315.62 975.27 1313.74 975.73
  C 1308.83 976.93 1303.87 978.09 1299.35 980.42
  C 1296.66 981.80 1293.84 981.82 1291.19 982.77
  C 1286.34 984.50 1280.52 985.09 1276.09 986.26
  Q 1275.79 986.34 1275.57 986.56
  L 1275.25 986.88
  Q 1274.92 987.21 1274.46 987.32
  Q 1263.16 990.16 1251.66 992.00
  C 1249.56 992.34 1246.97 993.24 1244.19 992.96
  Q 1243.66 992.90 1243.24 993.21
  C 1240.72 995.06 1239.22 994.18 1236.87 995.37
  Q 1236.38 995.62 1236.53 996.14
  L 1236.82 997.16
  Q 1236.97 997.68 1236.42 997.70
  Q 1235.54 997.74 1235.50 998.71"
/>
<path stroke="#ff4501" vector-effect="non-scaling-stroke" d="
  M 1452.50 929.96
  L 1449.69 928.27
  Q 1449.51 928.16 1449.69 928.05
  L 1450.09 927.82
  Q 1450.53 927.55 1450.05 927.37
  Q 1448.67 926.86 1448.48 925.55
  Q 1448.40 925.02 1448.80 924.67
  C 1453.16 920.89 1456.37 918.36 1459.31 913.32
  Q 1460.14 911.91 1461.67 911.09
  Q 1462.10 910.86 1462.38 910.46
  Q 1464.33 907.77 1466.15 905.01
  C 1467.96 902.25 1471.24 899.04 1472.49 894.73
  Q 1472.65 894.17 1473.13 893.84
  L 1474.00 893.25
  Q 1474.45 892.95 1474.68 892.46
  L 1478.22 884.93
  Q 1478.45 884.44 1478.23 883.95
  L 1477.11 881.45"
/>
<path stroke="#ff9139" vector-effect="non-scaling-stroke" d="
  M 1477.11 881.45
  Q 1479.43 879.72 1479.50 877.79"
/>
<path stroke="#ffeb9b" vector-effect="non-scaling-stroke" d="
  M 1297.82 768.21
  Q 1298.22 771.97 1295.59 774.33
  C 1293.59 776.12 1291.86 776.40 1289.58 779.08
  Q 1286.79 782.38 1277.87 790.78
  Q 1277.50 791.13 1277.52 791.64
  Q 1277.54 792.42 1276.91 792.27
  Q 1276.25 792.12 1276.00 792.75
  C 1274.81 795.68 1272.52 796.71 1271.05 799.20
  C 1269.10 802.51 1266.38 805.36 1264.70 808.55
  Q 1260.65 816.27 1257.23 824.29
  C 1255.86 827.49 1255.39 831.03 1254.46 834.46
  Q 1253.11 839.44 1253.06 842.21
  Q 1253.01 845.06 1253.39 847.88
  C 1254.48 855.88 1253.34 863.85 1254.75 871.69
  C 1256.06 878.94 1257.67 885.03 1261.06 891.64
  C 1261.98 893.43 1263.30 897.66 1265.28 900.20
  Q 1266.79 902.15 1267.58 903.75
  Q 1270.69 910.03 1276.32 915.20
  Q 1277.68 916.44 1277.49 918.54
  Q 1277.45 919.00 1277.91 918.99
  Q 1278.05 918.99 1278.18 919.00
  Q 1278.47 919.01 1278.72 919.17
  Q 1284.08 922.51 1286.05 928.47"
/>
<path stroke="#ffa754" vector-effect="non-scaling-stroke" d="
  M 1286.05 928.47
  Q 1274.85 933.24 1263.06 935.34"
/>
<path stroke="#ff9639" vector-effect="non-scaling-stroke" d="
  M 1477.11 881.45
  Q 1461.51 876.00 1445.29 872.98"
/>
<path stroke="#ffa139" vector-effect="non-scaling-stroke" d="
  M 1445.29 872.98
  C 1412.32 866.56 1377.86 871.02 1349.41 888.96
  Q 1344.09 892.32 1338.81 895.81"
/>
<path stroke="#ffae48" vector-effect="non-scaling-stroke" d="
  M 1311.50 780.54
  C 1302.20 782.81 1273.65 794.57 1274.50 806.85
  C 1275.16 816.32 1287.53 814.95 1293.54 813.12
  C 1307.90 808.75 1319.83 804.60 1336.25 803.96"
/>
<path stroke="#ffe580" vector-effect="non-scaling-stroke" d="
  M 1347.77 804.45
  Q 1348.82 805.83 1348.58 807.45
  C 1348.24 809.80 1344.46 811.40 1343.15 813.83
  Q 1341.74 816.46 1339.27 818.25
  Q 1338.86 818.55 1338.65 819.02
  Q 1337.11 822.49 1334.60 825.30
  C 1333.94 826.04 1328.89 834.86 1328.96 835.75
  Q 1329.19 839.00 1327.53 840.79
  Q 1327.18 841.15 1327.17 841.65
  C 1327.10 843.62 1326.30 845.31 1326.28 847.11
  C 1326.26 851.42 1325.18 859.72 1326.87 863.50
  Q 1327.07 863.94 1327.01 864.41
  Q 1326.67 867.20 1328.81 868.95
  Q 1329.21 869.28 1329.10 869.78
  C 1328.25 873.71 1330.51 874.83 1331.56 877.76
  Q 1333.92 884.33 1338.56 889.47
  Q 1340.11 891.19 1340.18 892.38
  Q 1340.28 894.14 1338.81 895.81"
/>
<path stroke="#ffa448" vector-effect="non-scaling-stroke" d="
  M 1338.81 895.81
  C 1323.02 907.13 1304.33 919.87 1286.05 928.47"
/>
</g>
<path fill="#ffc400" d="
  M 837.51 532.75
  Q 797.42 532.85 758.48 542.43
  Q 757.14 542.76 756.02 542.77
  A 0.73 0.72 80.1 0 1 755.32 542.27
  L 633.02 165.99
  Q 632.54 164.52 634.03 164.12
  Q 706.73 144.50 781.53 138.76
  C 812.20 136.41 843.58 136.62 874.33 137.35
  C 887.42 137.66 900.54 138.84 913.67 139.99
  Q 985.88 146.35 1055.88 166.07
  A 1.01 1.01 0.0 0 1 1056.56 167.35
  L 932.56 543.92
  Q 932.40 544.41 931.91 544.28
  C 903.66 536.90 873.77 532.29 844.50 532.99
  C 842.13 533.05 839.59 532.74 837.51 532.75
  Z"
/>
<path fill="#c1dd00" d="
  M 589.90 649.08
  L 266.37 411.44
  Q 265.27 410.63 266.09 409.54
  C 353.98 292.83 475.86 211.56 615.33 169.60
  Q 616.23 169.33 616.52 170.23
  L 738.91 546.78
  A 1.11 1.10 -17.6 0 1 738.18 548.18
  C 680.02 565.98 628.00 600.69 590.66 648.97
  A 0.55 0.54 -52.9 0 1 589.90 649.08
  Z"
/>
<path fill="#ff7300" d="
  M 1396.64 383.85
  Q 1382.22 395.21 1366.98 404.66
  C 1364.68 406.09 1362.94 408.71 1360.96 409.97
  Q 1356.22 412.97 1351.81 416.43
  C 1344.27 422.34 1336.29 427.05 1328.98 433.13
  C 1324.21 437.11 1318.58 439.76 1313.84 444.15
  C 1307.20 450.28 1298.55 453.99 1291.87 460.01
  Q 1290.06 461.64 1287.66 462.81
  C 1281.77 465.68 1276.81 470.99 1271.88 474.74
  C 1266.77 478.61 1261.31 481.07 1256.36 485.56
  C 1252.79 488.79 1248.84 489.94 1244.46 493.54
  C 1242.95 494.78 1242.48 496.98 1240.05 497.55
  Q 1239.57 497.66 1239.20 497.98
  C 1237.67 499.30 1235.88 500.30 1234.41 501.62
  C 1231.57 504.17 1228.32 505.07 1225.54 507.21
  C 1222.75 509.37 1219.85 512.00 1217.43 513.82
  Q 1203.44 524.37 1189.03 534.36
  C 1186.77 535.93 1184.44 538.88 1181.04 540.08
  C 1176.78 541.58 1174.26 543.48 1171.54 546.68
  C 1165.81 553.43 1156.52 556.64 1150.41 562.40
  C 1147.34 565.29 1144.17 566.09 1141.48 568.28
  C 1134.89 573.67 1128.92 578.59 1121.62 583.01
  Q 1119.51 584.29 1115.37 587.61
  C 1104.09 596.65 1084.22 604.84 1082.15 623.63
  Q 1081.35 630.96 1084.20 638.16
  Q 1081.02 635.36 1078.33 632.28
  C 1044.59 593.67 997.55 565.27 948.70 549.37
  Q 947.68 549.04 948.01 548.02
  L 1072.06 171.30
  A 0.51 0.51 0.0 0 1 1072.71 170.98
  Q 1084.45 175.00 1096.13 179.00
  C 1213.36 219.14 1317.16 288.52 1396.64 383.85
  Z"
/>
<path fill="#ffffff" d="
  M 1659.51 867.77
  Q 1664.52 855.69 1667.82 843.01
  C 1670.71 831.87 1671.01 819.49 1671.64 807.77
  C 1672.13 798.72 1669.30 788.23 1658.97 786.42
  Q 1653.85 785.52 1648.71 784.75
  Q 1648.19 769.84 1645.43 740.76
  C 1631.66 595.60 1586.93 458.21 1505.46 337.68
  A 1.54 1.54 0.0 0 0 1503.28 337.29
  L 1106.11 624.83
  Q 1104.80 625.78 1105.68 627.15
  C 1118.69 647.27 1129.53 668.62 1138.31 691.14
  Q 1142.13 700.96 1146.04 710.75
  Q 1145.30 711.53 1143.51 711.83
  Q 1129.87 714.10 1120.82 714.74
  Q 1119.01 707.23 1117.84 705.18
  C 1115.67 701.38 1114.77 696.82 1113.17 693.37
  Q 1110.42 687.44 1107.83 681.44
  C 1107.23 680.05 1105.82 679.14 1105.49 677.69
  Q 1104.24 672.29 1100.90 667.93
  C 1098.29 664.52 1097.64 660.35 1094.78 656.78
  C 1093.25 654.88 1092.98 652.79 1091.77 650.97
  Q 1087.61 644.72 1084.20 638.16
  Q 1081.35 630.96 1082.15 623.63
  C 1084.22 604.84 1104.09 596.65 1115.37 587.61
  Q 1119.51 584.29 1121.62 583.01
  C 1128.92 578.59 1134.89 573.67 1141.48 568.28
  C 1144.17 566.09 1147.34 565.29 1150.41 562.40
  C 1156.52 556.64 1165.81 553.43 1171.54 546.68
  C 1174.26 543.48 1176.78 541.58 1181.04 540.08
  C 1184.44 538.88 1186.77 535.93 1189.03 534.36
  Q 1203.44 524.37 1217.43 513.82
  C 1219.85 512.00 1222.75 509.37 1225.54 507.21
  C 1228.32 505.07 1231.57 504.17 1234.41 501.62
  C 1235.88 500.30 1237.67 499.30 1239.20 497.98
  Q 1239.57 497.66 1240.05 497.55
  C 1242.48 496.98 1242.95 494.78 1244.46 493.54
  C 1248.84 489.94 1252.79 488.79 1256.36 485.56
  C 1261.31 481.07 1266.77 478.61 1271.88 474.74
  C 1276.81 470.99 1281.77 465.68 1287.66 462.81
  Q 1290.06 461.64 1291.87 460.01
  C 1298.55 453.99 1307.20 450.28 1313.84 444.15
  C 1318.58 439.76 1324.21 437.11 1328.98 433.13
  C 1336.29 427.05 1344.27 422.34 1351.81 416.43
  Q 1356.22 412.97 1360.96 409.97
  C 1362.94 408.71 1364.68 406.09 1366.98 404.66
  Q 1382.22 395.21 1396.64 383.85
  Q 1404.86 377.10 1413.85 370.62
  C 1414.47 370.18 1415.76 370.10 1416.57 369.54
  C 1428.25 361.44 1435.41 357.00 1443.39 349.59
  C 1445.62 347.53 1448.44 345.07 1451.33 344.13
  C 1455.76 342.68 1457.55 338.59 1461.99 336.23
  Q 1465.94 334.13 1467.51 332.99
  C 1470.39 330.92 1472.70 328.91 1475.90 327.24
  C 1477.52 326.39 1478.09 324.63 1479.39 323.58
  Q 1488.63 316.15 1500.20 313.85
  C 1507.56 312.39 1519.21 315.86 1523.82 322.25
  Q 1542.03 347.53 1557.28 374.68
  C 1558.28 376.47 1561.22 380.73 1562.68 383.93
  C 1565.44 389.97 1568.36 394.59 1572.41 401.48
  Q 1573.91 404.03 1575.13 406.75
  C 1577.03 410.97 1579.24 414.64 1581.10 418.73
  C 1582.90 422.68 1586.08 427.88 1587.55 432.99
  C 1587.78 433.82 1588.57 434.65 1588.96 435.48
  Q 1601.38 461.93 1610.24 485.00
  Q 1611.05 487.11 1611.77 488.59
  C 1613.60 492.38 1614.42 496.56 1616.21 500.77
  Q 1618.50 506.18 1620.63 514.02
  C 1621.01 515.41 1622.23 515.98 1622.60 517.35
  C 1624.66 524.98 1626.86 529.85 1628.55 536.13
  C 1631.38 546.60 1634.77 556.88 1637.59 567.36
  C 1638.22 569.70 1639.56 572.53 1639.97 574.51
  Q 1641.87 583.74 1644.21 592.87
  C 1650.05 615.62 1653.00 629.93 1656.90 648.40
  C 1658.42 655.58 1659.16 663.28 1660.64 670.70
  C 1662.09 677.96 1663.60 685.65 1664.19 692.93
  C 1664.45 696.19 1665.44 698.84 1665.43 702.21
  C 1665.42 705.31 1666.43 708.06 1666.51 710.93
  C 1666.60 714.91 1667.56 718.22 1667.75 721.67
  C 1668.03 726.60 1669.55 730.64 1669.29 735.67
  C 1669.13 738.77 1670.57 741.17 1670.31 744.02
  Q 1669.82 749.26 1671.01 754.35
  C 1672.05 758.83 1671.16 763.37 1671.80 767.91
  Q 1672.69 774.22 1672.73 776.53
  C 1672.81 780.97 1672.21 786.21 1673.11 790.52
  C 1673.47 792.30 1673.98 794.14 1673.98 795.95
  Q 1674.01 820.10 1674.00 844.25
  C 1674.00 848.30 1671.80 856.35 1668.93 860.06
  Q 1665.17 864.89 1659.51 867.77
  Z"
/>
<path fill="#ff1c18" d="
  M 1648.71 784.75
  C 1644.20 785.91 1638.61 786.25 1635.02 789.47
  C 1619.06 803.79 1596.73 812.85 1575.01 808.77
  Q 1558.40 805.65 1544.66 797.16
  Q 1540.51 794.60 1529.27 785.21
  Q 1517.36 775.26 1504.53 766.50
  C 1497.59 761.76 1488.94 758.28 1481.38 753.65
  Q 1480.65 753.21 1481.50 753.13
  C 1490.22 752.36 1499.61 755.67 1508.13 753.36
  C 1517.88 750.72 1525.26 741.37 1523.84 731.11
  C 1522.93 724.53 1518.79 719.81 1513.80 715.46
  C 1501.71 704.91 1489.59 695.71 1476.52 688.67
  C 1469.68 684.99 1463.14 681.16 1453.24 677.36
  C 1451.89 676.84 1451.18 675.84 1449.72 675.36
  C 1438.79 671.84 1427.25 667.66 1416.93 665.08
  C 1404.13 661.89 1391.60 659.31 1378.19 658.86
  C 1366.49 658.46 1354.76 658.04 1343.20 658.29
  C 1328.54 658.61 1317.48 658.70 1304.71 661.92
  C 1293.82 664.67 1286.81 666.27 1277.81 668.32
  C 1277.18 668.46 1276.76 669.28 1275.86 669.57
  Q 1255.76 676.00 1241.07 683.10
  Q 1227.98 689.43 1212.91 700.30
  Q 1180.89 705.94 1148.50 710.99
  Q 1147.22 711.19 1146.04 710.75
  Q 1142.13 700.96 1138.31 691.14
  C 1129.53 668.62 1118.69 647.27 1105.68 627.15
  Q 1104.80 625.78 1106.11 624.83
  L 1503.28 337.29
  A 1.54 1.54 0.0 0 1 1505.46 337.68
  C 1586.93 458.21 1631.66 595.60 1645.43 740.76
  Q 1648.19 769.84 1648.71 784.75
  Z"
/>
<path fill="#21b600" d="
  M 254.91 426.44
  L 578.81 664.38
  A 0.72 0.70 -50.9 0 1 578.91 665.43
  Q 577.71 666.74 576.66 668.41
  C 543.37 721.15 527.51 783.32 528.96 845.52
  A 0.47 0.47 0.0 0 1 528.49 846.00
  L 133.51 846.00
  Q 133.05 846.00 133.05 845.54
  C 131.92 697.01 168.81 550.00 253.97 426.60
  A 0.67 0.67 0.0 0 1 254.91 426.44
  Z"
/>
<path fill="#ffe271" d="
  M 1648.71 784.75
  Q 1653.85 785.52 1658.97 786.42
  C 1669.30 788.23 1672.13 798.72 1671.64 807.77
  C 1671.01 819.49 1670.71 831.87 1667.82 843.01
  Q 1664.52 855.69 1659.51 867.77
  Q 1646.56 896.85 1622.20 916.45
  C 1606.16 929.36 1584.67 939.22 1564.92 943.39
  Q 1564.47 943.49 1563.63 944.30
  Q 1563.27 944.65 1562.79 944.76
  C 1542.29 949.45 1521.73 950.77 1500.25 950.18
  C 1496.48 950.07 1493.24 949.20 1489.57 949.31
  C 1485.54 949.43 1480.71 948.43 1477.89 948.13
  Q 1468.35 947.10 1458.98 945.08
  Q 1449.19 942.97 1444.51 942.57
  C 1437.99 942.02 1425.53 940.60 1419.04 943.03
  C 1413.37 945.16 1411.61 950.49 1415.01 955.47
  C 1422.65 966.68 1440.42 963.16 1443.47 978.33
  C 1445.43 988.07 1443.95 995.36 1435.35 1001.65
  Q 1403.96 1024.60 1365.88 1031.47
  C 1347.16 1034.85 1326.17 1034.12 1307.17 1033.32
  C 1267.10 1031.64 1229.22 1016.13 1198.57 990.53
  C 1185.12 979.30 1173.79 966.38 1163.45 952.43
  C 1160.71 948.72 1158.41 943.68 1155.60 939.36
  C 1152.08 933.93 1149.46 927.75 1146.73 921.89
  C 1145.58 919.41 1144.78 915.70 1143.37 912.79
  C 1140.28 906.39 1138.59 898.66 1137.31 891.71
  C 1136.39 886.75 1134.20 881.81 1134.06 876.90
  Q 1133.47 856.64 1134.07 836.39
  C 1134.25 830.14 1136.22 823.92 1136.96 817.50
  C 1138.11 815.72 1150.29 811.07 1152.80 809.98
  Q 1148.34 828.30 1147.12 847.03
  C 1144.59 885.80 1158.75 924.48 1183.04 954.50
  Q 1204.91 981.78 1235.50 998.71
  Q 1267.63 1016.57 1304.38 1019.63
  Q 1304.52 1019.64 1304.61 1019.75
  Q 1304.71 1019.86 1304.81 1019.97
  Q 1304.92 1020.07 1305.08 1020.08
  Q 1327.42 1021.50 1345.06 1020.32
  Q 1389.01 1017.39 1425.19 991.37
  C 1431.43 986.89 1432.83 981.54 1424.65 978.06
  C 1411.87 972.62 1397.00 965.44 1398.90 948.23
  C 1401.67 923.20 1436.29 927.33 1452.50 929.96
  C 1460.64 931.02 1469.68 933.41 1476.54 934.42
  C 1517.99 940.54 1560.33 936.93 1597.95 915.95
  C 1638.94 893.09 1656.41 851.44 1658.90 806.26
  C 1659.47 796.02 1648.58 796.75 1642.82 801.33
  C 1608.89 828.33 1567.00 830.84 1531.56 804.88
  C 1518.09 795.02 1503.29 780.91 1485.66 771.65
  C 1475.46 766.30 1466.12 761.54 1455.75 757.96
  Q 1434.64 749.90 1411.98 749.71
  Q 1411.39 749.71 1411.89 749.40
  C 1422.24 742.99 1436.74 740.73 1449.25 739.71
  Q 1475.27 738.17 1501.24 740.31
  C 1507.32 740.81 1513.43 734.57 1507.95 729.29
  C 1475.55 698.13 1434.38 680.95 1390.42 674.00
  C 1349.31 667.50 1307.90 671.99 1268.81 686.32
  Q 1263.50 688.26 1249.23 694.67
  L 1212.91 700.30
  Q 1227.98 689.43 1241.07 683.10
  Q 1255.76 676.00 1275.86 669.57
  C 1276.76 669.28 1277.18 668.46 1277.81 668.32
  C 1286.81 666.27 1293.82 664.67 1304.71 661.92
  C 1317.48 658.70 1328.54 658.61 1343.20 658.29
  C 1354.76 658.04 1366.49 658.46 1378.19 658.86
  C 1391.60 659.31 1404.13 661.89 1416.93 665.08
  C 1427.25 667.66 1438.79 671.84 1449.72 675.36
  C 1451.18 675.84 1451.89 676.84 1453.24 677.36
  C 1463.14 681.16 1469.68 684.99 1476.52 688.67
  C 1489.59 695.71 1501.71 704.91 1513.80 715.46
  C 1518.79 719.81 1522.93 724.53 1523.84 731.11
  C 1525.26 741.37 1517.88 750.72 1508.13 753.36
  C 1499.61 755.67 1490.22 752.36 1481.50 753.13
  Q 1480.65 753.21 1481.38 753.65
  C 1488.94 758.28 1497.59 761.76 1504.53 766.50
  Q 1517.36 775.26 1529.27 785.21
  Q 1540.51 794.60 1544.66 797.16
  Q 1558.40 805.65 1575.01 808.77
  C 1596.73 812.85 1619.06 803.79 1635.02 789.47
  C 1638.61 786.25 1644.20 785.91 1648.71 784.75
  Z"
/>
<path fill="#ff3f01" d="
  M 1449.25 739.71
  Q 1448.02 737.54 1445.49 738.03
  Q 1444.97 738.13 1444.58 737.77
  C 1442.98 736.28 1442.03 734.54 1440.21 733.34
  Q 1437.78 731.73 1435.35 730.08
  C 1433.57 728.88 1432.13 726.81 1429.76 725.80
  C 1428.87 725.42 1428.37 724.81 1427.83 724.08
  Q 1427.53 723.68 1427.07 723.45
  Q 1423.76 721.85 1420.87 719.55
  Q 1420.48 719.24 1419.99 719.17
  Q 1416.86 718.68 1414.97 716.19
  Q 1414.66 715.77 1414.19 715.54
  Q 1411.17 714.02 1407.32 711.42
  Q 1402.87 708.41 1396.79 705.91
  C 1394.75 705.07 1393.54 703.20 1390.97 702.93
  Q 1390.47 702.88 1390.08 702.56
  C 1388.70 701.45 1378.30 695.98 1376.57 696.02
  Q 1376.03 696.03 1375.63 695.66
  Q 1373.57 693.74 1370.70 693.32
  Q 1370.44 693.28 1370.29 693.49
  L 1369.98 693.91
  Q 1369.47 694.60 1369.33 693.75
  Q 1368.98 691.66 1367.00 691.54
  C 1361.25 681.86 1348.92 678.75 1339.50 680.27
  Q 1294.40 687.56 1249.23 694.67
  Q 1263.50 688.26 1268.81 686.32
  C 1307.90 671.99 1349.31 667.50 1390.42 674.00
  C 1434.38 680.95 1475.55 698.13 1507.95 729.29
  C 1513.43 734.57 1507.32 740.81 1501.24 740.31
  Q 1475.27 738.17 1449.25 739.71
  Z"
/>
<path fill="#4b4b4b" d="
  M 1367.00 691.54
  C 1377.56 711.80 1359.32 721.22 1343.25 727.04
  L 1267.00 760.46
  Q 1242.85 770.34 1219.31 781.29
  L 1161.21 806.50
  L 1152.80 809.98
  C 1150.29 811.07 1138.11 815.72 1136.96 817.50
  L 1136.70 817.32
  Q 1136.44 817.14 1136.15 817.27
  Q 1015.69 869.71 895.28 922.24
  C 880.08 928.88 865.73 933.37 849.61 933.76
  Q 808.91 934.76 783.93 900.81
  Q 759.47 867.58 765.77 827.69
  C 768.00 813.53 775.96 797.21 786.44 787.19
  C 804.39 770.02 823.52 763.01 847.63 759.15
  Q 983.72 737.34 1119.81 715.53
  Q 1120.71 715.38 1120.82 714.74
  Q 1129.87 714.10 1143.51 711.83
  Q 1145.30 711.53 1146.04 710.75
  Q 1147.22 711.19 1148.50 710.99
  Q 1180.89 705.94 1212.91 700.30
  L 1249.23 694.67
  Q 1294.40 687.56 1339.50 680.27
  C 1348.92 678.75 1361.25 681.86 1367.00 691.54
  Z
  M 879.96 868.44
  C 884.52 863.16 887.89 854.28 887.77 847.30
  C 887.43 828.26 874.83 813.45 855.92 810.87
  C 842.33 809.02 829.70 815.18 822.13 826.53
  C 820.06 829.64 818.71 833.68 817.25 837.34
  C 815.39 841.99 816.28 847.48 816.85 852.29
  C 818.06 862.44 825.00 871.85 833.75 876.91
  Q 854.13 888.69 874.61 874.76
  C 876.79 873.28 878.18 870.50 879.96 868.44
  Z"
/>
<path fill="#ff4a00" d="
  M 1367.00 691.54
  Q 1368.98 691.66 1369.33 693.75
  Q 1369.47 694.60 1369.98 693.91
  L 1370.29 693.49
  Q 1370.44 693.28 1370.70 693.32
  Q 1373.57 693.74 1375.63 695.66
  Q 1376.03 696.03 1376.57 696.02
  C 1378.30 695.98 1388.70 701.45 1390.08 702.56
  Q 1390.47 702.88 1390.97 702.93
  C 1393.54 703.20 1394.75 705.07 1396.79 705.91
  Q 1402.87 708.41 1407.32 711.42
  Q 1411.17 714.02 1414.19 715.54
  Q 1414.66 715.77 1414.97 716.19
  Q 1416.86 718.68 1419.99 719.17
  Q 1420.48 719.24 1420.87 719.55
  Q 1423.76 721.85 1427.07 723.45
  Q 1427.53 723.68 1427.83 724.08
  C 1428.37 724.81 1428.87 725.42 1429.76 725.80
  C 1432.13 726.81 1433.57 728.88 1435.35 730.08
  Q 1437.78 731.73 1440.21 733.34
  C 1442.03 734.54 1442.98 736.28 1444.58 737.77
  Q 1444.97 738.13 1445.49 738.03
  Q 1448.02 737.54 1449.25 739.71
  C 1436.74 740.73 1422.24 742.99 1411.89 749.40
  Q 1411.39 749.71 1411.98 749.71
  Q 1434.64 749.90 1455.75 757.96
  Q 1455.56 758.37 1455.87 758.82
  Q 1456.33 759.51 1455.50 759.56
  L 1453.91 759.64
  A 0.85 0.85 0.0 0 0 1453.48 761.19
  Q 1457.51 763.90 1459.44 768.38
  Q 1459.64 768.86 1460.10 769.13
  C 1464.06 771.49 1465.62 777.27 1467.76 779.49
  Q 1469.71 781.53 1471.16 783.95
  C 1472.02 785.39 1472.00 787.55 1474.05 788.82
  Q 1474.47 789.09 1474.68 789.54
  Q 1477.51 795.55 1479.94 801.74
  C 1480.48 803.10 1481.61 804.05 1482.00 805.24
  Q 1482.77 807.58 1485.01 816.00
  C 1485.46 817.71 1485.04 819.05 1486.77 820.60
  Q 1487.21 821.00 1487.21 821.59
  L 1487.21 859.47
  Q 1487.22 860.07 1486.81 860.51
  L 1485.86 861.54
  Q 1485.52 861.92 1485.46 862.43
  Q 1484.66 869.54 1481.90 876.15
  Q 1481.70 876.62 1481.25 876.86
  L 1479.50 877.79
  Q 1459.01 850.59 1430.46 832.00
  Q 1431.43 830.73 1432.78 831.54
  Q 1433.43 831.92 1433.09 831.25
  C 1432.06 829.20 1432.94 825.11 1432.79 822.60
  Q 1432.68 820.74 1431.46 818.14
  C 1429.33 813.61 1429.35 808.18 1426.24 804.08
  Q 1423.91 801.03 1422.73 797.33
  C 1422.02 795.11 1415.54 784.85 1413.73 784.28
  Q 1413.30 784.15 1413.10 783.73
  Q 1412.27 781.94 1409.96 779.29
  C 1408.95 778.14 1408.77 776.29 1407.21 774.95
  Q 1404.68 772.77 1402.59 770.15
  C 1401.59 768.89 1400.07 768.04 1399.07 766.72
  C 1397.11 764.13 1394.83 761.89 1392.11 760.38
  Q 1388.98 758.65 1386.96 755.59
  Q 1386.67 755.14 1386.17 754.93
  Q 1383.03 753.56 1380.81 751.02
  Q 1380.43 750.58 1379.86 750.51
  Q 1378.09 750.27 1377.36 748.62
  Q 1377.14 748.11 1376.64 747.86
  C 1370.79 744.86 1367.90 742.23 1363.38 739.37
  C 1358.73 736.43 1354.64 733.50 1349.50 731.69
  C 1347.67 731.05 1346.58 729.80 1344.70 729.13
  Q 1344.34 729.00 1344.14 728.68
  Q 1343.75 728.06 1343.00 728.56
  Q 1341.62 729.47 1342.75 728.06
  Q 1343.15 727.56 1343.25 727.04
  C 1359.32 721.22 1377.56 711.80 1367.00 691.54
  Z"
/>
<path fill="#ff5f00" d="
  M 1343.25 727.04
  Q 1343.15 727.56 1342.75 728.06
  Q 1341.62 729.47 1343.00 728.56
  Q 1343.75 728.06 1344.14 728.68
  Q 1344.34 729.00 1344.70 729.13
  C 1346.58 729.80 1347.67 731.05 1349.50 731.69
  C 1354.64 733.50 1358.73 736.43 1363.38 739.37
  C 1367.90 742.23 1370.79 744.86 1376.64 747.86
  Q 1377.14 748.11 1377.36 748.62
  Q 1378.09 750.27 1379.86 750.51
  Q 1380.43 750.58 1380.81 751.02
  Q 1383.03 753.56 1386.17 754.93
  Q 1386.67 755.14 1386.96 755.59
  Q 1388.98 758.65 1392.11 760.38
  C 1394.83 761.89 1397.11 764.13 1399.07 766.72
  C 1400.07 768.04 1401.59 768.89 1402.59 770.15
  Q 1404.68 772.77 1407.21 774.95
  C 1408.77 776.29 1408.95 778.14 1409.96 779.29
  Q 1412.27 781.94 1413.10 783.73
  Q 1413.30 784.15 1413.73 784.28
  C 1415.54 784.85 1422.02 795.11 1422.73 797.33
  Q 1423.91 801.03 1426.24 804.08
  C 1429.35 808.18 1429.33 813.61 1431.46 818.14
  Q 1432.68 820.74 1432.79 822.60
  C 1432.94 825.11 1432.06 829.20 1433.09 831.25
  Q 1433.43 831.92 1432.78 831.54
  Q 1431.43 830.73 1430.46 832.00
  C 1409.98 819.29 1387.02 811.71 1363.32 806.69
  Q 1355.64 805.07 1347.77 804.45
  L 1336.25 803.96
  Q 1334.56 803.40 1332.78 803.12
  C 1330.04 802.68 1328.71 801.98 1326.49 800.66
  Q 1326.06 800.40 1325.86 799.95
  C 1324.16 796.16 1320.92 794.29 1318.67 791.69
  C 1316.52 789.19 1312.48 786.52 1311.25 784.03
  Q 1311.00 783.53 1311.32 783.07
  Q 1311.74 782.47 1310.89 782.13
  Q 1310.67 782.04 1310.47 782.17
  Q 1310.37 782.24 1310.21 782.14
  Q 1309.68 781.85 1310.28 781.78
  Q 1311.38 781.64 1311.50 780.54
  Q 1313.75 780.18 1314.39 778.34
  A 2.27 2.27 0.0 0 0 1313.44 775.66
  Q 1305.86 771.00 1297.82 768.21
  Q 1286.67 763.97 1275.07 761.96
  L 1267.00 760.46
  L 1343.25 727.04
  Z"
/>
<path fill="#ff3f01" d="
  M 1455.75 757.96
  C 1466.12 761.54 1475.46 766.30 1485.66 771.65
  C 1503.29 780.91 1518.09 795.02 1531.56 804.88
  C 1567.00 830.84 1608.89 828.33 1642.82 801.33
  C 1648.58 796.75 1659.47 796.02 1658.90 806.26
  C 1656.41 851.44 1638.94 893.09 1597.95 915.95
  C 1560.33 936.93 1517.99 940.54 1476.54 934.42
  C 1469.68 933.41 1460.64 931.02 1452.50 929.96
  L 1449.69 928.27
  Q 1449.51 928.16 1449.69 928.05
  L 1450.09 927.82
  Q 1450.53 927.55 1450.05 927.37
  Q 1448.67 926.86 1448.48 925.55
  Q 1448.40 925.02 1448.80 924.67
  C 1453.16 920.89 1456.37 918.36 1459.31 913.32
  Q 1460.14 911.91 1461.67 911.09
  Q 1462.10 910.86 1462.38 910.46
  Q 1464.33 907.77 1466.15 905.01
  C 1467.96 902.25 1471.24 899.04 1472.49 894.73
  Q 1472.65 894.17 1473.13 893.84
  L 1474.00 893.25
  Q 1474.45 892.95 1474.68 892.46
  L 1478.22 884.93
  Q 1478.45 884.44 1478.23 883.95
  L 1477.11 881.45
  Q 1479.43 879.72 1479.50 877.79
  L 1481.25 876.86
  Q 1481.70 876.62 1481.90 876.15
  Q 1484.66 869.54 1485.46 862.43
  Q 1485.52 861.92 1485.86 861.54
  L 1486.81 860.51
  Q 1487.22 860.07 1487.21 859.47
  L 1487.21 821.59
  Q 1487.21 821.00 1486.77 820.60
  C 1485.04 819.05 1485.46 817.71 1485.01 816.00
  Q 1482.77 807.58 1482.00 805.24
  C 1481.61 804.05 1480.48 803.10 1479.94 801.74
  Q 1477.51 795.55 1474.68 789.54
  Q 1474.47 789.09 1474.05 788.82
  C 1472.00 787.55 1472.02 785.39 1471.16 783.95
  Q 1469.71 781.53 1467.76 779.49
  C 1465.62 777.27 1464.06 771.49 1460.10 769.13
  Q 1459.64 768.86 1459.44 768.38
  Q 1457.51 763.90 1453.48 761.19
  A 0.85 0.85 0.0 0 1 1453.91 759.64
  L 1455.50 759.56
  Q 1456.33 759.51 1455.87 758.82
  Q 1455.56 758.37 1455.75 757.96
  Z"
/>
<path fill="#fff0b8" d="
  M 1267.00 760.46
  L 1275.07 761.96
  Q 1277.50 765.09 1274.41 767.18
  Q 1269.71 770.36 1267.72 773.28
  Q 1267.45 773.68 1267.02 773.93
  Q 1263.54 775.96 1261.39 779.33
  C 1260.12 781.31 1258.38 782.04 1257.20 783.46
  C 1242.39 801.19 1233.68 818.63 1230.97 840.14
  Q 1229.79 849.51 1229.65 851.38
  C 1229.21 857.70 1230.69 863.19 1231.36 869.16
  C 1232.30 877.55 1234.13 886.07 1237.92 893.64
  Q 1242.38 902.55 1242.46 902.72
  C 1246.72 911.83 1251.89 917.79 1257.47 924.82
  C 1258.97 926.71 1264.09 930.63 1263.84 933.11
  Q 1263.73 934.29 1263.06 935.34
  Q 1254.42 936.75 1245.75 937.04
  Q 1234.49 937.07 1223.50 934.71
  Q 1223.59 931.77 1221.53 929.20
  C 1202.38 905.38 1189.91 872.87 1193.98 841.85
  Q 1198.36 808.43 1219.31 781.29
  Q 1242.85 770.34 1267.00 760.46
  Z"
/>
<path fill="#ffeea7" d="
  M 1275.07 761.96
  Q 1286.67 763.97 1297.82 768.21
  Q 1298.22 771.97 1295.59 774.33
  C 1293.59 776.12 1291.86 776.40 1289.58 779.08
  Q 1286.79 782.38 1277.87 790.78
  Q 1277.50 791.13 1277.52 791.64
  Q 1277.54 792.42 1276.91 792.27
  Q 1276.25 792.12 1276.00 792.75
  C 1274.81 795.68 1272.52 796.71 1271.05 799.20
  C 1269.10 802.51 1266.38 805.36 1264.70 808.55
  Q 1260.65 816.27 1257.23 824.29
  C 1255.86 827.49 1255.39 831.03 1254.46 834.46
  Q 1253.11 839.44 1253.06 842.21
  Q 1253.01 845.06 1253.39 847.88
  C 1254.48 855.88 1253.34 863.85 1254.75 871.69
  C 1256.06 878.94 1257.67 885.03 1261.06 891.64
  C 1261.98 893.43 1263.30 897.66 1265.28 900.20
  Q 1266.79 902.15 1267.58 903.75
  Q 1270.69 910.03 1276.32 915.20
  Q 1277.68 916.44 1277.49 918.54
  Q 1277.45 919.00 1277.91 918.99
  Q 1278.05 918.99 1278.18 919.00
  Q 1278.47 919.01 1278.72 919.17
  Q 1284.08 922.51 1286.05 928.47
  Q 1274.85 933.24 1263.06 935.34
  Q 1263.73 934.29 1263.84 933.11
  C 1264.09 930.63 1258.97 926.71 1257.47 924.82
  C 1251.89 917.79 1246.72 911.83 1242.46 902.72
  Q 1242.38 902.55 1237.92 893.64
  C 1234.13 886.07 1232.30 877.55 1231.36 869.16
  C 1230.69 863.19 1229.21 857.70 1229.65 851.38
  Q 1229.79 849.51 1230.97 840.14
  C 1233.68 818.63 1242.39 801.19 1257.20 783.46
  C 1258.38 782.04 1260.12 781.31 1261.39 779.33
  Q 1263.54 775.96 1267.02 773.93
  Q 1267.45 773.68 1267.72 773.28
  Q 1269.71 770.36 1274.41 767.18
  Q 1277.50 765.09 1275.07 761.96
  Z"
/>
<path fill="#ffe88f" d="
  M 1297.82 768.21
  Q 1305.86 771.00 1313.44 775.66
  A 2.27 2.27 0.0 0 1 1314.39 778.34
  Q 1313.75 780.18 1311.50 780.54
  C 1302.20 782.81 1273.65 794.57 1274.50 806.85
  C 1275.16 816.32 1287.53 814.95 1293.54 813.12
  C 1307.90 808.75 1319.83 804.60 1336.25 803.96
  L 1347.77 804.45
  Q 1348.82 805.83 1348.58 807.45
  C 1348.24 809.80 1344.46 811.40 1343.15 813.83
  Q 1341.74 816.46 1339.27 818.25
  Q 1338.86 818.55 1338.65 819.02
  Q 1337.11 822.49 1334.60 825.30
  C 1333.94 826.04 1328.89 834.86 1328.96 835.75
  Q 1329.19 839.00 1327.53 840.79
  Q 1327.18 841.15 1327.17 841.65
  C 1327.10 843.62 1326.30 845.31 1326.28 847.11
  C 1326.26 851.42 1325.18 859.72 1326.87 863.50
  Q 1327.07 863.94 1327.01 864.41
  Q 1326.67 867.20 1328.81 868.95
  Q 1329.21 869.28 1329.10 869.78
  C 1328.25 873.71 1330.51 874.83 1331.56 877.76
  Q 1333.92 884.33 1338.56 889.47
  Q 1340.11 891.19 1340.18 892.38
  Q 1340.28 894.14 1338.81 895.81
  C 1323.02 907.13 1304.33 919.87 1286.05 928.47
  Q 1284.08 922.51 1278.72 919.17
  Q 1278.47 919.01 1278.18 919.00
  Q 1278.05 918.99 1277.91 918.99
  Q 1277.45 919.00 1277.49 918.54
  Q 1277.68 916.44 1276.32 915.20
  Q 1270.69 910.03 1267.58 903.75
  Q 1266.79 902.15 1265.28 900.20
  C 1263.30 897.66 1261.98 893.43 1261.06 891.64
  C 1257.67 885.03 1256.06 878.94 1254.75 871.69
  C 1253.34 863.85 1254.48 855.88 1253.39 847.88
  Q 1253.01 845.06 1253.06 842.21
  Q 1253.11 839.44 1254.46 834.46
  C 1255.39 831.03 1255.86 827.49 1257.23 824.29
  Q 1260.65 816.27 1264.70 808.55
  C 1266.38 805.36 1269.10 802.51 1271.05 799.20
  C 1272.52 796.71 1274.81 795.68 1276.00 792.75
  Q 1276.25 792.12 1276.91 792.27
  Q 1277.54 792.42 1277.52 791.64
  Q 1277.50 791.13 1277.87 790.78
  Q 1286.79 782.38 1289.58 779.08
  C 1291.86 776.40 1293.59 776.12 1295.59 774.33
  Q 1298.22 771.97 1297.82 768.21
  Z"
/>
<path fill="#ff7300" d="
  M 1311.50 780.54
  Q 1311.38 781.64 1310.28 781.78
  Q 1309.68 781.85 1310.21 782.14
  Q 1310.37 782.24 1310.47 782.17
  Q 1310.67 782.04 1310.89 782.13
  Q 1311.74 782.47 1311.32 783.07
  Q 1311.00 783.53 1311.25 784.03
  C 1312.48 786.52 1316.52 789.19 1318.67 791.69
  C 1320.92 794.29 1324.16 796.16 1325.86 799.95
  Q 1326.06 800.40 1326.49 800.66
  C 1328.71 801.98 1330.04 802.68 1332.78 803.12
  Q 1334.56 803.40 1336.25 803.96
  C 1319.83 804.60 1307.90 808.75 1293.54 813.12
  C 1287.53 814.95 1275.16 816.32 1274.50 806.85
  C 1273.65 794.57 1302.20 782.81 1311.50 780.54
  Z"
/>
<path fill="#ffc56f" d="
  M 1219.31 781.29
  Q 1198.36 808.43 1193.98 841.85
  C 1189.91 872.87 1202.38 905.38 1221.53 929.20
  Q 1223.59 931.77 1223.50 934.71
  Q 1198.25 929.67 1178.25 913.45
  C 1170.62 907.25 1160.55 896.97 1158.01 887.23
  Q 1147.64 847.49 1161.57 808.50
  C 1161.89 807.61 1161.66 807.22 1161.21 806.50
  L 1219.31 781.29
  Z"
/>
<path fill="#ffe271" d="
  M 1347.77 804.45
  Q 1355.64 805.07 1363.32 806.69
  C 1387.02 811.71 1409.98 819.29 1430.46 832.00
  Q 1459.01 850.59 1479.50 877.79
  Q 1479.43 879.72 1477.11 881.45
  Q 1461.51 876.00 1445.29 872.98
  C 1412.32 866.56 1377.86 871.02 1349.41 888.96
  Q 1344.09 892.32 1338.81 895.81
  Q 1340.28 894.14 1340.18 892.38
  Q 1340.11 891.19 1338.56 889.47
  Q 1333.92 884.33 1331.56 877.76
  C 1330.51 874.83 1328.25 873.71 1329.10 869.78
  Q 1329.21 869.28 1328.81 868.95
  Q 1326.67 867.20 1327.01 864.41
  Q 1327.07 863.94 1326.87 863.50
  C 1325.18 859.72 1326.26 851.42 1326.28 847.11
  C 1326.30 845.31 1327.10 843.62 1327.17 841.65
  Q 1327.18 841.15 1327.53 840.79
  Q 1329.19 839.00 1328.96 835.75
  C 1328.89 834.86 1333.94 826.04 1334.60 825.30
  Q 1337.11 822.49 1338.65 819.02
  Q 1338.86 818.55 1339.27 818.25
  Q 1341.74 816.46 1343.15 813.83
  C 1344.46 811.40 1348.24 809.80 1348.58 807.45
  Q 1348.82 805.83 1347.77 804.45
  Z"
/>
<path fill="#ff7300" d="
  M 1161.21 806.50
  C 1161.66 807.22 1161.89 807.61 1161.57 808.50
  Q 1147.64 847.49 1158.01 887.23
  C 1160.55 896.97 1170.62 907.25 1178.25 913.45
  Q 1198.25 929.67 1223.50 934.71
  Q 1234.49 937.07 1245.75 937.04
  L 1239.96 937.21
  Q 1239.71 937.22 1239.83 937.43
  L 1240.06 937.87
  Q 1240.21 938.15 1240.53 938.19
  L 1242.75 938.49
  Q 1243.81 938.63 1242.72 938.97
  Q 1242.44 939.06 1242.31 939.25
  Q 1242.07 939.61 1242.23 939.77
  L 1242.45 939.99
  Q 1242.75 940.30 1242.38 940.52
  Q 1237.92 943.28 1232.74 943.10
  Q 1232.27 943.08 1231.86 943.33
  L 1229.48 944.81
  Q 1229.05 945.08 1228.54 945.01
  Q 1223.91 944.37 1220.01 946.74
  Q 1219.54 947.03 1218.99 947.00
  Q 1216.44 946.87 1214.01 947.66
  C 1212.45 948.16 1210.91 947.67 1209.74 948.01
  Q 1207.18 948.73 1205.22 948.97
  C 1201.39 949.43 1198.25 950.39 1194.48 949.91
  Q 1193.97 949.84 1193.51 950.07
  Q 1189.94 951.87 1186.78 952.01
  Q 1184.25 952.11 1183.78 953.99
  Q 1183.69 954.36 1183.33 954.47
  Q 1183.19 954.51 1183.04 954.50
  C 1158.75 924.48 1144.59 885.80 1147.12 847.03
  Q 1148.34 828.30 1152.80 809.98
  L 1161.21 806.50
  Z"
/>
<path fill="#ff5f00" d="
  M 1445.29 872.98
  Q 1444.17 874.95 1442.36 876.23
  Q 1441.94 876.53 1441.89 877.03
  Q 1441.60 879.91 1439.39 881.70
  Q 1439.00 882.01 1439.00 882.51
  L 1439.00 883.68
  Q 1439.00 884.19 1438.74 884.62
  L 1434.29 891.91
  Q 1434.00 892.39 1433.51 892.67
  Q 1432.00 893.50 1431.98 895.29
  Q 1431.97 895.81 1431.61 896.19
  Q 1428.86 899.13 1427.03 902.73
  Q 1426.79 903.20 1426.32 903.42
  C 1423.06 904.99 1422.76 908.44 1419.91 910.70
  C 1417.46 912.65 1416.31 914.14 1414.50 916.25
  C 1413.23 917.73 1411.55 918.41 1410.19 920.00
  C 1407.30 923.41 1402.81 927.36 1399.04 929.75
  C 1396.34 931.45 1394.79 933.75 1392.20 935.28
  C 1388.71 937.33 1386.80 939.65 1383.98 941.38
  C 1379.88 943.90 1375.73 947.10 1372.01 948.78
  Q 1369.24 950.03 1367.21 951.40
  C 1363.37 954.00 1360.55 955.28 1356.79 956.91
  C 1355.47 957.48 1354.61 958.44 1353.05 958.94
  Q 1351.02 959.59 1350.18 960.09
  Q 1344.52 963.48 1338.15 965.36
  Q 1337.68 965.50 1337.32 965.84
  C 1334.58 968.51 1331.11 968.71 1328.13 969.94
  C 1324.89 971.27 1320.92 971.81 1317.79 973.85
  Q 1315.62 975.27 1313.74 975.73
  C 1308.83 976.93 1303.87 978.09 1299.35 980.42
  C 1296.66 981.80 1293.84 981.82 1291.19 982.77
  C 1286.34 984.50 1280.52 985.09 1276.09 986.26
  Q 1275.79 986.34 1275.57 986.56
  L 1275.25 986.88
  Q 1274.92 987.21 1274.46 987.32
  Q 1263.16 990.16 1251.66 992.00
  C 1249.56 992.34 1246.97 993.24 1244.19 992.96
  Q 1243.66 992.90 1243.24 993.21
  C 1240.72 995.06 1239.22 994.18 1236.87 995.37
  Q 1236.38 995.62 1236.53 996.14
  L 1236.82 997.16
  Q 1236.97 997.68 1236.42 997.70
  Q 1235.54 997.74 1235.50 998.71
  Q 1204.91 981.78 1183.04 954.50
  Q 1183.19 954.51 1183.33 954.47
  Q 1183.69 954.36 1183.78 953.99
  Q 1184.25 952.11 1186.78 952.01
  Q 1189.94 951.87 1193.51 950.07
  Q 1193.97 949.84 1194.48 949.91
  C 1198.25 950.39 1201.39 949.43 1205.22 948.97
  Q 1207.18 948.73 1209.74 948.01
  C 1210.91 947.67 1212.45 948.16 1214.01 947.66
  Q 1216.44 946.87 1218.99 947.00
  Q 1219.54 947.03 1220.01 946.74
  Q 1223.91 944.37 1228.54 945.01
  Q 1229.05 945.08 1229.48 944.81
  L 1231.86 943.33
  Q 1232.27 943.08 1232.74 943.10
  Q 1237.92 943.28 1242.38 940.52
  Q 1242.75 940.30 1242.45 939.99
  L 1242.23 939.77
  Q 1242.07 939.61 1242.31 939.25
  Q 1242.44 939.06 1242.72 938.97
  Q 1243.81 938.63 1242.75 938.49
  L 1240.53 938.19
  Q 1240.21 938.15 1240.06 937.87
  L 1239.83 937.43
  Q 1239.71 937.22 1239.96 937.21
  L 1245.75 937.04
  Q 1254.42 936.75 1263.06 935.34
  Q 1274.85 933.24 1286.05 928.47
  C 1304.33 919.87 1323.02 907.13 1338.81 895.81
  Q 1344.09 892.32 1349.41 888.96
  C 1377.86 871.02 1412.32 866.56 1445.29 872.98
  Z"
/>
<path fill="#ff4a00" d="
  M 1445.29 872.98
  Q 1461.51 876.00 1477.11 881.45
  L 1478.23 883.95
  Q 1478.45 884.44 1478.22 884.93
  L 1474.68 892.46
  Q 1474.45 892.95 1474.00 893.25
  L 1473.13 893.84
  Q 1472.65 894.17 1472.49 894.73
  C 1471.24 899.04 1467.96 902.25 1466.15 905.01
  Q 1464.33 907.77 1462.38 910.46
  Q 1462.10 910.86 1461.67 911.09
  Q 1460.14 911.91 1459.31 913.32
  C 1456.37 918.36 1453.16 920.89 1448.80 924.67
  Q 1448.40 925.02 1448.48 925.55
  Q 1448.67 926.86 1450.05 927.37
  Q 1450.53 927.55 1450.09 927.82
  L 1449.69 928.05
  Q 1449.51 928.16 1449.69 928.27
  L 1452.50 929.96
  C 1436.29 927.33 1401.67 923.20 1398.90 948.23
  C 1397.00 965.44 1411.87 972.62 1424.65 978.06
  C 1432.83 981.54 1431.43 986.89 1425.19 991.37
  Q 1389.01 1017.39 1345.06 1020.32
  Q 1327.42 1021.50 1305.08 1020.08
  Q 1304.92 1020.07 1304.81 1019.97
  Q 1304.71 1019.86 1304.61 1019.75
  Q 1304.52 1019.64 1304.38 1019.63
  Q 1267.63 1016.57 1235.50 998.71
  Q 1235.54 997.74 1236.42 997.70
  Q 1236.97 997.68 1236.82 997.16
  L 1236.53 996.14
  Q 1236.38 995.62 1236.87 995.37
  C 1239.22 994.18 1240.72 995.06 1243.24 993.21
  Q 1243.66 992.90 1244.19 992.96
  C 1246.97 993.24 1249.56 992.34 1251.66 992.00
  Q 1263.16 990.16 1274.46 987.32
  Q 1274.92 987.21 1275.25 986.88
  L 1275.57 986.56
  Q 1275.79 986.34 1276.09 986.26
  C 1280.52 985.09 1286.34 984.50 1291.19 982.77
  C 1293.84 981.82 1296.66 981.80 1299.35 980.42
  C 1303.87 978.09 1308.83 976.93 1313.74 975.73
  Q 1315.62 975.27 1317.79 973.85
  C 1320.92 971.81 1324.89 971.27 1328.13 969.94
  C 1331.11 968.71 1334.58 968.51 1337.32 965.84
  Q 1337.68 965.50 1338.15 965.36
  Q 1344.52 963.48 1350.18 960.09
  Q 1351.02 959.59 1353.05 958.94
  C 1354.61 958.44 1355.47 957.48 1356.79 956.91
  C 1360.55 955.28 1363.37 954.00 1367.21 951.40
  Q 1369.24 950.03 1372.01 948.78
  C 1375.73 947.10 1379.88 943.90 1383.98 941.38
  C 1386.80 939.65 1388.71 937.33 1392.20 935.28
  C 1394.79 933.75 1396.34 931.45 1399.04 929.75
  C 1402.81 927.36 1407.30 923.41 1410.19 920.00
  C 1411.55 918.41 1413.23 917.73 1414.50 916.25
  C 1416.31 914.14 1417.46 912.65 1419.91 910.70
  C 1422.76 908.44 1423.06 904.99 1426.32 903.42
  Q 1426.79 903.20 1427.03 902.73
  Q 1428.86 899.13 1431.61 896.19
  Q 1431.97 895.81 1431.98 895.29
  Q 1432.00 893.50 1433.51 892.67
  Q 1434.00 892.39 1434.29 891.91
  L 1438.74 884.62
  Q 1439.00 884.19 1439.00 883.68
  L 1439.00 882.51
  Q 1439.00 882.01 1439.39 881.70
  Q 1441.60 879.91 1441.89 877.03
  Q 1441.94 876.53 1442.36 876.23
  Q 1444.17 874.95 1445.29 872.98
  Z"
/>
</svg>
