<?xml version="1.0" encoding="UTF-8" standalone="no"?>
<!DOCTYPE svg PUBLIC "-//W3C//DTD SVG 1.1//EN" "http://www.w3.org/Graphics/SVG/1.1/DTD/svg11.dtd">
<svg xmlns="http://www.w3.org/2000/svg" version="1.1" viewBox="0.00 0.00 1693.00 1046.00">
<g stroke-width="2.00" fill="none" stroke-linecap="butt">
<path stroke="#ffb980" vector-effect="non-scaling-stroke" d="
  M 1100.49 180.34
  C 1098.48 184.84 1096.01 188.84 1095.15 193.76
  Q 1094.19 199.29 1092.87 204.76
  C 1092.43 206.57 1091.26 207.65 1090.28 209.15
  C 1088.54 211.80 1087.94 215.57 1086.70 218.61
  C 1084.85 223.15 1083.85 227.70 1082.17 232.19
  C 1079.00 240.65 1076.93 249.60 1074.59 258.32
  C 1074.21 259.75 1073.07 261.05 1072.66 262.63
  C 1071.03 268.88 1069.55 278.66 1066.07 283.95
  Q 1063.60 287.70 1062.87 292.20
  Q 1062.79 292.67 1062.53 293.06
  C 1060.28 296.48 1059.83 302.93 1058.77 307.08
  C 1058.08 309.78 1055.82 311.01 1055.07 314.18
  C 1053.69 319.98 1051.19 325.64 1049.61 331.03
  C 1048.16 335.94 1046.13 340.80 1044.89 345.51
  Q 1041.63 357.88 1038.14 370.17
  C 1037.05 374.00 1034.77 378.47 1033.80 383.02
  C 1033.30 385.35 1031.07 386.75 1030.37 389.33
  C 1028.83 394.95 1027.43 399.59 1025.85 406.13
  C 1024.70 410.93 1021.94 414.42 1020.59 418.72
  C 1016.68 431.22 1012.25 443.70 1008.80 456.13
  C 1005.31 468.70 1001.86 480.58 996.88 492.58
  C 994.62 498.01 994.18 504.22 992.47 509.00
  C 991.85 510.75 989.85 512.04 989.24 514.49
  Q 987.83 520.19 985.68 525.64
  C 983.90 530.14 982.89 535.04 981.03 539.63
  C 978.36 546.19 977.86 552.31 974.25 558.71"
/>
<path stroke="#a5a5a5" vector-effect="non-scaling-stroke" d="
  M 899.60 557.70
  L 898.12 549.56
  Q 898.04 549.12 898.17 548.68
  Q 898.25 548.39 898.20 548.08
  Q 896.89 540.01 895.80 531.99"
/>
<path stroke="#ffe280" vector-effect="non-scaling-stroke" d="
  M 895.80 531.99
  Q 899.59 534.66 904.43 533.59
  Q 905.05 533.46 905.54 533.86
  L 906.50 534.66
  Q 906.91 535.00 907.43 535.00
  L 913.59 535.00
  Q 914.12 535.00 914.50 535.38
  L 915.08 535.96
  Q 915.42 536.29 915.89 536.26
  C 919.03 536.05 921.78 537.06 924.24 537.53
  Q 939.14 540.40 953.85 544.12
  Q 954.23 544.22 954.36 543.84
  L 1109.53 72.48
  A 0.48 0.47 17.3 0 0 1109.21 71.88
  Q 1021.91 47.31 931.48 39.20
  Q 911.04 37.37 890.58 35.79
  Q 889.77 35.73 888.99 35.71
  Q 842.22 34.50 795.44 35.40
  C 791.47 35.48 786.40 36.40 782.09 36.64
  Q 714.50 40.40 648.12 53.72
  C 646.75 53.99 644.33 54.03 642.62 54.81
  C 640.60 55.72 639.44 55.66 637.43 55.33
  Q 636.90 55.24 636.66 55.73
  C 635.84 57.38 632.03 56.53 630.14 57.25
  Q 628.66 57.81 626.03 58.35
  Q 609.03 61.84 580.99 69.48
  Q 580.45 69.63 580.37 70.19
  Q 580.18 71.57 580.66 73.03
  Q 656.37 305.77 732.02 538.54
  C 732.24 539.24 732.38 541.33 732.92 542.15
  Q 733.24 542.64 733.80 542.50
  Q 756.32 537.09 779.26 533.84
  C 780.74 533.63 782.91 534.36 784.22 532.87
  Q 784.55 532.50 785.03 532.50
  L 792.95 532.50
  Q 793.36 532.50 793.61 532.18
  L 793.97 531.72
  Q 794.35 531.25 794.95 531.23
  L 800.39 531.04"
/>
<path stroke="#a5a5a5" vector-effect="non-scaling-stroke" d="
  M 800.39 531.04
  C 800.51 534.39 798.98 537.28 799.54 540.43
  Q 799.63 540.93 799.42 541.40
  C 798.26 544.00 798.82 546.64 798.46 548.84
  Q 797.93 552.20 797.33 555.49"
/>
<path stroke="#e0ee80" vector-effect="non-scaling-stroke" d="
  M 713.51 556.82
  Q 709.70 547.61 705.94 538.64
  C 705.09 536.60 704.72 534.10 703.70 531.90
  C 700.89 525.86 700.93 519.99 698.72 513.90
  C 695.33 504.57 693.43 495.13 688.70 485.90
  Q 687.17 482.91 686.41 479.86
  Q 683.34 467.68 680.09 455.51
  Q 679.59 453.67 678.11 451.42
  Q 675.39 447.28 675.03 442.21
  Q 674.99 441.72 674.73 441.30
  C 673.63 439.59 672.56 438.41 672.03 436.38
  Q 668.47 422.49 664.84 408.60
  Q 664.18 406.10 662.44 402.77
  Q 659.64 397.41 658.75 391.39
  Q 658.68 390.90 658.36 390.52
  C 657.35 389.33 656.64 388.47 656.21 386.88
  Q 652.85 374.36 649.63 361.79
  Q 649.29 360.49 648.00 357.89
  C 646.61 355.10 646.98 353.01 644.54 350.19
  Q 644.21 349.81 644.14 349.32
  Q 642.86 340.30 638.87 332.25
  C 635.39 325.22 635.36 317.58 632.44 310.25
  Q 631.20 307.12 630.77 303.71
  Q 630.71 303.20 630.36 302.81
  C 626.50 298.57 626.09 293.17 624.92 287.78
  C 624.52 285.93 622.77 285.07 622.24 283.05
  Q 619.12 270.99 615.91 258.96
  C 614.40 253.30 611.27 246.67 609.89 240.06
  C 609.22 236.90 606.63 234.78 605.73 231.45
  C 603.10 221.68 600.98 211.53 597.43 202.06
  C 595.69 197.41 594.93 192.74 592.53 188.26
  Q 589.97 183.47 588.50 178.21"
/>
<path stroke="#a58826" vector-effect="non-scaling-stroke" d="
  M 895.80 531.99
  L 892.27 506.93
  Q 892.21 506.53 892.43 506.19
  C 892.51 506.07 890.30 492.15 889.80 490.26
  Q 889.67 489.78 889.88 489.33
  C 890.41 488.20 888.58 478.60 888.28 476.68
  Q 888.21 476.26 887.95 475.92
  Q 887.59 475.45 887.88 474.96
  Q 888.13 474.56 888.06 474.10
  Q 882.79 437.60 878.04 401.03
  C 877.90 399.97 877.23 399.46 877.30 398.25
  Q 877.42 396.53 877.38 396.23
  Q 874.81 377.94 872.34 359.63
  C 872.16 358.24 871.19 356.82 871.69 355.14
  Q 871.82 354.68 871.71 354.22
  Q 870.82 350.39 870.61 346.47
  C 870.48 344.18 869.57 342.09 869.37 339.73
  Q 869.11 336.63 868.79 334.70
  C 868.24 331.38 868.59 327.69 867.29 324.36
  C 866.04 321.17 865.02 316.54 862.82 314.00
  Q 857.13 307.44 847.96 307.35
  C 823.46 307.12 823.21 335.01 821.34 352.08
  C 821.15 353.87 820.16 356.51 820.67 358.95
  Q 820.78 359.48 820.55 359.96
  Q 819.38 362.33 820.21 364.74
  Q 820.41 365.30 820.07 365.78
  Q 818.50 368.06 819.48 370.50
  Q 819.68 370.98 819.43 371.45
  Q 817.97 374.23 818.40 377.30
  Q 818.47 377.79 818.34 378.26
  Q 817.89 379.87 817.54 383.56
  Q 815.95 400.63 811.25 437.53
  C 811.04 439.24 811.52 441.24 810.36 443.36
  Q 810.11 443.81 810.24 444.30
  Q 810.93 446.93 809.76 449.34
  Q 809.51 449.85 809.64 450.39
  C 810.34 453.22 808.88 455.23 808.83 457.79
  C 808.69 464.60 807.27 471.86 806.68 477.94
  C 806.50 479.70 805.47 481.96 806.16 484.32
  Q 806.33 484.88 806.01 485.37
  Q 804.56 487.61 805.36 490.09
  Q 805.53 490.58 805.30 491.05
  Q 804.21 493.29 804.66 495.70
  Q 804.75 496.18 804.69 496.67
  L 800.39 531.04"
/>
</g>
<path fill="#ffffff" d="
  M 1100.49 180.34
  C 1098.48 184.84 1096.01 188.84 1095.15 193.76
  Q 1094.19 199.29 1092.87 204.76
  C 1092.43 206.57 1091.26 207.65 1090.28 209.15
  C 1088.54 211.80 1087.94 215.57 1086.70 218.61
  C 1084.85 223.15 1083.85 227.70 1082.17 232.19
  C 1079.00 240.65 1076.93 249.60 1074.59 258.32
  C 1074.21 259.75 1073.07 261.05 1072.66 262.63
  C 1071.03 268.88 1069.55 278.66 1066.07 283.95
  Q 1063.60 287.70 1062.87 292.20
  Q 1062.79 292.67 1062.53 293.06
  C 1060.28 296.48 1059.83 302.93 1058.77 307.08
  C 1058.08 309.78 1055.82 311.01 1055.07 314.18
  C 1053.69 319.98 1051.19 325.64 1049.61 331.03
  C 1048.16 335.94 1046.13 340.80 1044.89 345.51
  Q 1041.63 357.88 1038.14 370.17
  C 1037.05 374.00 1034.77 378.47 1033.80 383.02
  C 1033.30 385.35 1031.07 386.75 1030.37 389.33
  C 1028.83 394.95 1027.43 399.59 1025.85 406.13
  C 1024.70 410.93 1021.94 414.42 1020.59 418.72
  C 1016.68 431.22 1012.25 443.70 1008.80 456.13
  C 1005.31 468.70 1001.86 480.58 996.88 492.58
  C 994.62 498.01 994.18 504.22 992.47 509.00
  C 991.85 510.75 989.85 512.04 989.24 514.49
  Q 987.83 520.19 985.68 525.64
  C 983.90 530.14 982.89 535.04 981.03 539.63
  C 978.36 546.19 977.86 552.31 974.25 558.71
  Q 971.35 561.86 967.84 564.25
  C 964.53 566.51 956.42 568.98 952.32 568.03
  Q 933.31 563.65 914.18 559.89
  C 909.85 559.04 904.51 558.71 899.60 557.70
  L 898.12 549.56
  Q 898.04 549.12 898.17 548.68
  Q 898.25 548.39 898.20 548.08
  Q 896.89 540.01 895.80 531.99
  Q 899.59 534.66 904.43 533.59
  Q 905.05 533.46 905.54 533.86
  L 906.50 534.66
  Q 906.91 535.00 907.43 535.00
  L 913.59 535.00
  Q 914.12 535.00 914.50 535.38
  L 915.08 535.96
  Q 915.42 536.29 915.89 536.26
  C 919.03 536.05 921.78 537.06 924.24 537.53
  Q 939.14 540.40 953.85 544.12
  Q 954.23 544.22 954.36 543.84
  L 1109.53 72.48
  A 0.48 0.47 17.3 0 0 1109.21 71.88
  Q 1021.91 47.31 931.48 39.20
  Q 911.04 37.37 890.58 35.79
  Q 889.77 35.73 888.99 35.71
  Q 842.22 34.50 795.44 35.40
  C 791.47 35.48 786.40 36.40 782.09 36.64
  Q 714.50 40.40 648.12 53.72
  C 646.75 53.99 644.33 54.03 642.62 54.81
  C 640.60 55.72 639.44 55.66 637.43 55.33
  Q 636.90 55.24 636.66 55.73
  C 635.84 57.38 632.03 56.53 630.14 57.25
  Q 628.66 57.81 626.03 58.35
  Q 609.03 61.84 580.99 69.48
  Q 580.45 69.63 580.37 70.19
  Q 580.18 71.57 580.66 73.03
  Q 656.37 305.77 732.02 538.54
  C 732.24 539.24 732.38 541.33 732.92 542.15
  Q 733.24 542.64 733.80 542.50
  Q 756.32 537.09 779.26 533.84
  C 780.74 533.63 782.91 534.36 784.22 532.87
  Q 784.55 532.50 785.03 532.50
  L 792.95 532.50
  Q 793.36 532.50 793.61 532.18
  L 793.97 531.72
  Q 794.35 531.25 794.95 531.23
  L 800.39 531.04
  C 800.51 534.39 798.98 537.28 799.54 540.43
  Q 799.63 540.93 799.42 541.40
  C 798.26 544.00 798.82 546.64 798.46 548.84
  Q 797.93 552.20 797.33 555.49
  C 793.32 556.64 789.03 556.37 785.58 557.02
  C 781.87 557.72 777.69 558.83 773.95 559.01
  Q 772.64 559.07 771.36 559.31
  Q 748.83 563.48 736.25 566.27
  C 733.08 566.97 728.64 565.36 725.50 564.57
  C 720.35 563.28 717.02 560.45 713.51 556.82
  Q 709.70 547.61 705.94 538.64
  C 705.09 536.60 704.72 534.10 703.70 531.90
  C 700.89 525.86 700.93 519.99 698.72 513.90
  C 695.33 504.57 693.43 495.13 688.70 485.90
  Q 687.17 482.91 686.41 479.86
  Q 683.34 467.68 680.09 455.51
  Q 679.59 453.67 678.11 451.42
  Q 675.39 447.28 675.03 442.21
  Q 674.99 441.72 674.73 441.30
  C 673.63 439.59 672.56 438.41 672.03 436.38
  Q 668.47 422.49 664.84 408.60
  Q 664.18 406.10 662.44 402.77
  Q 659.64 397.41 658.75 391.39
  Q 658.68 390.90 658.36 390.52
  C 657.35 389.33 656.64 388.47 656.21 386.88
  Q 652.85 374.36 649.63 361.79
  Q 649.29 360.49 648.00 357.89
  C 646.61 355.10 646.98 353.01 644.54 350.19
  Q 644.21 349.81 644.14 349.32
  Q 642.86 340.30 638.87 332.25
  C 635.39 325.22 635.36 317.58 632.44 310.25
  Q 631.20 307.12 630.77 303.71
  Q 630.71 303.20 630.36 302.81
  C 626.50 298.57 626.09 293.17 624.92 287.78
  C 624.52 285.93 622.77 285.07 622.24 283.05
  Q 619.12 270.99 615.91 258.96
  C 614.40 253.30 611.27 246.67 609.89 240.06
  C 609.22 236.90 606.63 234.78 605.73 231.45
  C 603.10 221.68 600.98 211.53 597.43 202.06
  C 595.69 197.41 594.93 192.74 592.53 188.26
  Q 589.97 183.47 588.50 178.21
  Q 588.57 175.55 586.87 173.61
  Q 586.54 173.23 586.43 172.75
  Q 585.48 168.79 584.54 164.83
  C 583.98 162.48 584.73 159.68 582.50 157.14
  Q 582.19 156.78 582.14 156.30
  Q 581.56 150.75 577.88 146.68
  Q 577.52 146.28 577.41 145.75
  Q 575.95 138.87 573.76 132.25
  C 573.42 131.22 572.39 130.29 572.20 129.51
  Q 568.90 116.06 565.22 102.71
  Q 564.70 100.84 563.15 98.48
  Q 561.10 95.35 560.30 91.67
  C 559.05 85.95 557.40 81.36 556.39 76.07
  C 555.56 71.75 557.17 67.34 558.14 63.13
  C 562.04 46.26 579.82 45.03 593.28 41.62
  C 624.55 33.69 655.76 27.65 687.58 22.43
  C 692.25 21.66 700.79 20.73 707.32 19.24
  C 710.52 18.51 713.46 19.15 716.54 18.35
  C 719.88 17.47 723.09 17.89 726.42 17.16
  C 730.87 16.17 734.98 17.00 739.34 15.96
  C 743.54 14.95 747.41 15.61 751.55 14.66
  Q 757.37 13.33 763.34 13.81
  C 766.30 14.05 768.25 12.80 770.92 12.78
  C 776.14 12.73 782.34 13.39 787.39 12.13
  Q 790.74 11.30 792.25 11.28
  Q 838.66 10.68 885.06 11.22
  Q 888.34 11.26 893.87 12.13
  C 899.93 13.08 905.97 12.55 911.92 13.26
  C 917.66 13.94 923.61 13.18 929.18 14.62
  C 933.05 15.61 936.71 14.91 940.51 15.70
  C 945.29 16.70 949.79 16.02 954.43 17.19
  C 957.47 17.96 960.31 17.41 963.17 18.02
  C 964.74 18.34 965.97 18.79 967.63 18.74
  C 971.97 18.60 975.68 19.79 980.09 20.37
  Q 982.23 20.65 985.07 21.43
  C 986.16 21.73 988.16 21.41 989.62 21.68
  Q 996.78 23.02 1003.97 24.19
  Q 1047.30 31.20 1084.42 40.63
  Q 1100.49 44.72 1106.66 46.07
  C 1108.11 46.39 1108.99 47.37 1110.31 47.63
  C 1119.48 49.42 1125.93 52.62 1130.54 60.94
  C 1131.69 63.00 1133.97 72.20 1132.91 76.18
  Q 1129.35 89.42 1125.65 102.60
  Q 1124.73 105.88 1122.52 110.67
  Q 1119.31 117.61 1117.85 125.19
  Q 1117.75 125.68 1117.46 126.07
  C 1114.99 129.35 1113.65 136.55 1112.61 140.60
  C 1112.36 141.60 1111.56 142.17 1111.33 143.08
  Q 1106.59 162.09 1100.49 180.34
  Z"
/>
<path fill="#ffc400" d="
  M 895.80 531.99
  L 892.27 506.93
  Q 892.21 506.53 892.43 506.19
  C 892.51 506.07 890.30 492.15 889.80 490.26
  Q 889.67 489.78 889.88 489.33
  C 890.41 488.20 888.58 478.60 888.28 476.68
  Q 888.21 476.26 887.95 475.92
  Q 887.59 475.45 887.88 474.96
  Q 888.13 474.56 888.06 474.10
  Q 882.79 437.60 878.04 401.03
  C 877.90 399.97 877.23 399.46 877.30 398.25
  Q 877.42 396.53 877.38 396.23
  Q 874.81 377.94 872.34 359.63
  C 872.16 358.24 871.19 356.82 871.69 355.14
  Q 871.82 354.68 871.71 354.22
  Q 870.82 350.39 870.61 346.47
  C 870.48 344.18 869.57 342.09 869.37 339.73
  Q 869.11 336.63 868.79 334.70
  C 868.24 331.38 868.59 327.69 867.29 324.36
  C 866.04 321.17 865.02 316.54 862.82 314.00
  Q 857.13 307.44 847.96 307.35
  C 823.46 307.12 823.21 335.01 821.34 352.08
  C 821.15 353.87 820.16 356.51 820.67 358.95
  Q 820.78 359.48 820.55 359.96
  Q 819.38 362.33 820.21 364.74
  Q 820.41 365.30 820.07 365.78
  Q 818.50 368.06 819.48 370.50
  Q 819.68 370.98 819.43 371.45
  Q 817.97 374.23 818.40 377.30
  Q 818.47 377.79 818.34 378.26
  Q 817.89 379.87 817.54 383.56
  Q 815.95 400.63 811.25 437.53
  C 811.04 439.24 811.52 441.24 810.36 443.36
  Q 810.11 443.81 810.24 444.30
  Q 810.93 446.93 809.76 449.34
  Q 809.51 449.85 809.64 450.39
  C 810.34 453.22 808.88 455.23 808.83 457.79
  C 808.69 464.60 807.27 471.86 806.68 477.94
  C 806.50 479.70 805.47 481.96 806.16 484.32
  Q 806.33 484.88 806.01 485.37
  Q 804.56 487.61 805.36 490.09
  Q 805.53 490.58 805.30 491.05
  Q 804.21 493.29 804.66 495.70
  Q 804.75 496.18 804.69 496.67
  L 800.39 531.04
  L 794.95 531.23
  Q 794.35 531.25 793.97 531.72
  L 793.61 532.18
  Q 793.36 532.50 792.95 532.50
  L 785.03 532.50
  Q 784.55 532.50 784.22 532.87
  C 782.91 534.36 780.74 533.63 779.26 533.84
  Q 756.32 537.09 733.80 542.50
  Q 733.24 542.64 732.92 542.15
  C 732.38 541.33 732.24 539.24 732.02 538.54
  Q 656.37 305.77 580.66 73.03
  Q 580.18 71.57 580.37 70.19
  Q 580.45 69.63 580.99 69.48
  Q 609.03 61.84 626.03 58.35
  Q 628.66 57.81 630.14 57.25
  C 632.03 56.53 635.84 57.38 636.66 55.73
  Q 636.90 55.24 637.43 55.33
  C 639.44 55.66 640.60 55.72 642.62 54.81
  C 644.33 54.03 646.75 53.99 648.12 53.72
  Q 714.50 40.40 782.09 36.64
  C 786.40 36.40 791.47 35.48 795.44 35.40
  Q 842.22 34.50 888.99 35.71
  Q 889.77 35.73 890.58 35.79
  Q 911.04 37.37 931.48 39.20
  Q 1021.91 47.31 1109.21 71.88
  A 0.48 0.47 17.3 0 1 1109.53 72.48
  L 954.36 543.84
  Q 954.23 544.22 953.85 544.12
  Q 939.14 540.40 924.24 537.53
  C 921.78 537.06 919.03 536.05 915.89 536.26
  Q 915.42 536.29 915.08 535.96
  L 914.50 535.38
  Q 914.12 535.00 913.59 535.00
  L 907.43 535.00
  Q 906.91 535.00 906.50 534.66
  L 905.54 533.86
  Q 905.05 533.46 904.43 533.59
  Q 899.59 534.66 895.80 531.99
  Z"
/>
<path fill="#c1dd00" d="
  M 588.50 178.21
  Q 589.97 183.47 592.53 188.26
  C 594.93 192.74 595.69 197.41 597.43 202.06
  C 600.98 211.53 603.10 221.68 605.73 231.45
  C 606.63 234.78 609.22 236.90 609.89 240.06
  C 611.27 246.67 614.40 253.30 615.91 258.96
  Q 619.12 270.99 622.24 283.05
  C 622.77 285.07 624.52 285.93 624.92 287.78
  C 626.09 293.17 626.50 298.57 630.36 302.81
  Q 630.71 303.20 630.77 303.71
  Q 631.20 307.12 632.44 310.25
  C 635.36 317.58 635.39 325.22 638.87 332.25
  Q 642.86 340.30 644.14 349.32
  Q 644.21 349.81 644.54 350.19
  C 646.98 353.01 646.61 355.10 648.00 357.89
  Q 649.29 360.49 649.63 361.79
  Q 652.85 374.36 656.21 386.88
  C 656.64 388.47 657.35 389.33 658.36 390.52
  Q 658.68 390.90 658.75 391.39
  Q 659.64 397.41 662.44 402.77
  Q 664.18 406.10 664.84 408.60
  Q 668.47 422.49 672.03 436.38
  C 672.56 438.41 673.63 439.59 674.73 441.30
  Q 674.99 441.72 675.03 442.21
  Q 675.39 447.28 678.11 451.42
  Q 679.59 453.67 680.09 455.51
  Q 683.34 467.68 686.41 479.86
  Q 687.17 482.91 688.70 485.90
  C 693.43 495.13 695.33 504.57 698.72 513.90
  C 700.93 519.99 700.89 525.86 703.70 531.90
  C 704.72 534.10 705.09 536.60 705.94 538.64
  Q 709.70 547.61 713.51 556.82
  C 664.67 576.70 622.63 607.71 590.67 648.93
  A 0.55 0.55 0.0 0 1 589.90 649.04
  Q 428.48 530.51 267.11 412.17
  Q 266.30 411.58 266.22 411.28
  Q 265.84 409.89 266.15 409.47
  C 347.84 300.77 459.70 222.38 588.50 178.21
  Z"
/>
<path fill="#ff7300" d="
  M 1100.49 180.34
  C 1214.42 220.53 1315.44 287.82 1393.54 380.13
  C 1402.24 390.41 1411.05 401.97 1419.44 413.01
  Q 1420.09 413.87 1419.22 414.50
  L 1094.27 649.74
  Q 1093.47 650.32 1092.87 649.54
  C 1061.77 609.33 1021.56 579.14 974.25 558.71
  C 977.86 552.31 978.36 546.19 981.03 539.63
  C 982.89 535.04 983.90 530.14 985.68 525.64
  Q 987.83 520.19 989.24 514.49
  C 989.85 512.04 991.85 510.75 992.47 509.00
  C 994.18 504.22 994.62 498.01 996.88 492.58
  C 1001.86 480.58 1005.31 468.70 1008.80 456.13
  C 1012.25 443.70 1016.68 431.22 1020.59 418.72
  C 1021.94 414.42 1024.70 410.93 1025.85 406.13
  C 1027.43 399.59 1028.83 394.95 1030.37 389.33
  C 1031.07 386.75 1033.30 385.35 1033.80 383.02
  C 1034.77 378.47 1037.05 374.00 1038.14 370.17
  Q 1041.63 357.88 1044.89 345.51
  C 1046.13 340.80 1048.16 335.94 1049.61 331.03
  C 1051.19 325.64 1053.69 319.98 1055.07 314.18
  C 1055.82 311.01 1058.08 309.78 1058.77 307.08
  C 1059.83 302.93 1060.28 296.48 1062.53 293.06
  Q 1062.79 292.67 1062.87 292.20
  Q 1063.60 287.70 1066.07 283.95
  C 1069.55 278.66 1071.03 268.88 1072.66 262.63
  C 1073.07 261.05 1074.21 259.75 1074.59 258.32
  C 1076.93 249.60 1079.00 240.65 1082.17 232.19
  C 1083.85 227.70 1084.85 223.15 1086.70 218.61
  C 1087.94 215.57 1088.54 211.80 1090.28 209.15
  C 1091.26 207.65 1092.43 206.57 1092.87 204.76
  Q 1094.19 199.29 1095.15 193.76
  C 1096.01 188.84 1098.48 184.84 1100.49 180.34
  Z"
/>
<path fill="#4b4b4b" d="
  M 895.80 531.99
  Q 896.89 540.01 898.20 548.08
  Q 898.25 548.39 898.17 548.68
  Q 898.04 549.12 898.12 549.56
  L 899.60 557.70
  Q 900.01 561.92 900.57 565.99
  Q 918.47 696.70 936.22 827.43
  C 938.46 843.89 938.23 861.04 933.24 876.53
  C 921.53 912.89 888.61 930.32 852.13 932.60
  C 847.86 932.87 843.05 932.04 838.49 931.67
  C 832.45 931.19 825.83 928.96 820.01 927.24
  C 801.68 921.82 783.85 907.76 775.34 890.51
  Q 763.10 865.71 764.72 836.98
  Q 764.94 833.21 765.56 830.32
  C 766.00 828.25 765.40 825.93 766.50 823.70
  Q 766.73 823.24 766.64 822.73
  Q 766.10 819.78 767.30 817.09
  Q 767.52 816.60 767.37 816.08
  Q 766.64 813.59 767.96 811.22
  Q 768.23 810.74 768.03 810.23
  Q 767.09 807.79 768.58 805.48
  Q 768.81 805.12 768.71 804.71
  Q 767.91 801.49 769.61 798.49
  Q 769.89 798.00 769.69 797.47
  Q 768.79 795.07 770.08 792.79
  Q 770.35 792.32 770.28 791.78
  C 770.16 790.85 769.98 790.37 770.12 789.42
  Q 771.16 782.38 771.65 775.29
  Q 771.69 774.75 771.98 774.29
  Q 772.94 772.75 772.24 771.03
  Q 772.04 770.55 772.20 770.05
  L 773.21 766.89
  Q 773.36 766.42 773.19 765.96
  Q 772.35 763.57 773.86 761.30
  Q 774.13 760.89 774.00 760.42
  L 773.52 758.67
  Q 773.38 758.17 773.61 757.71
  C 774.82 755.27 774.17 753.04 774.64 750.79
  Q 775.79 745.35 775.85 739.79
  Q 775.86 738.61 776.28 737.42
  C 777.21 734.79 776.06 732.67 777.35 729.94
  Q 777.57 729.48 777.47 728.98
  Q 776.88 725.89 778.43 723.08
  Q 778.66 722.66 778.49 722.22
  Q 777.58 719.83 778.85 717.51
  Q 779.12 717.02 779.02 716.46
  Q 778.53 713.88 779.50 711.40
  Q 779.73 710.82 779.64 710.21
  Q 779.20 707.31 780.37 704.61
  Q 780.60 704.10 780.49 703.55
  C 780.00 701.10 781.00 699.44 780.92 697.07
  C 780.85 694.60 781.35 693.46 782.03 691.35
  Q 782.19 690.85 782.03 690.35
  Q 781.34 688.15 782.46 686.12
  Q 782.73 685.63 782.70 685.07
  Q 782.62 683.78 783.01 680.25
  Q 784.27 668.75 785.61 657.26
  Q 785.96 654.30 786.05 652.63
  C 786.16 650.50 787.07 648.64 786.85 646.45
  C 786.71 645.01 787.10 644.04 787.26 642.66
  Q 790.63 614.97 793.98 587.28
  Q 794.59 582.22 794.86 577.14
  C 794.97 575.11 796.11 572.57 795.54 570.02
  Q 795.42 569.48 795.67 568.99
  Q 796.87 566.71 796.27 564.25
  Q 796.15 563.75 796.32 563.26
  Q 797.68 559.50 797.33 555.49
  Q 797.93 552.20 798.46 548.84
  C 798.82 546.64 798.26 544.00 799.42 541.40
  Q 799.63 540.93 799.54 540.43
  C 798.98 537.28 800.51 534.39 800.39 531.04
  L 804.69 496.67
  Q 804.75 496.18 804.66 495.70
  Q 804.21 493.29 805.30 491.05
  Q 805.53 490.58 805.36 490.09
  Q 804.56 487.61 806.01 485.37
  Q 806.33 484.88 806.16 484.32
  C 805.47 481.96 806.50 479.70 806.68 477.94
  C 807.27 471.86 808.69 464.60 808.83 457.79
  C 808.88 455.23 810.34 453.22 809.64 450.39
  Q 809.51 449.85 809.76 449.34
  Q 810.93 446.93 810.24 444.30
  Q 810.11 443.81 810.36 443.36
  C 811.52 441.24 811.04 439.24 811.25 437.53
  Q 815.95 400.63 817.54 383.56
  Q 817.89 379.87 818.34 378.26
  Q 818.47 377.79 818.40 377.30
  Q 817.97 374.23 819.43 371.45
  Q 819.68 370.98 819.48 370.50
  Q 818.50 368.06 820.07 365.78
  Q 820.41 365.30 820.21 364.74
  Q 819.38 362.33 820.55 359.96
  Q 820.78 359.48 820.67 358.95
  C 820.16 356.51 821.15 353.87 821.34 352.08
  C 823.21 335.01 823.46 307.12 847.96 307.35
  Q 857.13 307.44 862.82 314.00
  C 865.02 316.54 866.04 321.17 867.29 324.36
  C 868.59 327.69 868.24 331.38 868.79 334.70
  Q 869.11 336.63 869.37 339.73
  C 869.57 342.09 870.48 344.18 870.61 346.47
  Q 870.82 350.39 871.71 354.22
  Q 871.82 354.68 871.69 355.14
  C 871.19 356.82 872.16 358.24 872.34 359.63
  Q 874.81 377.94 877.38 396.23
  Q 877.42 396.53 877.30 398.25
  C 877.23 399.46 877.90 399.97 878.04 401.03
  Q 882.79 437.60 888.06 474.10
  Q 888.13 474.56 887.88 474.96
  Q 887.59 475.45 887.95 475.92
  Q 888.21 476.26 888.28 476.68
  C 888.58 478.60 890.41 488.20 889.88 489.33
  Q 889.67 489.78 889.80 490.26
  C 890.30 492.15 892.51 506.07 892.43 506.19
  Q 892.21 506.53 892.27 506.93
  L 895.80 531.99
  Z
  M 873.56 873.06
  C 901.71 849.36 882.17 805.92 846.55 810.19
  C 817.99 813.62 804.53 849.16 825.14 869.95
  C 832.85 877.72 839.16 880.38 850.10 881.26
  C 858.03 881.89 867.64 878.05 873.56 873.06
  Z"
/>
<path fill="#21b600" d="
  M 254.91 426.44
  L 578.81 664.38
  A 0.72 0.70 -50.9 0 1 578.91 665.43
  Q 577.71 666.74 576.66 668.41
  C 543.37 721.15 527.51 783.32 528.96 845.52
  A 0.47 0.47 0.0 0 1 528.49 846.00
  L 133.51 846.00
  Q 133.05 846.00 133.05 845.54
  C 131.92 697.01 168.81 550.00 253.97 426.60
  A 0.67 0.67 0.0 0 1 254.91 426.44
  Z"
/>
<path fill="#ff1c18" d="
  M 1105.77 665.51
  L 1430.70 430.26
  A 0.69 0.69 0.0 0 1 1431.67 430.43
  C 1514.62 552.62 1551.40 698.31 1550.04 845.25
  Q 1550.03 846.00 1549.29 846.00
  L 1154.72 846.00
  A 0.74 0.74 0.0 0 1 1153.98 845.24
  C 1155.41 782.88 1139.47 719.75 1105.45 667.22
  A 1.27 1.26 -34.6 0 1 1105.77 665.51
  Z"
/>
</svg>
