<?xml version="1.0" encoding="UTF-8" standalone="no"?>
<!DOCTYPE svg PUBLIC "-//W3C//DTD SVG 1.1//EN" "http://www.w3.org/Graphics/SVG/1.1/DTD/svg11.dtd">
<svg xmlns="http://www.w3.org/2000/svg" version="1.1" viewBox="0.00 0.00 1693.00 1046.00">
<g stroke-width="2.00" fill="none" stroke-linecap="butt">
<path stroke="#ff8e8c" vector-effect="non-scaling-stroke" d="
  M 1446.69 453.48
  Q 1440.39 458.74 1433.83 463.31
  C 1431.68 464.80 1429.33 465.26 1427.30 467.09
  Q 1423.94 470.15 1420.33 472.91
  C 1418.30 474.47 1415.55 475.24 1413.22 477.22
  Q 1406.52 482.92 1397.39 489.77
  Q 1396.19 490.67 1392.93 492.30
  C 1389.64 493.94 1387.20 497.15 1384.58 498.94
  Q 1373.82 506.28 1363.50 514.25
  C 1360.29 516.73 1356.17 518.57 1352.75 521.34
  C 1343.57 528.78 1333.78 535.42 1324.52 542.79
  Q 1323.19 543.86 1320.55 544.96
  C 1316.97 546.47 1314.67 549.70 1312.06 551.52
  Q 1303.23 557.68 1294.55 564.05
  C 1293.71 564.66 1292.70 564.88 1291.94 565.48
  Q 1287.60 568.90 1282.92 571.80
  C 1276.76 575.61 1272.00 580.64 1265.46 584.20
  C 1263.23 585.42 1261.88 587.42 1259.78 588.96
  C 1256.31 591.49 1253.89 594.29 1250.45 596.56
  C 1248.39 597.92 1245.20 597.97 1243.53 600.02
  Q 1239.94 604.44 1235.76 606.85
  C 1227.75 611.45 1220.67 616.94 1213.51 622.74
  Q 1212.17 623.83 1209.50 625.00
  C 1206.20 626.45 1203.42 629.79 1201.48 631.32
  Q 1197.34 634.62 1193.11 637.81
  C 1191.52 639.01 1189.96 638.71 1188.32 639.89
  C 1183.47 643.41 1179.53 648.33 1174.00 650.79
  Q 1172.18 651.60 1170.37 653.14
  Q 1160.02 662.02 1147.02 669.47
  C 1138.65 674.28 1126.94 675.22 1118.75 669.36
  Q 1114.18 666.08 1110.04 662.25"
/>
<path stroke="#a5a5a5" vector-effect="non-scaling-stroke" d="
  M 1070.00 618.71
  L 1081.71 596.75"
/>
<path stroke="#ffb980" vector-effect="non-scaling-stroke" d="
  M 1081.71 596.75
  C 1084.00 598.81 1086.51 600.52 1088.62 602.56
  C 1100.24 613.78 1111.98 625.26 1122.16 637.83
  Q 1126.96 643.75 1131.58 649.42
  Q 1132.36 650.38 1133.36 649.65
  Q 1337.33 501.96 1540.41 354.90
  Q 1543.01 353.01 1545.46 350.92
  A 0.65 0.65 0.0 0 0 1545.56 350.04
  C 1436.13 201.51 1281.86 97.85 1105.95 43.24
  A 0.65 0.65 0.0 0 0 1105.14 43.66
  L 947.81 521.50
  A 0.60 0.60 0.0 0 0 948.19 522.26
  Q 974.10 530.72 998.65 542.39
  Q 1004.36 545.11 1006.69 546.72"
/>
<path stroke="#a5a5a5" vector-effect="non-scaling-stroke" d="
  M 1006.69 546.72
  L 989.61 564.97"
/>
<path stroke="#ffe280" vector-effect="non-scaling-stroke" d="
  M 934.00 541.46
  Q 930.67 538.21 928.13 534.35
  C 925.78 530.78 923.54 522.18 924.58 517.97
  Q 931.27 490.83 941.12 464.66
  C 943.24 459.04 944.00 453.13 946.12 447.38
  C 951.26 433.48 954.32 419.37 960.55 405.77
  C 962.34 401.85 963.61 396.06 965.60 389.77
  C 968.24 381.46 969.81 373.08 974.20 364.17
  Q 975.45 361.66 976.03 358.59
  Q 977.28 352.05 980.26 344.30
  Q 983.36 336.27 986.45 323.62
  C 987.66 318.69 990.30 313.57 991.40 308.09
  Q 991.49 307.61 991.84 307.25
  C 995.31 303.73 996.01 297.30 997.58 292.70
  C 1001.23 282.01 1003.70 271.41 1008.25 260.96
  Q 1010.48 255.82 1016.00 234.81
  C 1016.50 232.92 1017.62 231.32 1018.03 229.26
  Q 1019.13 223.76 1022.06 216.06
  C 1023.44 212.45 1024.23 206.36 1026.92 202.07
  C 1029.08 198.62 1029.69 194.62 1031.10 191.22
  C 1034.89 182.12 1037.24 171.54 1040.02 161.87"
/>
<path stroke="#a55f26" vector-effect="non-scaling-stroke" d="
  M 1081.71 596.75
  Q 1123.71 516.75 1166.01 436.90
  C 1171.04 427.40 1173.46 417.28 1165.42 409.14
  Q 1156.79 400.40 1144.66 403.01
  C 1139.65 404.09 1132.46 408.27 1129.16 411.91
  Q 1067.99 479.37 1006.69 546.72"
/>
</g>
<path fill="#ffffff" d="
  M 1446.69 453.48
  Q 1440.39 458.74 1433.83 463.31
  C 1431.68 464.80 1429.33 465.26 1427.30 467.09
  Q 1423.94 470.15 1420.33 472.91
  C 1418.30 474.47 1415.55 475.24 1413.22 477.22
  Q 1406.52 482.92 1397.39 489.77
  Q 1396.19 490.67 1392.93 492.30
  C 1389.64 493.94 1387.20 497.15 1384.58 498.94
  Q 1373.82 506.28 1363.50 514.25
  C 1360.29 516.73 1356.17 518.57 1352.75 521.34
  C 1343.57 528.78 1333.78 535.42 1324.52 542.79
  Q 1323.19 543.86 1320.55 544.96
  C 1316.97 546.47 1314.67 549.70 1312.06 551.52
  Q 1303.23 557.68 1294.55 564.05
  C 1293.71 564.66 1292.70 564.88 1291.94 565.48
  Q 1287.60 568.90 1282.92 571.80
  C 1276.76 575.61 1272.00 580.64 1265.46 584.20
  C 1263.23 585.42 1261.88 587.42 1259.78 588.96
  C 1256.31 591.49 1253.89 594.29 1250.45 596.56
  C 1248.39 597.92 1245.20 597.97 1243.53 600.02
  Q 1239.94 604.44 1235.76 606.85
  C 1227.75 611.45 1220.67 616.94 1213.51 622.74
  Q 1212.17 623.83 1209.50 625.00
  C 1206.20 626.45 1203.42 629.79 1201.48 631.32
  Q 1197.34 634.62 1193.11 637.81
  C 1191.52 639.01 1189.96 638.71 1188.32 639.89
  C 1183.47 643.41 1179.53 648.33 1174.00 650.79
  Q 1172.18 651.60 1170.37 653.14
  Q 1160.02 662.02 1147.02 669.47
  C 1138.65 674.28 1126.94 675.22 1118.75 669.36
  Q 1114.18 666.08 1110.04 662.25
  C 1106.99 657.67 1104.15 653.76 1100.15 649.34
  C 1097.15 646.03 1094.49 642.48 1091.39 639.43
  Q 1081.23 629.42 1071.20 619.29
  C 1070.89 618.98 1070.40 618.83 1070.00 618.71
  L 1081.71 596.75
  C 1084.00 598.81 1086.51 600.52 1088.62 602.56
  C 1100.24 613.78 1111.98 625.26 1122.16 637.83
  Q 1126.96 643.75 1131.58 649.42
  Q 1132.36 650.38 1133.36 649.65
  Q 1337.33 501.96 1540.41 354.90
  Q 1543.01 353.01 1545.46 350.92
  A 0.65 0.65 0.0 0 0 1545.56 350.04
  C 1436.13 201.51 1281.86 97.85 1105.95 43.24
  A 0.65 0.65 0.0 0 0 1105.14 43.66
  L 947.81 521.50
  A 0.60 0.60 0.0 0 0 948.19 522.26
  Q 974.10 530.72 998.65 542.39
  Q 1004.36 545.11 1006.69 546.72
  L 989.61 564.97
  Q 965.13 553.35 939.85 544.79
  C 937.58 544.02 936.13 542.59 934.00 541.46
  Q 930.67 538.21 928.13 534.35
  C 925.78 530.78 923.54 522.18 924.58 517.97
  Q 931.27 490.83 941.12 464.66
  C 943.24 459.04 944.00 453.13 946.12 447.38
  C 951.26 433.48 954.32 419.37 960.55 405.77
  C 962.34 401.85 963.61 396.06 965.60 389.77
  C 968.24 381.46 969.81 373.08 974.20 364.17
  Q 975.45 361.66 976.03 358.59
  Q 977.28 352.05 980.26 344.30
  Q 983.36 336.27 986.45 323.62
  C 987.66 318.69 990.30 313.57 991.40 308.09
  Q 991.49 307.61 991.84 307.25
  C 995.31 303.73 996.01 297.30 997.58 292.70
  C 1001.23 282.01 1003.70 271.41 1008.25 260.96
  Q 1010.48 255.82 1016.00 234.81
  C 1016.50 232.92 1017.62 231.32 1018.03 229.26
  Q 1019.13 223.76 1022.06 216.06
  C 1023.44 212.45 1024.23 206.36 1026.92 202.07
  C 1029.08 198.62 1029.69 194.62 1031.10 191.22
  C 1034.89 182.12 1037.24 171.54 1040.02 161.87
  Q 1041.51 160.78 1042.07 158.56
  Q 1045.35 145.79 1049.48 133.24
  Q 1049.86 132.10 1050.70 131.25
  Q 1051.05 130.90 1051.19 130.42
  Q 1054.73 117.98 1058.12 105.49
  Q 1058.56 103.89 1059.64 102.43
  C 1062.29 98.85 1063.16 93.22 1064.26 88.93
  C 1064.65 87.41 1065.66 86.45 1066.21 84.73
  Q 1070.84 70.29 1073.47 59.00
  C 1073.70 57.99 1075.40 56.74 1075.85 55.43
  Q 1077.46 50.80 1078.47 45.99
  C 1078.57 45.51 1079.25 44.96 1079.39 44.29
  C 1081.15 36.04 1082.94 29.91 1089.07 25.14
  C 1093.09 22.00 1103.79 18.50 1108.95 19.72
  C 1124.19 23.33 1138.77 28.68 1153.59 33.67
  C 1155.44 34.30 1158.85 34.89 1161.31 36.30
  C 1164.71 38.25 1168.60 38.90 1172.20 40.37
  Q 1184.17 45.27 1196.30 49.74
  C 1197.14 50.05 1197.74 50.86 1198.71 51.25
  C 1202.30 52.68 1206.75 53.67 1209.94 55.78
  C 1213.19 57.93 1217.06 58.04 1220.40 59.90
  C 1225.79 62.91 1231.00 65.28 1236.67 67.66
  C 1239.92 69.03 1243.15 71.26 1246.68 72.72
  C 1250.11 74.14 1253.08 76.24 1256.55 77.64
  Q 1258.74 78.51 1261.49 80.17
  C 1263.82 81.57 1266.36 82.19 1268.66 83.63
  C 1272.28 85.90 1276.66 87.41 1279.99 89.33
  C 1300.14 100.90 1320.67 111.88 1340.03 124.77
  Q 1356.04 135.44 1371.97 146.25
  C 1372.94 146.90 1374.68 148.56 1376.34 149.33
  Q 1377.71 149.97 1378.41 150.51
  C 1386.90 157.00 1395.21 163.59 1403.92 169.78
  C 1407.15 172.07 1410.12 175.11 1412.86 177.23
  C 1429.68 190.28 1442.34 202.02 1456.20 214.30
  C 1473.11 229.26 1488.86 245.86 1504.72 261.93
  C 1507.33 264.58 1509.64 267.83 1512.27 270.73
  C 1529.50 289.77 1543.43 307.30 1561.17 330.37
  C 1565.74 336.31 1567.88 341.37 1569.10 348.35
  C 1569.72 351.90 1567.99 359.79 1565.93 362.78
  Q 1562.94 367.13 1559.52 371.16
  C 1552.84 379.04 1542.82 382.27 1535.64 389.39
  C 1531.39 393.60 1525.74 395.77 1521.09 399.77
  C 1513.76 406.09 1504.99 409.74 1497.64 416.51
  C 1493.52 420.31 1489.02 421.82 1485.55 425.38
  C 1482.21 428.82 1478.95 430.76 1475.17 433.28
  C 1472.05 435.37 1467.51 437.38 1464.43 439.93
  Q 1455.75 447.11 1446.69 453.48
  Z"
/>
<path fill="#ff7300" d="
  M 1081.71 596.75
  Q 1123.71 516.75 1166.01 436.90
  C 1171.04 427.40 1173.46 417.28 1165.42 409.14
  Q 1156.79 400.40 1144.66 403.01
  C 1139.65 404.09 1132.46 408.27 1129.16 411.91
  Q 1067.99 479.37 1006.69 546.72
  Q 1004.36 545.11 998.65 542.39
  Q 974.10 530.72 948.19 522.26
  A 0.60 0.60 0.0 0 1 947.81 521.50
  L 1105.14 43.66
  A 0.65 0.65 0.0 0 1 1105.95 43.24
  C 1281.86 97.85 1436.13 201.51 1545.56 350.04
  A 0.65 0.65 0.0 0 1 1545.46 350.92
  Q 1543.01 353.01 1540.41 354.90
  Q 1337.33 501.96 1133.36 649.65
  Q 1132.36 650.38 1131.58 649.42
  Q 1126.96 643.75 1122.16 637.83
  C 1111.98 625.26 1100.24 613.78 1088.62 602.56
  C 1086.51 600.52 1084.00 598.81 1081.71 596.75
  Z"
/>
<path fill="#ffc400" d="
  M 1040.02 161.87
  C 1037.24 171.54 1034.89 182.12 1031.10 191.22
  C 1029.69 194.62 1029.08 198.62 1026.92 202.07
  C 1024.23 206.36 1023.44 212.45 1022.06 216.06
  Q 1019.13 223.76 1018.03 229.26
  C 1017.62 231.32 1016.50 232.92 1016.00 234.81
  Q 1010.48 255.82 1008.25 260.96
  C 1003.70 271.41 1001.23 282.01 997.58 292.70
  C 996.01 297.30 995.31 303.73 991.84 307.25
  Q 991.49 307.61 991.40 308.09
  C 990.30 313.57 987.66 318.69 986.45 323.62
  Q 983.36 336.27 980.26 344.30
  Q 977.28 352.05 976.03 358.59
  Q 975.45 361.66 974.20 364.17
  C 969.81 373.08 968.24 381.46 965.60 389.77
  C 963.61 396.06 962.34 401.85 960.55 405.77
  C 954.32 419.37 951.26 433.48 946.12 447.38
  C 944.00 453.13 943.24 459.04 941.12 464.66
  Q 931.27 490.83 924.58 517.97
  C 923.54 522.18 925.78 530.78 928.13 534.35
  Q 930.67 538.21 934.00 541.46
  Q 932.38 542.55 932.83 544.64
  Q 932.99 545.37 932.47 544.84
  L 932.10 544.47
  Q 931.95 544.32 931.74 544.27
  Q 898.02 535.55 869.93 533.57
  Q 856.45 532.62 833.74 532.85
  C 808.37 533.11 783.34 536.40 758.68 542.42
  Q 757.20 542.79 755.98 542.75
  A 0.71 0.70 -8.0 0 1 755.32 542.26
  L 633.02 165.99
  Q 632.54 164.52 634.03 164.12
  Q 706.61 144.53 781.29 138.78
  C 812.05 136.41 843.51 136.62 874.34 137.35
  C 887.41 137.67 900.54 138.83 913.67 139.98
  Q 977.80 145.57 1040.02 161.87
  Z"
/>
<path fill="#c1dd00" d="
  M 589.90 649.08
  L 266.37 411.44
  Q 265.27 410.63 266.09 409.54
  C 353.98 292.83 475.86 211.56 615.33 169.60
  Q 616.23 169.33 616.52 170.23
  L 738.91 546.78
  A 1.11 1.10 -17.6 0 1 738.18 548.18
  C 680.02 565.98 628.00 600.69 590.66 648.97
  A 0.55 0.54 -52.9 0 1 589.90 649.08
  Z"
/>
<path fill="#4b4b4b" d="
  M 1081.71 596.75
  L 1070.00 618.71
  Q 1052.55 651.89 1034.89 684.97
  C 1032.14 690.12 1029.71 695.50 1026.97 700.65
  C 993.58 763.39 960.66 826.38 927.20 889.09
  Q 926.82 889.80 925.43 891.60
  C 921.51 896.67 918.20 902.08 913.39 907.34
  C 899.74 922.24 882.97 931.68 862.74 933.94
  C 846.04 935.80 827.96 930.86 812.88 923.63
  C 794.24 914.68 779.62 898.85 770.26 880.48
  Q 767.69 875.44 765.36 863.48
  C 765.11 862.22 764.10 861.53 764.08 860.31
  Q 764.06 858.55 763.42 856.92
  Q 763.24 856.45 763.34 855.96
  Q 763.72 854.12 763.10 850.84
  Q 762.47 847.48 763.43 841.54
  C 767.47 816.59 777.00 799.32 793.75 780.88
  Q 883.76 681.83 973.79 582.80
  Q 976.22 580.13 977.86 578.47
  C 979.20 577.12 980.44 574.71 982.59 573.47
  Q 983.03 573.22 983.23 572.76
  C 984.32 570.20 986.30 569.57 987.71 567.51
  Q 988.64 566.16 989.61 564.97
  L 1006.69 546.72
  Q 1067.99 479.37 1129.16 411.91
  C 1132.46 408.27 1139.65 404.09 1144.66 403.01
  Q 1156.79 400.40 1165.42 409.14
  C 1173.46 417.28 1171.04 427.40 1166.01 436.90
  Q 1123.71 516.75 1081.71 596.75
  Z
  M 885.5894 858.2205
  A 35.87 35.72 19.8 0 0 863.9397 812.4617
  A 35.87 35.72 19.8 0 0 818.0906 833.9195
  A 35.87 35.72 19.8 0 0 839.7403 879.6783
  A 35.87 35.72 19.8 0 0 885.5894 858.2205
  Z"
/>
<path fill="#21b600" d="
  M 254.91 426.44
  L 578.81 664.38
  A 0.72 0.70 -50.9 0 1 578.91 665.43
  Q 577.71 666.74 576.66 668.41
  C 543.37 721.15 527.51 783.32 528.96 845.52
  A 0.47 0.47 0.0 0 1 528.49 846.00
  L 133.51 846.00
  Q 133.05 846.00 133.05 845.54
  C 131.92 697.01 168.81 550.00 253.97 426.60
  A 0.67 0.67 0.0 0 1 254.91 426.44
  Z"
/>
<path fill="#ff1c18" d="
  M 1446.69 453.48
  Q 1461.49 477.73 1471.28 496.73
  C 1526.37 603.56 1551.15 724.56 1550.04 845.25
  Q 1550.04 846.00 1549.29 846.00
  L 1155.50 846.00
  Q 1153.85 846.00 1153.90 844.34
  C 1155.90 783.61 1139.18 720.58 1106.75 669.04
  Q 1105.88 667.66 1105.46 666.73
  Q 1105.24 666.24 1105.66 665.89
  L 1110.04 662.25
  Q 1114.18 666.08 1118.75 669.36
  C 1126.94 675.22 1138.65 674.28 1147.02 669.47
  Q 1160.02 662.02 1170.37 653.14
  Q 1172.18 651.60 1174.00 650.79
  C 1179.53 648.33 1183.47 643.41 1188.32 639.89
  C 1189.96 638.71 1191.52 639.01 1193.11 637.81
  Q 1197.34 634.62 1201.48 631.32
  C 1203.42 629.79 1206.20 626.45 1209.50 625.00
  Q 1212.17 623.83 1213.51 622.74
  C 1220.67 616.94 1227.75 611.45 1235.76 606.85
  Q 1239.94 604.44 1243.53 600.02
  C 1245.20 597.97 1248.39 597.92 1250.45 596.56
  C 1253.89 594.29 1256.31 591.49 1259.78 588.96
  C 1261.88 587.42 1263.23 585.42 1265.46 584.20
  C 1272.00 580.64 1276.76 575.61 1282.92 571.80
  Q 1287.60 568.90 1291.94 565.48
  C 1292.70 564.88 1293.71 564.66 1294.55 564.05
  Q 1303.23 557.68 1312.06 551.52
  C 1314.67 549.70 1316.97 546.47 1320.55 544.96
  Q 1323.19 543.86 1324.52 542.79
  C 1333.78 535.42 1343.57 528.78 1352.75 521.34
  C 1356.17 518.57 1360.29 516.73 1363.50 514.25
  Q 1373.82 506.28 1384.58 498.94
  C 1387.20 497.15 1389.64 493.94 1392.93 492.30
  Q 1396.19 490.67 1397.39 489.77
  Q 1406.52 482.92 1413.22 477.22
  C 1415.55 475.24 1418.30 474.47 1420.33 472.91
  Q 1423.94 470.15 1427.30 467.09
  C 1429.33 465.26 1431.68 464.80 1433.83 463.31
  Q 1440.39 458.74 1446.69 453.48
  Z"
/>
</svg>
