<?xml version="1.0" encoding="UTF-8" standalone="no"?>
<!DOCTYPE svg PUBLIC "-//W3C//DTD SVG 1.1//EN" "http://www.w3.org/Graphics/SVG/1.1/DTD/svg11.dtd">
<svg xmlns="http://www.w3.org/2000/svg" version="1.1" viewBox="0.00 0.00 1448.00 1448.00">
<g stroke-width="2.00" fill="none" stroke-linecap="butt">
<path stroke="#808080" vector-effect="non-scaling-stroke" d="
  M 1033.05 124.74
  L 945.38 260.82
  Q 944.47 262.24 945.40 263.64
  Q 987.76 326.88 1029.79 389.30
  C 1038.44 402.15 1049.19 417.18 1058.15 431.63
  Q 1058.54 432.25 1058.99 432.44
  A 0.73 0.73 0.0 0 0 1059.99 431.62
  Q 1059.23 428.03 1058.91 424.26
  C 1050.55 325.28 1041.96 226.30 1034.53 127.25
  Q 1034.42 125.75 1034.11 124.87
  Q 1033.71 123.70 1033.05 124.74"
/>
<path stroke="#808080" vector-effect="non-scaling-stroke" d="
  M 412.74 127.98
  Q 412.32 129.08 412.26 130.00
  Q 401.14 281.00 389.91 431.99
  Q 389.81 433.28 390.10 434.03
  Q 390.41 434.84 390.89 434.11
  L 501.34 263.37
  A 1.49 1.49 0.0 0 0 501.34 261.73
  L 413.34 127.91
  A 0.34 0.34 0.0 0 0 412.74 127.98"
/>
<path stroke="#808080" vector-effect="non-scaling-stroke" d="
  M 1044.46 565.78
  L 896.69 339.48
  Q 896.28 338.86 895.66 339.27
  Q 895.14 339.62 894.53 340.55
  Q 834.90 432.14 774.20 525.39
  Q 773.56 526.38 773.84 527.52
  Q 795.34 615.00 816.87 703.28
  Q 817.41 705.48 815.28 707.53
  Q 787.82 733.92 760.41 760.40
  Q 760.05 760.75 759.54 760.75
  L 686.55 760.75
  Q 686.11 760.75 685.81 760.44
  Q 661.68 735.69 637.21 711.30
  Q 635.44 709.53 633.24 706.33
  Q 632.96 705.94 633.07 705.47
  L 673.05 525.53
  A 4.44 4.43 -55.6 0 0 672.42 522.14
  Q 612.53 431.55 552.00 340.02
  Q 551.41 339.14 551.03 338.95
  Q 550.06 338.49 549.63 339.19
  Q 515.34 395.27 479.73 450.15
  Q 474.26 458.59 469.08 467.09
  Q 437.81 518.36 405.44 569.00
  A 2.86 2.86 0.0 0 1 402.00 570.13
  Q 389.37 565.29 375.69 560.15
  Q 375.22 559.97 374.86 559.99
  A 0.41 0.41 0.0 0 0 374.55 560.64
  L 478.60 702.40
  Q 478.90 702.81 479.39 702.97
  Q 511.30 713.51 542.83 725.16
  C 544.81 725.89 546.09 727.44 547.12 729.14
  Q 592.70 804.64 638.36 880.02
  Q 638.65 880.50 639.21 880.50
  L 809.99 880.50
  Q 810.40 880.50 810.61 880.15
  L 899.24 730.46
  A 5.42 5.42 0.0 0 1 902.10 728.10
  L 970.76 703.55
  A 3.14 3.09 7.5 0 0 972.23 702.44
  L 1073.77 558.50
  A 0.73 0.72 6.8 0 0 1072.91 557.41
  L 1048.54 567.08
  A 3.38 3.38 0.0 0 1 1044.46 565.78"
/>
<path stroke="#808080" vector-effect="non-scaling-stroke" d="
  M 498.30 1005.82
  Q 497.41 1008.24 496.18 1008.68
  Q 462.61 1020.80 429.33 1032.49
  A 0.87 0.86 48.4 0 0 429.24 1034.08
  Q 454.55 1046.47 479.60 1058.62
  Q 483.03 1060.29 484.17 1062.72
  Q 484.99 1064.46 483.63 1065.84
  L 435.01 1115.18
  A 1.55 1.54 -44.9 0 0 435.00 1117.34
  Q 553.63 1239.31 672.05 1360.20
  C 678.23 1366.51 687.01 1378.55 696.25 1385.86
  Q 708.64 1395.66 721.74 1405.29
  A 0.95 0.95 0.0 0 0 723.25 1404.53
  L 723.25 886.50
  Q 723.25 886.00 722.75 886.00
  L 636.00 886.00
  A 0.94 0.93 -15.3 0 1 635.20 885.55
  L 541.36 730.66
  Q 541.15 730.32 540.77 730.19
  L 477.93 707.88
  Q 476.59 707.40 476.20 708.77
  L 415.05 926.27
  A 1.89 1.87 -60.9 0 0 415.58 928.17
  Q 455.47 964.73 495.69 1001.56
  Q 497.42 1003.14 498.27 1004.96
  A 1.15 1.13 -47.6 0 1 498.30 1005.82"
/>
<path stroke="#808080" vector-effect="non-scaling-stroke" d="
  M 800.14 1337.39
  C 871.69 1265.33 942.79 1192.76 1014.77 1121.13
  A 1.20 1.19 -44.1 0 0 1014.80 1119.47
  L 962.21 1063.52
  A 1.32 1.30 28.2 0 1 961.87 1062.42
  Q 962.28 1059.64 965.52 1058.01
  Q 990.38 1045.52 1015.27 1033.53
  A 0.87 0.87 0.0 0 0 1015.21 1031.93
  Q 984.92 1019.98 954.54 1008.00
  Q 951.97 1006.99 950.78 1003.48
  A 0.85 0.85 0.0 0 1 951.01 1002.59
  L 1031.07 929.82
  Q 1032.01 928.97 1031.69 927.82
  L 971.67 710.42
  Q 971.34 709.23 970.18 709.65
  L 904.31 733.22
  A 1.29 1.28 -83.6 0 0 903.64 733.76
  L 815.07 883.71
  A 4.68 4.67 -74.6 0 1 811.05 886.00
  L 727.75 886.00
  Q 727.25 886.00 727.25 886.50
  L 727.25 1404.51
  A 0.92 0.91 -16.8 0 0 728.67 1405.27
  C 738.27 1398.91 746.24 1392.56 754.54 1383.54
  C 769.24 1367.55 784.86 1352.78 800.14 1337.39"
/>
</g>
<path fill="#000000" d="
  M 395.20 42.81
  C 459.59 110.52 523.99 178.22 588.39 245.92
  C 589.65 247.26 591.05 247.45 592.75 247.46
  Q 602.63 247.51 612.50 247.50
  C 613.05 247.50 613.94 247.97 614.61 247.98
  C 633.32 248.09 652.03 248.63 670.75 248.81
  C 672.68 248.83 674.57 249.24 675.84 249.24
  Q 714.95 249.26 754.05 249.25
  C 754.68 249.25 755.29 248.82 755.75 248.81
  Q 780.50 248.62 805.25 248.44
  C 806.21 248.43 807.13 248.06 808.02 248.05
  Q 833.54 247.97 858.66 247.35
  A 5.03 5.02 -68.9 0 0 862.19 245.78
  Q 959.95 143.07 1057.99 39.99
  Q 1062.38 35.37 1065.36 32.64
  A 1.43 1.40 20.6 0 1 1066.22 32.26
  C 1069.53 31.98 1069.72 34.82 1069.99 37.50
  Q 1099.59 321.16 1129.26 604.80
  C 1131.04 621.84 1132.46 638.99 1134.41 655.93
  Q 1136.97 678.35 1139.30 700.80
  C 1147.85 783.52 1156.19 866.22 1165.30 948.93
  A 2.22 2.22 0.0 0 1 1164.14 951.14
  L 1079.77 996.62
  A 0.53 0.52 46.5 0 0 1079.75 997.53
  L 1142.34 1035.18
  A 3.40 3.40 0.0 0 1 1141.55 1041.36
  L 1070.32 1062.35
  A 0.49 0.48 60.2 0 0 1070.11 1063.15
  Q 1074.47 1067.79 1079.22 1072.28
  Q 1106.79 1098.34 1118.22 1109.53
  C 1121.33 1112.58 1119.37 1115.12 1116.52 1117.30
  Q 923.82 1264.45 731.00 1411.44
  C 729.38 1412.68 728.06 1414.03 726.68 1415.46
  A 2.00 1.99 45.9 0 1 723.78 1415.41
  Q 722.06 1413.53 719.61 1411.66
  Q 526.53 1264.47 333.43 1117.31
  Q 330.83 1115.33 330.10 1113.06
  A 1.33 1.31 -37.8 0 1 330.25 1111.96
  Q 331.50 1110.06 334.21 1107.46
  Q 357.44 1085.18 380.66 1063.07
  A 0.36 0.35 -58.6 0 0 380.52 1062.47
  Q 344.97 1052.02 309.74 1041.79
  C 306.46 1040.84 304.77 1037.14 307.95 1035.22
  Q 339.46 1016.17 370.53 997.60
  Q 371.46 997.04 370.50 996.53
  L 286.61 951.36
  A 2.25 2.24 -73.0 0 1 285.45 949.16
  Q 299.56 812.11 313.79 675.42
  Q 313.87 674.62 315.99 656.62
  C 316.98 648.22 317.64 638.71 318.40 631.47
  Q 349.47 333.64 380.56 35.81
  Q 380.77 33.74 383.22 32.35
  Q 383.65 32.11 384.07 32.34
  C 387.51 34.17 391.64 39.07 395.20 42.81
  Z
  M 1033.05 124.74
  L 945.38 260.82
  Q 944.47 262.24 945.40 263.64
  Q 987.76 326.88 1029.79 389.30
  C 1038.44 402.15 1049.19 417.18 1058.15 431.63
  Q 1058.54 432.25 1058.99 432.44
  A 0.73 0.73 0.0 0 0 1059.99 431.62
  Q 1059.23 428.03 1058.91 424.26
  C 1050.55 325.28 1041.96 226.30 1034.53 127.25
  Q 1034.42 125.75 1034.11 124.87
  Q 1033.71 123.70 1033.05 124.74
  Z
  M 412.74 127.98
  Q 412.32 129.08 412.26 130.00
  Q 401.14 281.00 389.91 431.99
  Q 389.81 433.28 390.10 434.03
  Q 390.41 434.84 390.89 434.11
  L 501.34 263.37
  A 1.49 1.49 0.0 0 0 501.34 261.73
  L 413.34 127.91
  A 0.34 0.34 0.0 0 0 412.74 127.98
  Z
  M 1044.46 565.78
  L 896.69 339.48
  Q 896.28 338.86 895.66 339.27
  Q 895.14 339.62 894.53 340.55
  Q 834.90 432.14 774.20 525.39
  Q 773.56 526.38 773.84 527.52
  Q 795.34 615.00 816.87 703.28
  Q 817.41 705.48 815.28 707.53
  Q 787.82 733.92 760.41 760.40
  Q 760.05 760.75 759.54 760.75
  L 686.55 760.75
  Q 686.11 760.75 685.81 760.44
  Q 661.68 735.69 637.21 711.30
  Q 635.44 709.53 633.24 706.33
  Q 632.96 705.94 633.07 705.47
  L 673.05 525.53
  A 4.44 4.43 -55.6 0 0 672.42 522.14
  Q 612.53 431.55 552.00 340.02
  Q 551.41 339.14 551.03 338.95
  Q 550.06 338.49 549.63 339.19
  Q 515.34 395.27 479.73 450.15
  Q 474.26 458.59 469.08 467.09
  Q 437.81 518.36 405.44 569.00
  A 2.86 2.86 0.0 0 1 402.00 570.13
  Q 389.37 565.29 375.69 560.15
  Q 375.22 559.97 374.86 559.99
  A 0.41 0.41 0.0 0 0 374.55 560.64
  L 478.60 702.40
  Q 478.90 702.81 479.39 702.97
  Q 511.30 713.51 542.83 725.16
  C 544.81 725.89 546.09 727.44 547.12 729.14
  Q 592.70 804.64 638.36 880.02
  Q 638.65 880.50 639.21 880.50
  L 809.99 880.50
  Q 810.40 880.50 810.61 880.15
  L 899.24 730.46
  A 5.42 5.42 0.0 0 1 902.10 728.10
  L 970.76 703.55
  A 3.14 3.09 7.5 0 0 972.23 702.44
  L 1073.77 558.50
  A 0.73 0.72 6.8 0 0 1072.91 557.41
  L 1048.54 567.08
  A 3.38 3.38 0.0 0 1 1044.46 565.78
  Z
  M 498.30 1005.82
  Q 497.41 1008.24 496.18 1008.68
  Q 462.61 1020.80 429.33 1032.49
  A 0.87 0.86 48.4 0 0 429.24 1034.08
  Q 454.55 1046.47 479.60 1058.62
  Q 483.03 1060.29 484.17 1062.72
  Q 484.99 1064.46 483.63 1065.84
  L 435.01 1115.18
  A 1.55 1.54 -44.9 0 0 435.00 1117.34
  Q 553.63 1239.31 672.05 1360.20
  C 678.23 1366.51 687.01 1378.55 696.25 1385.86
  Q 708.64 1395.66 721.74 1405.29
  A 0.95 0.95 0.0 0 0 723.25 1404.53
  L 723.25 886.50
  Q 723.25 886.00 722.75 886.00
  L 636.00 886.00
  A 0.94 0.93 -15.3 0 1 635.20 885.55
  L 541.36 730.66
  Q 541.15 730.32 540.77 730.19
  L 477.93 707.88
  Q 476.59 707.40 476.20 708.77
  L 415.05 926.27
  A 1.89 1.87 -60.9 0 0 415.58 928.17
  Q 455.47 964.73 495.69 1001.56
  Q 497.42 1003.14 498.27 1004.96
  A 1.15 1.13 -47.6 0 1 498.30 1005.82
  Z
  M 800.14 1337.39
  C 871.69 1265.33 942.79 1192.76 1014.77 1121.13
  A 1.20 1.19 -44.1 0 0 1014.80 1119.47
  L 962.21 1063.52
  A 1.32 1.30 28.2 0 1 961.87 1062.42
  Q 962.28 1059.64 965.52 1058.01
  Q 990.38 1045.52 1015.27 1033.53
  A 0.87 0.87 0.0 0 0 1015.21 1031.93
  Q 984.92 1019.98 954.54 1008.00
  Q 951.97 1006.99 950.78 1003.48
  A 0.85 0.85 0.0 0 1 951.01 1002.59
  L 1031.07 929.82
  Q 1032.01 928.97 1031.69 927.82
  L 971.67 710.42
  Q 971.34 709.23 970.18 709.65
  L 904.31 733.22
  A 1.29 1.28 -83.6 0 0 903.64 733.76
  L 815.07 883.71
  A 4.68 4.67 -74.6 0 1 811.05 886.00
  L 727.75 886.00
  Q 727.25 886.00 727.25 886.50
  L 727.25 1404.51
  A 0.92 0.91 -16.8 0 0 728.67 1405.27
  C 738.27 1398.91 746.24 1392.56 754.54 1383.54
  C 769.24 1367.55 784.86 1352.78 800.14 1337.39
  Z"
/>
<path fill="#ffffff" d="
  M 1033.05 124.74
  Q 1033.71 123.70 1034.11 124.87
  Q 1034.42 125.75 1034.53 127.25
  C 1041.96 226.30 1050.55 325.28 1058.91 424.26
  Q 1059.23 428.03 1059.99 431.62
  A 0.73 0.73 0.0 0 1 1058.99 432.44
  Q 1058.54 432.25 1058.15 431.63
  C 1049.19 417.18 1038.44 402.15 1029.79 389.30
  Q 987.76 326.88 945.40 263.64
  Q 944.47 262.24 945.38 260.82
  L 1033.05 124.74
  Z"
/>
<path fill="#ffffff" d="
  M 412.74 127.98
  A 0.34 0.34 0.0 0 1 413.34 127.91
  L 501.34 261.73
  A 1.49 1.49 0.0 0 1 501.34 263.37
  L 390.89 434.11
  Q 390.41 434.84 390.10 434.03
  Q 389.81 433.28 389.91 431.99
  Q 401.14 281.00 412.26 130.00
  Q 412.32 129.08 412.74 127.98
  Z"
/>
<path fill="#ffffff" d="
  M 1044.46 565.78
  A 3.38 3.38 0.0 0 0 1048.54 567.08
  L 1072.91 557.41
  A 0.73 0.72 6.8 0 1 1073.77 558.50
  L 972.23 702.44
  A 3.14 3.09 7.5 0 1 970.76 703.55
  L 902.10 728.10
  A 5.42 5.42 0.0 0 0 899.24 730.46
  L 810.61 880.15
  Q 810.40 880.50 809.99 880.50
  L 639.21 880.50
  Q 638.65 880.50 638.36 880.02
  Q 592.70 804.64 547.12 729.14
  C 546.09 727.44 544.81 725.89 542.83 725.16
  Q 511.30 713.51 479.39 702.97
  Q 478.90 702.81 478.60 702.40
  L 374.55 560.64
  A 0.41 0.41 0.0 0 1 374.86 559.99
  Q 375.22 559.97 375.69 560.15
  Q 389.37 565.29 402.00 570.13
  A 2.86 2.86 0.0 0 0 405.44 569.00
  Q 437.81 518.36 469.08 467.09
  Q 474.26 458.59 479.73 450.15
  Q 515.34 395.27 549.63 339.19
  Q 550.06 338.49 551.03 338.95
  Q 551.41 339.14 552.00 340.02
  Q 612.53 431.55 672.42 522.14
  A 4.44 4.43 -55.6 0 1 673.05 525.53
  L 633.07 705.47
  Q 632.96 705.94 633.24 706.33
  Q 635.44 709.53 637.21 711.30
  Q 661.68 735.69 685.81 760.44
  Q 686.11 760.75 686.55 760.75
  L 759.54 760.75
  Q 760.05 760.75 760.41 760.40
  Q 787.82 733.92 815.28 707.53
  Q 817.41 705.48 816.87 703.28
  Q 795.34 615.00 773.84 527.52
  Q 773.56 526.38 774.20 525.39
  Q 834.90 432.14 894.53 340.55
  Q 895.14 339.62 895.66 339.27
  Q 896.28 338.86 896.69 339.48
  L 1044.46 565.78
  Z"
/>
<path fill="#ffffff" d="
  M 498.27 1004.96
  Q 497.42 1003.14 495.69 1001.56
  Q 455.47 964.73 415.58 928.17
  A 1.89 1.87 -60.9 0 1 415.05 926.27
  L 476.20 708.77
  Q 476.59 707.40 477.93 707.88
  L 540.77 730.19
  Q 541.15 730.32 541.36 730.66
  L 635.20 885.55
  A 0.94 0.93 -15.3 0 0 636.00 886.00
  L 722.75 886.00
  Q 723.25 886.00 723.25 886.50
  L 723.25 1404.53
  A 0.95 0.95 0.0 0 1 721.74 1405.29
  Q 708.64 1395.66 696.25 1385.86
  C 687.01 1378.55 678.23 1366.51 672.05 1360.20
  Q 553.63 1239.31 435.00 1117.34
  A 1.55 1.54 -44.9 0 1 435.01 1115.18
  L 483.63 1065.84
  Q 484.99 1064.46 484.17 1062.72
  Q 483.03 1060.29 479.60 1058.62
  Q 454.55 1046.47 429.24 1034.08
  A 0.87 0.86 48.4 0 1 429.33 1032.49
  Q 462.61 1020.80 496.18 1008.68
  Q 497.41 1008.24 498.30 1005.82
  A 1.15 1.13 -47.6 0 0 498.27 1004.96
  Z"
/>
<path fill="#ffffff" d="
  M 1014.77 1121.13
  C 942.79 1192.76 871.69 1265.33 800.14 1337.39
  C 784.86 1352.78 769.24 1367.55 754.54 1383.54
  C 746.24 1392.56 738.27 1398.91 728.67 1405.27
  A 0.92 0.91 -16.8 0 1 727.25 1404.51
  L 727.25 886.50
  Q 727.25 886.00 727.75 886.00
  L 811.05 886.00
  A 4.68 4.67 -74.6 0 0 815.07 883.71
  L 903.64 733.76
  A 1.29 1.28 -83.6 0 1 904.31 733.22
  L 970.18 709.65
  Q 971.34 709.23 971.67 710.42
  L 1031.69 927.82
  Q 1032.01 928.97 1031.07 929.82
  L 951.01 1002.59
  A 0.85 0.85 0.0 0 0 950.78 1003.48
  Q 951.97 1006.99 954.54 1008.00
  Q 984.92 1019.98 1015.21 1031.93
  A 0.87 0.87 0.0 0 1 1015.27 1033.53
  Q 990.38 1045.52 965.52 1058.01
  Q 962.28 1059.64 961.87 1062.42
  A 1.32 1.30 28.2 0 0 962.21 1063.52
  L 1014.80 1119.47
  A 1.20 1.19 -44.1 0 1 1014.77 1121.13
  Z"
/>
</svg>
