<?xml version="1.0" encoding="utf-8"?>
<svg viewBox="105.258 105.551 243.873 332.755" width="243.873" height="332.755" xmlns="http://www.w3.org/2000/svg">
  <g transform="matrix(0.9999999999999999, 0, 0, 0.9999999999999999, -67.98181899214832, 68.17600234129871)">
    <g transform="matrix(0.1, 0, 0, -0.1, 120.697784, 363.668488)" fill="#000000" stroke="none">
      <path d="M 1018 3070 L 818 1174 L 978.826 1090.554 L 860 1008.451 L 1000 943.774 L 911.405 840.3 L 1725.122 217.367 L 2529 841 L 2438 948 L 2587.395 1006.451 L 2450.592 1091.42 L 2622 1175 L 2433 3069.507 L 2010.282 2638 L 1433 2641 L 1018 3070 Z M 2356 2875 L 2405.386 2274.532 L 2180 2600 L 2356 2875 Z M 1079 2870 L 1250 2600 L 1031.305 2275.72 L 1079 2870 Z M 1614.511 2059.758 L 1531 1685 L 1644 1570 L 1789 1570 L 1912 1685 L 1821.236 2060.639 L 2066.887 2436.169 L 2359.447 1971.486 L 2430 1979 L 2265.071 1689.042 L 2083.451 1642.958 L 1917.973 1336.626 L 1929.595 1320.548 L 2096.088 1631.319 L 2264.472 1672.438 L 2352.097 1223.91 L 2174.154 1090.353 L 2310.474 1006.064 L 2215 942 L 2310 839.62 L 1735.778 259.772 L 1728.612 1317.981 L 1929.68 1320.447 L 1918.147 1336.835 L 1538.47 1337.141 L 1330.466 1644.223 L 1320.316 1634.482 L 1531.958 1318.918 L 1707.694 1317.716 L 1714.528 259.925 L 1119.113 843.282 L 1210 943 L 1106 1008 L 1232.775 1087.297 L 1078 1225 L 1159.835 1671.356 L 1320.325 1634.523 L 1330.577 1644.173 L 1162.796 1684.512 L 1000 1977 L 1075.231 1973.79 L 1362 2444 L 1614.511 2059.758 Z" style="stroke-miterlimit: 6; paint-order: fill;"/>
      <g/>
      <path d="M 2355.978 2874.892 L 2405.364 2274.424 L 2179.978 2599.892 L 2355.978 2874.892 Z M 1078.978 2869.892 L 1249.978 2599.892 L 1031.283 2275.612 L 1078.978 2869.892 Z M 1614.489 2059.65 L 1530.978 1684.892 L 1643.978 1569.892 L 1788.978 1569.892 L 1911.978 1684.892 L 1821.214 2060.531 L 2066.865 2436.061 L 2359.425 1971.378 L 2429.978 1978.892 L 2265.049 1688.934 L 2083.429 1642.85 L 1917.951 1336.518 L 1929.573 1320.44 L 2096.066 1631.211 L 2264.45 1672.33 L 2352.075 1223.802 L 2174.132 1090.245 L 2310.452 1005.956 L 2214.978 941.892 L 2309.978 839.512 L 1735.756 259.664 L 1728.59 1317.873 L 1929.658 1320.339 L 1918.125 1336.727 L 1538.448 1337.033 L 1330.444 1644.115 L 1320.294 1634.374 L 1531.936 1318.81 L 1707.672 1317.608 L 1714.506 259.817 L 1119.091 843.174 L 1209.978 942.892 L 1105.978 1007.892 L 1232.753 1087.189 L 1077.978 1224.892 L 1159.813 1671.248 L 1320.303 1634.415 L 1330.555 1644.065 L 1162.774 1684.404 L 999.978 1976.892 L 1075.209 1973.682 L 1361.978 2443.892 L 1614.489 2059.65 Z" style="stroke-miterlimit: 6; paint-order: fill; fill: rgb(255, 255, 255);"/>
    </g>
  </g>
</svg>