<?xml version="1.0" encoding="UTF-8" standalone="no"?>
<!DOCTYPE svg PUBLIC "-//W3C//DTD SVG 1.1//EN" "http://www.w3.org/Graphics/SVG/1.1/DTD/svg11.dtd">
<svg xmlns="http://www.w3.org/2000/svg" version="1.1" viewBox="0.00 0.00 1448.00 1448.00">
<g stroke-width="2.00" fill="none" stroke-linecap="butt">
<path stroke="#006a74" vector-effect="non-scaling-stroke" d="
  M 417.25 983.52
  A 0.43 0.43 0.0 0 1 417.27 984.27
  L 363.72 1016.45
  A 3.34 3.33 -52.4 0 0 364.50 1022.51
  L 425.21 1040.23
  Q 426.40 1040.58 425.50 1041.43
  Q 405.21 1060.59 384.62 1080.38
  Q 380.72 1084.13 384.78 1087.23
  Q 551.90 1214.57 719.04 1341.90
  C 720.29 1342.86 721.91 1344.56 723.54 1345.68
  A 0.78 0.77 43.5 0 0 724.44 1345.66
  C 726.58 1344.06 728.62 1341.87 730.49 1340.45
  Q 896.89 1213.66 1062.86 1086.98
  A 4.22 4.21 -41.9 0 0 1063.22 1080.58
  L 1021.86 1041.00
  A 0.38 0.38 0.0 0 1 1022.02 1040.36
  L 1083.44 1022.31
  A 3.12 3.12 0.0 0 0 1084.17 1016.65
  L 1030.65 984.39
  A 0.56 0.56 0.0 0 1 1030.67 983.42
  L 1103.29 944.27
  A 0.92 0.91 75.9 0 0 1103.78 943.44
  Q 1103.76 941.96 1103.49 939.50
  C 1095.86 869.89 1086.88 783.00 1077.21 689.75
  Q 1049.39 421.73 1021.31 153.74
  Q 1021.12 151.94 1019.36 151.57
  C 1017.29 151.14 1015.61 153.12 1014.27 154.53
  Q 973.14 197.84 842.92 334.51
  C 840.67 336.87 838.46 337.26 835.44 337.29
  C 787.57 337.75 730.51 339.70 673.83 338.43
  Q 641.58 337.71 609.50 337.27
  A 4.86 4.83 -21.2 0 1 606.06 335.77
  Q 523.64 249.25 440.61 162.13
  Q 435.92 157.21 431.01 152.48
  C 428.93 150.48 426.45 152.48 426.22 154.75
  Q 385.11 547.98 344.17 941.85
  Q 343.94 944.07 345.91 945.12
  L 417.25 983.52"
/>
<path stroke="#808080" vector-effect="non-scaling-stroke" d="
  M 1012.18 497.21
  A 0.32 0.32 0.0 0 0 1012.57 497.08
  L 1012.77 496.75
  Q 1012.94 496.45 1012.89 496.11
  Q 1012.35 492.57 1012.04 489.00
  Q 1000.96 362.03 991.06 234.97
  C 990.96 233.71 991.15 232.44 990.35 231.25
  A 0.65 0.65 0.0 0 0 989.26 231.27
  L 913.35 349.04
  A 2.07 2.06 -45.6 0 0 913.37 351.30
  Q 962.17 424.12 1011.07 496.44
  Q 1011.38 496.90 1012.18 497.21"
/>
<path stroke="#808080" vector-effect="non-scaling-stroke" d="
  M 454.08 234.25
  C 453.47 235.62 453.56 236.37 453.46 237.71
  Q 444.21 363.04 434.91 488.37
  C 434.69 491.35 434.24 494.87 434.59 497.90
  Q 434.82 499.93 435.93 498.22
  L 530.70 351.75
  A 2.42 2.42 0.0 0 0 530.69 349.09
  L 455.10 234.17
  A 0.59 0.58 -49.4 0 0 454.08 234.25"
/>
<path stroke="#808080" vector-effect="non-scaling-stroke" d="
  M 687.24 776.52
  Q 666.96 755.55 646.13 735.12
  Q 644.42 733.45 644.93 731.19
  Q 661.88 655.15 678.72 579.09
  C 679.12 577.29 679.48 575.48 678.51 574.00
  Q 626.59 495.49 574.32 416.48
  A 1.29 1.28 44.4 0 0 572.16 416.50
  L 447.76 614.40
  Q 446.78 615.96 445.05 615.31
  L 422.03 606.69
  Q 421.25 606.40 421.25 607.23
  Q 421.25 607.38 421.24 607.52
  A 1.20 1.16 30.0 0 0 421.46 608.29
  L 510.78 729.95
  A 0.93 0.88 80.3 0 0 511.18 730.25
  L 566.10 749.40
  A 5.96 5.95 -5.8 0 1 569.25 751.96
  L 648.42 882.85
  Q 648.76 883.40 649.40 883.41
  Q 723.34 884.07 797.28 883.42
  Q 797.74 883.41 797.97 883.02
  L 874.87 753.20
  Q 875.13 752.76 875.61 752.59
  L 935.80 731.06
  A 3.11 3.09 -82.1 0 0 937.30 729.92
  Q 980.63 668.61 1024.01 607.24
  Q 1024.71 606.24 1024.76 605.22
  A 0.74 0.73 -9.3 0 0 1023.75 604.50
  L 1002.52 612.76
  A 2.38 2.38 0.0 0 1 999.66 611.85
  L 872.30 416.92
  A 1.35 1.35 0.0 0 0 870.04 416.92
  L 765.57 577.32
  Q 765.27 577.79 765.40 578.32
  L 802.84 731.38
  A 1.52 1.51 61.3 0 1 802.42 732.82
  L 754.13 779.38
  Q 753.83 779.66 753.33 779.66
  L 690.67 779.76
  A 1.13 1.13 0.0 0 1 689.80 779.35
  Q 688.54 777.86 687.24 776.52"
/>
<path stroke="#808080" vector-effect="non-scaling-stroke" d="
  M 473.20 1087.66
  C 489.37 1104.69 505.68 1121.26 521.81 1137.79
  Q 598.39 1216.26 675.07 1294.64
  C 682.95 1302.69 689.66 1311.82 698.23 1318.95
  Q 709.16 1328.04 720.62 1336.05
  A 1.04 1.04 0.0 0 0 722.25 1335.19
  L 722.25 888.50
  Q 722.25 888.00 721.75 888.00
  L 647.49 888.00
  A 1.30 1.30 0.0 0 1 646.38 887.38
  L 565.59 754.05
  Q 565.30 753.59 564.79 753.41
  L 510.91 734.31
  Q 509.14 733.69 508.63 735.49
  L 456.07 922.30
  A 2.83 2.82 29.1 0 0 456.88 925.13
  Q 489.03 954.57 520.54 983.20
  Q 524.40 986.70 527.19 989.98
  A 2.28 2.27 60.1 0 1 526.22 993.60
  L 468.41 1014.22
  A 0.85 0.84 -32.3 0 0 468.09 1015.61
  Q 468.63 1016.14 469.60 1016.62
  Q 491.39 1027.37 513.94 1038.36
  A 3.09 3.09 0.0 0 1 514.78 1043.31
  L 473.22 1085.56
  A 1.51 1.51 0.0 0 0 473.20 1087.66"
/>
<path stroke="#808080" vector-effect="non-scaling-stroke" d="
  M 919.07 988.78
  L 987.70 926.44
  A 2.70 2.67 61.4 0 0 988.48 923.75
  L 936.77 736.49
  A 1.19 1.19 0.0 0 0 935.22 735.68
  L 878.28 756.04
  Q 877.76 756.23 877.49 756.70
  L 801.35 885.54
  A 5.01 5.00 15.2 0 1 797.04 888.00
  L 725.75 888.00
  Q 725.25 888.00 725.25 888.50
  L 725.25 1335.24
  A 1.12 1.12 0.0 0 0 726.98 1336.18
  C 734.82 1331.06 741.35 1325.74 748.29 1318.48
  C 764.07 1301.94 780.51 1286.19 796.54 1269.91
  Q 884.80 1180.29 973.14 1091.92
  A 2.58 2.58 0.0 0 0 973.20 1088.33
  L 929.26 1041.71
  A 2.69 2.69 0.0 0 1 930.03 1037.45
  L 974.10 1015.58
  A 1.07 1.07 0.0 0 0 974.02 1013.63
  Q 948.81 1003.58 923.52 993.68
  Q 919.98 992.30 918.90 989.52
  Q 918.73 989.09 919.07 988.78"
/>
</g>
<path fill="#00d3e7" d="
  M 873.44 28.85
  C 1107.29 78.35 1300.06 242.90 1386.49 464.89
  Q 1438.96 599.67 1435.01 744.26
  C 1424.33 1135.26 1100.25 1444.11 708.26 1434.93
  C 694.08 1434.60 680.42 1434.24 665.81 1433.00
  Q 618.70 1428.97 572.43 1419.22
  C 570.88 1418.90 569.38 1418.26 567.77 1417.91
  C 445.46 1391.21 333.16 1331.38 241.49 1247.15
  C 136.56 1150.73 64.66 1025.25 31.75 887.00
  C 25.52 860.84 21.12 833.96 17.94 807.26
  Q 13.93 773.52 13.65 747.25
  C 13.62 745.23 13.32 743.43 13.30 742.09
  C 12.45 680.55 17.81 618.97 32.21 559.43
  Q 75.85 378.96 200.36 242.50
  C 286.37 148.24 398.60 78.96 519.78 42.81
  C 626.37 11.02 741.78 4.33 852.65 24.73
  Q 863.08 26.65 873.44 28.85
  Z
  M 417.25 983.52
  A 0.43 0.43 0.0 0 1 417.27 984.27
  L 363.72 1016.45
  A 3.34 3.33 -52.4 0 0 364.50 1022.51
  L 425.21 1040.23
  Q 426.40 1040.58 425.50 1041.43
  Q 405.21 1060.59 384.62 1080.38
  Q 380.72 1084.13 384.78 1087.23
  Q 551.90 1214.57 719.04 1341.90
  C 720.29 1342.86 721.91 1344.56 723.54 1345.68
  A 0.78 0.77 43.5 0 0 724.44 1345.66
  C 726.58 1344.06 728.62 1341.87 730.49 1340.45
  Q 896.89 1213.66 1062.86 1086.98
  A 4.22 4.21 -41.9 0 0 1063.22 1080.58
  L 1021.86 1041.00
  A 0.38 0.38 0.0 0 1 1022.02 1040.36
  L 1083.44 1022.31
  A 3.12 3.12 0.0 0 0 1084.17 1016.65
  L 1030.65 984.39
  A 0.56 0.56 0.0 0 1 1030.67 983.42
  L 1103.29 944.27
  A 0.92 0.91 75.9 0 0 1103.78 943.44
  Q 1103.76 941.96 1103.49 939.50
  C 1095.86 869.89 1086.88 783.00 1077.21 689.75
  Q 1049.39 421.73 1021.31 153.74
  Q 1021.12 151.94 1019.36 151.57
  C 1017.29 151.14 1015.61 153.12 1014.27 154.53
  Q 973.14 197.84 842.92 334.51
  C 840.67 336.87 838.46 337.26 835.44 337.29
  C 787.57 337.75 730.51 339.70 673.83 338.43
  Q 641.58 337.71 609.50 337.27
  A 4.86 4.83 -21.2 0 1 606.06 335.77
  Q 523.64 249.25 440.61 162.13
  Q 435.92 157.21 431.01 152.48
  C 428.93 150.48 426.45 152.48 426.22 154.75
  Q 385.11 547.98 344.17 941.85
  Q 343.94 944.07 345.91 945.12
  L 417.25 983.52
  Z"
/>
<path fill="#000000" d="
  M 417.25 983.52
  L 345.91 945.12
  Q 343.94 944.07 344.17 941.85
  Q 385.11 547.98 426.22 154.75
  C 426.45 152.48 428.93 150.48 431.01 152.48
  Q 435.92 157.21 440.61 162.13
  Q 523.64 249.25 606.06 335.77
  A 4.86 4.83 -21.2 0 0 609.50 337.27
  Q 641.58 337.71 673.83 338.43
  C 730.51 339.70 787.57 337.75 835.44 337.29
  C 838.46 337.26 840.67 336.87 842.92 334.51
  Q 973.14 197.84 1014.27 154.53
  C 1015.61 153.12 1017.29 151.14 1019.36 151.57
  Q 1021.12 151.94 1021.31 153.74
  Q 1049.39 421.73 1077.21 689.75
  C 1086.88 783.00 1095.86 869.89 1103.49 939.50
  Q 1103.76 941.96 1103.78 943.44
  A 0.92 0.91 75.9 0 1 1103.29 944.27
  L 1030.67 983.42
  A 0.56 0.56 0.0 0 0 1030.65 984.39
  L 1084.17 1016.65
  A 3.12 3.12 0.0 0 1 1083.44 1022.31
  L 1022.02 1040.36
  A 0.38 0.38 0.0 0 0 1021.86 1041.00
  L 1063.22 1080.58
  A 4.22 4.21 -41.9 0 1 1062.86 1086.98
  Q 896.89 1213.66 730.49 1340.45
  C 728.62 1341.87 726.58 1344.06 724.44 1345.66
  A 0.78 0.77 43.5 0 1 723.54 1345.68
  C 721.91 1344.56 720.29 1342.86 719.04 1341.90
  Q 551.90 1214.57 384.78 1087.23
  Q 380.72 1084.13 384.62 1080.38
  Q 405.21 1060.59 425.50 1041.43
  Q 426.40 1040.58 425.21 1040.23
  L 364.50 1022.51
  A 3.34 3.33 -52.4 0 1 363.72 1016.45
  L 417.27 984.27
  A 0.43 0.43 0.0 0 0 417.25 983.52
  Z
  M 1012.18 497.21
  A 0.32 0.32 0.0 0 0 1012.57 497.08
  L 1012.77 496.75
  Q 1012.94 496.45 1012.89 496.11
  Q 1012.35 492.57 1012.04 489.00
  Q 1000.96 362.03 991.06 234.97
  C 990.96 233.71 991.15 232.44 990.35 231.25
  A 0.65 0.65 0.0 0 0 989.26 231.27
  L 913.35 349.04
  A 2.07 2.06 -45.6 0 0 913.37 351.30
  Q 962.17 424.12 1011.07 496.44
  Q 1011.38 496.90 1012.18 497.21
  Z
  M 454.08 234.25
  C 453.47 235.62 453.56 236.37 453.46 237.71
  Q 444.21 363.04 434.91 488.37
  C 434.69 491.35 434.24 494.87 434.59 497.90
  Q 434.82 499.93 435.93 498.22
  L 530.70 351.75
  A 2.42 2.42 0.0 0 0 530.69 349.09
  L 455.10 234.17
  A 0.59 0.58 -49.4 0 0 454.08 234.25
  Z
  M 687.24 776.52
  Q 666.96 755.55 646.13 735.12
  Q 644.42 733.45 644.93 731.19
  Q 661.88 655.15 678.72 579.09
  C 679.12 577.29 679.48 575.48 678.51 574.00
  Q 626.59 495.49 574.32 416.48
  A 1.29 1.28 44.4 0 0 572.16 416.50
  L 447.76 614.40
  Q 446.78 615.96 445.05 615.31
  L 422.03 606.69
  Q 421.25 606.40 421.25 607.23
  Q 421.25 607.38 421.24 607.52
  A 1.20 1.16 30.0 0 0 421.46 608.29
  L 510.78 729.95
  A 0.93 0.88 80.3 0 0 511.18 730.25
  L 566.10 749.40
  A 5.96 5.95 -5.8 0 1 569.25 751.96
  L 648.42 882.85
  Q 648.76 883.40 649.40 883.41
  Q 723.34 884.07 797.28 883.42
  Q 797.74 883.41 797.97 883.02
  L 874.87 753.20
  Q 875.13 752.76 875.61 752.59
  L 935.80 731.06
  A 3.11 3.09 -82.1 0 0 937.30 729.92
  Q 980.63 668.61 1024.01 607.24
  Q 1024.71 606.24 1024.76 605.22
  A 0.74 0.73 -9.3 0 0 1023.75 604.50
  L 1002.52 612.76
  A 2.38 2.38 0.0 0 1 999.66 611.85
  L 872.30 416.92
  A 1.35 1.35 0.0 0 0 870.04 416.92
  L 765.57 577.32
  Q 765.27 577.79 765.40 578.32
  L 802.84 731.38
  A 1.52 1.51 61.3 0 1 802.42 732.82
  L 754.13 779.38
  Q 753.83 779.66 753.33 779.66
  L 690.67 779.76
  A 1.13 1.13 0.0 0 1 689.80 779.35
  Q 688.54 777.86 687.24 776.52
  Z
  M 473.20 1087.66
  C 489.37 1104.69 505.68 1121.26 521.81 1137.79
  Q 598.39 1216.26 675.07 1294.64
  C 682.95 1302.69 689.66 1311.82 698.23 1318.95
  Q 709.16 1328.04 720.62 1336.05
  A 1.04 1.04 0.0 0 0 722.25 1335.19
  L 722.25 888.50
  Q 722.25 888.00 721.75 888.00
  L 647.49 888.00
  A 1.30 1.30 0.0 0 1 646.38 887.38
  L 565.59 754.05
  Q 565.30 753.59 564.79 753.41
  L 510.91 734.31
  Q 509.14 733.69 508.63 735.49
  L 456.07 922.30
  A 2.83 2.82 29.1 0 0 456.88 925.13
  Q 489.03 954.57 520.54 983.20
  Q 524.40 986.70 527.19 989.98
  A 2.28 2.27 60.1 0 1 526.22 993.60
  L 468.41 1014.22
  A 0.85 0.84 -32.3 0 0 468.09 1015.61
  Q 468.63 1016.14 469.60 1016.62
  Q 491.39 1027.37 513.94 1038.36
  A 3.09 3.09 0.0 0 1 514.78 1043.31
  L 473.22 1085.56
  A 1.51 1.51 0.0 0 0 473.20 1087.66
  Z
  M 919.07 988.78
  L 987.70 926.44
  A 2.70 2.67 61.4 0 0 988.48 923.75
  L 936.77 736.49
  A 1.19 1.19 0.0 0 0 935.22 735.68
  L 878.28 756.04
  Q 877.76 756.23 877.49 756.70
  L 801.35 885.54
  A 5.01 5.00 15.2 0 1 797.04 888.00
  L 725.75 888.00
  Q 725.25 888.00 725.25 888.50
  L 725.25 1335.24
  A 1.12 1.12 0.0 0 0 726.98 1336.18
  C 734.82 1331.06 741.35 1325.74 748.29 1318.48
  C 764.07 1301.94 780.51 1286.19 796.54 1269.91
  Q 884.80 1180.29 973.14 1091.92
  A 2.58 2.58 0.0 0 0 973.20 1088.33
  L 929.26 1041.71
  A 2.69 2.69 0.0 0 1 930.03 1037.45
  L 974.10 1015.58
  A 1.07 1.07 0.0 0 0 974.02 1013.63
  Q 948.81 1003.58 923.52 993.68
  Q 919.98 992.30 918.90 989.52
  Q 918.73 989.09 919.07 988.78
  Z"
/>
<path fill="#ffffff" d="
  M 1012.18 497.21
  Q 1011.38 496.90 1011.07 496.44
  Q 962.17 424.12 913.37 351.30
  A 2.07 2.06 -45.6 0 1 913.35 349.04
  L 989.26 231.27
  A 0.65 0.65 0.0 0 1 990.35 231.25
  C 991.15 232.44 990.96 233.71 991.06 234.97
  Q 1000.96 362.03 1012.04 489.00
  Q 1012.35 492.57 1012.89 496.11
  Q 1012.94 496.45 1012.77 496.75
  L 1012.57 497.08
  A 0.32 0.32 0.0 0 1 1012.18 497.21
  Z"
/>
<path fill="#ffffff" d="
  M 454.08 234.25
  A 0.59 0.58 -49.4 0 1 455.10 234.17
  L 530.69 349.09
  A 2.42 2.42 0.0 0 1 530.70 351.75
  L 435.93 498.22
  Q 434.82 499.93 434.59 497.90
  C 434.24 494.87 434.69 491.35 434.91 488.37
  Q 444.21 363.04 453.46 237.71
  C 453.56 236.37 453.47 235.62 454.08 234.25
  Z"
/>
<path fill="#ffffff" d="
  M 687.24 776.52
  Q 688.54 777.86 689.80 779.35
  A 1.13 1.13 0.0 0 0 690.67 779.76
  L 753.33 779.66
  Q 753.83 779.66 754.13 779.38
  L 802.42 732.82
  A 1.52 1.51 61.3 0 0 802.84 731.38
  L 765.40 578.32
  Q 765.27 577.79 765.57 577.32
  L 870.04 416.92
  A 1.35 1.35 0.0 0 1 872.30 416.92
  L 999.66 611.85
  A 2.38 2.38 0.0 0 0 1002.52 612.76
  L 1023.75 604.50
  A 0.74 0.73 -9.3 0 1 1024.76 605.22
  Q 1024.71 606.24 1024.01 607.24
  Q 980.63 668.61 937.30 729.92
  A 3.11 3.09 -82.1 0 1 935.80 731.06
  L 875.61 752.59
  Q 875.13 752.76 874.87 753.20
  L 797.97 883.02
  Q 797.74 883.41 797.28 883.42
  Q 723.34 884.07 649.40 883.41
  Q 648.76 883.40 648.42 882.85
  L 569.25 751.96
  A 5.96 5.95 -5.8 0 0 566.10 749.40
  L 511.18 730.25
  A 0.93 0.88 80.3 0 1 510.78 729.95
  L 421.46 608.29
  A 1.20 1.16 30.0 0 1 421.24 607.52
  Q 421.25 607.38 421.25 607.23
  Q 421.25 606.40 422.03 606.69
  L 445.05 615.31
  Q 446.78 615.96 447.76 614.40
  L 572.16 416.50
  A 1.29 1.28 44.4 0 1 574.32 416.48
  Q 626.59 495.49 678.51 574.00
  C 679.48 575.48 679.12 577.29 678.72 579.09
  Q 661.88 655.15 644.93 731.19
  Q 644.42 733.45 646.13 735.12
  Q 666.96 755.55 687.24 776.52
  Z"
/>
<path fill="#ffffff" d="
  M 521.81 1137.79
  C 505.68 1121.26 489.37 1104.69 473.20 1087.66
  A 1.51 1.51 0.0 0 1 473.22 1085.56
  L 514.78 1043.31
  A 3.09 3.09 0.0 0 0 513.94 1038.36
  Q 491.39 1027.37 469.60 1016.62
  Q 468.63 1016.14 468.09 1015.61
  A 0.85 0.84 -32.3 0 1 468.41 1014.22
  L 526.22 993.60
  A 2.28 2.27 60.1 0 0 527.19 989.98
  Q 524.40 986.70 520.54 983.20
  Q 489.03 954.57 456.88 925.13
  A 2.83 2.82 29.1 0 1 456.07 922.30
  L 508.63 735.49
  Q 509.14 733.69 510.91 734.31
  L 564.79 753.41
  Q 565.30 753.59 565.59 754.05
  L 646.38 887.38
  A 1.30 1.30 0.0 0 0 647.49 888.00
  L 721.75 888.00
  Q 722.25 888.00 722.25 888.50
  L 722.25 1335.19
  A 1.04 1.04 0.0 0 1 720.62 1336.05
  Q 709.16 1328.04 698.23 1318.95
  C 689.66 1311.82 682.95 1302.69 675.07 1294.64
  Q 598.39 1216.26 521.81 1137.79
  Z"
/>
<path fill="#ffffff" d="
  M 918.90 989.52
  Q 919.98 992.30 923.52 993.68
  Q 948.81 1003.58 974.02 1013.63
  A 1.07 1.07 0.0 0 1 974.10 1015.58
  L 930.03 1037.45
  A 2.69 2.69 0.0 0 0 929.26 1041.71
  L 973.20 1088.33
  A 2.58 2.58 0.0 0 1 973.14 1091.92
  Q 884.80 1180.29 796.54 1269.91
  C 780.51 1286.19 764.07 1301.94 748.29 1318.48
  C 741.35 1325.74 734.82 1331.06 726.98 1336.18
  A 1.12 1.12 0.0 0 1 725.25 1335.24
  L 725.25 888.50
  Q 725.25 888.00 725.75 888.00
  L 797.04 888.00
  A 5.01 5.00 15.2 0 0 801.35 885.54
  L 877.49 756.70
  Q 877.76 756.23 878.28 756.04
  L 935.22 735.68
  A 1.19 1.19 0.0 0 1 936.77 736.49
  L 988.48 923.75
  A 2.70 2.67 61.4 0 1 987.70 926.44
  L 919.07 988.78
  Q 918.73 989.09 918.90 989.52
  Z"
/>
</svg>
