<?xml version="1.0" encoding="UTF-8" standalone="no"?>
<!DOCTYPE svg PUBLIC "-//W3C//DTD SVG 1.1//EN" "http://www.w3.org/Graphics/SVG/1.1/DTD/svg11.dtd">
<svg xmlns="http://www.w3.org/2000/svg" version="1.1" viewBox="0.00 0.00 512.00 512.00">
<g stroke-width="2.00" fill="none" stroke-linecap="butt">
<path stroke="#820021" vector-effect="non-scaling-stroke" d="
  M 439.57 183.69
  L 433.97 192.04"
/>
<path stroke="#a84f11" vector-effect="non-scaling-stroke" d="
  M 433.97 192.04
  C 426.36 197.16 418.34 189.95 423.09 183.13
  Q 432.16 170.11 434.94 155.36
  C 435.69 151.33 437.85 148.22 442.00 148.24
  Q 451.23 148.28 460.50 148.24
  Q 461.00 148.23 461.00 147.73
  L 461.00 141.01
  Q 461.00 140.50 460.48 140.50
  Q 451.60 140.51 442.73 140.47
  C 438.15 140.45 435.87 138.23 435.00 133.66
  Q 432.14 118.65 423.46 106.10
  C 420.75 102.19 421.52 99.26 424.76 95.86
  Q 430.70 89.64 436.86 83.54
  Q 437.22 83.18 436.86 82.81
  L 432.19 78.09
  A 0.61 0.61 0.0 0 0 431.31 78.11
  Q 424.74 85.18 417.51 91.77
  C 415.14 93.94 411.56 93.34 408.87 91.48
  Q 396.02 82.63 380.60 79.88
  C 376.14 79.08 374.51 76.07 374.51 71.61
  Q 374.50 63.07 374.50 54.53
  Q 374.50 54.01 373.98 54.02
  L 370.54 54.03"
/>
<path stroke="#a86a11" vector-effect="non-scaling-stroke" d="
  M 370.54 54.03
  L 367.28 54.02
  Q 366.76 54.02 366.76 54.54
  Q 366.74 63.51 366.75 72.52
  C 366.75 77.03 363.92 79.21 359.52 80.06
  C 348.72 82.16 341.10 86.18 331.74 91.83
  C 328.76 93.63 325.35 93.67 322.95 91.28
  Q 316.44 84.81 309.84 78.22
  A 0.57 0.57 0.0 0 0 309.04 78.22
  L 299.07 88.23"
/>
<path stroke="#d94f32" vector-effect="non-scaling-stroke" d="
  M 433.97 192.04
  L 439.67 197.53"
/>
<path stroke="#a84f11" vector-effect="non-scaling-stroke" d="
  M 442.35 200.36
  L 432.08 210.69
  Q 431.69 211.08 431.30 210.69
  Q 425.07 204.39 418.74 198.20
  C 416.16 195.69 412.65 194.67 409.70 196.67
  Q 395.62 206.21 380.91 208.87
  C 376.27 209.71 374.53 212.55 374.52 217.26
  Q 374.49 225.73 374.50 234.22
  Q 374.50 234.74 373.98 234.74
  L 370.72 234.73"
/>
<path stroke="#a84f11" vector-effect="non-scaling-stroke" d="
  M 370.62 186.59
  C 401.85 186.02 422.33 154.11 408.30 125.62
  C 401.10 111.01 387.09 102.83 370.45 102.09"
/>
<path stroke="#ffb922" vector-effect="non-scaling-stroke" d="
  M 370.54 54.03
  L 370.45 102.09"
/>
<path stroke="#a86a11" vector-effect="non-scaling-stroke" d="
  M 370.45 102.09
  Q 349.48 103.26 337.75 118.02
  C 315.80 145.67 335.04 186.25 370.62 186.59"
/>
<path stroke="#ffb922" vector-effect="non-scaling-stroke" d="
  M 370.62 186.59
  L 370.72 234.73"
/>
<path stroke="#a86a11" vector-effect="non-scaling-stroke" d="
  M 370.72 234.73
  L 367.26 234.73
  Q 366.74 234.73 366.74 234.22
  Q 366.77 226.18 366.72 218.15
  C 366.70 213.76 365.55 209.82 361.01 208.95
  Q 344.73 205.85 332.69 197.53
  C 328.39 194.55 325.47 195.22 321.71 198.85
  Q 315.72 204.64 309.82 210.64
  Q 309.44 211.04 309.05 210.65
  L 304.29 205.96
  Q 303.89 205.57 304.30 205.18
  Q 314.56 195.40 317.95 191.43
  C 319.97 189.08 319.60 185.54 317.76 182.88
  Q 309.17 170.43 306.24 155.59
  C 305.31 150.85 303.40 148.34 298.50 148.31
  Q 289.64 148.26 280.75 148.23
  Q 280.25 148.23 280.25 147.73
  L 280.25 141.01
  Q 280.25 140.50 280.77 140.50
  Q 289.61 140.51 298.44 140.47
  C 303.46 140.45 305.34 137.88 306.30 133.07
  Q 309.24 118.30 317.77 105.93
  C 322.84 98.56 314.05 91.10 307.41 96.66"
/>
<path stroke="#820021" vector-effect="non-scaling-stroke" d="
  M 439.67 222.94
  C 434.28 228.52 431.03 230.19 424.90 224.02
  Q 418.95 218.04 412.89 212.04
  A 0.73 0.73 0.0 0 0 412.00 211.93
  Q 401.21 218.39 389.01 221.46
  Q 388.53 221.58 388.53 222.08
  Q 388.46 230.93 388.47 239.78
  C 388.49 246.13 386.11 248.72 379.48 248.74
  Q 370.70 248.77 361.91 248.74
  C 355.97 248.72 352.54 246.79 352.74 240.49
  Q 352.92 234.65 352.68 222.06
  Q 352.67 221.58 352.20 221.46
  Q 339.94 218.49 329.17 211.90
  Q 328.75 211.65 328.40 211.99
  Q 321.71 218.64 314.97 225.22
  Q 309.33 230.72 303.70 225.30
  Q 296.66 218.50 289.92 211.37
  C 285.99 207.21 286.22 203.74 290.22 199.52
  Q 296.38 193.03 302.99 186.78
  Q 303.41 186.38 303.11 185.88
  Q 296.55 175.07 293.52 162.78
  Q 293.38 162.23 292.82 162.24
  Q 277.41 162.66 272.06 162.16
  C 265.33 161.52 266.46 154.07 266.18 149.33
  A 0.61 0.60 88.0 0 0 265.58 148.76
  L 241.64 148.76"
/>
<path stroke="#a8212d" vector-effect="non-scaling-stroke" d="
  M 241.64 148.76
  L 51.52 148.76
  A 0.52 0.51 0.0 0 0 51.00 149.27
  L 51.00 397.48
  A 0.52 0.52 0.0 0 0 51.52 398.00
  Q 110.17 398.00 168.92 398.00
  C 174.23 398.00 177.47 399.49 178.09 404.99"
/>
<path stroke="#820021" vector-effect="non-scaling-stroke" d="
  M 439.58 245.40
  C 434.49 245.87 432.60 248.69 432.55 253.75
  Q 431.90 325.38 432.52 396.98
  A 1.00 1.00 0.0 0 1 431.52 397.99
  L 241.71 397.99"
/>
<path stroke="#820021" vector-effect="non-scaling-stroke" d="
  M 241.72 311.85
  Q 266.42 296.25 291.36 280.62
  C 295.36 278.12 298.61 274.41 295.71 269.89
  Q 294.49 267.99 289.57 264.90
  Q 265.23 249.62 241.51 234.62"
/>
<path stroke="#d9214e" vector-effect="non-scaling-stroke" d="
  M 241.64 148.76
  L 241.51 234.62"
/>
<path stroke="#a8212d" vector-effect="non-scaling-stroke" d="
  M 241.51 234.62
  Q 220.22 221.37 199.57 208.42
  Q 196.03 206.20 193.97 206.03
  C 189.56 205.67 186.51 209.43 186.50 213.75
  Q 186.49 273.72 186.51 333.69
  C 186.52 340.12 193.58 342.08 198.45 338.97
  Q 209.11 332.16 241.72 311.85"
/>
<path stroke="#d9214e" vector-effect="non-scaling-stroke" d="
  M 241.72 311.85
  L 241.71 397.99"
/>
<path stroke="#a8212d" vector-effect="non-scaling-stroke" d="
  M 241.71 397.99
  C 235.60 398.01 228.97 396.85 227.75 404.96"
/>
<path stroke="#a8212d" vector-effect="non-scaling-stroke" d="
  M 212.06 404.97
  Q 211.50 399.83 207.16 398.37
  C 204.67 397.53 197.72 397.71 195.62 398.87
  Q 192.38 400.66 191.94 404.98"
/>
<path stroke="#820021" vector-effect="non-scaling-stroke" d="
  M 342.51 141.49
  C 340.75 164.63 365.76 181.35 385.81 168.10
  Q 399.65 158.96 398.67 141.48"
/>
<path stroke="#9e6b58" vector-effect="non-scaling-stroke" d="
  M 241.92 295.11
  L 276.10 273.59
  Q 276.57 273.30 276.10 273.00
  L 241.95 251.54"
/>
<path stroke="#a3766c" vector-effect="non-scaling-stroke" d="
  M 241.95 251.54
  L 200.83 225.69
  A 0.21 0.21 0.0 0 0 200.50 225.87
  L 200.50 320.49
  A 0.35 0.35 0.0 0 0 201.04 320.79
  L 241.92 295.11"
/>
<path stroke="#f1e0c4" vector-effect="non-scaling-stroke" d="
  M 241.95 251.54
  L 241.92 295.11"
/>
<path stroke="#42206d" vector-effect="non-scaling-stroke" d="
  M 107.58 451.00
  C 113.44 450.98 126.24 452.25 130.95 449.99
  C 135.94 447.59 136.49 438.08 131.09 435.36
  C 126.88 433.23 112.77 434.50 107.51 434.50"
/>
<path stroke="#583571" vector-effect="non-scaling-stroke" d="
  M 107.51 434.50
  C 102.39 434.50 86.77 433.20 83.04 435.91
  C 78.68 439.08 78.97 447.35 83.70 449.91
  C 88.10 452.30 102.09 451.00 107.58 451.00"
/>
<path stroke="#4a55de" vector-effect="non-scaling-stroke" d="
  M 107.51 434.50
  L 107.58 451.00"
/>
</g>
<path fill="#500000" d="
  M 439.57 183.69
  L 433.97 192.04
  C 426.36 197.16 418.34 189.95 423.09 183.13
  Q 432.16 170.11 434.94 155.36
  C 435.69 151.33 437.85 148.22 442.00 148.24
  Q 451.23 148.28 460.50 148.24
  Q 461.00 148.23 461.00 147.73
  L 461.00 141.01
  Q 461.00 140.50 460.48 140.50
  Q 451.60 140.51 442.73 140.47
  C 438.15 140.45 435.87 138.23 435.00 133.66
  Q 432.14 118.65 423.46 106.10
  C 420.75 102.19 421.52 99.26 424.76 95.86
  Q 430.70 89.64 436.86 83.54
  Q 437.22 83.18 436.86 82.81
  L 432.19 78.09
  A 0.61 0.61 0.0 0 0 431.31 78.11
  Q 424.74 85.18 417.51 91.77
  C 415.14 93.94 411.56 93.34 408.87 91.48
  Q 396.02 82.63 380.60 79.88
  C 376.14 79.08 374.51 76.07 374.51 71.61
  Q 374.50 63.07 374.50 54.53
  Q 374.50 54.01 373.98 54.02
  L 370.54 54.03
  L 367.28 54.02
  Q 366.76 54.02 366.76 54.54
  Q 366.74 63.51 366.75 72.52
  C 366.75 77.03 363.92 79.21 359.52 80.06
  C 348.72 82.16 341.10 86.18 331.74 91.83
  C 328.76 93.63 325.35 93.67 322.95 91.28
  Q 316.44 84.81 309.84 78.22
  A 0.57 0.57 0.0 0 0 309.04 78.22
  L 299.07 88.23
  Q 293.69 92.37 289.34 88.41
  C 284.80 84.29 287.43 79.93 291.14 76.24
  Q 296.95 70.43 302.75 64.63
  C 306.94 60.43 310.55 59.28 315.03 63.66
  Q 321.69 70.19 328.07 76.70
  Q 328.61 77.25 329.27 76.85
  Q 340.05 70.37 352.29 67.34
  Q 352.75 67.23 352.75 66.75
  Q 352.74 57.64 352.77 48.59
  C 352.79 42.95 355.10 40.06 360.72 40.02
  Q 370.13 39.96 379.55 40.02
  C 385.57 40.06 388.46 42.36 388.48 48.37
  Q 388.50 57.59 388.50 66.79
  Q 388.50 67.27 388.97 67.38
  Q 401.20 70.34 411.94 76.90
  A 0.87 0.87 0.0 0 0 413.03 76.75
  Q 419.19 70.22 425.87 63.87
  C 429.56 60.36 433.30 59.69 437.06 63.30
  Q 447.85 73.67 452.03 78.23
  C 455.54 82.05 454.33 85.89 450.89 89.41
  Q 444.59 95.86 438.16 102.19
  A 0.68 0.67 52.3 0 0 438.06 103.02
  Q 444.61 113.74 447.59 125.97
  Q 447.72 126.49 448.26 126.49
  Q 457.06 126.51 465.78 126.52
  C 471.69 126.53 474.93 128.55 474.98 134.63
  Q 475.04 143.97 474.98 153.31
  C 474.95 159.31 472.72 162.25 466.69 162.24
  Q 457.53 162.21 448.37 162.27
  Q 447.85 162.28 447.72 162.77
  Q 444.71 173.91 439.57 183.69
  Z"
/>
<path fill="#ffd322" d="
  M 370.54 54.03
  L 370.45 102.09
  Q 349.48 103.26 337.75 118.02
  C 315.80 145.67 335.04 186.25 370.62 186.59
  L 370.72 234.73
  L 367.26 234.73
  Q 366.74 234.73 366.74 234.22
  Q 366.77 226.18 366.72 218.15
  C 366.70 213.76 365.55 209.82 361.01 208.95
  Q 344.73 205.85 332.69 197.53
  C 328.39 194.55 325.47 195.22 321.71 198.85
  Q 315.72 204.64 309.82 210.64
  Q 309.44 211.04 309.05 210.65
  L 304.29 205.96
  Q 303.89 205.57 304.30 205.18
  Q 314.56 195.40 317.95 191.43
  C 319.97 189.08 319.60 185.54 317.76 182.88
  Q 309.17 170.43 306.24 155.59
  C 305.31 150.85 303.40 148.34 298.50 148.31
  Q 289.64 148.26 280.75 148.23
  Q 280.25 148.23 280.25 147.73
  L 280.25 141.01
  Q 280.25 140.50 280.77 140.50
  Q 289.61 140.51 298.44 140.47
  C 303.46 140.45 305.34 137.88 306.30 133.07
  Q 309.24 118.30 317.77 105.93
  C 322.84 98.56 314.05 91.10 307.41 96.66
  L 299.07 88.23
  L 309.04 78.22
  A 0.57 0.57 0.0 0 1 309.84 78.22
  Q 316.44 84.81 322.95 91.28
  C 325.35 93.67 328.76 93.63 331.74 91.83
  C 341.10 86.18 348.72 82.16 359.52 80.06
  C 363.92 79.21 366.75 77.03 366.75 72.52
  Q 366.74 63.51 366.76 54.54
  Q 366.76 54.02 367.28 54.02
  L 370.54 54.03
  Z"
/>
<path fill="#ff9e21" d="
  M 370.54 54.03
  L 373.98 54.02
  Q 374.50 54.01 374.50 54.53
  Q 374.50 63.07 374.51 71.61
  C 374.51 76.07 376.14 79.08 380.60 79.88
  Q 396.02 82.63 408.87 91.48
  C 411.56 93.34 415.14 93.94 417.51 91.77
  Q 424.74 85.18 431.31 78.11
  A 0.61 0.61 0.0 0 1 432.19 78.09
  L 436.86 82.81
  Q 437.22 83.18 436.86 83.54
  Q 430.70 89.64 424.76 95.86
  C 421.52 99.26 420.75 102.19 423.46 106.10
  Q 432.14 118.65 435.00 133.66
  C 435.87 138.23 438.15 140.45 442.73 140.47
  Q 451.60 140.51 460.48 140.50
  Q 461.00 140.50 461.00 141.01
  L 461.00 147.73
  Q 461.00 148.23 460.50 148.24
  Q 451.23 148.28 442.00 148.24
  C 437.85 148.22 435.69 151.33 434.94 155.36
  Q 432.16 170.11 423.09 183.13
  C 418.34 189.95 426.36 197.16 433.97 192.04
  L 439.67 197.53
  L 442.35 200.36
  L 432.08 210.69
  Q 431.69 211.08 431.30 210.69
  Q 425.07 204.39 418.74 198.20
  C 416.16 195.69 412.65 194.67 409.70 196.67
  Q 395.62 206.21 380.91 208.87
  C 376.27 209.71 374.53 212.55 374.52 217.26
  Q 374.49 225.73 374.50 234.22
  Q 374.50 234.74 373.98 234.74
  L 370.72 234.73
  L 370.62 186.59
  C 401.85 186.02 422.33 154.11 408.30 125.62
  C 401.10 111.01 387.09 102.83 370.45 102.09
  L 370.54 54.03
  Z"
/>
<path fill="#500000" d="
  M 370.72 234.73
  L 373.98 234.74
  Q 374.50 234.74 374.50 234.22
  Q 374.49 225.73 374.52 217.26
  C 374.53 212.55 376.27 209.71 380.91 208.87
  Q 395.62 206.21 409.70 196.67
  C 412.65 194.67 416.16 195.69 418.74 198.20
  Q 425.07 204.39 431.30 210.69
  Q 431.69 211.08 432.08 210.69
  L 442.35 200.36
  C 450.42 195.40 458.10 204.33 452.31 210.24
  Q 446.03 216.66 439.67 222.94
  C 434.28 228.52 431.03 230.19 424.90 224.02
  Q 418.95 218.04 412.89 212.04
  A 0.73 0.73 0.0 0 0 412.00 211.93
  Q 401.21 218.39 389.01 221.46
  Q 388.53 221.58 388.53 222.08
  Q 388.46 230.93 388.47 239.78
  C 388.49 246.13 386.11 248.72 379.48 248.74
  Q 370.70 248.77 361.91 248.74
  C 355.97 248.72 352.54 246.79 352.74 240.49
  Q 352.92 234.65 352.68 222.06
  Q 352.67 221.58 352.20 221.46
  Q 339.94 218.49 329.17 211.90
  Q 328.75 211.65 328.40 211.99
  Q 321.71 218.64 314.97 225.22
  Q 309.33 230.72 303.70 225.30
  Q 296.66 218.50 289.92 211.37
  C 285.99 207.21 286.22 203.74 290.22 199.52
  Q 296.38 193.03 302.99 186.78
  Q 303.41 186.38 303.11 185.88
  Q 296.55 175.07 293.52 162.78
  Q 293.38 162.23 292.82 162.24
  Q 277.41 162.66 272.06 162.16
  C 265.33 161.52 266.46 154.07 266.18 149.33
  A 0.61 0.60 88.0 0 0 265.58 148.76
  L 241.64 148.76
  L 51.52 148.76
  A 0.52 0.51 0.0 0 0 51.00 149.27
  L 51.00 397.48
  A 0.52 0.52 0.0 0 0 51.52 398.00
  Q 110.17 398.00 168.92 398.00
  C 174.23 398.00 177.47 399.49 178.09 404.99
  Q 177.06 412.00 170.25 412.00
  Q 107.49 412.00 44.75 412.00
  C 38.36 412.00 37.00 407.53 37.00 401.83
  Q 37.00 273.13 37.00 144.44
  C 37.00 139.40 38.31 134.75 44.00 134.75
  Q 154.84 134.75 265.68 134.75
  Q 266.18 134.75 266.19 134.25
  C 266.32 127.20 270.93 126.50 277.06 126.50
  Q 284.96 126.50 292.87 126.50
  Q 293.39 126.50 293.52 125.99
  Q 297.57 109.91 307.41 96.66
  C 314.05 91.10 322.84 98.56 317.77 105.93
  Q 309.24 118.30 306.30 133.07
  C 305.34 137.88 303.46 140.45 298.44 140.47
  Q 289.61 140.51 280.77 140.50
  Q 280.25 140.50 280.25 141.01
  L 280.25 147.73
  Q 280.25 148.23 280.75 148.23
  Q 289.64 148.26 298.50 148.31
  C 303.40 148.34 305.31 150.85 306.24 155.59
  Q 309.17 170.43 317.76 182.88
  C 319.60 185.54 319.97 189.08 317.95 191.43
  Q 314.56 195.40 304.30 205.18
  Q 303.89 205.57 304.29 205.96
  L 309.05 210.65
  Q 309.44 211.04 309.82 210.64
  Q 315.72 204.64 321.71 198.85
  C 325.47 195.22 328.39 194.55 332.69 197.53
  Q 344.73 205.85 361.01 208.95
  C 365.55 209.82 366.70 213.76 366.72 218.15
  Q 366.77 226.18 366.74 234.22
  Q 366.74 234.73 367.26 234.73
  L 370.72 234.73
  Z"
/>
<path fill="#500000" d="
  M 370.45 102.09
  C 387.09 102.83 401.10 111.01 408.30 125.62
  C 422.33 154.11 401.85 186.02 370.62 186.59
  C 335.04 186.25 315.80 145.67 337.75 118.02
  Q 349.48 103.26 370.45 102.09
  Z
  M 342.51 141.49
  C 340.75 164.63 365.76 181.35 385.81 168.10
  Q 399.65 158.96 398.67 141.48
  C 393.71 107.75 347.34 108.10 342.51 141.49
  Z"
/>
<path fill="#b30042" d="
  M 342.51 141.49
  L 398.67 141.48
  Q 399.65 158.96 385.81 168.10
  C 365.76 181.35 340.75 164.63 342.51 141.49
  Z"
/>
<path fill="#ff415a" d="
  M 241.64 148.76
  L 241.51 234.62
  Q 220.22 221.37 199.57 208.42
  Q 196.03 206.20 193.97 206.03
  C 189.56 205.67 186.51 209.43 186.50 213.75
  Q 186.49 273.72 186.51 333.69
  C 186.52 340.12 193.58 342.08 198.45 338.97
  Q 209.11 332.16 241.72 311.85
  L 241.71 397.99
  C 235.60 398.01 228.97 396.85 227.75 404.96
  L 212.06 404.97
  Q 211.50 399.83 207.16 398.37
  C 204.67 397.53 197.72 397.71 195.62 398.87
  Q 192.38 400.66 191.94 404.98
  L 178.09 404.99
  C 177.47 399.49 174.23 398.00 168.92 398.00
  Q 110.17 398.00 51.52 398.00
  A 0.52 0.52 0.0 0 1 51.00 397.48
  L 51.00 149.27
  A 0.52 0.51 -0.0 0 1 51.52 148.76
  L 241.64 148.76
  Z"
/>
<path fill="#b30042" d="
  M 241.64 148.76
  L 265.58 148.76
  A 0.61 0.60 88.0 0 1 266.18 149.33
  C 266.46 154.07 265.33 161.52 272.06 162.16
  Q 277.41 162.66 292.82 162.24
  Q 293.38 162.23 293.52 162.78
  Q 296.55 175.07 303.11 185.88
  Q 303.41 186.38 302.99 186.78
  Q 296.38 193.03 290.22 199.52
  C 286.22 203.74 285.99 207.21 289.92 211.37
  Q 296.66 218.50 303.70 225.30
  Q 309.33 230.72 314.97 225.22
  Q 321.71 218.64 328.40 211.99
  Q 328.75 211.65 329.17 211.90
  Q 339.94 218.49 352.20 221.46
  Q 352.67 221.58 352.68 222.06
  Q 352.92 234.65 352.74 240.49
  C 352.54 246.79 355.97 248.72 361.91 248.74
  Q 370.70 248.77 379.48 248.74
  C 386.11 248.72 388.49 246.13 388.47 239.78
  Q 388.46 230.93 388.53 222.08
  Q 388.53 221.58 389.01 221.46
  Q 401.21 218.39 412.00 211.93
  A 0.73 0.73 0.0 0 1 412.89 212.04
  Q 418.95 218.04 424.90 224.02
  C 431.03 230.19 434.28 228.52 439.67 222.94
  L 439.58 245.40
  C 434.49 245.87 432.60 248.69 432.55 253.75
  Q 431.90 325.38 432.52 396.98
  A 1.00 1.00 0.0 0 1 431.52 397.99
  L 241.71 397.99
  L 241.72 311.85
  Q 266.42 296.25 291.36 280.62
  C 295.36 278.12 298.61 274.41 295.71 269.89
  Q 294.49 267.99 289.57 264.90
  Q 265.23 249.62 241.51 234.62
  L 241.64 148.76
  Z"
/>
<path fill="#b30042" d="
  M 439.57 183.69
  L 439.67 197.53
  L 433.97 192.04
  L 439.57 183.69
  Z"
/>
<path fill="#500000" d="
  M 241.51 234.62
  Q 265.23 249.62 289.57 264.90
  Q 294.49 267.99 295.71 269.89
  C 298.61 274.41 295.36 278.12 291.36 280.62
  Q 266.42 296.25 241.72 311.85
  Q 209.11 332.16 198.45 338.97
  C 193.58 342.08 186.52 340.12 186.51 333.69
  Q 186.49 273.72 186.50 213.75
  C 186.51 209.43 189.56 205.67 193.97 206.03
  Q 196.03 206.20 199.57 208.42
  Q 220.22 221.37 241.51 234.62
  Z
  M 241.92 295.11
  L 276.10 273.59
  Q 276.57 273.30 276.10 273.00
  L 241.95 251.54
  L 200.83 225.69
  A 0.21 0.21 0.0 0 0 200.50 225.87
  L 200.50 320.49
  A 0.35 0.35 0.0 0 0 201.04 320.79
  L 241.92 295.11
  Z"
/>
<path fill="#f6ebd8" d="
  M 241.95 251.54
  L 241.92 295.11
  L 201.04 320.79
  A 0.35 0.35 0.0 0 1 200.50 320.49
  L 200.50 225.87
  A 0.21 0.21 0.0 0 1 200.83 225.69
  L 241.95 251.54
  Z"
/>
<path fill="#500000" d="
  M 439.58 245.40
  Q 446.49 246.55 446.49 253.25
  Q 446.51 328.38 446.49 403.50
  Q 446.49 412.03 437.75 412.03
  Q 336.87 412.00 236.00 412.00
  Q 229.13 412.00 227.75 404.96
  C 228.97 396.85 235.60 398.01 241.71 397.99
  L 431.52 397.99
  A 1.00 1.00 0.0 0 0 432.52 396.98
  Q 431.90 325.38 432.55 253.75
  C 432.60 248.69 434.49 245.87 439.58 245.40
  Z"
/>
<path fill="#ecd5af" d="
  M 241.95 251.54
  L 276.10 273.00
  Q 276.57 273.30 276.10 273.59
  L 241.92 295.11
  L 241.95 251.54
  Z"
/>
<path fill="#500000" d="
  M 212.06 404.97
  C 210.76 414.95 193.13 414.75 191.94 404.98
  Q 192.38 400.66 195.62 398.87
  C 197.72 397.71 204.67 397.53 207.16 398.37
  Q 211.50 399.83 212.06 404.97
  Z"
/>
<path fill="#500000" d="
  M 67.29 434.87
  C 71.54 423.78 79.60 420.53 90.98 420.51
  Q 107.51 420.48 124.03 420.51
  C 135.29 420.53 143.48 423.79 147.59 434.82
  A 1.19 1.18 -10.4 0 0 148.72 435.59
  Q 292.39 435.13 436.30 435.27
  C 440.52 435.27 443.99 435.91 445.81 439.67
  C 448.60 445.44 443.80 449.99 438.16 449.99
  Q 293.70 450.00 148.40 450.00
  A 0.82 0.81 10.5 0 0 147.64 450.52
  C 142.79 462.97 133.97 464.97 121.05 464.99
  Q 108.49 465.00 95.95 465.01
  C 81.98 465.02 72.58 463.88 67.33 450.57
  A 0.99 0.98 -11.2 0 0 66.40 449.95
  Q 56.53 450.00 47.34 450.00
  Q 43.11 450.00 41.30 449.24
  C 33.26 445.86 36.75 435.36 45.56 435.51
  Q 56.05 435.70 66.54 435.40
  Q 67.10 435.38 67.29 434.87
  Z
  M 107.58 451.00
  C 113.44 450.98 126.24 452.25 130.95 449.99
  C 135.94 447.59 136.49 438.08 131.09 435.36
  C 126.88 433.23 112.77 434.50 107.51 434.50
  C 102.39 434.50 86.77 433.20 83.04 435.91
  C 78.68 439.08 78.97 447.35 83.70 449.91
  C 88.10 452.30 102.09 451.00 107.58 451.00
  Z"
/>
<path fill="#5f69e2" d="
  M 107.51 434.50
  L 107.58 451.00
  C 102.09 451.00 88.10 452.30 83.70 449.91
  C 78.97 447.35 78.68 439.08 83.04 435.91
  C 86.77 433.20 102.39 434.50 107.51 434.50
  Z"
/>
<path fill="#3440da" d="
  M 107.51 434.50
  C 112.77 434.50 126.88 433.23 131.09 435.36
  C 136.49 438.08 135.94 447.59 130.95 449.99
  C 126.24 452.25 113.44 450.98 107.58 451.00
  L 107.51 434.50
  Z"
/>
</svg>
