<?xml version="1.0" encoding="UTF-8" standalone="no"?>
<!DOCTYPE svg PUBLIC "-//W3C//DTD SVG 1.1//EN" "http://www.w3.org/Graphics/SVG/1.1/DTD/svg11.dtd">
<svg xmlns="http://www.w3.org/2000/svg" version="1.1" viewBox="0.00 0.00 1024.00 708.00">
  <path stroke="#ff8080" stroke-width="2.00" fill="none" stroke-linecap="butt" vector-effect="non-scaling-stroke" d="
  M 414.04 203.69
  A 0.36 0.36 0.0 0 0 413.50 204.01
  L 413.50 503.99
  A 0.36 0.36 0.0 0 0 414.04 504.31
  L 675.73 354.31
  A 0.36 0.36 0.0 0 0 675.73 353.69
  L 414.04 203.69" />
  <path fill="#008c99" d="
  M 594.32 3.50
  C 675.44 4.92 756.70 6.99 837.57 13.83
  C 862.34 15.93 885.73 18.21 907.37 25.03
  C 948.14 37.89 980.34 70.79 991.50 111.75
  Q 995.70 127.19 999.87 152.77
  Q 1007.80 201.52 1010.92 250.81
  Q 1018.24 366.33 1008.59 481.68
  C 1005.68 516.39 1001.43 551.24 994.48 585.39
  C 983.82 637.70 945.64 676.74 893.24 686.48
  Q 865.47 691.64 831.69 694.69
  C 769.62 700.27 707.23 702.81 644.94 704.18
  Q 483.78 707.73 322.68 701.99
  Q 247.05 699.29 179.50 693.01
  Q 159.71 691.16 132.03 686.81
  Q 81.64 678.87 51.07 639.67
  Q 32.24 615.53 26.09 583.72
  Q 16.57 534.48 12.78 484.44
  Q 4.87 380.09 10.01 272.75
  C 12.48 221.30 16.91 171.46 26.23 123.54
  C 36.41 71.18 74.66 32.60 127.22 22.42
  Q 145.33 18.91 187.06 14.57
  Q 235.88 9.48 306.07 6.70
  Q 450.15 0.98 594.32 3.50
  Z
  M 414.04 203.69
  A 0.36 0.36 0.0 0 0 413.50 204.01
  L 413.50 503.99
  A 0.36 0.36 0.0 0 0 414.04 504.31
  L 675.73 354.31
  A 0.36 0.36 0.0 0 0 675.73 353.69
  L 414.04 203.69
  Z" />
  <path fill="#ffffff" d="
  M 414.04 203.69
  L 675.73 353.69
  A 0.36 0.36 0.0 0 1 675.73 354.31
  L 414.04 504.31
  A 0.36 0.36 0.0 0 1 413.50 503.99
  L 413.50 204.01
  A 0.36 0.36 0.0 0 1 414.04 203.69
  Z" />
</svg>
