<?xml version="1.0" encoding="UTF-8" standalone="no"?>
<!DOCTYPE svg PUBLIC "-//W3C//DTD SVG 1.1//EN" "http://www.w3.org/Graphics/SVG/1.1/DTD/svg11.dtd">
<svg xmlns="http://www.w3.org/2000/svg" version="1.1" viewBox="0.00 0.00 928.00 487.00">
<g stroke-width="2.00" fill="none" stroke-linecap="butt">
<path stroke="#1a3114" vector-effect="non-scaling-stroke" d="
  M 914.29 257.25
  L 903.79 244.50"
/>
<path stroke="#064616" vector-effect="non-scaling-stroke" d="
  M 903.79 244.50
  L 877.94 211.80"
/>
<path stroke="#5c7d54" vector-effect="non-scaling-stroke" d="
  M 877.94 211.80
  Q 877.09 210.71 876.21 209.51
  C 844.72 166.73 812.73 123.91 778.34 83.39
  C 762.47 64.70 744.50 48.47 722.92 36.57
  C 691.18 19.07 651.77 17.77 617.24 28.22
  C 581.28 39.10 548.26 59.62 518.51 82.75
  C 490.72 104.37 462.23 125.37 436.81 149.81
  Q 436.09 150.51 435.21 152.00"
/>
<path stroke="#1a3114" vector-effect="non-scaling-stroke" d="
  M 435.21 152.00
  Q 427.24 155.21 424.54 163.39
  Q 424.38 163.87 424.59 164.34
  Q 425.56 166.42 427.50 167.79"
/>
<path stroke="#1c2412" vector-effect="non-scaling-stroke" d="
  M 427.50 167.79
  Q 427.27 169.03 428.52 170.72
  Q 442.28 189.33 448.75 196.75
  C 458.90 208.41 469.54 218.54 485.80 219.88
  Q 485.96 219.89 490.14 220.41
  C 493.31 220.80 497.21 219.83 499.48 219.57
  C 510.99 218.24 520.53 214.76 533.42 210.98
  C 534.54 210.65 535.57 210.90 536.78 210.27
  C 543.04 206.99 551.11 205.00 557.90 202.83
  Q 558.39 202.67 558.89 202.77
  Q 559.83 202.94 560.41 202.23
  Q 560.75 201.82 561.25 201.64
  Q 577.51 195.84 594.03 190.86
  C 610.45 185.93 626.55 181.26 643.51 178.51
  C 646.06 178.10 650.32 177.98 653.74 176.98
  Q 656.90 176.06 658.27 178.39"
/>
<path stroke="#5c7d54" vector-effect="non-scaling-stroke" d="
  M 658.27 178.39
  C 615.90 182.10 574.70 198.73 534.66 212.11
  C 511.76 219.76 484.96 229.12 463.05 212.69
  C 444.29 198.62 432.64 175.57 416.29 158.53
  C 382.81 123.65 344.77 89.16 298.64 72.07
  C 187.69 30.98 78.52 122.71 14.54 201.53
  Q 14.17 201.99 13.10 202.21"
/>
<path stroke="#6d9265" vector-effect="non-scaling-stroke" d="
  M 658.27 178.39
  Q 670.61 177.43 683.00 178.46"
/>
<path stroke="#5c7d54" vector-effect="non-scaling-stroke" d="
  M 683.00 178.46
  C 728.24 182.80 761.57 211.69 784.75 248.96"
/>
<path stroke="#56c26c" vector-effect="non-scaling-stroke" d="
  M 784.75 248.96
  Q 774.66 252.15 768.89 243.98
  Q 768.62 243.60 768.58 243.13
  Q 768.31 240.17 765.46 239.21
  Q 765.04 239.06 764.74 238.73
  Q 757.11 230.25 749.04 222.17
  C 748.24 221.37 748.23 220.85 748.16 219.78
  Q 748.12 219.27 747.76 218.91
  C 739.39 210.36 726.82 197.38 714.63 196.47
  C 708.96 196.05 706.30 195.62 701.94 193.66
  C 699.20 192.43 697.69 189.70 694.71 188.30
  Q 692.55 187.29 688.12 187.29
  Q 679.16 187.28 670.29 185.77
  Q 669.80 185.68 669.33 185.86
  Q 665.83 187.18 664.24 187.04
  C 654.72 186.20 643.47 186.72 634.73 190.94
  Q 629.82 193.32 627.76 193.51
  C 605.16 195.63 584.07 205.51 563.72 214.83
  Q 558.23 217.34 551.86 219.24
  Q 536.03 223.97 520.58 229.86
  C 513.15 232.69 505.03 233.43 497.27 235.31
  C 484.51 238.39 480.82 234.91 471.17 227.84
  Q 469.85 226.87 467.06 226.69
  C 464.02 226.48 460.12 224.24 457.60 221.84
  Q 446.12 210.93 434.75 199.89
  Q 431.25 196.50 428.96 192.99
  C 425.97 188.42 424.12 183.96 419.95 180.32
  Q 405.60 167.75 392.64 153.79
  C 380.64 140.86 366.75 129.45 353.70 117.58
  C 337.41 102.75 315.95 90.63 297.71 80.52
  Q 292.10 77.41 283.35 75.94
  Q 282.85 75.86 282.45 75.54
  Q 279.44 73.12 276.50 72.74
  C 262.51 70.91 245.95 67.59 229.87 69.16
  C 221.30 70.00 211.19 72.74 201.94 74.73
  Q 190.82 77.13 180.53 82.00
  Q 164.75 89.48 113.89 117.07
  C 108.35 120.08 103.30 123.27 98.81 126.81
  Q 76.68 144.32 53.21 166.00"
/>
<path stroke="#56b46a" vector-effect="non-scaling-stroke" d="
  M 53.21 166.00
  Q 37.82 178.83 27.00 195.71"
/>
<path stroke="#6d9265" vector-effect="non-scaling-stroke" d="
  M 27.00 195.71
  C 24.07 198.37 21.72 200.91 18.22 202.83
  Q 12.77 205.81 7.04 208.25"
/>
<path stroke="#2b4625" vector-effect="non-scaling-stroke" d="
  M 816.13 309.40
  Q 813.70 306.91 813.79 303.50"
/>
<path stroke="#1c2412" vector-effect="non-scaling-stroke" d="
  M 813.79 303.50
  C 817.54 303.65 819.69 305.98 823.02 302.55
  Q 828.31 297.10 823.10 292.35
  Q 822.72 292.00 822.64 291.50
  C 821.34 283.35 817.57 278.57 812.02 272.34
  C 801.40 260.43 797.33 246.08 783.76 236.01
  Q 783.33 235.69 782.79 235.75
  L 778.91 236.17
  Q 778.36 236.22 777.97 235.82
  Q 774.04 231.65 772.31 229.45
  C 750.03 201.32 721.95 181.42 685.50 177.27
  Q 683.25 177.02 683.00 178.46"
/>
<path stroke="#2b4625" vector-effect="non-scaling-stroke" d="
  M 884.00 265.17
  Q 874.47 264.65 865.33 265.46
  Q 861.44 265.81 856.45 267.42
  Q 844.35 271.33 831.77 273.28
  C 828.42 273.79 825.81 274.91 822.78 276.14
  C 820.93 276.90 819.97 276.25 818.89 274.83
  C 817.13 272.52 814.40 270.14 812.69 267.44
  C 792.50 235.59 775.80 210.55 751.03 189.25
  Q 747.08 185.85 742.22 183.28
  C 731.81 177.78 721.74 172.62 710.11 170.09
  Q 709.61 169.98 709.32 169.57
  C 706.19 165.26 698.82 164.20 693.87 163.76
  C 655.80 160.37 621.19 164.53 585.64 177.82
  C 579.01 180.30 572.34 183.72 565.80 186.89
  C 556.44 191.44 547.10 194.19 537.32 197.33
  C 526.63 200.78 514.54 202.20 504.50 204.21
  C 492.96 206.51 476.90 205.15 468.22 196.28
  Q 461.35 189.27 454.45 182.30
  C 454.41 182.26 438.87 169.04 434.73 169.46
  Q 430.83 169.85 427.50 167.79"
/>
<path stroke="#14682a" vector-effect="non-scaling-stroke" d="
  M 903.79 244.50
  Q 900.24 248.47 896.18 245.30
  C 889.14 239.81 881.04 231.18 874.05 224.80
  C 865.41 216.92 857.05 208.76 848.44 200.84
  Q 848.08 200.50 847.58 200.42
  C 833.64 198.13 826.48 191.38 812.97 185.34
  C 808.39 183.29 803.84 181.75 799.97 178.33
  Q 780.93 161.50 758.90 148.81
  C 755.85 147.05 751.50 145.72 748.09 144.97
  Q 716.68 138.00 684.86 142.27
  C 678.25 143.16 671.17 143.09 664.31 144.09
  C 662.63 144.34 661.36 145.55 659.26 145.21
  Q 658.72 145.13 658.24 145.39
  Q 655.16 147.04 651.68 146.74
  Q 651.16 146.69 650.72 146.98
  C 647.37 149.22 645.42 148.58 641.63 148.85
  C 638.56 149.07 635.88 147.84 632.61 148.71
  Q 630.40 149.30 628.84 149.18
  C 622.03 148.67 615.64 149.80 608.89 150.06
  Q 601.62 150.35 595.94 155.13
  Q 595.56 155.45 595.07 155.52
  Q 583.99 157.13 573.17 159.99
  C 570.92 160.59 567.04 161.15 564.97 161.38
  Q 550.34 163.01 536.53 168.26
  Q 528.45 171.34 520.18 173.99
  Q 519.50 174.21 519.36 173.51
  L 519.18 172.61
  Q 518.94 171.39 517.71 171.46
  C 509.31 171.94 501.51 172.50 493.11 171.62
  C 477.22 169.96 460.88 169.20 445.39 164.04
  C 439.88 162.21 434.95 163.03 434.29 155.22
  Q 434.25 154.70 434.67 154.38
  Q 435.17 154.01 435.29 153.50"
/>
<path stroke="#56b46a" vector-effect="non-scaling-stroke" d="
  M 877.94 211.80
  L 875.08 213.97
  Q 874.64 214.30 874.22 213.95
  C 865.61 206.96 858.46 199.62 852.55 189.96
  C 844.63 177.04 834.56 166.66 824.84 155.19
  Q 822.11 151.97 819.41 147.28
  C 805.47 123.07 783.56 104.74 765.43 84.85
  C 753.41 71.67 740.45 61.11 728.05 49.19"
/>
<path stroke="#56c26c" vector-effect="non-scaling-stroke" d="
  M 728.05 49.19
  Q 691.25 20.81 645.92 29.09
  C 639.31 30.29 630.90 32.66 623.44 34.48
  C 600.32 40.13 580.44 48.34 561.25 62.71"
/>
<path stroke="#56b46a" vector-effect="non-scaling-stroke" d="
  M 561.25 62.71
  C 519.92 91.31 482.89 120.77 442.58 153.09
  Q 439.25 155.75 435.29 153.50"
/>
<path stroke="#6a9f67" vector-effect="non-scaling-stroke" d="
  M 435.29 153.50
  L 435.21 152.00"
/>
<path stroke="#1c2412" vector-effect="non-scaling-stroke" d="
  M 600.71 435.19
  L 597.95 429.89
  Q 597.65 429.31 597.01 429.44
  C 586.52 431.67 577.34 434.49 567.47 439.82
  Q 538.02 455.71 508.26 470.89
  Q 507.76 471.15 507.27 470.88
  C 498.24 466.05 488.39 462.92 479.78 457.94
  Q 466.02 449.97 452.40 441.75
  Q 451.99 441.50 451.50 441.50
  L 443.43 441.50
  Q 442.89 441.50 442.42 441.22
  Q 424.96 430.79 407.67 420.09
  Q 404.98 418.42 403.52 416.46
  C 399.76 411.38 395.13 410.86 390.54 407.57
  Q 386.41 404.61 381.30 399.95
  C 376.82 395.86 369.64 393.37 365.66 391.31
  Q 360.85 388.82 356.06 386.30
  C 351.73 384.02 346.77 382.40 342.16 380.25
  C 334.37 376.63 328.77 370.12 321.46 365.57
  Q 311.26 359.21 291.27 347.22
  C 285.54 343.79 278.70 341.08 274.39 338.95
  Q 251.33 327.56 229.56 313.88
  Q 222.62 309.52 215.46 305.58
  C 195.41 294.53 176.96 283.91 154.84 273.49
  Q 154.35 273.26 153.83 273.39
  Q 151.91 273.87 147.44 274.95
  C 143.78 275.84 145.58 277.28 143.96 279.50"
/>
<path stroke="#065318" vector-effect="non-scaling-stroke" d="
  M 784.75 248.96
  Q 801.71 273.33 812.54 301.00"
/>
<path stroke="#14762c" vector-effect="non-scaling-stroke" d="
  M 812.54 301.00
  L 810.16 303.87
  A 1.76 1.76 0.0 0 1 807.32 303.67
  L 803.90 298.14"
/>
<path stroke="#008b2e" vector-effect="non-scaling-stroke" d="
  M 803.90 298.14
  Q 799.54 290.97 793.96 284.90
  C 787.14 277.48 782.35 269.06 777.28 260.43
  Q 772.53 252.35 769.49 248.61
  C 767.62 246.33 756.69 234.35 754.00 234.99
  C 752.90 235.25 744.26 237.82 747.17 240.57
  Q 750.32 243.55 753.38 246.82
  Q 753.78 247.25 753.45 247.75
  Q 751.43 250.74 748.37 252.69
  Q 747.93 252.97 747.49 252.70
  C 737.96 247.17 732.25 247.04 722.98 252.56
  Q 703.48 264.18 680.68 266.57
  Q 680.19 266.62 679.87 266.25
  Q 679.78 266.14 679.74 266.01
  Q 679.51 265.37 678.84 265.49
  C 658.55 269.34 638.46 274.09 618.15 277.73
  C 587.17 283.28 558.49 289.62 525.08 291.25
  C 518.34 291.58 510.89 292.49 503.74 292.82
  Q 503.23 292.84 502.81 292.56
  Q 498.54 289.70 492.24 289.03
  Q 462.32 285.88 431.48 274.54
  Q 413.17 267.81 363.78 248.70
  C 360.96 247.60 356.80 246.72 354.32 245.42
  C 351.96 244.19 350.30 244.15 348.31 243.56
  Q 313.42 233.13 279.04 221.13
  C 278.60 220.97 278.11 221.12 277.71 221.30
  Q 277.23 221.51 276.75 221.29
  C 259.90 213.58 242.97 212.96 224.14 212.35
  C 217.36 212.14 211.16 208.54 204.69 207.18
  C 188.11 203.70 171.64 199.64 155.75 193.31
  C 144.28 188.74 131.80 182.89 119.33 179.15
  C 113.34 177.36 108.55 174.76 103.08 172.16
  Q 97.88 169.68 93.82 172.32
  Q 93.34 172.63 92.86 172.33
  L 89.19 170.07
  Q 88.73 169.78 88.20 169.88
  Q 78.65 171.59 69.43 168.70
  Q 68.91 168.53 68.46 168.83
  C 63.30 172.23 57.93 172.70 53.43 168.09
  Q 53.11 167.76 53.21 167.31
  Q 53.36 166.66 53.21 166.00"
/>
<path stroke="#1a3114" vector-effect="non-scaling-stroke" d="
  M 813.79 303.50
  Q 813.63 302.02 812.54 301.00"
/>
<path stroke="#14682a" vector-effect="non-scaling-stroke" d="
  M 803.90 298.14
  Q 794.61 293.56 790.98 284.01
  C 789.32 279.65 785.68 279.88 782.61 282.88
  Q 775.24 290.06 765.47 293.24
  C 761.88 294.41 758.62 296.24 754.97 297.32
  Q 751.74 298.28 747.74 299.71
  C 743.80 301.11 739.55 300.63 736.63 304.11
  Q 736.30 304.51 735.78 304.57
  C 729.48 305.32 724.84 307.50 719.16 309.96
  C 713.91 312.24 710.75 314.91 704.10 314.42
  Q 703.57 314.38 703.24 314.79
  Q 702.13 316.21 701.54 316.39
  C 661.18 328.38 620.27 338.60 578.50 344.29
  Q 534.14 350.34 521.57 351.64
  Q 501.09 353.76 484.25 351.24
  C 457.11 347.17 428.45 337.89 400.08 326.73
  C 396.10 325.17 392.27 324.91 388.42 322.63
  Q 381.64 318.63 374.00 316.48
  Q 372.49 316.05 369.77 314.11
  C 366.52 311.78 362.23 311.56 359.16 309.34
  C 355.25 306.51 352.67 305.40 348.97 303.60
  Q 324.26 291.60 298.56 281.87
  C 297.07 281.31 294.85 281.26 293.35 279.67
  Q 293.03 279.33 292.58 279.18
  Q 286.55 277.26 280.29 276.43
  C 277.36 276.04 274.01 274.75 270.50 274.85
  Q 269.94 274.87 269.60 274.43
  Q 266.90 270.93 262.49 271.79
  Q 262.00 271.89 261.59 271.61
  Q 258.55 269.53 255.05 268.36
  C 252.98 267.66 250.84 265.91 247.81 266.22
  Q 247.29 266.28 246.85 265.98
  Q 243.24 263.55 238.93 263.69
  Q 238.43 263.71 237.99 263.49
  Q 235.92 262.49 233.65 262.77
  Q 233.17 262.83 232.76 262.58
  Q 227.58 259.51 224.49 258.77
  Q 205.50 254.24 186.88 248.30
  Q 186.38 248.14 185.89 248.29
  C 181.08 249.75 180.24 246.35 176.17 246.24
  Q 175.64 246.22 175.19 245.95
  L 171.05 243.42
  Q 170.60 243.15 170.07 243.24
  Q 166.51 243.86 163.61 241.72
  Q 163.20 241.41 162.69 241.49
  C 157.94 242.25 157.35 239.37 154.05 237.89
  Q 146.55 234.52 138.26 233.73
  Q 137.78 233.69 137.36 233.93
  Q 135.59 234.96 133.73 233.92
  Q 133.26 233.66 133.06 233.16
  C 132.40 231.52 131.85 230.70 130.17 229.85
  Q 113.71 221.55 96.72 214.34
  Q 96.24 214.14 95.72 214.25
  Q 93.37 214.75 91.29 213.34
  Q 90.94 213.10 90.52 213.08
  Q 86.66 212.87 83.24 211.17
  Q 82.74 210.92 82.24 211.16
  Q 78.79 212.86 75.73 210.40
  Q 75.40 210.14 74.99 210.16
  C 70.87 210.34 68.64 208.04 67.28 204.27
  Q 67.10 203.79 66.67 203.52
  C 59.35 198.86 49.24 195.82 40.84 193.73
  C 36.78 192.72 31.76 194.86 28.00 196.29"
/>
<path stroke="#175b28" vector-effect="non-scaling-stroke" d="
  M 28.00 196.29
  L 27.00 195.71"
/>
<path stroke="#2b4625" vector-effect="non-scaling-stroke" d="
  M 819.40 317.84
  C 818.07 318.03 817.29 317.81 816.66 316.52
  Q 812.38 307.75 804.01 302.75
  Q 803.57 302.49 803.07 302.54
  Q 798.98 302.98 794.99 303.96
  C 791.14 304.91 784.04 301.84 780.88 306.20
  Q 780.60 306.60 780.16 306.83
  Q 777.05 308.46 774.11 312.09
  C 773.14 313.29 765.00 313.88 762.64 315.22
  Q 759.84 316.81 757.01 318.34
  C 755.50 319.16 755.17 320.63 753.54 321.39
  Q 750.13 322.97 746.53 324.07
  Q 746.47 324.09 746.51 324.13
  Q 746.59 324.23 746.70 324.30
  Q 746.78 324.37 746.69 324.43
  Q 742.00 327.54 737.05 330.18
  C 732.38 332.69 726.26 334.03 721.14 337.29
  Q 720.74 337.54 720.62 338.00
  C 720.01 340.20 713.33 340.85 711.11 341.01
  Q 711.00 341.02 711.05 340.91
  L 711.18 340.66
  Q 711.35 340.35 711.02 340.48
  C 688.61 348.85 665.96 355.77 644.57 367.53
  C 640.84 369.57 635.90 371.25 631.83 373.74
  Q 629.24 375.33 626.81 375.92
  Q 601.08 382.25 575.21 387.99
  C 573.43 388.39 567.99 389.13 566.43 390.16
  Q 560.97 393.80 554.58 394.32
  C 547.24 394.92 539.73 397.10 533.32 398.09
  Q 514.57 400.99 494.69 398.05
  Q 492.92 397.79 491.45 396.56
  Q 491.08 396.25 490.59 396.23
  Q 472.33 395.35 457.20 388.04
  Q 420.28 370.19 394.66 358.61
  C 375.13 349.78 356.05 339.85 336.74 330.55
  C 321.54 323.23 305.81 316.83 290.25 310.27
  C 281.49 306.58 272.78 300.35 264.60 295.43
  C 248.95 286.00 234.55 282.71 214.12 276.59
  C 203.40 273.37 193.63 268.32 182.85 264.97
  Q 159.33 257.65 136.32 248.83
  C 128.24 245.73 118.84 240.53 109.31 237.66
  Q 107.42 237.09 105.50 235.63
  C 101.44 232.53 96.31 231.57 92.50 229.87
  C 78.56 223.61 65.37 217.96 50.00 220.98
  C 48.32 221.31 47.65 220.18 46.35 219.47
  C 43.53 217.92 40.40 217.86 37.60 216.13
  C 34.80 214.38 32.74 210.63 30.06 207.97
  C 27.86 205.77 24.42 205.12 21.70 203.24
  Q 21.17 202.87 21.64 202.42
  L 28.00 196.29"
/>
<path stroke="#008b2e" vector-effect="non-scaling-stroke" d="
  M 728.05 49.19
  Q 724.34 50.13 720.94 48.92
  C 710.55 45.21 699.52 46.05 688.63 46.58
  Q 688.13 46.60 687.77 46.95
  Q 684.05 50.60 680.12 47.92
  C 676.62 45.53 672.90 43.67 668.97 42.07
  C 665.15 40.51 660.82 40.25 656.63 39.44
  C 634.95 35.25 618.50 49.44 599.36 55.96
  Q 581.36 62.09 562.24 63.49
  Q 561.43 63.55 561.25 62.71"
/>
</g>
<path fill="#0b0e00" d="
  M 914.29 257.25
  L 903.79 244.50
  L 877.94 211.80
  Q 877.09 210.71 876.21 209.51
  C 844.72 166.73 812.73 123.91 778.34 83.39
  C 762.47 64.70 744.50 48.47 722.92 36.57
  C 691.18 19.07 651.77 17.77 617.24 28.22
  C 581.28 39.10 548.26 59.62 518.51 82.75
  C 490.72 104.37 462.23 125.37 436.81 149.81
  Q 436.09 150.51 435.21 152.00
  Q 427.24 155.21 424.54 163.39
  Q 424.38 163.87 424.59 164.34
  Q 425.56 166.42 427.50 167.79
  Q 427.27 169.03 428.52 170.72
  Q 442.28 189.33 448.75 196.75
  C 458.90 208.41 469.54 218.54 485.80 219.88
  Q 485.96 219.89 490.14 220.41
  C 493.31 220.80 497.21 219.83 499.48 219.57
  C 510.99 218.24 520.53 214.76 533.42 210.98
  C 534.54 210.65 535.57 210.90 536.78 210.27
  C 543.04 206.99 551.11 205.00 557.90 202.83
  Q 558.39 202.67 558.89 202.77
  Q 559.83 202.94 560.41 202.23
  Q 560.75 201.82 561.25 201.64
  Q 577.51 195.84 594.03 190.86
  C 610.45 185.93 626.55 181.26 643.51 178.51
  C 646.06 178.10 650.32 177.98 653.74 176.98
  Q 656.90 176.06 658.27 178.39
  C 615.90 182.10 574.70 198.73 534.66 212.11
  C 511.76 219.76 484.96 229.12 463.05 212.69
  C 444.29 198.62 432.64 175.57 416.29 158.53
  C 382.81 123.65 344.77 89.16 298.64 72.07
  C 187.69 30.98 78.52 122.71 14.54 201.53
  Q 14.17 201.99 13.10 202.21
  Q 8.62 197.15 5.21 191.33
  Q 3.50 188.42 4.86 185.67
  Q 5.11 185.15 5.69 185.22
  Q 7.78 185.47 8.73 184.22
  Q 40.85 141.91 84.21 115.45
  Q 104.53 103.05 117.72 92.47
  Q 135.90 77.89 160.88 66.84
  C 166.86 64.19 171.60 60.31 176.83 56.61
  C 183.34 52.01 197.79 50.93 205.65 50.35
  C 218.89 49.38 230.55 46.86 242.94 43.21
  C 254.68 39.76 267.03 42.01 278.33 46.17
  Q 289.05 50.11 300.19 52.66
  C 317.36 56.60 331.70 65.69 343.25 78.99
  Q 344.86 80.85 350.36 83.06
  C 359.43 86.71 366.81 88.84 374.39 96.87
  C 384.75 107.83 394.88 120.23 406.05 129.57
  Q 412.69 135.13 421.20 141.54
  C 422.93 142.84 424.01 142.72 425.42 141.03
  C 433.89 130.86 442.27 122.83 453.54 114.10
  Q 472.97 99.04 492.18 83.68
  C 494.25 82.03 497.72 81.46 499.84 78.71
  Q 500.17 78.28 500.68 78.10
  Q 504.43 76.83 507.43 74.33
  Q 507.84 73.99 508.37 73.97
  Q 509.46 73.93 510.99 72.96
  Q 513.62 71.31 517.52 71.80
  Q 518.07 71.86 518.56 71.61
  L 522.71 69.45
  Q 523.14 69.23 523.39 68.82
  Q 525.05 66.13 525.80 65.55
  C 544.51 51.10 565.11 37.32 587.26 28.05
  C 591.42 26.31 594.03 23.36 599.03 22.53
  Q 599.54 22.44 599.91 22.08
  Q 603.79 18.29 608.74 15.96
  Q 609.19 15.75 609.68 15.80
  Q 610.59 15.89 611.20 15.20
  Q 611.60 14.75 612.20 14.75
  L 615.01 14.75
  Q 615.60 14.75 616.01 14.33
  Q 616.87 13.48 618.19 13.72
  Q 618.68 13.82 619.16 13.66
  Q 622.72 12.47 626.39 11.92
  C 628.34 11.63 630.59 10.60 632.97 10.81
  Q 633.47 10.85 633.84 10.52
  C 634.44 10.00 634.65 9.90 635.51 9.93
  Q 638.67 10.01 641.56 8.77
  Q 642.04 8.57 642.54 8.68
  C 644.64 9.14 646.24 8.17 647.78 8.01
  Q 652.18 7.57 656.61 7.79
  Q 657.17 7.82 657.66 7.55
  Q 659.93 6.28 662.35 7.54
  Q 662.80 7.77 663.30 7.77
  C 665.81 7.72 675.31 7.63 675.98 8.40
  Q 676.31 8.77 676.80 8.76
  C 679.13 8.72 689.39 8.32 690.93 9.34
  Q 691.34 9.61 691.83 9.62
  C 699.95 9.79 706.59 12.33 714.02 15.47
  C 716.38 16.47 721.60 18.49 723.22 20.63
  Q 723.55 21.06 724.05 20.84
  Q 724.82 20.49 725.11 21.15
  Q 725.36 21.69 725.95 21.75
  Q 727.12 21.88 727.66 22.99
  Q 727.86 23.41 728.30 23.59
  L 731.59 24.93
  Q 732.05 25.12 732.31 25.54
  Q 733.46 27.45 735.47 28.01
  Q 736.00 28.16 736.29 28.63
  Q 736.97 29.74 738.20 29.81
  Q 738.72 29.84 739.00 30.27
  Q 739.91 31.68 742.02 32.74
  Q 743.69 33.57 745.83 36.28
  Q 746.13 36.66 746.61 36.68
  C 747.98 36.73 752.38 41.74 753.48 42.93
  Q 753.70 43.16 753.93 42.94
  Q 754.02 42.86 754.12 42.74
  Q 754.20 42.64 754.30 42.74
  C 757.87 46.10 790.45 78.79 790.95 78.76
  Q 791.45 78.74 791.81 79.10
  C 794.60 81.91 798.56 85.03 800.46 88.47
  C 801.19 89.77 803.43 90.96 803.25 92.39
  Q 803.20 92.82 803.57 93.03
  Q 805.61 94.21 806.35 96.34
  Q 806.52 96.82 806.93 97.12
  Q 808.05 97.94 808.30 99.15
  Q 808.41 99.67 808.81 100.02
  Q 809.95 100.98 810.85 102.13
  Q 816.55 109.38 822.43 116.48
  C 823.76 118.09 825.16 120.92 827.46 122.66
  Q 827.86 122.96 828.02 123.43
  C 828.55 125.06 831.42 127.22 831.25 128.22
  Q 831.16 128.72 831.56 129.04
  C 834.97 131.70 837.71 135.58 840.33 138.11
  Q 849.15 146.66 856.94 156.18
  Q 857.26 156.56 857.24 157.06
  C 857.20 158.01 859.08 159.13 859.42 160.44
  Q 859.54 160.94 859.96 161.24
  Q 861.05 162.00 861.31 163.34
  Q 861.40 163.80 861.81 164.05
  Q 863.04 164.78 863.29 166.14
  Q 863.39 166.69 863.84 167.02
  Q 865.08 167.92 865.32 169.39
  Q 865.42 169.97 865.93 170.26
  Q 867.16 170.94 867.32 172.30
  Q 867.37 172.78 867.79 173.04
  Q 869.11 173.82 869.33 175.32
  Q 869.40 175.79 869.81 176.04
  Q 870.95 176.73 871.26 177.96
  Q 871.38 178.44 871.70 178.82
  L 872.66 179.91
  Q 873.02 180.32 873.16 180.86
  Q 873.52 182.25 874.87 183.05
  Q 875.35 183.33 875.24 183.87
  Q 875.08 184.73 875.81 185.06
  Q 876.30 185.28 876.60 185.73
  Q 896.66 215.15 919.92 242.08
  C 921.34 243.73 921.34 245.15 922.01 247.12
  Q 922.17 247.61 922.00 248.10
  C 920.49 252.41 920.37 257.18 914.29 257.25
  Z"
/>
<path fill="#aceba7" d="
  M 877.94 211.80
  L 875.08 213.97
  Q 874.64 214.30 874.22 213.95
  C 865.61 206.96 858.46 199.62 852.55 189.96
  C 844.63 177.04 834.56 166.66 824.84 155.19
  Q 822.11 151.97 819.41 147.28
  C 805.47 123.07 783.56 104.74 765.43 84.85
  C 753.41 71.67 740.45 61.11 728.05 49.19
  Q 691.25 20.81 645.92 29.09
  C 639.31 30.29 630.90 32.66 623.44 34.48
  C 600.32 40.13 580.44 48.34 561.25 62.71
  C 519.92 91.31 482.89 120.77 442.58 153.09
  Q 439.25 155.75 435.29 153.50
  L 435.21 152.00
  Q 436.09 150.51 436.81 149.81
  C 462.23 125.37 490.72 104.37 518.51 82.75
  C 548.26 59.62 581.28 39.10 617.24 28.22
  C 651.77 17.77 691.18 19.07 722.92 36.57
  C 744.50 48.47 762.47 64.70 778.34 83.39
  C 812.73 123.91 844.72 166.73 876.21 209.51
  Q 877.09 210.71 877.94 211.80
  Z"
/>
<path fill="#009830" d="
  M 728.05 49.19
  Q 724.34 50.13 720.94 48.92
  C 710.55 45.21 699.52 46.05 688.63 46.58
  Q 688.13 46.60 687.77 46.95
  Q 684.05 50.60 680.12 47.92
  C 676.62 45.53 672.90 43.67 668.97 42.07
  C 665.15 40.51 660.82 40.25 656.63 39.44
  C 634.95 35.25 618.50 49.44 599.36 55.96
  Q 581.36 62.09 562.24 63.49
  Q 561.43 63.55 561.25 62.71
  C 580.44 48.34 600.32 40.13 623.44 34.48
  C 630.90 32.66 639.31 30.29 645.92 29.09
  Q 691.25 20.81 728.05 49.19
  Z"
/>
<path fill="#007d2c" d="
  M 728.05 49.19
  C 740.45 61.11 753.41 71.67 765.43 84.85
  C 783.56 104.74 805.47 123.07 819.41 147.28
  Q 822.11 151.97 824.84 155.19
  C 834.56 166.66 844.63 177.04 852.55 189.96
  C 858.46 199.62 865.61 206.96 874.22 213.95
  Q 874.64 214.30 875.08 213.97
  L 877.94 211.80
  L 903.79 244.50
  Q 900.24 248.47 896.18 245.30
  C 889.14 239.81 881.04 231.18 874.05 224.80
  C 865.41 216.92 857.05 208.76 848.44 200.84
  Q 848.08 200.50 847.58 200.42
  C 833.64 198.13 826.48 191.38 812.97 185.34
  C 808.39 183.29 803.84 181.75 799.97 178.33
  Q 780.93 161.50 758.90 148.81
  C 755.85 147.05 751.50 145.72 748.09 144.97
  Q 716.68 138.00 684.86 142.27
  C 678.25 143.16 671.17 143.09 664.31 144.09
  C 662.63 144.34 661.36 145.55 659.26 145.21
  Q 658.72 145.13 658.24 145.39
  Q 655.16 147.04 651.68 146.74
  Q 651.16 146.69 650.72 146.98
  C 647.37 149.22 645.42 148.58 641.63 148.85
  C 638.56 149.07 635.88 147.84 632.61 148.71
  Q 630.40 149.30 628.84 149.18
  C 622.03 148.67 615.64 149.80 608.89 150.06
  Q 601.62 150.35 595.94 155.13
  Q 595.56 155.45 595.07 155.52
  Q 583.99 157.13 573.17 159.99
  C 570.92 160.59 567.04 161.15 564.97 161.38
  Q 550.34 163.01 536.53 168.26
  Q 528.45 171.34 520.18 173.99
  Q 519.50 174.21 519.36 173.51
  L 519.18 172.61
  Q 518.94 171.39 517.71 171.46
  C 509.31 171.94 501.51 172.50 493.11 171.62
  C 477.22 169.96 460.88 169.20 445.39 164.04
  C 439.88 162.21 434.95 163.03 434.29 155.22
  Q 434.25 154.70 434.67 154.38
  Q 435.17 154.01 435.29 153.50
  Q 439.25 155.75 442.58 153.09
  C 482.89 120.77 519.92 91.31 561.25 62.71
  Q 561.43 63.55 562.24 63.49
  Q 581.36 62.09 599.36 55.96
  C 618.50 49.44 634.95 35.25 656.63 39.44
  C 660.82 40.25 665.15 40.51 668.97 42.07
  C 672.90 43.67 676.62 45.53 680.12 47.92
  Q 684.05 50.60 687.77 46.95
  Q 688.13 46.60 688.63 46.58
  C 699.52 46.05 710.55 45.21 720.94 48.92
  Q 724.34 50.13 728.05 49.19
  Z"
/>
<path fill="#aceba7" d="
  M 658.27 178.39
  Q 670.61 177.43 683.00 178.46
  C 728.24 182.80 761.57 211.69 784.75 248.96
  Q 774.66 252.15 768.89 243.98
  Q 768.62 243.60 768.58 243.13
  Q 768.31 240.17 765.46 239.21
  Q 765.04 239.06 764.74 238.73
  Q 757.11 230.25 749.04 222.17
  C 748.24 221.37 748.23 220.85 748.16 219.78
  Q 748.12 219.27 747.76 218.91
  C 739.39 210.36 726.82 197.38 714.63 196.47
  C 708.96 196.05 706.30 195.62 701.94 193.66
  C 699.20 192.43 697.69 189.70 694.71 188.30
  Q 692.55 187.29 688.12 187.29
  Q 679.16 187.28 670.29 185.77
  Q 669.80 185.68 669.33 185.86
  Q 665.83 187.18 664.24 187.04
  C 654.72 186.20 643.47 186.72 634.73 190.94
  Q 629.82 193.32 627.76 193.51
  C 605.16 195.63 584.07 205.51 563.72 214.83
  Q 558.23 217.34 551.86 219.24
  Q 536.03 223.97 520.58 229.86
  C 513.15 232.69 505.03 233.43 497.27 235.31
  C 484.51 238.39 480.82 234.91 471.17 227.84
  Q 469.85 226.87 467.06 226.69
  C 464.02 226.48 460.12 224.24 457.60 221.84
  Q 446.12 210.93 434.75 199.89
  Q 431.25 196.50 428.96 192.99
  C 425.97 188.42 424.12 183.96 419.95 180.32
  Q 405.60 167.75 392.64 153.79
  C 380.64 140.86 366.75 129.45 353.70 117.58
  C 337.41 102.75 315.95 90.63 297.71 80.52
  Q 292.10 77.41 283.35 75.94
  Q 282.85 75.86 282.45 75.54
  Q 279.44 73.12 276.50 72.74
  C 262.51 70.91 245.95 67.59 229.87 69.16
  C 221.30 70.00 211.19 72.74 201.94 74.73
  Q 190.82 77.13 180.53 82.00
  Q 164.75 89.48 113.89 117.07
  C 108.35 120.08 103.30 123.27 98.81 126.81
  Q 76.68 144.32 53.21 166.00
  Q 37.82 178.83 27.00 195.71
  C 24.07 198.37 21.72 200.91 18.22 202.83
  Q 12.77 205.81 7.04 208.25
  L 6.15 207.52
  Q 5.67 207.13 6.20 206.82
  L 11.70 203.62
  Q 12.10 203.39 12.39 203.04
  L 13.10 202.21
  Q 14.17 201.99 14.54 201.53
  C 78.52 122.71 187.69 30.98 298.64 72.07
  C 344.77 89.16 382.81 123.65 416.29 158.53
  C 432.64 175.57 444.29 198.62 463.05 212.69
  C 484.96 229.12 511.76 219.76 534.66 212.11
  C 574.70 198.73 615.90 182.10 658.27 178.39
  Z"
/>
<path fill="#009830" d="
  M 784.75 248.96
  Q 801.71 273.33 812.54 301.00
  L 810.16 303.87
  A 1.76 1.76 0.0 0 1 807.32 303.67
  L 803.90 298.14
  Q 799.54 290.97 793.96 284.90
  C 787.14 277.48 782.35 269.06 777.28 260.43
  Q 772.53 252.35 769.49 248.61
  C 767.62 246.33 756.69 234.35 754.00 234.99
  C 752.90 235.25 744.26 237.82 747.17 240.57
  Q 750.32 243.55 753.38 246.82
  Q 753.78 247.25 753.45 247.75
  Q 751.43 250.74 748.37 252.69
  Q 747.93 252.97 747.49 252.70
  C 737.96 247.17 732.25 247.04 722.98 252.56
  Q 703.48 264.18 680.68 266.57
  Q 680.19 266.62 679.87 266.25
  Q 679.78 266.14 679.74 266.01
  Q 679.51 265.37 678.84 265.49
  C 658.55 269.34 638.46 274.09 618.15 277.73
  C 587.17 283.28 558.49 289.62 525.08 291.25
  C 518.34 291.58 510.89 292.49 503.74 292.82
  Q 503.23 292.84 502.81 292.56
  Q 498.54 289.70 492.24 289.03
  Q 462.32 285.88 431.48 274.54
  Q 413.17 267.81 363.78 248.70
  C 360.96 247.60 356.80 246.72 354.32 245.42
  C 351.96 244.19 350.30 244.15 348.31 243.56
  Q 313.42 233.13 279.04 221.13
  C 278.60 220.97 278.11 221.12 277.71 221.30
  Q 277.23 221.51 276.75 221.29
  C 259.90 213.58 242.97 212.96 224.14 212.35
  C 217.36 212.14 211.16 208.54 204.69 207.18
  C 188.11 203.70 171.64 199.64 155.75 193.31
  C 144.28 188.74 131.80 182.89 119.33 179.15
  C 113.34 177.36 108.55 174.76 103.08 172.16
  Q 97.88 169.68 93.82 172.32
  Q 93.34 172.63 92.86 172.33
  L 89.19 170.07
  Q 88.73 169.78 88.20 169.88
  Q 78.65 171.59 69.43 168.70
  Q 68.91 168.53 68.46 168.83
  C 63.30 172.23 57.93 172.70 53.43 168.09
  Q 53.11 167.76 53.21 167.31
  Q 53.36 166.66 53.21 166.00
  Q 76.68 144.32 98.81 126.81
  C 103.30 123.27 108.35 120.08 113.89 117.07
  Q 164.75 89.48 180.53 82.00
  Q 190.82 77.13 201.94 74.73
  C 211.19 72.74 221.30 70.00 229.87 69.16
  C 245.95 67.59 262.51 70.91 276.50 72.74
  Q 279.44 73.12 282.45 75.54
  Q 282.85 75.86 283.35 75.94
  Q 292.10 77.41 297.71 80.52
  C 315.95 90.63 337.41 102.75 353.70 117.58
  C 366.75 129.45 380.64 140.86 392.64 153.79
  Q 405.60 167.75 419.95 180.32
  C 424.12 183.96 425.97 188.42 428.96 192.99
  Q 431.25 196.50 434.75 199.89
  Q 446.12 210.93 457.60 221.84
  C 460.12 224.24 464.02 226.48 467.06 226.69
  Q 469.85 226.87 471.17 227.84
  C 480.82 234.91 484.51 238.39 497.27 235.31
  C 505.03 233.43 513.15 232.69 520.58 229.86
  Q 536.03 223.97 551.86 219.24
  Q 558.23 217.34 563.72 214.83
  C 584.07 205.51 605.16 195.63 627.76 193.51
  Q 629.82 193.32 634.73 190.94
  C 643.47 186.72 654.72 186.20 664.24 187.04
  Q 665.83 187.18 669.33 185.86
  Q 669.80 185.68 670.29 185.77
  Q 679.16 187.28 688.12 187.29
  Q 692.55 187.29 694.71 188.30
  C 697.69 189.70 699.20 192.43 701.94 193.66
  C 706.30 195.62 708.96 196.05 714.63 196.47
  C 726.82 197.38 739.39 210.36 747.76 218.91
  Q 748.12 219.27 748.16 219.78
  C 748.23 220.85 748.24 221.37 749.04 222.17
  Q 757.11 230.25 764.74 238.73
  Q 765.04 239.06 765.46 239.21
  Q 768.31 240.17 768.58 243.13
  Q 768.62 243.60 768.89 243.98
  Q 774.66 252.15 784.75 248.96
  Z"
/>
<path fill="#285327" d="
  M 903.79 244.50
  L 914.29 257.25
  Q 914.73 259.29 916.32 260.80
  Q 916.72 261.19 916.43 261.66
  Q 915.57 263.02 913.96 262.77
  Q 913.44 262.68 913.13 263.11
  Q 910.89 266.19 907.53 264.05
  Q 907.06 263.75 906.51 263.75
  L 887.23 263.75
  Q 886.76 263.75 886.38 264.04
  Q 885.30 264.86 884.00 265.17
  Q 874.47 264.65 865.33 265.46
  Q 861.44 265.81 856.45 267.42
  Q 844.35 271.33 831.77 273.28
  C 828.42 273.79 825.81 274.91 822.78 276.14
  C 820.93 276.90 819.97 276.25 818.89 274.83
  C 817.13 272.52 814.40 270.14 812.69 267.44
  C 792.50 235.59 775.80 210.55 751.03 189.25
  Q 747.08 185.85 742.22 183.28
  C 731.81 177.78 721.74 172.62 710.11 170.09
  Q 709.61 169.98 709.32 169.57
  C 706.19 165.26 698.82 164.20 693.87 163.76
  C 655.80 160.37 621.19 164.53 585.64 177.82
  C 579.01 180.30 572.34 183.72 565.80 186.89
  C 556.44 191.44 547.10 194.19 537.32 197.33
  C 526.63 200.78 514.54 202.20 504.50 204.21
  C 492.96 206.51 476.90 205.15 468.22 196.28
  Q 461.35 189.27 454.45 182.30
  C 454.41 182.26 438.87 169.04 434.73 169.46
  Q 430.83 169.85 427.50 167.79
  Q 425.56 166.42 424.59 164.34
  Q 424.38 163.87 424.54 163.39
  Q 427.24 155.21 435.21 152.00
  L 435.29 153.50
  Q 435.17 154.01 434.67 154.38
  Q 434.25 154.70 434.29 155.22
  C 434.95 163.03 439.88 162.21 445.39 164.04
  C 460.88 169.20 477.22 169.96 493.11 171.62
  C 501.51 172.50 509.31 171.94 517.71 171.46
  Q 518.94 171.39 519.18 172.61
  L 519.36 173.51
  Q 519.50 174.21 520.18 173.99
  Q 528.45 171.34 536.53 168.26
  Q 550.34 163.01 564.97 161.38
  C 567.04 161.15 570.92 160.59 573.17 159.99
  Q 583.99 157.13 595.07 155.52
  Q 595.56 155.45 595.94 155.13
  Q 601.62 150.35 608.89 150.06
  C 615.64 149.80 622.03 148.67 628.84 149.18
  Q 630.40 149.30 632.61 148.71
  C 635.88 147.84 638.56 149.07 641.63 148.85
  C 645.42 148.58 647.37 149.22 650.72 146.98
  Q 651.16 146.69 651.68 146.74
  Q 655.16 147.04 658.24 145.39
  Q 658.72 145.13 659.26 145.21
  C 661.36 145.55 662.63 144.34 664.31 144.09
  C 671.17 143.09 678.25 143.16 684.86 142.27
  Q 716.68 138.00 748.09 144.97
  C 751.50 145.72 755.85 147.05 758.90 148.81
  Q 780.93 161.50 799.97 178.33
  C 803.84 181.75 808.39 183.29 812.97 185.34
  C 826.48 191.38 833.64 198.13 847.58 200.42
  Q 848.08 200.50 848.44 200.84
  C 857.05 208.76 865.41 216.92 874.05 224.80
  C 881.04 231.18 889.14 239.81 896.18 245.30
  Q 900.24 248.47 903.79 244.50
  Z"
/>
<path fill="#2d3923" d="
  M 884.00 265.17
  Q 880.51 268.95 876.81 272.52
  Q 873.81 275.41 870.37 279.63
  C 860.66 291.55 848.38 298.69 834.49 307.74
  C 831.37 309.77 828.62 310.79 824.86 309.59
  Q 820.78 308.28 816.13 309.40
  Q 813.70 306.91 813.79 303.50
  C 817.54 303.65 819.69 305.98 823.02 302.55
  Q 828.31 297.10 823.10 292.35
  Q 822.72 292.00 822.64 291.50
  C 821.34 283.35 817.57 278.57 812.02 272.34
  C 801.40 260.43 797.33 246.08 783.76 236.01
  Q 783.33 235.69 782.79 235.75
  L 778.91 236.17
  Q 778.36 236.22 777.97 235.82
  Q 774.04 231.65 772.31 229.45
  C 750.03 201.32 721.95 181.42 685.50 177.27
  Q 683.25 177.02 683.00 178.46
  Q 670.61 177.43 658.27 178.39
  Q 656.90 176.06 653.74 176.98
  C 650.32 177.98 646.06 178.10 643.51 178.51
  C 626.55 181.26 610.45 185.93 594.03 190.86
  Q 577.51 195.84 561.25 201.64
  Q 560.75 201.82 560.41 202.23
  Q 559.83 202.94 558.89 202.77
  Q 558.39 202.67 557.90 202.83
  C 551.11 205.00 543.04 206.99 536.78 210.27
  C 535.57 210.90 534.54 210.65 533.42 210.98
  C 520.53 214.76 510.99 218.24 499.48 219.57
  C 497.21 219.83 493.31 220.80 490.14 220.41
  Q 485.96 219.89 485.80 219.88
  C 469.54 218.54 458.90 208.41 448.75 196.75
  Q 442.28 189.33 428.52 170.72
  Q 427.27 169.03 427.50 167.79
  Q 430.83 169.85 434.73 169.46
  C 438.87 169.04 454.41 182.26 454.45 182.30
  Q 461.35 189.27 468.22 196.28
  C 476.90 205.15 492.96 206.51 504.50 204.21
  C 514.54 202.20 526.63 200.78 537.32 197.33
  C 547.10 194.19 556.44 191.44 565.80 186.89
  C 572.34 183.72 579.01 180.30 585.64 177.82
  C 621.19 164.53 655.80 160.37 693.87 163.76
  C 698.82 164.20 706.19 165.26 709.32 169.57
  Q 709.61 169.98 710.11 170.09
  C 721.74 172.62 731.81 177.78 742.22 183.28
  Q 747.08 185.85 751.03 189.25
  C 775.80 210.55 792.50 235.59 812.69 267.44
  C 814.40 270.14 817.13 272.52 818.89 274.83
  C 819.97 276.25 820.93 276.90 822.78 276.14
  C 825.81 274.91 828.42 273.79 831.77 273.28
  Q 844.35 271.33 856.45 267.42
  Q 861.44 265.81 865.33 265.46
  Q 874.47 264.65 884.00 265.17
  Z"
/>
<path fill="#007d2c" d="
  M 53.21 166.00
  Q 53.36 166.66 53.21 167.31
  Q 53.11 167.76 53.43 168.09
  C 57.93 172.70 63.30 172.23 68.46 168.83
  Q 68.91 168.53 69.43 168.70
  Q 78.65 171.59 88.20 169.88
  Q 88.73 169.78 89.19 170.07
  L 92.86 172.33
  Q 93.34 172.63 93.82 172.32
  Q 97.88 169.68 103.08 172.16
  C 108.55 174.76 113.34 177.36 119.33 179.15
  C 131.80 182.89 144.28 188.74 155.75 193.31
  C 171.64 199.64 188.11 203.70 204.69 207.18
  C 211.16 208.54 217.36 212.14 224.14 212.35
  C 242.97 212.96 259.90 213.58 276.75 221.29
  Q 277.23 221.51 277.71 221.30
  C 278.11 221.12 278.60 220.97 279.04 221.13
  Q 313.42 233.13 348.31 243.56
  C 350.30 244.15 351.96 244.19 354.32 245.42
  C 356.80 246.72 360.96 247.60 363.78 248.70
  Q 413.17 267.81 431.48 274.54
  Q 462.32 285.88 492.24 289.03
  Q 498.54 289.70 502.81 292.56
  Q 503.23 292.84 503.74 292.82
  C 510.89 292.49 518.34 291.58 525.08 291.25
  C 558.49 289.62 587.17 283.28 618.15 277.73
  C 638.46 274.09 658.55 269.34 678.84 265.49
  Q 679.51 265.37 679.74 266.01
  Q 679.78 266.14 679.87 266.25
  Q 680.19 266.62 680.68 266.57
  Q 703.48 264.18 722.98 252.56
  C 732.25 247.04 737.96 247.17 747.49 252.70
  Q 747.93 252.97 748.37 252.69
  Q 751.43 250.74 753.45 247.75
  Q 753.78 247.25 753.38 246.82
  Q 750.32 243.55 747.17 240.57
  C 744.26 237.82 752.90 235.25 754.00 234.99
  C 756.69 234.35 767.62 246.33 769.49 248.61
  Q 772.53 252.35 777.28 260.43
  C 782.35 269.06 787.14 277.48 793.96 284.90
  Q 799.54 290.97 803.90 298.14
  Q 794.61 293.56 790.98 284.01
  C 789.32 279.65 785.68 279.88 782.61 282.88
  Q 775.24 290.06 765.47 293.24
  C 761.88 294.41 758.62 296.24 754.97 297.32
  Q 751.74 298.28 747.74 299.71
  C 743.80 301.11 739.55 300.63 736.63 304.11
  Q 736.30 304.51 735.78 304.57
  C 729.48 305.32 724.84 307.50 719.16 309.96
  C 713.91 312.24 710.75 314.91 704.10 314.42
  Q 703.57 314.38 703.24 314.79
  Q 702.13 316.21 701.54 316.39
  C 661.18 328.38 620.27 338.60 578.50 344.29
  Q 534.14 350.34 521.57 351.64
  Q 501.09 353.76 484.25 351.24
  C 457.11 347.17 428.45 337.89 400.08 326.73
  C 396.10 325.17 392.27 324.91 388.42 322.63
  Q 381.64 318.63 374.00 316.48
  Q 372.49 316.05 369.77 314.11
  C 366.52 311.78 362.23 311.56 359.16 309.34
  C 355.25 306.51 352.67 305.40 348.97 303.60
  Q 324.26 291.60 298.56 281.87
  C 297.07 281.31 294.85 281.26 293.35 279.67
  Q 293.03 279.33 292.58 279.18
  Q 286.55 277.26 280.29 276.43
  C 277.36 276.04 274.01 274.75 270.50 274.85
  Q 269.94 274.87 269.60 274.43
  Q 266.90 270.93 262.49 271.79
  Q 262.00 271.89 261.59 271.61
  Q 258.55 269.53 255.05 268.36
  C 252.98 267.66 250.84 265.91 247.81 266.22
  Q 247.29 266.28 246.85 265.98
  Q 243.24 263.55 238.93 263.69
  Q 238.43 263.71 237.99 263.49
  Q 235.92 262.49 233.65 262.77
  Q 233.17 262.83 232.76 262.58
  Q 227.58 259.51 224.49 258.77
  Q 205.50 254.24 186.88 248.30
  Q 186.38 248.14 185.89 248.29
  C 181.08 249.75 180.24 246.35 176.17 246.24
  Q 175.64 246.22 175.19 245.95
  L 171.05 243.42
  Q 170.60 243.15 170.07 243.24
  Q 166.51 243.86 163.61 241.72
  Q 163.20 241.41 162.69 241.49
  C 157.94 242.25 157.35 239.37 154.05 237.89
  Q 146.55 234.52 138.26 233.73
  Q 137.78 233.69 137.36 233.93
  Q 135.59 234.96 133.73 233.92
  Q 133.26 233.66 133.06 233.16
  C 132.40 231.52 131.85 230.70 130.17 229.85
  Q 113.71 221.55 96.72 214.34
  Q 96.24 214.14 95.72 214.25
  Q 93.37 214.75 91.29 213.34
  Q 90.94 213.10 90.52 213.08
  Q 86.66 212.87 83.24 211.17
  Q 82.74 210.92 82.24 211.16
  Q 78.79 212.86 75.73 210.40
  Q 75.40 210.14 74.99 210.16
  C 70.87 210.34 68.64 208.04 67.28 204.27
  Q 67.10 203.79 66.67 203.52
  C 59.35 198.86 49.24 195.82 40.84 193.73
  C 36.78 192.72 31.76 194.86 28.00 196.29
  L 27.00 195.71
  Q 37.82 178.83 53.21 166.00
  Z"
/>
<path fill="#0b0e00" d="
  M 813.79 303.50
  Q 813.63 302.02 812.54 301.00
  Q 801.71 273.33 784.75 248.96
  C 761.57 211.69 728.24 182.80 683.00 178.46
  Q 683.25 177.02 685.50 177.27
  C 721.95 181.42 750.03 201.32 772.31 229.45
  Q 774.04 231.65 777.97 235.82
  Q 778.36 236.22 778.91 236.17
  L 782.79 235.75
  Q 783.33 235.69 783.76 236.01
  C 797.33 246.08 801.40 260.43 812.02 272.34
  C 817.57 278.57 821.34 283.35 822.64 291.50
  Q 822.72 292.00 823.10 292.35
  Q 828.31 297.10 823.02 302.55
  C 819.69 305.98 817.54 303.65 813.79 303.50
  Z"
/>
<path fill="#285327" d="
  M 803.90 298.14
  L 807.32 303.67
  A 1.76 1.76 0.0 0 0 810.16 303.87
  L 812.54 301.00
  Q 813.63 302.02 813.79 303.50
  Q 813.70 306.91 816.13 309.40
  Q 817.25 313.71 819.40 317.84
  C 818.07 318.03 817.29 317.81 816.66 316.52
  Q 812.38 307.75 804.01 302.75
  Q 803.57 302.49 803.07 302.54
  Q 798.98 302.98 794.99 303.96
  C 791.14 304.91 784.04 301.84 780.88 306.20
  Q 780.60 306.60 780.16 306.83
  Q 777.05 308.46 774.11 312.09
  C 773.14 313.29 765.00 313.88 762.64 315.22
  Q 759.84 316.81 757.01 318.34
  C 755.50 319.16 755.17 320.63 753.54 321.39
  Q 750.13 322.97 746.53 324.07
  Q 746.47 324.09 746.51 324.13
  Q 746.59 324.23 746.70 324.30
  Q 746.78 324.37 746.69 324.43
  Q 742.00 327.54 737.05 330.18
  C 732.38 332.69 726.26 334.03 721.14 337.29
  Q 720.74 337.54 720.62 338.00
  C 720.01 340.20 713.33 340.85 711.11 341.01
  Q 711.00 341.02 711.05 340.91
  L 711.18 340.66
  Q 711.35 340.35 711.02 340.48
  C 688.61 348.85 665.96 355.77 644.57 367.53
  C 640.84 369.57 635.90 371.25 631.83 373.74
  Q 629.24 375.33 626.81 375.92
  Q 601.08 382.25 575.21 387.99
  C 573.43 388.39 567.99 389.13 566.43 390.16
  Q 560.97 393.80 554.58 394.32
  C 547.24 394.92 539.73 397.10 533.32 398.09
  Q 514.57 400.99 494.69 398.05
  Q 492.92 397.79 491.45 396.56
  Q 491.08 396.25 490.59 396.23
  Q 472.33 395.35 457.20 388.04
  Q 420.28 370.19 394.66 358.61
  C 375.13 349.78 356.05 339.85 336.74 330.55
  C 321.54 323.23 305.81 316.83 290.25 310.27
  C 281.49 306.58 272.78 300.35 264.60 295.43
  C 248.95 286.00 234.55 282.71 214.12 276.59
  C 203.40 273.37 193.63 268.32 182.85 264.97
  Q 159.33 257.65 136.32 248.83
  C 128.24 245.73 118.84 240.53 109.31 237.66
  Q 107.42 237.09 105.50 235.63
  C 101.44 232.53 96.31 231.57 92.50 229.87
  C 78.56 223.61 65.37 217.96 50.00 220.98
  C 48.32 221.31 47.65 220.18 46.35 219.47
  C 43.53 217.92 40.40 217.86 37.60 216.13
  C 34.80 214.38 32.74 210.63 30.06 207.97
  C 27.86 205.77 24.42 205.12 21.70 203.24
  Q 21.17 202.87 21.64 202.42
  L 28.00 196.29
  C 31.76 194.86 36.78 192.72 40.84 193.73
  C 49.24 195.82 59.35 198.86 66.67 203.52
  Q 67.10 203.79 67.28 204.27
  C 68.64 208.04 70.87 210.34 74.99 210.16
  Q 75.40 210.14 75.73 210.40
  Q 78.79 212.86 82.24 211.16
  Q 82.74 210.92 83.24 211.17
  Q 86.66 212.87 90.52 213.08
  Q 90.94 213.10 91.29 213.34
  Q 93.37 214.75 95.72 214.25
  Q 96.24 214.14 96.72 214.34
  Q 113.71 221.55 130.17 229.85
  C 131.85 230.70 132.40 231.52 133.06 233.16
  Q 133.26 233.66 133.73 233.92
  Q 135.59 234.96 137.36 233.93
  Q 137.78 233.69 138.26 233.73
  Q 146.55 234.52 154.05 237.89
  C 157.35 239.37 157.94 242.25 162.69 241.49
  Q 163.20 241.41 163.61 241.72
  Q 166.51 243.86 170.07 243.24
  Q 170.60 243.15 171.05 243.42
  L 175.19 245.95
  Q 175.64 246.22 176.17 246.24
  C 180.24 246.35 181.08 249.75 185.89 248.29
  Q 186.38 248.14 186.88 248.30
  Q 205.50 254.24 224.49 258.77
  Q 227.58 259.51 232.76 262.58
  Q 233.17 262.83 233.65 262.77
  Q 235.92 262.49 237.99 263.49
  Q 238.43 263.71 238.93 263.69
  Q 243.24 263.55 246.85 265.98
  Q 247.29 266.28 247.81 266.22
  C 250.84 265.91 252.98 267.66 255.05 268.36
  Q 258.55 269.53 261.59 271.61
  Q 262.00 271.89 262.49 271.79
  Q 266.90 270.93 269.60 274.43
  Q 269.94 274.87 270.50 274.85
  C 274.01 274.75 277.36 276.04 280.29 276.43
  Q 286.55 277.26 292.58 279.18
  Q 293.03 279.33 293.35 279.67
  C 294.85 281.26 297.07 281.31 298.56 281.87
  Q 324.26 291.60 348.97 303.60
  C 352.67 305.40 355.25 306.51 359.16 309.34
  C 362.23 311.56 366.52 311.78 369.77 314.11
  Q 372.49 316.05 374.00 316.48
  Q 381.64 318.63 388.42 322.63
  C 392.27 324.91 396.10 325.17 400.08 326.73
  C 428.45 337.89 457.11 347.17 484.25 351.24
  Q 501.09 353.76 521.57 351.64
  Q 534.14 350.34 578.50 344.29
  C 620.27 338.60 661.18 328.38 701.54 316.39
  Q 702.13 316.21 703.24 314.79
  Q 703.57 314.38 704.10 314.42
  C 710.75 314.91 713.91 312.24 719.16 309.96
  C 724.84 307.50 729.48 305.32 735.78 304.57
  Q 736.30 304.51 736.63 304.11
  C 739.55 300.63 743.80 301.11 747.74 299.71
  Q 751.74 298.28 754.97 297.32
  C 758.62 296.24 761.88 294.41 765.47 293.24
  Q 775.24 290.06 782.61 282.88
  C 785.68 279.88 789.32 279.65 790.98 284.01
  Q 794.61 293.56 803.90 298.14
  Z"
/>
<path fill="#2d3923" d="
  M 27.00 195.71
  L 28.00 196.29
  L 21.64 202.42
  Q 21.17 202.87 21.70 203.24
  C 24.42 205.12 27.86 205.77 30.06 207.97
  C 32.74 210.63 34.80 214.38 37.60 216.13
  C 40.40 217.86 43.53 217.92 46.35 219.47
  C 47.65 220.18 48.32 221.31 50.00 220.98
  C 65.37 217.96 78.56 223.61 92.50 229.87
  C 96.31 231.57 101.44 232.53 105.50 235.63
  Q 107.42 237.09 109.31 237.66
  C 118.84 240.53 128.24 245.73 136.32 248.83
  Q 159.33 257.65 182.85 264.97
  C 193.63 268.32 203.40 273.37 214.12 276.59
  C 234.55 282.71 248.95 286.00 264.60 295.43
  C 272.78 300.35 281.49 306.58 290.25 310.27
  C 305.81 316.83 321.54 323.23 336.74 330.55
  C 356.05 339.85 375.13 349.78 394.66 358.61
  Q 420.28 370.19 457.20 388.04
  Q 472.33 395.35 490.59 396.23
  Q 491.08 396.25 491.45 396.56
  Q 492.92 397.79 494.69 398.05
  Q 514.57 400.99 533.32 398.09
  C 539.73 397.10 547.24 394.92 554.58 394.32
  Q 560.97 393.80 566.43 390.16
  C 567.99 389.13 573.43 388.39 575.21 387.99
  Q 601.08 382.25 626.81 375.92
  Q 629.24 375.33 631.83 373.74
  C 635.90 371.25 640.84 369.57 644.57 367.53
  C 665.96 355.77 688.61 348.85 711.02 340.48
  Q 711.35 340.35 711.18 340.66
  L 711.05 340.91
  Q 711.00 341.02 711.11 341.01
  C 713.33 340.85 720.01 340.20 720.62 338.00
  Q 720.74 337.54 721.14 337.29
  C 726.26 334.03 732.38 332.69 737.05 330.18
  Q 742.00 327.54 746.69 324.43
  Q 746.78 324.37 746.70 324.30
  Q 746.59 324.23 746.51 324.13
  Q 746.47 324.09 746.53 324.07
  Q 750.13 322.97 753.54 321.39
  C 755.17 320.63 755.50 319.16 757.01 318.34
  Q 759.84 316.81 762.64 315.22
  C 765.00 313.88 773.14 313.29 774.11 312.09
  Q 777.05 308.46 780.16 306.83
  Q 780.60 306.60 780.88 306.20
  C 784.04 301.84 791.14 304.91 794.99 303.96
  Q 798.98 302.98 803.07 302.54
  Q 803.57 302.49 804.01 302.75
  Q 812.38 307.75 816.66 316.52
  C 817.29 317.81 818.07 318.03 819.40 317.84
  Q 818.55 319.49 816.57 319.25
  Q 815.94 319.17 815.79 319.80
  Q 815.39 321.45 813.74 321.26
  Q 813.16 321.19 812.96 321.74
  Q 812.42 323.23 810.92 323.28
  Q 810.49 323.30 810.22 323.65
  Q 808.98 325.25 805.76 327.29
  C 798.22 332.06 798.26 340.94 786.47 341.34
  Q 785.90 341.36 785.82 340.80
  L 785.56 338.87
  A 2.21 2.21 0.0 0 0 782.88 337.01
  C 766.15 340.81 752.83 351.20 736.49 355.98
  C 731.85 357.34 728.56 359.72 724.80 363.50
  Q 720.77 367.54 718.70 368.70
  C 679.26 390.68 639.49 412.00 600.71 435.19
  L 597.95 429.89
  Q 597.65 429.31 597.01 429.44
  C 586.52 431.67 577.34 434.49 567.47 439.82
  Q 538.02 455.71 508.26 470.89
  Q 507.76 471.15 507.27 470.88
  C 498.24 466.05 488.39 462.92 479.78 457.94
  Q 466.02 449.97 452.40 441.75
  Q 451.99 441.50 451.50 441.50
  L 443.43 441.50
  Q 442.89 441.50 442.42 441.22
  Q 424.96 430.79 407.67 420.09
  Q 404.98 418.42 403.52 416.46
  C 399.76 411.38 395.13 410.86 390.54 407.57
  Q 386.41 404.61 381.30 399.95
  C 376.82 395.86 369.64 393.37 365.66 391.31
  Q 360.85 388.82 356.06 386.30
  C 351.73 384.02 346.77 382.40 342.16 380.25
  C 334.37 376.63 328.77 370.12 321.46 365.57
  Q 311.26 359.21 291.27 347.22
  C 285.54 343.79 278.70 341.08 274.39 338.95
  Q 251.33 327.56 229.56 313.88
  Q 222.62 309.52 215.46 305.58
  C 195.41 294.53 176.96 283.91 154.84 273.49
  Q 154.35 273.26 153.83 273.39
  Q 151.91 273.87 147.44 274.95
  C 143.78 275.84 145.58 277.28 143.96 279.50
  Q 143.17 278.52 142.24 279.52
  Q 141.67 280.13 141.84 279.32
  L 141.97 278.71
  Q 142.07 278.25 141.61 278.20
  Q 138.63 277.86 136.83 275.47
  Q 136.43 274.94 135.86 275.29
  Q 134.94 275.86 134.72 274.73
  Q 134.58 274.03 133.93 274.30
  Q 133.28 274.56 132.95 273.93
  Q 132.74 273.53 132.35 273.32
  L 119.10 265.84
  Q 118.67 265.60 118.45 265.16
  Q 117.96 264.18 116.83 264.23
  Q 116.30 264.25 116.05 263.79
  Q 115.52 262.86 114.25 263.39
  Q 113.78 263.58 113.76 263.07
  Q 113.75 262.88 113.75 262.73
  Q 113.75 262.53 113.56 262.49
  Q 108.22 261.28 103.61 263.89
  Q 102.92 264.28 103.37 264.94
  Q 103.71 265.46 103.21 265.93
  Q 102.67 266.44 102.51 265.71
  Q 102.36 265.06 101.59 265.19
  Q 101.00 265.28 100.46 265.02
  L 96.19 262.90
  Q 95.69 262.66 95.45 262.15
  Q 94.88 260.97 93.38 261.35
  Q 92.74 261.51 92.75 260.85
  Q 92.75 260.72 92.75 260.58
  Q 92.74 259.79 92.07 260.19
  L 91.68 260.42
  Q 91.22 260.70 91.09 260.17
  Q 90.80 259.01 89.54 259.26
  Q 88.95 259.38 88.78 258.80
  Q 88.25 256.99 86.51 257.21
  Q 85.94 257.28 85.76 256.74
  Q 85.24 255.23 83.69 255.19
  Q 83.16 255.18 82.83 254.75
  L 81.91 253.53
  Q 81.56 253.08 81.01 253.20
  Q 79.22 253.60 77.86 252.59
  Q 77.44 252.28 76.92 252.34
  Q 74.92 252.56 73.05 251.97
  Q 54.34 246.07 36.47 237.98
  Q 29.42 234.79 24.17 229.22
  C 19.99 224.79 15.68 220.55 11.37 216.25
  Q 10.94 215.83 10.37 215.98
  L 9.43 216.22
  Q 8.82 216.38 8.75 215.74
  Q 8.49 213.36 6.83 211.66
  Q 6.47 211.29 6.65 210.81
  Q 7.14 209.55 7.04 208.25
  Q 12.77 205.81 18.22 202.83
  C 21.72 200.91 24.07 198.37 27.00 195.71
  Z"
/>
<path fill="#0b0e00" d="
  M 600.71 435.19
  Q 599.42 436.64 598.78 437.05
  Q 562.00 460.82 525.22 477.74
  Q 517.54 481.27 508.01 481.62
  Q 507.61 481.63 507.25 481.80
  C 506.43 482.18 506.00 481.67 505.16 481.63
  Q 495.27 481.18 488.17 477.09
  Q 473.16 468.42 457.84 460.32
  C 456.12 459.41 454.49 459.60 453.72 457.18
  Q 453.57 456.71 453.13 456.49
  L 448.87 454.41
  Q 448.43 454.20 447.94 454.11
  Q 447.11 453.96 445.76 453.30
  C 394.12 428.04 345.39 398.43 297.00 367.51
  C 295.55 366.59 294.25 367.16 293.01 366.41
  Q 255.70 343.90 207.83 318.41
  Q 179.82 303.50 145.79 282.23
  Q 145.17 281.84 143.96 279.50
  C 145.58 277.28 143.78 275.84 147.44 274.95
  Q 151.91 273.87 153.83 273.39
  Q 154.35 273.26 154.84 273.49
  C 176.96 283.91 195.41 294.53 215.46 305.58
  Q 222.62 309.52 229.56 313.88
  Q 251.33 327.56 274.39 338.95
  C 278.70 341.08 285.54 343.79 291.27 347.22
  Q 311.26 359.21 321.46 365.57
  C 328.77 370.12 334.37 376.63 342.16 380.25
  C 346.77 382.40 351.73 384.02 356.06 386.30
  Q 360.85 388.82 365.66 391.31
  C 369.64 393.37 376.82 395.86 381.30 399.95
  Q 386.41 404.61 390.54 407.57
  C 395.13 410.86 399.76 411.38 403.52 416.46
  Q 404.98 418.42 407.67 420.09
  Q 424.96 430.79 442.42 441.22
  Q 442.89 441.50 443.43 441.50
  L 451.50 441.50
  Q 451.99 441.50 452.40 441.75
  Q 466.02 449.97 479.78 457.94
  C 488.39 462.92 498.24 466.05 507.27 470.88
  Q 507.76 471.15 508.26 470.89
  Q 538.02 455.71 567.47 439.82
  C 577.34 434.49 586.52 431.67 597.01 429.44
  Q 597.65 429.31 597.95 429.89
  L 600.71 435.19
  Z"
/>
<path fill="#0b0e00" d="
  M 393.44 487.00
  L 363.69 487.00
  L 363.06 486.71
  Q 362.13 486.28 363.16 486.20
  C 364.72 486.09 366.39 485.58 367.88 485.56
  C 376.45 485.46 385.37 484.92 393.84 486.28
  Q 394.22 486.34 394.01 486.67
  Q 393.84 486.93 393.44 487.00
  Z"
/>
</svg>
