<?xml version="1.0" encoding="UTF-8" standalone="no"?>
<!DOCTYPE svg PUBLIC "-//W3C//DTD SVG 1.1//EN" "http://www.w3.org/Graphics/SVG/1.1/DTD/svg11.dtd">
<svg xmlns="http://www.w3.org/2000/svg" version="1.1" viewBox="0.00 0.00 969.00 993.00">
<g stroke-width="2.00" fill="none" stroke-linecap="butt">
<path stroke="#4a0902" vector-effect="non-scaling-stroke" d="
  M 962.81 621.70
  C 958.46 623.70 954.34 626.14 951.25 620.46"
/>
<path stroke="#965754" vector-effect="non-scaling-stroke" d="
  M 951.25 620.46
  C 947.98 614.95 944.92 608.63 942.03 603.67
  Q 910.72 550.03 876.79 498.00"
/>
<path stroke="#9b7574" vector-effect="non-scaling-stroke" d="
  M 876.79 498.00
  C 857.98 467.74 838.11 437.97 819.84 407.41
  Q 780.59 341.76 738.75 277.73
  Q 735.89 273.35 727.96 257.75"
/>
<path stroke="#965754" vector-effect="non-scaling-stroke" d="
  M 727.96 257.75
  L 726.79 255.50"
/>
<path stroke="#9b7574" vector-effect="non-scaling-stroke" d="
  M 726.79 255.50
  Q 718.81 237.61 711.75 226.00
  Q 647.55 120.44 593.97 29.55
  C 589.48 21.94 583.76 34.37 582.49 37.62
  Q 540.42 145.16 496.50 251.96"
/>
<path stroke="#965754" vector-effect="non-scaling-stroke" d="
  M 496.50 251.96
  Q 463.33 335.10 430.25 418.28
  Q 427.49 425.22 422.45 436.68
  Q 412.38 459.59 404.42 483.32"
/>
<path stroke="#5d0e06" vector-effect="non-scaling-stroke" d="
  M 404.42 483.32
  C 402.09 484.07 402.66 487.48 400.78 487.46
  C 397.66 487.42 396.38 482.71 396.68 480.23
  C 398.26 466.97 406.78 456.91 410.01 444.40
  Q 413.18 432.14 416.74 420.06"
/>
<path stroke="#fbccc7" vector-effect="non-scaling-stroke" d="
  M 727.96 257.75
  Q 727.52 257.65 727.18 257.92
  A 0.64 0.64 0.0 0 0 727.02 258.71
  C 732.58 269.40 738.14 279.18 745.12 289.84
  Q 776.25 337.36 798.05 373.70
  C 823.96 416.87 846.62 452.19 871.17 491.28
  Q 873.50 495.00 875.72 498.79
  Q 876.51 500.15 876.71 498.59
  L 876.79 498.00"
/>
<path stroke="#aa6055" vector-effect="non-scaling-stroke" d="
  M 951.25 620.46
  C 943.16 623.32 940.97 615.88 936.50 611.46"
/>
<path stroke="#bd6559" vector-effect="non-scaling-stroke" d="
  M 936.50 611.46
  Q 934.36 609.59 933.56 608.44
  Q 907.19 570.35 883.42 530.48"
/>
<path stroke="#fbccc7" vector-effect="non-scaling-stroke" d="
  M 869.75 502.79
  Q 870.45 502.81 870.99 502.35
  Q 871.40 502.00 871.00 501.64
  Q 870.10 500.83 869.50 499.77
  Q 851.03 467.49 830.13 436.73
  C 816.10 416.09 803.14 394.66 789.64 373.66
  Q 784.65 365.89 779.05 356.71
  Q 756.84 320.33 733.05 284.95
  Q 729.51 279.68 722.97 264.05
  Q 722.79 263.60 722.77 263.12
  Q 722.74 261.94 721.25 262.51"
/>
<path stroke="#fbccc7" vector-effect="non-scaling-stroke" d="
  M 726.79 255.50
  Q 724.42 258.91 720.29 259.75"
/>
<path stroke="#ae7e75" vector-effect="non-scaling-stroke" d="
  M 720.29 259.75
  Q 720.21 258.93 719.78 258.23
  Q 696.41 220.37 669.81 184.69
  Q 668.96 183.56 668.25 183.21"
/>
<path stroke="#fbccc7" vector-effect="non-scaling-stroke" d="
  M 668.25 183.21
  C 668.27 182.59 668.34 182.23 668.05 181.66
  C 645.94 137.79 624.41 102.33 596.65 57.33
  Q 594.84 54.40 591.80 55.28
  C 589.13 56.05 588.44 58.83 587.52 61.26
  Q 582.50 74.44 579.22 84.71
  C 578.26 87.71 575.95 90.22 574.82 93.24
  Q 559.02 135.21 539.78 175.69
  Q 539.58 176.12 539.97 176.38
  C 546.22 180.50 549.81 177.62 554.78 173.86
  Q 555.18 173.56 555.67 173.57
  Q 560.81 173.69 562.25 178.71"
/>
<path stroke="#ae7e75" vector-effect="non-scaling-stroke" d="
  M 562.25 178.71
  Q 537.95 206.04 524.25 222.50
  Q 515.61 232.89 508.25 246.96"
/>
<path stroke="#dc7e76" vector-effect="non-scaling-stroke" d="
  M 508.25 246.96
  L 504.85 252.30"
/>
<path stroke="#fbccc7" vector-effect="non-scaling-stroke" d="
  M 504.85 252.30
  Q 501.56 253.75 498.72 252.25
  Q 498.29 252.02 497.80 252.00
  L 496.50 251.96"
/>
<path stroke="#9e1708" vector-effect="non-scaling-stroke" d="
  M 299.00 345.29
  C 313.16 357.42 328.68 368.75 341.69 382.08
  Q 361.35 402.22 381.08 416.94
  C 386.44 420.94 390.39 414.17 393.29 409.75"
/>
<path stroke="#711707" vector-effect="non-scaling-stroke" d="
  M 936.50 611.46
  L 935.91 611.95
  Q 935.54 612.26 935.82 612.65
  C 936.15 613.13 936.56 613.54 936.68 614.12
  C 938.82 625.26 943.74 634.02 950.29 644.22
  C 952.00 646.89 952.12 649.02 949.54 651.26
  Q 937.53 661.67 923.02 668.34
  Q 922.43 668.61 922.49 667.97
  Q 923.26 659.41 927.07 651.76
  Q 927.44 651.02 927.08 650.29
  Q 923.98 643.91 916.89 645.18
  Q 903.47 647.58 890.58 651.97
  C 881.77 654.98 873.73 659.47 864.80 662.72
  C 857.69 665.31 850.56 668.52 843.52 670.66
  C 835.53 673.08 827.38 675.14 820.20 678.34
  C 802.10 686.41 786.54 693.82 765.50 700.25
  C 759.25 702.16 753.62 706.96 748.41 710.69
  Q 747.91 711.05 747.52 710.58
  Q 746.67 709.57 745.62 709.92
  Q 738.68 712.21 728.97 716.41
  Q 728.84 716.47 728.75 716.37
  Q 728.65 716.27 728.50 716.14
  Q 728.28 715.93 728.52 715.75
  L 732.09 713.10
  A 0.36 0.36 0.0 0 0 731.75 712.47
  Q 716.26 717.73 701.78 725.35
  Q 701.64 725.43 701.59 725.27
  Q 701.55 725.15 701.50 725.02
  Q 701.33 724.58 701.70 724.30
  Q 703.60 722.83 705.25 721.08
  Q 706.90 719.33 704.75 720.41
  C 693.17 726.20 681.25 731.02 669.40 736.21
  C 648.70 745.28 626.65 753.18 603.89 754.67
  C 586.50 755.81 570.56 755.36 553.86 755.63
  C 547.31 755.74 542.98 754.84 537.78 751.66
  Q 537.42 751.43 536.99 751.41
  L 526.11 750.72
  Q 525.63 750.69 525.33 750.31
  C 522.01 746.15 514.41 740.45 508.75 741.29"
/>
<path stroke="#5d0e06" vector-effect="non-scaling-stroke" d="
  M 508.75 741.29
  Q 468.79 674.12 428.15 607.36
  C 414.76 585.36 399.24 564.41 388.77 546.26
  C 385.22 540.12 384.96 533.61 380.81 527.53
  Q 363.10 501.56 348.32 475.44
  Q 345.20 469.92 343.16 463.62
  C 340.03 453.92 333.99 446.01 326.60 439.15
  C 318.19 431.34 317.33 421.52 304.56 420.50
  Q 304.06 420.46 303.68 420.79
  Q 277.60 442.94 256.45 469.72"
/>
<path stroke="#711707" vector-effect="non-scaling-stroke" d="
  M 256.45 469.72
  C 241.68 484.37 228.76 500.53 216.65 517.41
  Q 214.74 520.08 212.36 521.58
  C 208.63 523.95 200.98 526.46 199.71 530.95
  C 196.66 541.68 190.49 554.68 181.93 560.84
  C 179.36 562.68 179.06 566.11 176.77 568.32
  Q 158.84 585.63 145.50 606.72"
/>
<path stroke="#9e1708" vector-effect="non-scaling-stroke" d="
  M 152.70 561.12
  Q 155.83 561.89 156.63 560.17
  Q 165.89 540.15 171.26 517.14
  C 174.28 504.19 176.32 496.18 177.36 485.43
  Q 178.79 470.75 179.88 456.04
  C 181.01 440.82 185.56 425.88 189.79 411.28
  Q 189.90 410.89 189.65 410.56
  Q 189.40 410.24 189.50 409.79"
/>
<path stroke="#711707" vector-effect="non-scaling-stroke" d="
  M 38.96 758.70
  Q 43.77 759.22 47.98 757.73
  A 0.52 0.52 0.0 0 1 48.56 758.54
  L 41.07 768.34
  A 0.44 0.43 10.6 0 0 41.54 769.02
  L 48.65 766.98
  Q 49.15 766.84 49.63 767.05
  C 78.54 779.71 108.05 791.84 133.93 809.08
  Q 162.41 828.04 177.83 837.31
  Q 178.28 837.58 178.80 837.56
  C 183.50 837.37 188.55 836.64 193.22 838.31
  C 199.19 840.45 204.75 845.02 210.07 846.65
  C 236.35 854.72 256.34 862.13 280.17 867.36
  Q 281.66 867.68 298.05 870.48
  C 313.06 873.04 327.10 878.18 341.63 882.52
  C 347.33 884.22 352.48 882.24 358.27 884.40
  Q 384.36 894.16 412.00 898.06
  Q 412.54 898.14 412.81 898.44
  Q 413.12 898.78 412.85 899.15
  L 411.89 900.50
  Q 411.42 901.17 412.23 901.22
  C 417.11 901.53 421.52 901.79 426.30 902.96
  Q 428.13 903.41 430.56 903.08
  Q 467.91 898.08 488.82 894.37
  Q 492.57 893.71 494.37 891.93
  Q 494.76 891.55 495.30 891.54
  Q 502.11 891.49 507.60 887.50
  Q 508.05 887.16 508.62 887.19
  C 523.79 887.86 538.36 879.69 552.74 872.73
  Q 553.87 872.18 554.98 872.66
  Q 555.44 872.86 555.92 872.70
  L 557.66 872.08
  A 1.96 1.96 0.0 0 0 558.40 868.86
  C 551.93 862.30 547.61 854.43 543.43 846.25
  C 536.83 833.34 528.76 821.51 520.97 809.42
  Q 520.69 808.99 521.03 808.59
  Q 521.34 808.23 521.75 808.21"
/>
<path stroke="#ae7e75" vector-effect="non-scaling-stroke" d="
  M 521.75 808.21
  L 542.50 841.54"
/>
<path stroke="#aa6055" vector-effect="non-scaling-stroke" d="
  M 542.50 841.54
  C 543.11 842.88 557.49 873.20 559.80 864.02"
/>
<path stroke="#bd6559" vector-effect="non-scaling-stroke" d="
  M 390.46 530.75
  C 390.52 529.92 390.43 529.26 390.68 528.44
  Q 397.61 505.89 404.42 483.32"
/>
<path stroke="#9e1708" vector-effect="non-scaling-stroke" d="
  M 646.29 313.97
  Q 648.32 314.51 648.85 316.63
  Q 649.02 317.32 649.64 316.96
  C 654.54 314.11 655.76 307.43 655.57 302.50
  Q 654.92 285.48 656.34 267.45
  Q 656.42 266.38 657.47 266.18
  C 661.74 265.37 670.71 263.32 669.00 257.04"
/>
<path stroke="#8b1304" vector-effect="non-scaling-stroke" d="
  M 669.00 257.04
  L 669.54 256.00"
/>
<path stroke="#dc7e76" vector-effect="non-scaling-stroke" d="
  M 782.54 365.00
  C 797.48 388.10 811.81 411.66 827.19 434.44
  Q 849.74 467.82 869.75 502.79"
/>
<path stroke="#d76156" vector-effect="non-scaling-stroke" d="
  M 869.75 502.79
  L 883.42 530.48"
/>
<path stroke="#9e1708" vector-effect="non-scaling-stroke" d="
  M 883.42 530.48
  Q 878.34 540.31 883.83 549.18
  Q 897.38 571.07 917.23 597.30
  C 918.08 598.43 917.91 599.67 916.85 600.50
  Q 916.47 600.81 915.98 600.77
  Q 911.04 600.40 906.67 602.70
  Q 906.20 602.95 905.84 602.57
  C 903.08 599.69 902.23 598.00 897.94 597.73
  Q 897.33 597.69 897.46 598.29
  L 897.69 599.31
  Q 897.87 600.10 897.06 600.16
  L 892.65 600.49
  Q 892.15 600.53 891.72 600.77
  Q 879.84 607.53 866.17 607.71
  C 863.75 607.75 861.55 608.89 858.57 608.38
  C 845.25 606.09 832.57 601.53 819.25 597.53
  A 2.17 2.17 0.0 0 0 817.46 597.77
  Q 807.95 603.78 796.58 603.45
  Q 796.10 603.43 795.78 603.06
  Q 794.02 600.97 793.20 600.76
  C 784.38 598.56 774.16 597.79 766.66 596.09
  Q 757.63 594.05 748.49 591.30
  A 1.01 1.01 0.0 0 0 747.22 592.52
  Q 747.53 593.69 746.76 594.37
  Q 746.38 594.72 745.89 594.54
  Q 712.84 582.75 690.55 555.72
  Q 689.94 554.99 689.58 555.67
  A 0.51 0.50 42.5 0 0 689.61 556.20
  C 690.84 557.91 701.45 572.12 701.25 572.69
  Q 701.01 573.35 700.55 572.82
  L 688.02 558.43
  Q 687.66 558.01 687.71 557.45
  C 688.02 554.01 687.32 551.72 684.88 549.03
  C 672.82 535.67 666.29 524.16 657.94 510.53
  C 651.17 499.50 642.70 491.60 631.96 484.95
  C 629.96 483.71 629.26 482.46 629.85 480.17
  Q 629.99 479.65 629.64 479.24
  Q 628.76 478.21 627.26 477.21
  Q 601.32 460.00 570.27 462.04
  A 0.48 0.47 -37.2 0 0 570.14 462.96
  L 578.75 465.99
  A 0.38 0.38 0.0 0 1 578.67 466.72
  Q 570.18 467.77 562.24 467.77
  C 556.28 467.78 550.77 465.42 545.02 465.41
  C 531.04 465.41 518.11 471.32 505.96 478.48
  C 494.64 485.15 483.45 491.79 474.20 500.42
  C 463.41 510.50 453.15 522.74 444.50 533.76
  C 441.60 537.47 430.96 549.92 425.91 548.37
  Q 420.20 546.63 414.79 549.21
  Q 414.35 549.42 414.16 549.87
  C 413.59 551.22 413.53 552.50 412.41 553.50
  Q 408.50 557.02 404.83 554.40
  C 401.91 552.31 400.68 546.35 399.46 542.84
  Q 399.28 542.31 398.77 542.08
  Q 394.77 540.23 392.74 543.93
  Q 392.51 544.35 392.03 544.28
  C 386.75 543.54 388.57 535.42 389.55 531.46
  Q 389.67 530.96 390.16 530.83
  L 390.46 530.75"
/>
<path stroke="#d76156" vector-effect="non-scaling-stroke" d="
  M 390.46 530.75
  Q 391.52 532.48 392.64 533.13
  A 1.75 1.75 0.0 0 0 395.03 532.50
  C 399.73 524.43 402.04 516.08 404.90 507.39
  C 407.96 498.10 412.82 489.59 416.04 480.32
  C 427.10 448.43 440.06 417.52 452.79 386.27
  Q 454.08 383.10 454.30 380.24
  Q 454.50 377.58 455.12 376.04
  Q 480.00 314.18 504.85 252.30"
/>
<path stroke="#aa6055" vector-effect="non-scaling-stroke" d="
  M 720.29 259.75
  L 721.25 262.51"
/>
<path stroke="#ae7e75" vector-effect="non-scaling-stroke" d="
  M 721.25 262.51
  Q 726.85 277.74 732.31 285.94
  Q 757.88 324.32 781.79 363.75"
/>
<path stroke="#711707" vector-effect="non-scaling-stroke" d="
  M 781.79 363.75
  Q 781.74 364.21 781.53 364.44
  Q 781.16 364.83 780.88 364.37
  Q 758.46 327.54 734.65 291.60
  C 728.38 282.13 724.09 273.34 720.30 263.34
  Q 718.45 258.47 716.15 254.72
  Q 692.55 216.17 669.48 186.00
  Q 667.82 183.84 664.04 184.00"
/>
<path stroke="#aa6055" vector-effect="non-scaling-stroke" d="
  M 668.25 183.21
  C 667.04 183.18 663.83 181.38 664.04 184.00"
/>
<path stroke="#bd6559" vector-effect="non-scaling-stroke" d="
  M 664.04 184.00
  L 663.79 187.00"
/>
<path stroke="#aa6055" vector-effect="non-scaling-stroke" d="
  M 663.79 187.00
  L 663.83 188.69"
/>
<path stroke="#fbccc7" vector-effect="non-scaling-stroke" d="
  M 663.83 188.69
  Q 661.11 185.77 657.44 184.53
  A 0.66 0.66 0.0 0 0 656.58 185.04
  C 653.80 200.39 651.65 219.60 659.32 234.00
  Q 659.56 234.46 659.33 234.92
  L 658.79 235.97"
/>
<path stroke="#aa6055" vector-effect="non-scaling-stroke" d="
  M 658.79 235.97
  C 657.10 233.94 648.40 222.35 645.74 224.61
  A 1.15 1.14 -35.0 0 0 645.48 226.06
  C 648.00 230.50 648.68 234.06 648.61 239.53
  Q 648.49 249.50 648.25 259.46"
/>
<path stroke="#bd6559" vector-effect="non-scaling-stroke" d="
  M 648.25 259.46
  L 646.29 293.25"
/>
<path stroke="#fbccc7" vector-effect="non-scaling-stroke" d="
  M 646.29 293.25
  L 646.91 275.03
  Q 646.93 274.54 646.58 274.19
  Q 645.52 273.12 645.53 271.94
  Q 645.71 255.13 645.27 238.32
  C 645.09 231.31 638.39 231.25 633.52 229.58
  Q 633.02 229.40 632.83 228.91
  Q 629.46 220.05 626.01 211.21
  Q 624.95 208.50 623.10 206.97
  Q 622.75 206.68 622.64 206.24
  Q 621.94 203.33 618.91 202.79
  Q 618.43 202.70 618.00 202.97
  Q 615.87 204.32 614.72 207.06"
/>
<path stroke="#aa6055" vector-effect="non-scaling-stroke" d="
  M 614.72 207.06
  L 610.08 182.87
  A 0.42 0.42 0.0 0 0 609.32 182.72
  L 602.75 192.79"
/>
<path stroke="#fbccc7" vector-effect="non-scaling-stroke" d="
  M 602.75 192.79
  C 601.43 191.63 597.95 187.83 596.31 190.81
  Q 592.99 196.87 589.23 202.75
  Q 589.00 203.10 588.57 203.10
  L 579.74 202.95
  A 1.31 1.31 0.0 0 1 578.46 201.75
  C 577.97 196.13 577.87 188.33 575.14 183.35
  Q 573.63 180.60 571.89 177.96
  Q 571.58 177.50 571.03 177.50
  L 566.63 177.50
  Q 566.13 177.50 565.80 177.88
  L 563.96 180.00"
/>
<path stroke="#aa6055" vector-effect="non-scaling-stroke" d="
  M 563.96 180.00
  L 562.25 178.71"
/>
<path stroke="#711707" vector-effect="non-scaling-stroke" d="
  M 570.15 270.25
  Q 569.11 271.22 568.84 272.52
  Q 568.72 273.07 568.28 272.74
  C 567.97 272.51 567.95 272.02 568.09 271.64
  C 569.83 266.70 568.16 263.30 568.33 258.70
  C 568.52 253.40 568.02 248.33 568.05 242.87
  C 568.07 237.80 567.16 232.69 567.23 227.97
  C 567.32 221.22 566.22 215.97 566.01 209.93
  C 565.69 200.67 564.04 191.85 563.44 182.54
  A 1.44 1.17 -8.8 0 0 561.73 181.54
  Q 561.15 181.66 560.12 182.88
  Q 549.33 195.51 538.49 208.12
  C 530.47 217.46 520.85 227.64 515.04 237.79
  Q 510.55 245.62 509.25 247.54"
/>
<path stroke="#8b1304" vector-effect="non-scaling-stroke" d="
  M 509.25 247.54
  L 508.25 246.96"
/>
<path stroke="#5d0e06" vector-effect="non-scaling-stroke" d="
  M 412.42 419.24
  Q 412.36 421.40 410.96 422.41
  C 407.75 424.71 405.40 420.07 403.65 418.49
  Q 398.61 413.95 393.29 409.75"
/>
<path stroke="#770a03" vector-effect="non-scaling-stroke" d="
  M 393.29 409.75
  Q 384.50 400.87 373.90 394.15
  Q 373.47 393.89 373.23 393.44
  C 372.04 391.22 369.49 390.80 368.13 389.75
  Q 335.28 364.43 302.57 338.95"
/>
<path stroke="#9b7574" vector-effect="non-scaling-stroke" d="
  M 302.57 338.95
  L 207.51 255.15"
/>
<path stroke="#965754" vector-effect="non-scaling-stroke" d="
  M 197.71 314.75
  C 193.16 346.61 189.45 376.93 181.19 409.46"
/>
<path stroke="#770a03" vector-effect="non-scaling-stroke" d="
  M 181.19 409.46
  C 176.89 425.26 172.64 441.48 171.12 457.83
  Q 169.52 475.00 165.69 497.23
  C 164.19 505.94 163.92 517.59 160.69 529.70
  C 158.07 539.52 156.29 550.76 152.70 561.12"
/>
<path stroke="#5d0e06" vector-effect="non-scaling-stroke" d="
  M 152.70 561.12
  C 152.03 566.40 151.42 571.06 149.87 576.50
  C 147.30 585.44 146.47 594.58 144.04 603.50
  Q 143.52 605.40 145.50 606.72"
/>
<path stroke="#4a0902" vector-effect="non-scaling-stroke" d="
  M 145.50 606.72
  C 146.60 607.88 139.75 613.83 138.85 614.62"
/>
<path stroke="#aa6055" vector-effect="non-scaling-stroke" d="
  M 245.75 303.96
  L 243.47 304.64
  Q 242.87 304.82 242.95 305.44
  Q 243.31 308.44 246.20 308.48
  Q 246.73 308.49 247.09 308.89
  Q 251.80 314.16 251.22 321.28
  Q 251.18 321.77 251.45 322.19
  C 254.42 326.64 258.74 331.59 259.50 336.71"
/>
<path stroke="#bd6559" vector-effect="non-scaling-stroke" d="
  M 259.50 336.71
  Q 259.06 338.14 257.81 337.43
  Q 250.75 333.37 243.20 333.37
  Q 242.64 333.37 242.50 333.91
  C 241.29 338.67 240.81 343.11 242.74 347.93
  C 244.12 351.35 256.22 381.98 253.45 383.21
  Q 253.01 383.41 252.82 382.97
  Q 241.21 357.06 219.99 338.22
  Q 219.52 337.80 219.13 338.29
  C 215.56 342.90 214.23 346.43 211.43 353.18
  Q 200.21 380.24 190.72 407.95
  Q 190.35 409.03 189.50 409.79"
/>
<path stroke="#d76156" vector-effect="non-scaling-stroke" d="
  M 189.50 409.79
  Q 185.03 413.71 181.19 409.46"
/>
<path stroke="#aa6055" vector-effect="non-scaling-stroke" d="
  M 38.00 751.79
  C 33.47 757.38 26.20 765.78 19.64 768.78
  Q 17.34 769.84 14.96 770.75"
/>
<path stroke="#8b1304" vector-effect="non-scaling-stroke" d="
  M 297.75 343.79
  L 299.00 345.29"
/>
<path stroke="#711707" vector-effect="non-scaling-stroke" d="
  M 299.00 345.29
  C 296.95 346.36 296.37 344.36 295.28 343.51
  Q 272.50 325.72 249.42 308.23
  A 0.25 0.24 -88.0 0 0 249.07 308.56
  Q 251.97 313.10 252.42 318.42
  C 253.01 325.53 260.74 329.66 260.75 336.74
  Q 260.75 337.27 260.23 337.26
  Q 259.69 337.26 259.50 336.71"
/>
<path stroke="#4a0902" vector-effect="non-scaling-stroke" d="
  M 508.75 741.29
  Q 512.99 752.91 519.24 763.55
  C 535.17 790.69 549.37 818.66 566.91 844.85
  C 568.43 847.13 573.52 852.95 572.53 855.75
  Q 569.83 863.45 561.82 862.34
  Q 561.33 862.28 561.15 862.74
  Q 560.76 863.70 559.80 864.02"
/>
<path stroke="#965754" vector-effect="non-scaling-stroke" d="
  M 559.80 864.02
  Q 558.98 860.18 556.79 857.00"
/>
<path stroke="#9b7574" vector-effect="non-scaling-stroke" d="
  M 556.79 857.00
  Q 508.17 762.89 451.81 673.19
  Q 443.82 660.47 422.00 621.71"
/>
<path stroke="#965754" vector-effect="non-scaling-stroke" d="
  M 422.00 621.71
  L 420.79 619.75"
/>
<path stroke="#9b7574" vector-effect="non-scaling-stroke" d="
  M 420.79 619.75
  Q 368.63 529.48 316.08 439.43
  C 314.39 436.53 311.00 424.28 305.40 429.90
  C 297.84 437.48 291.11 445.41 283.72 454.82
  Q 250.53 497.08 216.10 538.35
  C 207.55 548.60 200.32 559.82 192.46 570.75"
/>
<path stroke="#965754" vector-effect="non-scaling-stroke" d="
  M 192.46 570.75
  C 167.92 596.84 146.19 625.12 122.94 652.28
  Q 87.82 693.28 53.22 734.71
  Q 48.22 740.69 38.00 751.79"
/>
<path stroke="#4a0902" vector-effect="non-scaling-stroke" d="
  M 38.00 751.79
  Q 37.46 751.22 37.48 750.46
  Q 37.49 749.96 37.85 749.59
  C 56.87 730.23 77.37 703.11 101.44 675.34
  C 131.49 640.65 157.79 607.04 185.96 575.85
  C 194.20 566.73 200.42 557.23 207.01 547.22
  A 0.96 0.95 -48.8 0 0 206.94 546.08
  L 204.44 543.14
  Q 204.05 542.68 204.31 542.14
  C 213.27 523.27 231.77 513.96 240.77 494.84
  C 244.93 485.98 251.97 478.78 256.45 469.72"
/>
<path stroke="#fbccc7" vector-effect="non-scaling-stroke" d="
  M 422.00 621.71
  Q 421.67 621.67 421.45 621.76
  Q 420.94 621.94 421.20 622.41
  Q 442.37 660.36 448.55 670.20
  Q 506.05 761.65 555.89 857.49
  Q 556.44 858.55 556.70 857.39
  L 556.79 857.00"
/>
<path stroke="#fbccc7" vector-effect="non-scaling-stroke" d="
  M 542.50 841.54
  Q 542.87 841.38 543.03 841.09
  Q 543.27 840.64 543.01 840.20
  Q 531.97 821.97 520.52 803.98
  Q 512.84 791.91 497.61 764.41
  Q 488.34 747.69 466.85 713.70
  C 450.88 688.43 435.61 662.66 420.20 637.05
  C 419.14 635.28 413.74 625.57 412.00 625.79"
/>
<path stroke="#c28279" vector-effect="non-scaling-stroke" d="
  M 521.75 808.21
  L 521.00 807.21"
/>
<path stroke="#d76156" vector-effect="non-scaling-stroke" d="
  M 193.25 577.04
  Q 184.62 583.29 182.92 593.49
  C 180.23 609.66 165.03 625.50 151.49 633.58
  Q 148.91 635.12 147.15 637.18
  Q 126.69 661.10 106.14 684.95
  Q 103.98 687.45 101.05 689.69
  C 91.53 696.94 84.30 704.49 79.25 715.46"
/>
<path stroke="#bd6559" vector-effect="non-scaling-stroke" d="
  M 79.25 715.46
  L 38.96 758.70"
/>
<path stroke="#aa6055" vector-effect="non-scaling-stroke" d="
  M 38.96 758.70
  Q 28.73 768.58 15.18 773.24"
/>
<path stroke="#711707" vector-effect="non-scaling-stroke" d="
  M 669.00 257.04
  C 666.96 256.01 662.55 245.59 661.23 243.00
  C 658.20 236.99 654.15 232.54 649.72 227.71
  Q 646.82 224.54 648.34 228.55
  C 651.64 237.29 649.88 249.16 649.39 258.38
  C 649.36 259.00 648.93 259.64 648.25 259.46"
/>
<path stroke="#c28279" vector-effect="non-scaling-stroke" d="
  M 639.79 341.00
  L 640.21 342.78"
/>
<path stroke="#9e1708" vector-effect="non-scaling-stroke" d="
  M 640.21 342.78
  C 628.99 356.38 624.66 298.42 624.49 295.16
  C 623.93 284.89 621.90 277.73 619.35 269.10
  Q 617.67 263.41 616.98 257.71
  C 615.65 246.85 615.22 223.05 599.17 225.07
  A 1.08 1.07 -89.3 0 0 598.24 225.98
  Q 595.91 242.43 591.60 258.47
  C 589.88 264.86 587.48 268.29 580.92 269.15"
/>
<path stroke="#c28279" vector-effect="non-scaling-stroke" d="
  M 646.29 293.25
  L 646.29 313.97"
/>
<path stroke="#dc7e76" vector-effect="non-scaling-stroke" d="
  M 646.29 313.97
  L 644.12 348.15
  A 1.18 1.18 0.0 0 1 643.93 348.72
  C 642.51 351.04 640.43 343.63 640.21 342.78"
/>
<path stroke="#ae7e75" vector-effect="non-scaling-stroke" d="
  M 614.72 207.06
  Q 631.47 273.23 639.79 341.00"
/>
<path stroke="#711707" vector-effect="non-scaling-stroke" d="
  M 639.79 341.00
  L 639.09 342.01
  A 0.40 0.39 59.6 0 1 638.37 341.82
  Q 637.63 333.41 636.33 325.90
  C 635.91 323.47 636.09 320.88 635.56 318.25
  Q 634.67 313.76 634.66 313.71
  Q 626.99 262.32 614.43 211.92
  C 612.90 205.77 611.85 198.66 610.29 192.11
  C 609.88 190.40 610.41 188.38 609.33 186.61
  Q 609.04 186.14 608.71 186.59
  Q 604.63 192.11 603.17 195.68
  C 598.80 206.39 594.74 219.39 591.18 232.28
  Q 586.10 250.70 580.92 269.15"
/>
<path stroke="#8b1304" vector-effect="non-scaling-stroke" d="
  M 580.92 269.15
  Q 580.50 269.89 579.00 269.46"
/>
<path stroke="#ae7e75" vector-effect="non-scaling-stroke" d="
  M 602.75 192.79
  C 592.64 217.74 586.94 243.82 579.00 269.46"
/>
<path stroke="#dc7e76" vector-effect="non-scaling-stroke" d="
  M 579.00 269.46
  L 571.17 280.85
  A 0.64 0.64 0.0 0 1 570.00 280.49
  L 569.96 272.25"
/>
<path stroke="#c28279" vector-effect="non-scaling-stroke" d="
  M 569.96 272.25
  L 570.15 270.25"
/>
<path stroke="#ae7e75" vector-effect="non-scaling-stroke" d="
  M 570.15 270.25
  Q 570.12 225.44 564.34 181.02
  Q 564.27 180.48 563.96 180.00"
/>
<path stroke="#c28279" vector-effect="non-scaling-stroke" d="
  M 781.79 363.75
  L 782.54 365.00"
/>
<path stroke="#9e1708" vector-effect="non-scaling-stroke" d="
  M 782.54 365.00
  C 779.51 372.70 762.86 346.59 761.29 344.18
  Q 756.78 337.22 753.44 333.38
  C 744.59 323.19 732.81 313.94 725.56 303.45
  Q 721.23 297.20 720.49 293.75
  C 718.13 282.68 716.67 275.06 710.31 265.85
  A 1.91 1.91 0.0 0 1 710.11 264.04
  C 712.56 258.00 710.65 254.22 706.63 249.04
  Q 695.02 234.12 683.80 218.84
  A 1.24 1.24 0.0 0 0 682.21 218.48
  L 678.18 220.68
  A 1.64 1.64 0.0 0 0 677.50 222.86
  Q 686.37 240.50 686.68 260.29
  A 1.45 1.45 0.0 0 1 684.75 261.69
  Q 682.02 260.73 679.57 262.13"
/>
<path stroke="#c28279" vector-effect="non-scaling-stroke" d="
  M 679.57 262.13
  L 679.54 260.25"
/>
<path stroke="#711707" vector-effect="non-scaling-stroke" d="
  M 679.54 260.25
  Q 680.17 260.46 680.58 260.26
  Q 681.07 260.04 680.95 259.52
  C 678.13 247.18 675.43 234.82 672.12 222.59
  C 668.95 210.86 667.36 199.07 664.62 187.39
  Q 664.52 186.96 664.08 186.98
  L 663.79 187.00"
/>
<path stroke="#9e1708" vector-effect="non-scaling-stroke" d="
  M 569.96 272.25
  L 566.86 275.32
  A 1.24 1.24 0.0 0 1 564.89 275.03
  C 561.75 269.15 559.69 263.29 559.72 256.28
  Q 559.86 230.07 560.35 204.04
  A 1.03 1.03 0.0 0 0 558.52 203.38
  L 554.01 209.05
  Q 553.66 209.49 553.12 209.64
  C 547.38 211.31 542.58 213.09 539.14 218.13
  Q 525.97 237.43 509.71 254.29
  A 0.84 0.83 -31.2 0 1 508.31 253.95
  Q 507.32 250.57 509.25 247.54"
/>
<path stroke="#ae7e75" vector-effect="non-scaling-stroke" d="
  M 663.83 188.69
  C 666.11 200.77 668.20 212.38 671.26 224.65
  Q 675.69 242.38 679.54 260.25"
/>
<path stroke="#dc7e76" vector-effect="non-scaling-stroke" d="
  M 679.57 262.13
  Q 680.55 265.56 680.44 268.76
  Q 680.40 269.68 679.83 268.96
  L 669.54 256.00"
/>
<path stroke="#ae7e75" vector-effect="non-scaling-stroke" d="
  M 669.54 256.00
  L 658.79 235.97"
/>
<path stroke="#dc7e76" vector-effect="non-scaling-stroke" d="
  M 302.57 338.95
  Q 300.86 342.36 297.75 343.79"
/>
<path stroke="#ae7e75" vector-effect="non-scaling-stroke" d="
  M 297.75 343.79
  L 245.75 303.96"
/>
<path stroke="#fbccc7" vector-effect="non-scaling-stroke" d="
  M 245.75 303.96
  Q 245.65 303.18 245.14 302.60
  Q 231.97 287.38 217.51 273.37
  C 214.29 270.25 211.16 270.55 210.28 275.42
  Q 206.85 294.25 203.36 313.06
  C 202.73 316.46 199.68 317.83 197.71 314.75"
/>
<path stroke="#9b7574" vector-effect="non-scaling-stroke" d="
  M 197.71 314.75
  Q 201.49 286.17 205.93 257.68
  Q 206.06 256.82 206.50 256.04"
/>
<path stroke="#fbccc7" vector-effect="non-scaling-stroke" d="
  M 420.79 619.75
  L 417.63 622.19
  Q 417.22 622.51 416.70 622.53
  L 410.29 622.75"
/>
<path stroke="#ae7e75" vector-effect="non-scaling-stroke" d="
  M 410.29 622.75
  Q 387.44 588.96 356.33 562.59
  Q 355.86 562.19 355.78 562.80
  Q 355.58 564.39 356.04 566.00"
/>
<path stroke="#c28279" vector-effect="non-scaling-stroke" d="
  M 356.04 566.00
  L 356.54 571.00"
/>
<path stroke="#ae7e75" vector-effect="non-scaling-stroke" d="
  M 356.54 571.00
  Q 360.03 609.81 367.79 648.00"
/>
<path stroke="#c28279" vector-effect="non-scaling-stroke" d="
  M 367.79 648.00
  L 368.04 648.75"
/>
<path stroke="#dc7e76" vector-effect="non-scaling-stroke" d="
  M 368.04 648.75
  L 369.33 657.66
  A 1.11 1.10 8.8 0 1 367.75 658.81
  Q 362.47 656.25 358.79 651.25"
/>
<path stroke="#ae7e75" vector-effect="non-scaling-stroke" d="
  M 358.79 651.25
  Q 344.18 628.17 324.90 608.75
  A 0.96 0.95 42.7 0 0 323.49 608.80
  C 321.63 611.00 319.30 613.19 318.91 616.25
  Q 316.61 634.40 314.04 652.50"
/>
<path stroke="#dc7e76" vector-effect="non-scaling-stroke" d="
  M 314.04 652.50
  L 297.20 731.73
  A 0.46 0.46 0.0 0 1 296.29 731.62
  L 296.71 710.75"
/>
<path stroke="#ae7e75" vector-effect="non-scaling-stroke" d="
  M 296.71 710.75
  C 296.61 687.21 295.83 663.71 295.52 640.18
  C 295.21 616.60 293.44 592.75 293.93 567.58
  C 293.97 565.31 293.42 563.14 290.57 563.88
  A 2.38 2.33 -83.9 0 0 289.04 565.14
  C 282.85 577.80 277.29 590.23 270.41 603.00
  C 263.34 616.11 257.12 629.63 249.75 642.46"
/>
<path stroke="#dc7e76" vector-effect="non-scaling-stroke" d="
  M 249.75 642.46
  L 245.86 647.42
  A 0.61 0.61 0.0 0 1 244.77 647.01
  L 245.21 637.50"
/>
<path stroke="#ae7e75" vector-effect="non-scaling-stroke" d="
  M 245.21 637.50
  Q 246.37 617.70 250.02 598.21
  C 252.57 584.63 255.09 570.43 253.28 556.59
  A 0.76 0.75 -18.1 0 0 252.17 556.03
  Q 251.87 556.20 251.54 556.54
  Q 233.20 575.73 217.01 596.75
  Q 212.95 602.02 205.87 606.65"
/>
<path stroke="#dc7e76" vector-effect="non-scaling-stroke" d="
  M 205.87 606.65
  Q 200.87 607.71 196.99 605.43
  Q 196.51 605.15 196.44 604.59
  L 193.25 577.04"
/>
<path stroke="#fbccc7" vector-effect="non-scaling-stroke" d="
  M 193.25 577.04
  Q 195.12 573.56 192.46 570.75"
/>
<path stroke="#aa6055" vector-effect="non-scaling-stroke" d="
  M 410.29 622.75
  L 412.00 625.79"
/>
<path stroke="#ae7e75" vector-effect="non-scaling-stroke" d="
  M 412.00 625.79
  L 418.04 635.75"
/>
<path stroke="#711707" vector-effect="non-scaling-stroke" d="
  M 418.04 635.75
  Q 417.95 636.11 417.67 636.27
  Q 417.25 636.50 416.99 636.10
  C 412.85 629.66 408.92 622.61 404.74 616.79
  Q 384.01 587.93 358.48 565.77
  Q 357.45 564.88 356.04 566.00"
/>
<path stroke="#c28279" vector-effect="non-scaling-stroke" d="
  M 418.04 635.75
  L 419.27 637.93"
/>
<path stroke="#9e1708" vector-effect="non-scaling-stroke" d="
  M 419.27 637.93
  L 417.70 641.23
  Q 417.39 641.88 416.81 641.47
  C 406.44 634.12 401.27 617.54 389.22 613.91
  Q 388.73 613.77 388.40 613.39
  Q 385.35 609.92 384.71 608.49
  Q 378.08 593.84 367.05 582.20
  Q 365.18 580.22 363.88 582.70
  A 1.69 1.67 -40.5 0 0 363.77 584.00
  C 365.62 589.75 369.55 598.43 369.41 604.29
  C 369.30 608.68 369.42 611.99 370.81 616.45
  Q 372.44 621.67 372.47 623.49
  Q 372.71 636.46 373.80 649.13
  A 1.11 1.11 0.0 0 1 372.33 650.27
  L 368.04 648.75"
/>
<path stroke="#711707" vector-effect="non-scaling-stroke" d="
  M 367.79 648.00
  Q 368.40 648.34 368.89 648.07
  Q 369.33 647.82 369.23 647.33
  Q 361.51 608.81 357.52 569.72
  A 0.20 0.20 0.0 0 0 357.12 569.74
  Q 357.13 570.39 356.54 571.00"
/>
<path stroke="#8b1304" vector-effect="non-scaling-stroke" d="
  M 314.04 652.50
  L 314.96 653.25"
/>
<path stroke="#9e1708" vector-effect="non-scaling-stroke" d="
  M 314.96 653.25
  C 315.66 658.21 321.87 656.54 322.63 652.00
  Q 324.91 638.39 325.75 624.73
  A 1.17 1.17 0.0 0 1 327.70 623.93
  Q 332.42 628.14 331.78 634.37
  Q 331.73 634.87 331.97 635.32
  C 336.92 644.41 342.13 658.06 355.15 656.62
  C 357.60 656.35 358.57 654.51 358.00 652.29"
/>
<path stroke="#8b1304" vector-effect="non-scaling-stroke" d="
  M 358.00 652.29
  Q 358.91 652.17 358.79 651.25"
/>
<path stroke="#dc7e76" vector-effect="non-scaling-stroke" d="
  M 419.27 637.93
  Q 450.10 689.03 481.43 739.80
  C 495.10 761.96 507.71 784.80 521.00 807.21"
/>
<path stroke="#9e1708" vector-effect="non-scaling-stroke" d="
  M 521.00 807.21
  L 514.86 814.28
  Q 514.49 814.71 513.91 814.70
  Q 510.37 814.63 509.61 817.97
  Q 509.49 818.50 508.95 818.50
  L 496.73 818.50
  Q 495.26 818.50 496.49 819.31
  L 498.88 820.89
  A 0.38 0.38 0.0 0 1 498.70 821.58
  Q 491.55 822.08 485.17 819.32
  C 481.74 817.84 477.74 818.47 474.24 817.75
  Q 450.98 812.93 427.47 809.09
  Q 426.94 809.01 426.66 808.54
  Q 424.72 805.18 420.78 805.96
  Q 420.22 806.07 419.80 805.68
  Q 416.59 802.72 412.65 804.51
  Q 412.19 804.72 411.72 804.53
  L 393.03 797.23
  Q 392.54 797.04 392.28 797.50
  L 391.70 798.50
  Q 391.44 798.95 390.98 798.70
  L 365.89 784.92
  Q 365.42 784.66 365.50 784.13
  C 365.68 782.97 365.40 782.57 364.40 781.99
  Q 357.62 778.10 350.94 773.94
  C 349.92 773.30 349.21 773.04 349.14 774.64
  Q 349.10 775.46 348.37 775.07
  L 314.12 756.36
  A 0.63 0.63 0.0 0 1 314.27 755.20
  Q 315.32 754.93 315.58 753.96
  Q 315.76 753.32 315.12 753.13
  Q 309.41 751.47 303.51 750.68
  C 296.85 749.80 294.42 747.89 288.74 744.46
  C 282.32 740.57 274.59 742.04 267.12 742.47
  C 265.88 742.55 264.40 743.24 265.05 744.66
  A 1.35 1.34 -10.4 0 1 263.74 746.56
  L 257.77 746.21
  A 0.84 0.84 0.0 0 1 256.99 745.26
  L 257.58 740.80
  A 0.74 0.74 0.0 0 0 256.82 739.96
  C 245.98 740.34 235.58 741.78 224.75 740.50
  C 218.37 739.75 211.08 742.62 203.78 741.45
  C 182.50 738.02 161.26 734.60 139.96 731.31
  Q 139.37 731.22 139.32 730.63
  L 139.12 728.60
  Q 139.05 727.91 138.36 727.88
  L 121.35 727.31
  Q 120.40 727.27 121.06 726.59
  L 122.47 725.14
  A 0.36 0.36 0.0 0 0 122.17 724.53
  C 113.71 725.39 107.36 720.69 100.28 717.19
  Q 90.76 712.49 83.36 719.73
  A 0.50 0.50 0.0 0 1 82.51 719.43
  Q 82.23 716.88 83.46 714.68
  Q 83.86 713.98 83.18 714.41
  Q 81.38 715.56 79.25 715.46"
/>
<path stroke="#8b1304" vector-effect="non-scaling-stroke" d="
  M 296.71 710.75
  L 295.54 710.86"
/>
<path stroke="#711707" vector-effect="non-scaling-stroke" d="
  M 295.54 710.86
  Q 295.83 707.24 295.39 698.56
  Q 293.82 667.83 294.00 624.25
  C 294.01 621.91 292.98 618.95 293.00 616.23
  C 293.05 610.12 293.77 602.18 292.33 596.28
  C 291.65 593.49 292.24 589.60 292.12 587.70
  C 291.68 580.91 292.74 573.59 292.66 567.50
  Q 292.64 565.87 291.25 565.01
  A 0.51 0.51 0.0 0 0 290.53 565.22
  C 283.87 578.50 278.63 591.63 271.04 605.16
  C 264.03 617.63 258.23 631.00 250.71 643.50"
/>
<path stroke="#8b1304" vector-effect="non-scaling-stroke" d="
  M 250.71 643.50
  L 249.75 642.46"
/>
<path stroke="#711707" vector-effect="non-scaling-stroke" d="
  M 358.00 652.29
  Q 343.59 629.63 324.71 610.57
  Q 324.39 610.24 324.04 610.55
  Q 321.21 613.07 320.82 614.82
  Q 318.96 623.28 316.75 644.25
  Q 316.20 649.47 314.96 653.25"
/>
<path stroke="#8b1304" vector-effect="non-scaling-stroke" d="
  M 245.21 637.50
  L 244.04 638.00"
/>
<path stroke="#711707" vector-effect="non-scaling-stroke" d="
  M 244.04 638.00
  C 243.78 627.84 245.40 617.52 247.23 607.54
  C 248.81 598.93 249.71 591.75 251.26 581.48
  Q 252.95 570.29 251.79 559.81
  Q 251.61 558.21 250.51 559.39
  Q 234.96 576.10 221.60 593.08
  C 218.55 596.96 209.73 607.57 205.75 608.21"
/>
<path stroke="#8b1304" vector-effect="non-scaling-stroke" d="
  M 205.75 608.21
  Q 205.66 607.29 205.87 606.65"
/>
<path stroke="#9e1708" vector-effect="non-scaling-stroke" d="
  M 244.04 638.00
  C 238.66 643.44 236.85 632.11 236.67 629.39
  Q 236.50 626.63 237.76 622.28
  Q 242.29 606.54 244.46 590.51
  A 1.10 1.10 0.0 0 0 243.38 589.26
  L 239.52 589.24
  Q 239.00 589.24 238.59 589.57
  L 208.12 613.63
  Q 207.18 614.37 206.36 613.50
  Q 203.79 610.80 205.75 608.21"
/>
<path stroke="#9e1708" vector-effect="non-scaling-stroke" d="
  M 295.54 710.86
  C 290.23 713.95 288.82 707.41 288.60 703.85
  Q 286.29 667.75 287.02 631.58
  Q 287.08 628.55 286.37 623.98
  C 285.44 617.91 287.46 594.14 283.13 592.28
  A 1.81 1.81 0.0 0 0 280.71 593.37
  Q 277.14 604.09 273.05 614.57
  C 267.67 628.38 263.69 637.66 255.26 647.67
  A 0.39 0.39 0.0 0 1 254.68 647.69
  L 250.71 643.50"
/>
</g>
<path fill="#360000" d="
  M 962.81 621.70
  C 958.46 623.70 954.34 626.14 951.25 620.46
  C 947.98 614.95 944.92 608.63 942.03 603.67
  Q 910.72 550.03 876.79 498.00
  C 857.98 467.74 838.11 437.97 819.84 407.41
  Q 780.59 341.76 738.75 277.73
  Q 735.89 273.35 727.96 257.75
  L 726.79 255.50
  Q 718.81 237.61 711.75 226.00
  Q 647.55 120.44 593.97 29.55
  C 589.48 21.94 583.76 34.37 582.49 37.62
  Q 540.42 145.16 496.50 251.96
  Q 463.33 335.10 430.25 418.28
  Q 427.49 425.22 422.45 436.68
  Q 412.38 459.59 404.42 483.32
  C 402.09 484.07 402.66 487.48 400.78 487.46
  C 397.66 487.42 396.38 482.71 396.68 480.23
  C 398.26 466.97 406.78 456.91 410.01 444.40
  Q 413.18 432.14 416.74 420.06
  Q 420.06 414.22 422.40 407.86
  Q 422.46 407.71 424.19 404.37
  C 425.26 402.31 424.78 400.55 425.49 398.60
  Q 428.43 390.61 431.18 382.56
  Q 431.37 382.00 431.96 382.00
  Q 432.10 382.00 432.24 382.00
  Q 432.80 382.00 432.95 381.46
  Q 434.98 374.29 437.74 367.41
  C 438.80 364.76 439.83 360.77 441.54 357.65
  Q 441.79 357.20 441.74 356.70
  Q 441.64 355.71 442.39 354.99
  Q 442.75 354.65 442.91 354.18
  C 446.36 344.46 449.95 336.52 453.39 327.66
  C 454.13 325.75 455.95 322.55 456.78 319.86
  C 457.61 317.22 458.96 315.02 460.09 312.60
  C 460.85 310.99 461.09 308.70 462.54 306.89
  Q 462.84 306.52 462.82 306.05
  Q 462.76 303.73 463.55 302.06
  Q 473.88 280.17 480.02 260.76
  C 484.75 245.80 489.33 233.87 496.16 218.65
  Q 505.01 198.93 511.76 181.79
  Q 531.17 132.49 555.29 68.36
  C 559.27 57.78 566.05 48.05 568.50 37.02
  Q 569.92 30.58 570.78 28.68
  C 576.91 15.09 592.31 5.10 604.03 20.99
  C 616.85 38.38 626.33 55.83 636.61 73.88
  C 637.13 74.80 637.01 75.18 637.00 76.20
  Q 636.99 76.69 637.27 77.11
  C 642.75 85.52 649.30 94.25 653.36 103.42
  C 655.14 107.47 656.70 111.53 658.93 115.33
  C 672.87 139.11 685.10 162.60 700.97 186.84
  C 715.53 209.07 730.72 230.49 741.68 255.27
  Q 741.70 255.31 745.54 265.33
  C 749.91 276.76 757.22 285.23 765.39 294.10
  Q 766.93 295.77 767.15 298.42
  Q 767.20 299.00 767.78 299.00
  L 768.46 299.00
  Q 769.08 299.00 769.01 299.61
  Q 768.75 301.78 770.60 302.90
  Q 771.07 303.19 771.01 303.74
  Q 770.86 305.23 772.35 304.99
  Q 772.94 304.89 772.97 305.49
  L 773.07 307.52
  Q 773.10 308.18 773.75 308.03
  C 775.19 307.68 776.05 312.57 777.03 313.47
  Q 778.11 314.46 778.36 315.47
  Q 778.47 315.93 778.85 316.22
  Q 780.02 317.09 780.22 318.54
  Q 780.28 319.00 780.74 319.00
  L 781.17 319.00
  Q 781.68 319.00 781.78 319.50
  C 782.45 323.10 785.20 325.02 786.34 328.52
  Q 786.51 329.01 786.93 329.32
  Q 788.05 330.12 788.21 331.51
  Q 788.27 332.00 788.75 332.00
  L 789.01 332.00
  Q 789.44 332.00 789.60 332.40
  L 791.22 336.49
  Q 791.42 337.00 791.98 337.00
  L 792.50 337.00
  Q 792.84 337.00 792.87 337.34
  C 793.31 341.24 796.14 342.77 797.12 346.51
  Q 797.25 347.00 797.75 347.00
  L 798.28 347.00
  Q 798.91 347.00 798.95 347.63
  Q 799.11 349.99 800.78 351.87
  Q 800.87 351.97 801.01 351.99
  Q 801.16 352.00 801.30 352.01
  Q 801.70 352.01 801.81 352.40
  C 803.33 358.04 807.24 361.90 809.36 366.57
  Q 809.56 367.00 810.03 367.00
  L 810.48 367.00
  Q 811.13 367.00 811.03 367.64
  Q 810.82 369.00 811.62 370.00
  Q 811.96 370.42 811.99 370.97
  Q 812.05 372.16 813.02 372.03
  Q 813.59 371.95 813.79 372.49
  L 815.17 376.21
  Q 815.36 376.75 815.79 377.13
  Q 816.81 378.03 817.16 379.44
  Q 817.28 379.90 817.76 379.94
  Q 819.53 380.10 819.24 382.00
  Q 819.17 382.47 819.43 382.86
  L 826.49 393.58
  Q 826.77 394.00 827.27 393.97
  Q 827.45 393.96 827.59 394.02
  Q 828.08 394.21 828.06 394.73
  C 828.04 395.77 827.63 397.40 829.49 396.99
  Q 830.03 396.86 830.31 397.35
  C 832.20 400.66 834.59 403.94 836.37 407.02
  Q 853.92 437.33 872.39 467.08
  C 887.92 492.11 902.19 517.66 919.09 541.84
  Q 938.23 569.21 955.78 597.64
  C 958.47 602.00 962.56 606.66 964.70 610.30
  C 965.78 612.13 963.25 619.33 962.81 621.70
  Z"
/>
<path fill="#ffe9e7" d="
  M 726.79 255.50
  Q 724.42 258.91 720.29 259.75
  Q 720.21 258.93 719.78 258.23
  Q 696.41 220.37 669.81 184.69
  Q 668.96 183.56 668.25 183.21
  C 668.27 182.59 668.34 182.23 668.05 181.66
  C 645.94 137.79 624.41 102.33 596.65 57.33
  Q 594.84 54.40 591.80 55.28
  C 589.13 56.05 588.44 58.83 587.52 61.26
  Q 582.50 74.44 579.22 84.71
  C 578.26 87.71 575.95 90.22 574.82 93.24
  Q 559.02 135.21 539.78 175.69
  Q 539.58 176.12 539.97 176.38
  C 546.22 180.50 549.81 177.62 554.78 173.86
  Q 555.18 173.56 555.67 173.57
  Q 560.81 173.69 562.25 178.71
  Q 537.95 206.04 524.25 222.50
  Q 515.61 232.89 508.25 246.96
  L 504.85 252.30
  Q 501.56 253.75 498.72 252.25
  Q 498.29 252.02 497.80 252.00
  L 496.50 251.96
  Q 540.42 145.16 582.49 37.62
  C 583.76 34.37 589.48 21.94 593.97 29.55
  Q 647.55 120.44 711.75 226.00
  Q 718.81 237.61 726.79 255.50
  Z"
/>
<path fill="#f6aea7" d="
  M 668.25 183.21
  C 667.04 183.18 663.83 181.38 664.04 184.00
  L 663.79 187.00
  L 663.83 188.69
  Q 661.11 185.77 657.44 184.53
  A 0.66 0.66 0.0 0 0 656.58 185.04
  C 653.80 200.39 651.65 219.60 659.32 234.00
  Q 659.56 234.46 659.33 234.92
  L 658.79 235.97
  C 657.10 233.94 648.40 222.35 645.74 224.61
  A 1.15 1.14 -35.0 0 0 645.48 226.06
  C 648.00 230.50 648.68 234.06 648.61 239.53
  Q 648.49 249.50 648.25 259.46
  L 646.29 293.25
  L 646.91 275.03
  Q 646.93 274.54 646.58 274.19
  Q 645.52 273.12 645.53 271.94
  Q 645.71 255.13 645.27 238.32
  C 645.09 231.31 638.39 231.25 633.52 229.58
  Q 633.02 229.40 632.83 228.91
  Q 629.46 220.05 626.01 211.21
  Q 624.95 208.50 623.10 206.97
  Q 622.75 206.68 622.64 206.24
  Q 621.94 203.33 618.91 202.79
  Q 618.43 202.70 618.00 202.97
  Q 615.87 204.32 614.72 207.06
  L 610.08 182.87
  A 0.42 0.42 0.0 0 0 609.32 182.72
  L 602.75 192.79
  C 601.43 191.63 597.95 187.83 596.31 190.81
  Q 592.99 196.87 589.23 202.75
  Q 589.00 203.10 588.57 203.10
  L 579.74 202.95
  A 1.31 1.31 0.0 0 1 578.46 201.75
  C 577.97 196.13 577.87 188.33 575.14 183.35
  Q 573.63 180.60 571.89 177.96
  Q 571.58 177.50 571.03 177.50
  L 566.63 177.50
  Q 566.13 177.50 565.80 177.88
  L 563.96 180.00
  L 562.25 178.71
  Q 560.81 173.69 555.67 173.57
  Q 555.18 173.56 554.78 173.86
  C 549.81 177.62 546.22 180.50 539.97 176.38
  Q 539.58 176.12 539.78 175.69
  Q 559.02 135.21 574.82 93.24
  C 575.95 90.22 578.26 87.71 579.22 84.71
  Q 582.50 74.44 587.52 61.26
  C 588.44 58.83 589.13 56.05 591.80 55.28
  Q 594.84 54.40 596.65 57.33
  C 624.41 102.33 645.94 137.79 668.05 181.66
  C 668.34 182.23 668.27 182.59 668.25 183.21
  Z"
/>
<path fill="#ffe9e7" d="
  M 602.75 192.79
  C 592.64 217.74 586.94 243.82 579.00 269.46
  L 571.17 280.85
  A 0.64 0.64 0.0 0 1 570.00 280.49
  L 569.96 272.25
  L 570.15 270.25
  Q 570.12 225.44 564.34 181.02
  Q 564.27 180.48 563.96 180.00
  L 565.80 177.88
  Q 566.13 177.50 566.63 177.50
  L 571.03 177.50
  Q 571.58 177.50 571.89 177.96
  Q 573.63 180.60 575.14 183.35
  C 577.87 188.33 577.97 196.13 578.46 201.75
  A 1.31 1.31 0.0 0 0 579.74 202.95
  L 588.57 203.10
  Q 589.00 203.10 589.23 202.75
  Q 592.99 196.87 596.31 190.81
  C 597.95 187.83 601.43 191.63 602.75 192.79
  Z"
/>
<path fill="#5d1203" d="
  M 562.25 178.71
  L 563.96 180.00
  Q 564.27 180.48 564.34 181.02
  Q 570.12 225.44 570.15 270.25
  Q 569.11 271.22 568.84 272.52
  Q 568.72 273.07 568.28 272.74
  C 567.97 272.51 567.95 272.02 568.09 271.64
  C 569.83 266.70 568.16 263.30 568.33 258.70
  C 568.52 253.40 568.02 248.33 568.05 242.87
  C 568.07 237.80 567.16 232.69 567.23 227.97
  C 567.32 221.22 566.22 215.97 566.01 209.93
  C 565.69 200.67 564.04 191.85 563.44 182.54
  A 1.44 1.17 -8.8 0 0 561.73 181.54
  Q 561.15 181.66 560.12 182.88
  Q 549.33 195.51 538.49 208.12
  C 530.47 217.46 520.85 227.64 515.04 237.79
  Q 510.55 245.62 509.25 247.54
  L 508.25 246.96
  Q 515.61 232.89 524.25 222.50
  Q 537.95 206.04 562.25 178.71
  Z"
/>
<path fill="#841b0b" d="
  M 570.15 270.25
  L 569.96 272.25
  L 566.86 275.32
  A 1.24 1.24 0.0 0 1 564.89 275.03
  C 561.75 269.15 559.69 263.29 559.72 256.28
  Q 559.86 230.07 560.35 204.04
  A 1.03 1.03 0.0 0 0 558.52 203.38
  L 554.01 209.05
  Q 553.66 209.49 553.12 209.64
  C 547.38 211.31 542.58 213.09 539.14 218.13
  Q 525.97 237.43 509.71 254.29
  A 0.84 0.83 -31.2 0 1 508.31 253.95
  Q 507.32 250.57 509.25 247.54
  Q 510.55 245.62 515.04 237.79
  C 520.85 227.64 530.47 217.46 538.49 208.12
  Q 549.33 195.51 560.12 182.88
  Q 561.15 181.66 561.73 181.54
  A 1.44 1.17 -8.8 0 1 563.44 182.54
  C 564.04 191.85 565.69 200.67 566.01 209.93
  C 566.22 215.97 567.32 221.22 567.23 227.97
  C 567.16 232.69 568.07 237.80 568.05 242.87
  C 568.02 248.33 568.52 253.40 568.33 258.70
  C 568.16 263.30 569.83 266.70 568.09 271.64
  C 567.95 272.02 567.97 272.51 568.28 272.74
  Q 568.72 273.07 568.84 272.52
  Q 569.11 271.22 570.15 270.25
  Z"
/>
<path fill="#5d1203" d="
  M 614.72 207.06
  Q 631.47 273.23 639.79 341.00
  L 639.09 342.01
  A 0.40 0.39 59.6 0 1 638.37 341.82
  Q 637.63 333.41 636.33 325.90
  C 635.91 323.47 636.09 320.88 635.56 318.25
  Q 634.67 313.76 634.66 313.71
  Q 626.99 262.32 614.43 211.92
  C 612.90 205.77 611.85 198.66 610.29 192.11
  C 609.88 190.40 610.41 188.38 609.33 186.61
  Q 609.04 186.14 608.71 186.59
  Q 604.63 192.11 603.17 195.68
  C 598.80 206.39 594.74 219.39 591.18 232.28
  Q 586.10 250.70 580.92 269.15
  Q 580.50 269.89 579.00 269.46
  C 586.94 243.82 592.64 217.74 602.75 192.79
  L 609.32 182.72
  A 0.42 0.42 0.0 0 1 610.08 182.87
  L 614.72 207.06
  Z"
/>
<path fill="#5d1203" d="
  M 668.25 183.21
  Q 668.96 183.56 669.81 184.69
  Q 696.41 220.37 719.78 258.23
  Q 720.21 258.93 720.29 259.75
  L 721.25 262.51
  Q 726.85 277.74 732.31 285.94
  Q 757.88 324.32 781.79 363.75
  Q 781.74 364.21 781.53 364.44
  Q 781.16 364.83 780.88 364.37
  Q 758.46 327.54 734.65 291.60
  C 728.38 282.13 724.09 273.34 720.30 263.34
  Q 718.45 258.47 716.15 254.72
  Q 692.55 216.17 669.48 186.00
  Q 667.82 183.84 664.04 184.00
  C 663.83 181.38 667.04 183.18 668.25 183.21
  Z"
/>
<path fill="#841b0b" d="
  M 664.04 184.00
  Q 667.82 183.84 669.48 186.00
  Q 692.55 216.17 716.15 254.72
  Q 718.45 258.47 720.30 263.34
  C 724.09 273.34 728.38 282.13 734.65 291.60
  Q 758.46 327.54 780.88 364.37
  Q 781.16 364.83 781.53 364.44
  Q 781.74 364.21 781.79 363.75
  L 782.54 365.00
  C 779.51 372.70 762.86 346.59 761.29 344.18
  Q 756.78 337.22 753.44 333.38
  C 744.59 323.19 732.81 313.94 725.56 303.45
  Q 721.23 297.20 720.49 293.75
  C 718.13 282.68 716.67 275.06 710.31 265.85
  A 1.91 1.91 0.0 0 1 710.11 264.04
  C 712.56 258.00 710.65 254.22 706.63 249.04
  Q 695.02 234.12 683.80 218.84
  A 1.24 1.24 0.0 0 0 682.21 218.48
  L 678.18 220.68
  A 1.64 1.64 0.0 0 0 677.50 222.86
  Q 686.37 240.50 686.68 260.29
  A 1.45 1.45 0.0 0 1 684.75 261.69
  Q 682.02 260.73 679.57 262.13
  L 679.54 260.25
  Q 680.17 260.46 680.58 260.26
  Q 681.07 260.04 680.95 259.52
  C 678.13 247.18 675.43 234.82 672.12 222.59
  C 668.95 210.86 667.36 199.07 664.62 187.39
  Q 664.52 186.96 664.08 186.98
  L 663.79 187.00
  L 664.04 184.00
  Z"
/>
<path fill="#ffe9e7" d="
  M 663.83 188.69
  C 666.11 200.77 668.20 212.38 671.26 224.65
  Q 675.69 242.38 679.54 260.25
  L 679.57 262.13
  Q 680.55 265.56 680.44 268.76
  Q 680.40 269.68 679.83 268.96
  L 669.54 256.00
  L 658.79 235.97
  L 659.33 234.92
  Q 659.56 234.46 659.32 234.00
  C 651.65 219.60 653.80 200.39 656.58 185.04
  A 0.66 0.66 0.0 0 1 657.44 184.53
  Q 661.11 185.77 663.83 188.69
  Z"
/>
<path fill="#841b0b" d="
  M 639.79 341.00
  L 640.21 342.78
  C 628.99 356.38 624.66 298.42 624.49 295.16
  C 623.93 284.89 621.90 277.73 619.35 269.10
  Q 617.67 263.41 616.98 257.71
  C 615.65 246.85 615.22 223.05 599.17 225.07
  A 1.08 1.07 -89.3 0 0 598.24 225.98
  Q 595.91 242.43 591.60 258.47
  C 589.88 264.86 587.48 268.29 580.92 269.15
  Q 586.10 250.70 591.18 232.28
  C 594.74 219.39 598.80 206.39 603.17 195.68
  Q 604.63 192.11 608.71 186.59
  Q 609.04 186.14 609.33 186.61
  C 610.41 188.38 609.88 190.40 610.29 192.11
  C 611.85 198.66 612.90 205.77 614.43 211.92
  Q 626.99 262.32 634.66 313.71
  Q 634.67 313.76 635.56 318.25
  C 636.09 320.88 635.91 323.47 636.33 325.90
  Q 637.63 333.41 638.37 341.82
  A 0.40 0.39 59.6 0 0 639.09 342.01
  L 639.79 341.00
  Z"
/>
<path fill="#5d1203" d="
  M 663.79 187.00
  L 664.08 186.98
  Q 664.52 186.96 664.62 187.39
  C 667.36 199.07 668.95 210.86 672.12 222.59
  C 675.43 234.82 678.13 247.18 680.95 259.52
  Q 681.07 260.04 680.58 260.26
  Q 680.17 260.46 679.54 260.25
  Q 675.69 242.38 671.26 224.65
  C 668.20 212.38 666.11 200.77 663.83 188.69
  L 663.79 187.00
  Z"
/>
<path fill="#ffe9e7" d="
  M 646.29 293.25
  L 646.29 313.97
  L 644.12 348.15
  A 1.18 1.18 0.0 0 1 643.93 348.72
  C 642.51 351.04 640.43 343.63 640.21 342.78
  L 639.79 341.00
  Q 631.47 273.23 614.72 207.06
  Q 615.87 204.32 618.00 202.97
  Q 618.43 202.70 618.91 202.79
  Q 621.94 203.33 622.64 206.24
  Q 622.75 206.68 623.10 206.97
  Q 624.95 208.50 626.01 211.21
  Q 629.46 220.05 632.83 228.91
  Q 633.02 229.40 633.52 229.58
  C 638.39 231.25 645.09 231.31 645.27 238.32
  Q 645.71 255.13 645.53 271.94
  Q 645.52 273.12 646.58 274.19
  Q 646.93 274.54 646.91 275.03
  L 646.29 293.25
  Z"
/>
<path fill="#b81305" d="
  M 569.96 272.25
  L 570.00 280.49
  A 0.64 0.64 0.0 0 0 571.17 280.85
  L 579.00 269.46
  Q 580.50 269.89 580.92 269.15
  C 587.48 268.29 589.88 264.86 591.60 258.47
  Q 595.91 242.43 598.24 225.98
  A 1.08 1.07 -89.3 0 1 599.17 225.07
  C 615.22 223.05 615.65 246.85 616.98 257.71
  Q 617.67 263.41 619.35 269.10
  C 621.90 277.73 623.93 284.89 624.49 295.16
  C 624.66 298.42 628.99 356.38 640.21 342.78
  C 640.43 343.63 642.51 351.04 643.93 348.72
  A 1.18 1.18 0.0 0 0 644.12 348.15
  L 646.29 313.97
  Q 648.32 314.51 648.85 316.63
  Q 649.02 317.32 649.64 316.96
  C 654.54 314.11 655.76 307.43 655.57 302.50
  Q 654.92 285.48 656.34 267.45
  Q 656.42 266.38 657.47 266.18
  C 661.74 265.37 670.71 263.32 669.00 257.04
  L 669.54 256.00
  L 679.83 268.96
  Q 680.40 269.68 680.44 268.76
  Q 680.55 265.56 679.57 262.13
  Q 682.02 260.73 684.75 261.69
  A 1.45 1.45 0.0 0 0 686.68 260.29
  Q 686.37 240.50 677.50 222.86
  A 1.64 1.64 0.0 0 1 678.18 220.68
  L 682.21 218.48
  A 1.24 1.24 0.0 0 1 683.80 218.84
  Q 695.02 234.12 706.63 249.04
  C 710.65 254.22 712.56 258.00 710.11 264.04
  A 1.91 1.91 0.0 0 0 710.31 265.85
  C 716.67 275.06 718.13 282.68 720.49 293.75
  Q 721.23 297.20 725.56 303.45
  C 732.81 313.94 744.59 323.19 753.44 333.38
  Q 756.78 337.22 761.29 344.18
  C 762.86 346.59 779.51 372.70 782.54 365.00
  C 797.48 388.10 811.81 411.66 827.19 434.44
  Q 849.74 467.82 869.75 502.79
  L 883.42 530.48
  Q 878.34 540.31 883.83 549.18
  Q 897.38 571.07 917.23 597.30
  C 918.08 598.43 917.91 599.67 916.85 600.50
  Q 916.47 600.81 915.98 600.77
  Q 911.04 600.40 906.67 602.70
  Q 906.20 602.95 905.84 602.57
  C 903.08 599.69 902.23 598.00 897.94 597.73
  Q 897.33 597.69 897.46 598.29
  L 897.69 599.31
  Q 897.87 600.10 897.06 600.16
  L 892.65 600.49
  Q 892.15 600.53 891.72 600.77
  Q 879.84 607.53 866.17 607.71
  C 863.75 607.75 861.55 608.89 858.57 608.38
  C 845.25 606.09 832.57 601.53 819.25 597.53
  A 2.17 2.17 0.0 0 0 817.46 597.77
  Q 807.95 603.78 796.58 603.45
  Q 796.10 603.43 795.78 603.06
  Q 794.02 600.97 793.20 600.76
  C 784.38 598.56 774.16 597.79 766.66 596.09
  Q 757.63 594.05 748.49 591.30
  A 1.01 1.01 0.0 0 0 747.22 592.52
  Q 747.53 593.69 746.76 594.37
  Q 746.38 594.72 745.89 594.54
  Q 712.84 582.75 690.55 555.72
  Q 689.94 554.99 689.58 555.67
  A 0.51 0.50 42.5 0 0 689.61 556.20
  C 690.84 557.91 701.45 572.12 701.25 572.69
  Q 701.01 573.35 700.55 572.82
  L 688.02 558.43
  Q 687.66 558.01 687.71 557.45
  C 688.02 554.01 687.32 551.72 684.88 549.03
  C 672.82 535.67 666.29 524.16 657.94 510.53
  C 651.17 499.50 642.70 491.60 631.96 484.95
  C 629.96 483.71 629.26 482.46 629.85 480.17
  Q 629.99 479.65 629.64 479.24
  Q 628.76 478.21 627.26 477.21
  Q 601.32 460.00 570.27 462.04
  A 0.48 0.47 -37.2 0 0 570.14 462.96
  L 578.75 465.99
  A 0.38 0.38 0.0 0 1 578.67 466.72
  Q 570.18 467.77 562.24 467.77
  C 556.28 467.78 550.77 465.42 545.02 465.41
  C 531.04 465.41 518.11 471.32 505.96 478.48
  C 494.64 485.15 483.45 491.79 474.20 500.42
  C 463.41 510.50 453.15 522.74 444.50 533.76
  C 441.60 537.47 430.96 549.92 425.91 548.37
  Q 420.20 546.63 414.79 549.21
  Q 414.35 549.42 414.16 549.87
  C 413.59 551.22 413.53 552.50 412.41 553.50
  Q 408.50 557.02 404.83 554.40
  C 401.91 552.31 400.68 546.35 399.46 542.84
  Q 399.28 542.31 398.77 542.08
  Q 394.77 540.23 392.74 543.93
  Q 392.51 544.35 392.03 544.28
  C 386.75 543.54 388.57 535.42 389.55 531.46
  Q 389.67 530.96 390.16 530.83
  L 390.46 530.75
  Q 391.52 532.48 392.64 533.13
  A 1.75 1.75 0.0 0 0 395.03 532.50
  C 399.73 524.43 402.04 516.08 404.90 507.39
  C 407.96 498.10 412.82 489.59 416.04 480.32
  C 427.10 448.43 440.06 417.52 452.79 386.27
  Q 454.08 383.10 454.30 380.24
  Q 454.50 377.58 455.12 376.04
  Q 480.00 314.18 504.85 252.30
  L 508.25 246.96
  L 509.25 247.54
  Q 507.32 250.57 508.31 253.95
  A 0.84 0.83 -31.2 0 0 509.71 254.29
  Q 525.97 237.43 539.14 218.13
  C 542.58 213.09 547.38 211.31 553.12 209.64
  Q 553.66 209.49 554.01 209.05
  L 558.52 203.38
  A 1.03 1.03 0.0 0 1 560.35 204.04
  Q 559.86 230.07 559.72 256.28
  C 559.69 263.29 561.75 269.15 564.89 275.03
  A 1.24 1.24 0.0 0 0 566.86 275.32
  L 569.96 272.25
  Z"
/>
<path fill="#5d1203" d="
  M 658.79 235.97
  L 669.54 256.00
  L 669.00 257.04
  C 666.96 256.01 662.55 245.59 661.23 243.00
  C 658.20 236.99 654.15 232.54 649.72 227.71
  Q 646.82 224.54 648.34 228.55
  C 651.64 237.29 649.88 249.16 649.39 258.38
  C 649.36 259.00 648.93 259.64 648.25 259.46
  Q 648.49 249.50 648.61 239.53
  C 648.68 234.06 648.00 230.50 645.48 226.06
  A 1.15 1.14 -35.0 0 1 645.74 224.61
  C 648.40 222.35 657.10 233.94 658.79 235.97
  Z"
/>
<path fill="#841b0b" d="
  M 669.00 257.04
  C 670.71 263.32 661.74 265.37 657.47 266.18
  Q 656.42 266.38 656.34 267.45
  Q 654.92 285.48 655.57 302.50
  C 655.76 307.43 654.54 314.11 649.64 316.96
  Q 649.02 317.32 648.85 316.63
  Q 648.32 314.51 646.29 313.97
  L 646.29 293.25
  L 648.25 259.46
  C 648.93 259.64 649.36 259.00 649.39 258.38
  C 649.88 249.16 651.64 237.29 648.34 228.55
  Q 646.82 224.54 649.72 227.71
  C 654.15 232.54 658.20 236.99 661.23 243.00
  C 662.55 245.59 666.96 256.01 669.00 257.04
  Z"
/>
<path fill="#360000" d="
  M 412.42 419.24
  Q 412.36 421.40 410.96 422.41
  C 407.75 424.71 405.40 420.07 403.65 418.49
  Q 398.61 413.95 393.29 409.75
  Q 384.50 400.87 373.90 394.15
  Q 373.47 393.89 373.23 393.44
  C 372.04 391.22 369.49 390.80 368.13 389.75
  Q 335.28 364.43 302.57 338.95
  L 207.51 255.15
  Q 206.37 250.76 211.27 250.03
  Q 211.78 249.95 212.19 250.25
  Q 224.03 258.66 235.82 267.15
  Q 237.29 268.21 238.69 270.29
  C 241.89 275.06 246.90 276.50 251.16 281.19
  Q 254.05 284.37 256.62 285.94
  C 260.26 288.17 264.19 289.57 267.46 292.15
  C 285.35 306.23 301.45 322.54 318.95 337.13
  Q 349.74 362.83 379.91 389.25
  C 383.59 392.46 388.65 395.81 392.85 399.64
  Q 399.94 406.13 409.95 414.49
  Q 410.33 414.81 410.54 415.26
  L 412.42 419.24
  Z"
/>
<path fill="#f6aea7" d="
  M 496.50 251.96
  L 497.80 252.00
  Q 498.29 252.02 498.72 252.25
  Q 501.56 253.75 504.85 252.30
  Q 480.00 314.18 455.12 376.04
  Q 454.50 377.58 454.30 380.24
  Q 454.08 383.10 452.79 386.27
  C 440.06 417.52 427.10 448.43 416.04 480.32
  C 412.82 489.59 407.96 498.10 404.90 507.39
  C 402.04 516.08 399.73 524.43 395.03 532.50
  A 1.75 1.75 0.0 0 1 392.64 533.13
  Q 391.52 532.48 390.46 530.75
  C 390.52 529.92 390.43 529.26 390.68 528.44
  Q 397.61 505.89 404.42 483.32
  Q 412.38 459.59 422.45 436.68
  Q 427.49 425.22 430.25 418.28
  Q 463.33 335.10 496.50 251.96
  Z"
/>
<path fill="#ffe9e7" d="
  M 207.51 255.15
  L 302.57 338.95
  Q 300.86 342.36 297.75 343.79
  L 245.75 303.96
  Q 245.65 303.18 245.14 302.60
  Q 231.97 287.38 217.51 273.37
  C 214.29 270.25 211.16 270.55 210.28 275.42
  Q 206.85 294.25 203.36 313.06
  C 202.73 316.46 199.68 317.83 197.71 314.75
  Q 201.49 286.17 205.93 257.68
  Q 206.06 256.82 206.50 256.04
  L 207.51 255.15
  Z"
/>
<path fill="#f6aea7" d="
  M 726.79 255.50
  L 727.96 257.75
  Q 727.52 257.65 727.18 257.92
  A 0.64 0.64 0.0 0 0 727.02 258.71
  C 732.58 269.40 738.14 279.18 745.12 289.84
  Q 776.25 337.36 798.05 373.70
  C 823.96 416.87 846.62 452.19 871.17 491.28
  Q 873.50 495.00 875.72 498.79
  Q 876.51 500.15 876.71 498.59
  L 876.79 498.00
  Q 910.72 550.03 942.03 603.67
  C 944.92 608.63 947.98 614.95 951.25 620.46
  C 943.16 623.32 940.97 615.88 936.50 611.46
  Q 934.36 609.59 933.56 608.44
  Q 907.19 570.35 883.42 530.48
  L 869.75 502.79
  Q 870.45 502.81 870.99 502.35
  Q 871.40 502.00 871.00 501.64
  Q 870.10 500.83 869.50 499.77
  Q 851.03 467.49 830.13 436.73
  C 816.10 416.09 803.14 394.66 789.64 373.66
  Q 784.65 365.89 779.05 356.71
  Q 756.84 320.33 733.05 284.95
  Q 729.51 279.68 722.97 264.05
  Q 722.79 263.60 722.77 263.12
  Q 722.74 261.94 721.25 262.51
  L 720.29 259.75
  Q 724.42 258.91 726.79 255.50
  Z"
/>
<path fill="#360000" d="
  M 206.50 256.04
  Q 206.06 256.82 205.93 257.68
  Q 201.49 286.17 197.71 314.75
  C 193.16 346.61 189.45 376.93 181.19 409.46
  C 176.89 425.26 172.64 441.48 171.12 457.83
  Q 169.52 475.00 165.69 497.23
  C 164.19 505.94 163.92 517.59 160.69 529.70
  C 158.07 539.52 156.29 550.76 152.70 561.12
  C 152.03 566.40 151.42 571.06 149.87 576.50
  C 147.30 585.44 146.47 594.58 144.04 603.50
  Q 143.52 605.40 145.50 606.72
  C 146.60 607.88 139.75 613.83 138.85 614.62
  C 131.76 611.48 133.73 604.92 135.40 598.54
  C 137.28 591.33 137.70 583.94 139.77 576.85
  Q 142.69 566.83 144.32 556.51
  C 145.16 551.23 147.33 546.04 148.35 540.60
  C 150.20 530.76 154.11 519.23 154.67 512.69
  Q 156.20 494.89 159.38 477.33
  C 161.37 466.37 161.84 455.75 163.10 444.32
  Q 163.61 439.75 166.52 436.65
  Q 166.88 436.28 166.81 435.77
  C 166.49 433.13 165.91 430.66 166.05 428.04
  C 167.14 407.57 171.54 390.81 175.78 372.25
  Q 177.98 362.64 179.45 352.61
  Q 183.25 326.80 187.51 301.07
  Q 187.59 300.60 187.43 300.16
  L 186.72 298.19
  Q 186.51 297.61 186.84 297.08
  Q 191.64 289.42 194.00 280.76
  C 195.76 274.34 195.86 254.69 206.50 256.04
  Z"
/>
<path fill="#ffe9e7" d="
  M 727.96 257.75
  Q 735.89 273.35 738.75 277.73
  Q 780.59 341.76 819.84 407.41
  C 838.11 437.97 857.98 467.74 876.79 498.00
  L 876.71 498.59
  Q 876.51 500.15 875.72 498.79
  Q 873.50 495.00 871.17 491.28
  C 846.62 452.19 823.96 416.87 798.05 373.70
  Q 776.25 337.36 745.12 289.84
  C 738.14 279.18 732.58 269.40 727.02 258.71
  A 0.64 0.64 0.0 0 1 727.18 257.92
  Q 727.52 257.65 727.96 257.75
  Z"
/>
<path fill="#ffe9e7" d="
  M 869.75 502.79
  Q 849.74 467.82 827.19 434.44
  C 811.81 411.66 797.48 388.10 782.54 365.00
  L 781.79 363.75
  Q 757.88 324.32 732.31 285.94
  Q 726.85 277.74 721.25 262.51
  Q 722.74 261.94 722.77 263.12
  Q 722.79 263.60 722.97 264.05
  Q 729.51 279.68 733.05 284.95
  Q 756.84 320.33 779.05 356.71
  Q 784.65 365.89 789.64 373.66
  C 803.14 394.66 816.10 416.09 830.13 436.73
  Q 851.03 467.49 869.50 499.77
  Q 870.10 500.83 871.00 501.64
  Q 871.40 502.00 870.99 502.35
  Q 870.45 502.81 869.75 502.79
  Z"
/>
<path fill="#f6aea7" d="
  M 245.75 303.96
  L 243.47 304.64
  Q 242.87 304.82 242.95 305.44
  Q 243.31 308.44 246.20 308.48
  Q 246.73 308.49 247.09 308.89
  Q 251.80 314.16 251.22 321.28
  Q 251.18 321.77 251.45 322.19
  C 254.42 326.64 258.74 331.59 259.50 336.71
  Q 259.06 338.14 257.81 337.43
  Q 250.75 333.37 243.20 333.37
  Q 242.64 333.37 242.50 333.91
  C 241.29 338.67 240.81 343.11 242.74 347.93
  C 244.12 351.35 256.22 381.98 253.45 383.21
  Q 253.01 383.41 252.82 382.97
  Q 241.21 357.06 219.99 338.22
  Q 219.52 337.80 219.13 338.29
  C 215.56 342.90 214.23 346.43 211.43 353.18
  Q 200.21 380.24 190.72 407.95
  Q 190.35 409.03 189.50 409.79
  Q 185.03 413.71 181.19 409.46
  C 189.45 376.93 193.16 346.61 197.71 314.75
  C 199.68 317.83 202.73 316.46 203.36 313.06
  Q 206.85 294.25 210.28 275.42
  C 211.16 270.55 214.29 270.25 217.51 273.37
  Q 231.97 287.38 245.14 302.60
  Q 245.65 303.18 245.75 303.96
  Z"
/>
<path fill="#5d1203" d="
  M 245.75 303.96
  L 297.75 343.79
  L 299.00 345.29
  C 296.95 346.36 296.37 344.36 295.28 343.51
  Q 272.50 325.72 249.42 308.23
  A 0.25 0.24 -88.0 0 0 249.07 308.56
  Q 251.97 313.10 252.42 318.42
  C 253.01 325.53 260.74 329.66 260.75 336.74
  Q 260.75 337.27 260.23 337.26
  Q 259.69 337.26 259.50 336.71
  C 258.74 331.59 254.42 326.64 251.45 322.19
  Q 251.18 321.77 251.22 321.28
  Q 251.80 314.16 247.09 308.89
  Q 246.73 308.49 246.20 308.48
  Q 243.31 308.44 242.95 305.44
  Q 242.87 304.82 243.47 304.64
  L 245.75 303.96
  Z"
/>
<path fill="#841b0b" d="
  M 299.00 345.29
  C 313.16 357.42 328.68 368.75 341.69 382.08
  Q 361.35 402.22 381.08 416.94
  C 386.44 420.94 390.39 414.17 393.29 409.75
  Q 398.61 413.95 403.65 418.49
  C 405.40 420.07 407.75 424.71 410.96 422.41
  Q 412.36 421.40 412.42 419.24
  Q 414.14 420.35 416.74 420.06
  Q 413.18 432.14 410.01 444.40
  C 406.78 456.91 398.26 466.97 396.68 480.23
  C 396.38 482.71 397.66 487.42 400.78 487.46
  C 402.66 487.48 402.09 484.07 404.42 483.32
  Q 397.61 505.89 390.68 528.44
  C 390.43 529.26 390.52 529.92 390.46 530.75
  L 390.16 530.83
  Q 389.67 530.96 389.55 531.46
  C 388.57 535.42 386.75 543.54 392.03 544.28
  Q 392.51 544.35 392.74 543.93
  Q 394.77 540.23 398.77 542.08
  Q 399.28 542.31 399.46 542.84
  C 400.68 546.35 401.91 552.31 404.83 554.40
  Q 408.50 557.02 412.41 553.50
  C 413.53 552.50 413.59 551.22 414.16 549.87
  Q 414.35 549.42 414.79 549.21
  Q 420.20 546.63 425.91 548.37
  C 430.96 549.92 441.60 537.47 444.50 533.76
  C 453.15 522.74 463.41 510.50 474.20 500.42
  C 483.45 491.79 494.64 485.15 505.96 478.48
  C 518.11 471.32 531.04 465.41 545.02 465.41
  C 550.77 465.42 556.28 467.78 562.24 467.77
  Q 570.18 467.77 578.67 466.72
  A 0.38 0.38 0.0 0 0 578.75 465.99
  L 570.14 462.96
  A 0.48 0.47 -37.2 0 1 570.27 462.04
  Q 601.32 460.00 627.26 477.21
  Q 628.76 478.21 629.64 479.24
  Q 629.99 479.65 629.85 480.17
  C 629.26 482.46 629.96 483.71 631.96 484.95
  C 642.70 491.60 651.17 499.50 657.94 510.53
  C 666.29 524.16 672.82 535.67 684.88 549.03
  C 687.32 551.72 688.02 554.01 687.71 557.45
  Q 687.66 558.01 688.02 558.43
  L 700.55 572.82
  Q 701.01 573.35 701.25 572.69
  C 701.45 572.12 690.84 557.91 689.61 556.20
  A 0.51 0.50 42.5 0 1 689.58 555.67
  Q 689.94 554.99 690.55 555.72
  Q 712.84 582.75 745.89 594.54
  Q 746.38 594.72 746.76 594.37
  Q 747.53 593.69 747.22 592.52
  A 1.01 1.01 0.0 0 1 748.49 591.30
  Q 757.63 594.05 766.66 596.09
  C 774.16 597.79 784.38 598.56 793.20 600.76
  Q 794.02 600.97 795.78 603.06
  Q 796.10 603.43 796.58 603.45
  Q 807.95 603.78 817.46 597.77
  A 2.17 2.17 0.0 0 1 819.25 597.53
  C 832.57 601.53 845.25 606.09 858.57 608.38
  C 861.55 608.89 863.75 607.75 866.17 607.71
  Q 879.84 607.53 891.72 600.77
  Q 892.15 600.53 892.65 600.49
  L 897.06 600.16
  Q 897.87 600.10 897.69 599.31
  L 897.46 598.29
  Q 897.33 597.69 897.94 597.73
  C 902.23 598.00 903.08 599.69 905.84 602.57
  Q 906.20 602.95 906.67 602.70
  Q 911.04 600.40 915.98 600.77
  Q 916.47 600.81 916.85 600.50
  C 917.91 599.67 918.08 598.43 917.23 597.30
  Q 897.38 571.07 883.83 549.18
  Q 878.34 540.31 883.42 530.48
  Q 907.19 570.35 933.56 608.44
  Q 934.36 609.59 936.50 611.46
  L 935.91 611.95
  Q 935.54 612.26 935.82 612.65
  C 936.15 613.13 936.56 613.54 936.68 614.12
  C 938.82 625.26 943.74 634.02 950.29 644.22
  C 952.00 646.89 952.12 649.02 949.54 651.26
  Q 937.53 661.67 923.02 668.34
  Q 922.43 668.61 922.49 667.97
  Q 923.26 659.41 927.07 651.76
  Q 927.44 651.02 927.08 650.29
  Q 923.98 643.91 916.89 645.18
  Q 903.47 647.58 890.58 651.97
  C 881.77 654.98 873.73 659.47 864.80 662.72
  C 857.69 665.31 850.56 668.52 843.52 670.66
  C 835.53 673.08 827.38 675.14 820.20 678.34
  C 802.10 686.41 786.54 693.82 765.50 700.25
  C 759.25 702.16 753.62 706.96 748.41 710.69
  Q 747.91 711.05 747.52 710.58
  Q 746.67 709.57 745.62 709.92
  Q 738.68 712.21 728.97 716.41
  Q 728.84 716.47 728.75 716.37
  Q 728.65 716.27 728.50 716.14
  Q 728.28 715.93 728.52 715.75
  L 732.09 713.10
  A 0.36 0.36 0.0 0 0 731.75 712.47
  Q 716.26 717.73 701.78 725.35
  Q 701.64 725.43 701.59 725.27
  Q 701.55 725.15 701.50 725.02
  Q 701.33 724.58 701.70 724.30
  Q 703.60 722.83 705.25 721.08
  Q 706.90 719.33 704.75 720.41
  C 693.17 726.20 681.25 731.02 669.40 736.21
  C 648.70 745.28 626.65 753.18 603.89 754.67
  C 586.50 755.81 570.56 755.36 553.86 755.63
  C 547.31 755.74 542.98 754.84 537.78 751.66
  Q 537.42 751.43 536.99 751.41
  L 526.11 750.72
  Q 525.63 750.69 525.33 750.31
  C 522.01 746.15 514.41 740.45 508.75 741.29
  Q 468.79 674.12 428.15 607.36
  C 414.76 585.36 399.24 564.41 388.77 546.26
  C 385.22 540.12 384.96 533.61 380.81 527.53
  Q 363.10 501.56 348.32 475.44
  Q 345.20 469.92 343.16 463.62
  C 340.03 453.92 333.99 446.01 326.60 439.15
  C 318.19 431.34 317.33 421.52 304.56 420.50
  Q 304.06 420.46 303.68 420.79
  Q 277.60 442.94 256.45 469.72
  C 241.68 484.37 228.76 500.53 216.65 517.41
  Q 214.74 520.08 212.36 521.58
  C 208.63 523.95 200.98 526.46 199.71 530.95
  C 196.66 541.68 190.49 554.68 181.93 560.84
  C 179.36 562.68 179.06 566.11 176.77 568.32
  Q 158.84 585.63 145.50 606.72
  Q 143.52 605.40 144.04 603.50
  C 146.47 594.58 147.30 585.44 149.87 576.50
  C 151.42 571.06 152.03 566.40 152.70 561.12
  Q 155.83 561.89 156.63 560.17
  Q 165.89 540.15 171.26 517.14
  C 174.28 504.19 176.32 496.18 177.36 485.43
  Q 178.79 470.75 179.88 456.04
  C 181.01 440.82 185.56 425.88 189.79 411.28
  Q 189.90 410.89 189.65 410.56
  Q 189.40 410.24 189.50 409.79
  Q 190.35 409.03 190.72 407.95
  Q 200.21 380.24 211.43 353.18
  C 214.23 346.43 215.56 342.90 219.13 338.29
  Q 219.52 337.80 219.99 338.22
  Q 241.21 357.06 252.82 382.97
  Q 253.01 383.41 253.45 383.21
  C 256.22 381.98 244.12 351.35 242.74 347.93
  C 240.81 343.11 241.29 338.67 242.50 333.91
  Q 242.64 333.37 243.20 333.37
  Q 250.75 333.37 257.81 337.43
  Q 259.06 338.14 259.50 336.71
  Q 259.69 337.26 260.23 337.26
  Q 260.75 337.27 260.75 336.74
  C 260.74 329.66 253.01 325.53 252.42 318.42
  Q 251.97 313.10 249.07 308.56
  A 0.25 0.24 -88.0 0 1 249.42 308.23
  Q 272.50 325.72 295.28 343.51
  C 296.37 344.36 296.95 346.36 299.00 345.29
  Z"
/>
<path fill="#b81305" d="
  M 302.57 338.95
  Q 335.28 364.43 368.13 389.75
  C 369.49 390.80 372.04 391.22 373.23 393.44
  Q 373.47 393.89 373.90 394.15
  Q 384.50 400.87 393.29 409.75
  C 390.39 414.17 386.44 420.94 381.08 416.94
  Q 361.35 402.22 341.69 382.08
  C 328.68 368.75 313.16 357.42 299.00 345.29
  L 297.75 343.79
  Q 300.86 342.36 302.57 338.95
  Z"
/>
<path fill="#b81305" d="
  M 181.19 409.46
  Q 185.03 413.71 189.50 409.79
  Q 189.40 410.24 189.65 410.56
  Q 189.90 410.89 189.79 411.28
  C 185.56 425.88 181.01 440.82 179.88 456.04
  Q 178.79 470.75 177.36 485.43
  C 176.32 496.18 174.28 504.19 171.26 517.14
  Q 165.89 540.15 156.63 560.17
  Q 155.83 561.89 152.70 561.12
  C 156.29 550.76 158.07 539.52 160.69 529.70
  C 163.92 517.59 164.19 505.94 165.69 497.23
  Q 169.52 475.00 171.12 457.83
  C 172.64 441.48 176.89 425.26 181.19 409.46
  Z"
/>
<path fill="#360000" d="
  M 508.75 741.29
  Q 512.99 752.91 519.24 763.55
  C 535.17 790.69 549.37 818.66 566.91 844.85
  C 568.43 847.13 573.52 852.95 572.53 855.75
  Q 569.83 863.45 561.82 862.34
  Q 561.33 862.28 561.15 862.74
  Q 560.76 863.70 559.80 864.02
  Q 558.98 860.18 556.79 857.00
  Q 508.17 762.89 451.81 673.19
  Q 443.82 660.47 422.00 621.71
  L 420.79 619.75
  Q 368.63 529.48 316.08 439.43
  C 314.39 436.53 311.00 424.28 305.40 429.90
  C 297.84 437.48 291.11 445.41 283.72 454.82
  Q 250.53 497.08 216.10 538.35
  C 207.55 548.60 200.32 559.82 192.46 570.75
  C 167.92 596.84 146.19 625.12 122.94 652.28
  Q 87.82 693.28 53.22 734.71
  Q 48.22 740.69 38.00 751.79
  Q 37.46 751.22 37.48 750.46
  Q 37.49 749.96 37.85 749.59
  C 56.87 730.23 77.37 703.11 101.44 675.34
  C 131.49 640.65 157.79 607.04 185.96 575.85
  C 194.20 566.73 200.42 557.23 207.01 547.22
  A 0.96 0.95 -48.8 0 0 206.94 546.08
  L 204.44 543.14
  Q 204.05 542.68 204.31 542.14
  C 213.27 523.27 231.77 513.96 240.77 494.84
  C 244.93 485.98 251.97 478.78 256.45 469.72
  Q 277.60 442.94 303.68 420.79
  Q 304.06 420.46 304.56 420.50
  C 317.33 421.52 318.19 431.34 326.60 439.15
  C 333.99 446.01 340.03 453.92 343.16 463.62
  Q 345.20 469.92 348.32 475.44
  Q 363.10 501.56 380.81 527.53
  C 384.96 533.61 385.22 540.12 388.77 546.26
  C 399.24 564.41 414.76 585.36 428.15 607.36
  Q 468.79 674.12 508.75 741.29
  Z"
/>
<path fill="#ffe9e7" d="
  M 420.79 619.75
  L 417.63 622.19
  Q 417.22 622.51 416.70 622.53
  L 410.29 622.75
  Q 387.44 588.96 356.33 562.59
  Q 355.86 562.19 355.78 562.80
  Q 355.58 564.39 356.04 566.00
  L 356.54 571.00
  Q 360.03 609.81 367.79 648.00
  L 368.04 648.75
  L 369.33 657.66
  A 1.11 1.10 8.8 0 1 367.75 658.81
  Q 362.47 656.25 358.79 651.25
  Q 344.18 628.17 324.90 608.75
  A 0.96 0.95 42.7 0 0 323.49 608.80
  C 321.63 611.00 319.30 613.19 318.91 616.25
  Q 316.61 634.40 314.04 652.50
  L 297.20 731.73
  A 0.46 0.46 0.0 0 1 296.29 731.62
  L 296.71 710.75
  C 296.61 687.21 295.83 663.71 295.52 640.18
  C 295.21 616.60 293.44 592.75 293.93 567.58
  C 293.97 565.31 293.42 563.14 290.57 563.88
  A 2.38 2.33 -83.9 0 0 289.04 565.14
  C 282.85 577.80 277.29 590.23 270.41 603.00
  C 263.34 616.11 257.12 629.63 249.75 642.46
  L 245.86 647.42
  A 0.61 0.61 0.0 0 1 244.77 647.01
  L 245.21 637.50
  Q 246.37 617.70 250.02 598.21
  C 252.57 584.63 255.09 570.43 253.28 556.59
  A 0.76 0.75 -18.1 0 0 252.17 556.03
  Q 251.87 556.20 251.54 556.54
  Q 233.20 575.73 217.01 596.75
  Q 212.95 602.02 205.87 606.65
  Q 200.87 607.71 196.99 605.43
  Q 196.51 605.15 196.44 604.59
  L 193.25 577.04
  Q 195.12 573.56 192.46 570.75
  C 200.32 559.82 207.55 548.60 216.10 538.35
  Q 250.53 497.08 283.72 454.82
  C 291.11 445.41 297.84 437.48 305.40 429.90
  C 311.00 424.28 314.39 436.53 316.08 439.43
  Q 368.63 529.48 420.79 619.75
  Z"
/>
<path fill="#5d1203" d="
  M 256.45 469.72
  C 251.97 478.78 244.93 485.98 240.77 494.84
  C 231.77 513.96 213.27 523.27 204.31 542.14
  Q 204.05 542.68 204.44 543.14
  L 206.94 546.08
  A 0.96 0.95 -48.8 0 1 207.01 547.22
  C 200.42 557.23 194.20 566.73 185.96 575.85
  C 157.79 607.04 131.49 640.65 101.44 675.34
  C 77.37 703.11 56.87 730.23 37.85 749.59
  Q 37.49 749.96 37.48 750.46
  Q 37.46 751.22 38.00 751.79
  C 33.47 757.38 26.20 765.78 19.64 768.78
  Q 17.34 769.84 14.96 770.75
  C 8.41 766.32 10.41 765.06 10.86 758.45
  Q 10.90 757.95 11.20 757.55
  C 12.72 755.56 15.20 753.94 16.52 752.72
  C 20.55 748.97 24.56 745.76 28.14 741.42
  C 35.76 732.20 45.32 725.17 52.50 715.76
  Q 59.99 705.94 68.11 696.62
  Q 100.17 659.80 132.29 623.05
  Q 134.92 620.05 138.85 614.62
  C 139.75 613.83 146.60 607.88 145.50 606.72
  Q 158.84 585.63 176.77 568.32
  C 179.06 566.11 179.36 562.68 181.93 560.84
  C 190.49 554.68 196.66 541.68 199.71 530.95
  C 200.98 526.46 208.63 523.95 212.36 521.58
  Q 214.74 520.08 216.65 517.41
  C 228.76 500.53 241.68 484.37 256.45 469.72
  Z"
/>
<path fill="#5d1203" d="
  M 245.21 637.50
  L 244.04 638.00
  C 243.78 627.84 245.40 617.52 247.23 607.54
  C 248.81 598.93 249.71 591.75 251.26 581.48
  Q 252.95 570.29 251.79 559.81
  Q 251.61 558.21 250.51 559.39
  Q 234.96 576.10 221.60 593.08
  C 218.55 596.96 209.73 607.57 205.75 608.21
  Q 205.66 607.29 205.87 606.65
  Q 212.95 602.02 217.01 596.75
  Q 233.20 575.73 251.54 556.54
  Q 251.87 556.20 252.17 556.03
  A 0.76 0.75 -18.1 0 1 253.28 556.59
  C 255.09 570.43 252.57 584.63 250.02 598.21
  Q 246.37 617.70 245.21 637.50
  Z"
/>
<path fill="#841b0b" d="
  M 244.04 638.00
  C 238.66 643.44 236.85 632.11 236.67 629.39
  Q 236.50 626.63 237.76 622.28
  Q 242.29 606.54 244.46 590.51
  A 1.10 1.10 0.0 0 0 243.38 589.26
  L 239.52 589.24
  Q 239.00 589.24 238.59 589.57
  L 208.12 613.63
  Q 207.18 614.37 206.36 613.50
  Q 203.79 610.80 205.75 608.21
  C 209.73 607.57 218.55 596.96 221.60 593.08
  Q 234.96 576.10 250.51 559.39
  Q 251.61 558.21 251.79 559.81
  Q 252.95 570.29 251.26 581.48
  C 249.71 591.75 248.81 598.93 247.23 607.54
  C 245.40 617.52 243.78 627.84 244.04 638.00
  Z"
/>
<path fill="#5d1203" d="
  M 410.29 622.75
  L 412.00 625.79
  L 418.04 635.75
  Q 417.95 636.11 417.67 636.27
  Q 417.25 636.50 416.99 636.10
  C 412.85 629.66 408.92 622.61 404.74 616.79
  Q 384.01 587.93 358.48 565.77
  Q 357.45 564.88 356.04 566.00
  Q 355.58 564.39 355.78 562.80
  Q 355.86 562.19 356.33 562.59
  Q 387.44 588.96 410.29 622.75
  Z"
/>
<path fill="#5d1203" d="
  M 296.71 710.75
  L 295.54 710.86
  Q 295.83 707.24 295.39 698.56
  Q 293.82 667.83 294.00 624.25
  C 294.01 621.91 292.98 618.95 293.00 616.23
  C 293.05 610.12 293.77 602.18 292.33 596.28
  C 291.65 593.49 292.24 589.60 292.12 587.70
  C 291.68 580.91 292.74 573.59 292.66 567.50
  Q 292.64 565.87 291.25 565.01
  A 0.51 0.51 0.0 0 0 290.53 565.22
  C 283.87 578.50 278.63 591.63 271.04 605.16
  C 264.03 617.63 258.23 631.00 250.71 643.50
  L 249.75 642.46
  C 257.12 629.63 263.34 616.11 270.41 603.00
  C 277.29 590.23 282.85 577.80 289.04 565.14
  A 2.38 2.33 -83.9 0 1 290.57 563.88
  C 293.42 563.14 293.97 565.31 293.93 567.58
  C 293.44 592.75 295.21 616.60 295.52 640.18
  C 295.83 663.71 296.61 687.21 296.71 710.75
  Z"
/>
<path fill="#841b0b" d="
  M 295.54 710.86
  C 290.23 713.95 288.82 707.41 288.60 703.85
  Q 286.29 667.75 287.02 631.58
  Q 287.08 628.55 286.37 623.98
  C 285.44 617.91 287.46 594.14 283.13 592.28
  A 1.81 1.81 0.0 0 0 280.71 593.37
  Q 277.14 604.09 273.05 614.57
  C 267.67 628.38 263.69 637.66 255.26 647.67
  A 0.39 0.39 0.0 0 1 254.68 647.69
  L 250.71 643.50
  C 258.23 631.00 264.03 617.63 271.04 605.16
  C 278.63 591.63 283.87 578.50 290.53 565.22
  A 0.51 0.51 0.0 0 1 291.25 565.01
  Q 292.64 565.87 292.66 567.50
  C 292.74 573.59 291.68 580.91 292.12 587.70
  C 292.24 589.60 291.65 593.49 292.33 596.28
  C 293.77 602.18 293.05 610.12 293.00 616.23
  C 292.98 618.95 294.01 621.91 294.00 624.25
  Q 293.82 667.83 295.39 698.56
  Q 295.83 707.24 295.54 710.86
  Z"
/>
<path fill="#841b0b" d="
  M 418.04 635.75
  L 419.27 637.93
  L 417.70 641.23
  Q 417.39 641.88 416.81 641.47
  C 406.44 634.12 401.27 617.54 389.22 613.91
  Q 388.73 613.77 388.40 613.39
  Q 385.35 609.92 384.71 608.49
  Q 378.08 593.84 367.05 582.20
  Q 365.18 580.22 363.88 582.70
  A 1.69 1.67 -40.5 0 0 363.77 584.00
  C 365.62 589.75 369.55 598.43 369.41 604.29
  C 369.30 608.68 369.42 611.99 370.81 616.45
  Q 372.44 621.67 372.47 623.49
  Q 372.71 636.46 373.80 649.13
  A 1.11 1.11 0.0 0 1 372.33 650.27
  L 368.04 648.75
  L 367.79 648.00
  Q 368.40 648.34 368.89 648.07
  Q 369.33 647.82 369.23 647.33
  Q 361.51 608.81 357.52 569.72
  A 0.20 0.20 0.0 0 0 357.12 569.74
  Q 357.13 570.39 356.54 571.00
  L 356.04 566.00
  Q 357.45 564.88 358.48 565.77
  Q 384.01 587.93 404.74 616.79
  C 408.92 622.61 412.85 629.66 416.99 636.10
  Q 417.25 636.50 417.67 636.27
  Q 417.95 636.11 418.04 635.75
  Z"
/>
<path fill="#5d1203" d="
  M 367.79 648.00
  Q 360.03 609.81 356.54 571.00
  Q 357.13 570.39 357.12 569.74
  A 0.20 0.20 0.0 0 1 357.52 569.72
  Q 361.51 608.81 369.23 647.33
  Q 369.33 647.82 368.89 648.07
  Q 368.40 648.34 367.79 648.00
  Z"
/>
<path fill="#f6aea7" d="
  M 192.46 570.75
  Q 195.12 573.56 193.25 577.04
  Q 184.62 583.29 182.92 593.49
  C 180.23 609.66 165.03 625.50 151.49 633.58
  Q 148.91 635.12 147.15 637.18
  Q 126.69 661.10 106.14 684.95
  Q 103.98 687.45 101.05 689.69
  C 91.53 696.94 84.30 704.49 79.25 715.46
  L 38.96 758.70
  Q 28.73 768.58 15.18 773.24
  L 14.96 770.75
  Q 17.34 769.84 19.64 768.78
  C 26.20 765.78 33.47 757.38 38.00 751.79
  Q 48.22 740.69 53.22 734.71
  Q 87.82 693.28 122.94 652.28
  C 146.19 625.12 167.92 596.84 192.46 570.75
  Z"
/>
<path fill="#b81305" d="
  M 193.25 577.04
  L 196.44 604.59
  Q 196.51 605.15 196.99 605.43
  Q 200.87 607.71 205.87 606.65
  Q 205.66 607.29 205.75 608.21
  Q 203.79 610.80 206.36 613.50
  Q 207.18 614.37 208.12 613.63
  L 238.59 589.57
  Q 239.00 589.24 239.52 589.24
  L 243.38 589.26
  A 1.10 1.10 0.0 0 1 244.46 590.51
  Q 242.29 606.54 237.76 622.28
  Q 236.50 626.63 236.67 629.39
  C 236.85 632.11 238.66 643.44 244.04 638.00
  L 245.21 637.50
  L 244.77 647.01
  A 0.61 0.61 0.0 0 0 245.86 647.42
  L 249.75 642.46
  L 250.71 643.50
  L 254.68 647.69
  A 0.39 0.39 0.0 0 0 255.26 647.67
  C 263.69 637.66 267.67 628.38 273.05 614.57
  Q 277.14 604.09 280.71 593.37
  A 1.81 1.81 0.0 0 1 283.13 592.28
  C 287.46 594.14 285.44 617.91 286.37 623.98
  Q 287.08 628.55 287.02 631.58
  Q 286.29 667.75 288.60 703.85
  C 288.82 707.41 290.23 713.95 295.54 710.86
  L 296.71 710.75
  L 296.29 731.62
  A 0.46 0.46 0.0 0 0 297.20 731.73
  L 314.04 652.50
  L 314.96 653.25
  C 315.66 658.21 321.87 656.54 322.63 652.00
  Q 324.91 638.39 325.75 624.73
  A 1.17 1.17 0.0 0 1 327.70 623.93
  Q 332.42 628.14 331.78 634.37
  Q 331.73 634.87 331.97 635.32
  C 336.92 644.41 342.13 658.06 355.15 656.62
  C 357.60 656.35 358.57 654.51 358.00 652.29
  Q 358.91 652.17 358.79 651.25
  Q 362.47 656.25 367.75 658.81
  A 1.11 1.10 8.8 0 0 369.33 657.66
  L 368.04 648.75
  L 372.33 650.27
  A 1.11 1.11 0.0 0 0 373.80 649.13
  Q 372.71 636.46 372.47 623.49
  Q 372.44 621.67 370.81 616.45
  C 369.42 611.99 369.30 608.68 369.41 604.29
  C 369.55 598.43 365.62 589.75 363.77 584.00
  A 1.69 1.67 -40.5 0 1 363.88 582.70
  Q 365.18 580.22 367.05 582.20
  Q 378.08 593.84 384.71 608.49
  Q 385.35 609.92 388.40 613.39
  Q 388.73 613.77 389.22 613.91
  C 401.27 617.54 406.44 634.12 416.81 641.47
  Q 417.39 641.88 417.70 641.23
  L 419.27 637.93
  Q 450.10 689.03 481.43 739.80
  C 495.10 761.96 507.71 784.80 521.00 807.21
  L 514.86 814.28
  Q 514.49 814.71 513.91 814.70
  Q 510.37 814.63 509.61 817.97
  Q 509.49 818.50 508.95 818.50
  L 496.73 818.50
  Q 495.26 818.50 496.49 819.31
  L 498.88 820.89
  A 0.38 0.38 0.0 0 1 498.70 821.58
  Q 491.55 822.08 485.17 819.32
  C 481.74 817.84 477.74 818.47 474.24 817.75
  Q 450.98 812.93 427.47 809.09
  Q 426.94 809.01 426.66 808.54
  Q 424.72 805.18 420.78 805.96
  Q 420.22 806.07 419.80 805.68
  Q 416.59 802.72 412.65 804.51
  Q 412.19 804.72 411.72 804.53
  L 393.03 797.23
  Q 392.54 797.04 392.28 797.50
  L 391.70 798.50
  Q 391.44 798.95 390.98 798.70
  L 365.89 784.92
  Q 365.42 784.66 365.50 784.13
  C 365.68 782.97 365.40 782.57 364.40 781.99
  Q 357.62 778.10 350.94 773.94
  C 349.92 773.30 349.21 773.04 349.14 774.64
  Q 349.10 775.46 348.37 775.07
  L 314.12 756.36
  A 0.63 0.63 0.0 0 1 314.27 755.20
  Q 315.32 754.93 315.58 753.96
  Q 315.76 753.32 315.12 753.13
  Q 309.41 751.47 303.51 750.68
  C 296.85 749.80 294.42 747.89 288.74 744.46
  C 282.32 740.57 274.59 742.04 267.12 742.47
  C 265.88 742.55 264.40 743.24 265.05 744.66
  A 1.35 1.34 -10.4 0 1 263.74 746.56
  L 257.77 746.21
  A 0.84 0.84 0.0 0 1 256.99 745.26
  L 257.58 740.80
  A 0.74 0.74 0.0 0 0 256.82 739.96
  C 245.98 740.34 235.58 741.78 224.75 740.50
  C 218.37 739.75 211.08 742.62 203.78 741.45
  C 182.50 738.02 161.26 734.60 139.96 731.31
  Q 139.37 731.22 139.32 730.63
  L 139.12 728.60
  Q 139.05 727.91 138.36 727.88
  L 121.35 727.31
  Q 120.40 727.27 121.06 726.59
  L 122.47 725.14
  A 0.36 0.36 0.0 0 0 122.17 724.53
  C 113.71 725.39 107.36 720.69 100.28 717.19
  Q 90.76 712.49 83.36 719.73
  A 0.50 0.50 0.0 0 1 82.51 719.43
  Q 82.23 716.88 83.46 714.68
  Q 83.86 713.98 83.18 714.41
  Q 81.38 715.56 79.25 715.46
  C 84.30 704.49 91.53 696.94 101.05 689.69
  Q 103.98 687.45 106.14 684.95
  Q 126.69 661.10 147.15 637.18
  Q 148.91 635.12 151.49 633.58
  C 165.03 625.50 180.23 609.66 182.92 593.49
  Q 184.62 583.29 193.25 577.04
  Z"
/>
<path fill="#5d1203" d="
  M 358.79 651.25
  Q 358.91 652.17 358.00 652.29
  Q 343.59 629.63 324.71 610.57
  Q 324.39 610.24 324.04 610.55
  Q 321.21 613.07 320.82 614.82
  Q 318.96 623.28 316.75 644.25
  Q 316.20 649.47 314.96 653.25
  L 314.04 652.50
  Q 316.61 634.40 318.91 616.25
  C 319.30 613.19 321.63 611.00 323.49 608.80
  A 0.96 0.95 42.7 0 1 324.90 608.75
  Q 344.18 628.17 358.79 651.25
  Z"
/>
<path fill="#841b0b" d="
  M 358.00 652.29
  C 358.57 654.51 357.60 656.35 355.15 656.62
  C 342.13 658.06 336.92 644.41 331.97 635.32
  Q 331.73 634.87 331.78 634.37
  Q 332.42 628.14 327.70 623.93
  A 1.17 1.17 0.0 0 0 325.75 624.73
  Q 324.91 638.39 322.63 652.00
  C 321.87 656.54 315.66 658.21 314.96 653.25
  Q 316.20 649.47 316.75 644.25
  Q 318.96 623.28 320.82 614.82
  Q 321.21 613.07 324.04 610.55
  Q 324.39 610.24 324.71 610.57
  Q 343.59 629.63 358.00 652.29
  Z"
/>
<path fill="#5d1203" d="
  M 936.50 611.46
  C 940.97 615.88 943.16 623.32 951.25 620.46
  C 954.34 626.14 958.46 623.70 962.81 621.70
  Q 962.79 632.43 959.77 647.00
  C 957.54 657.78 945.50 664.30 935.60 666.11
  C 933.03 666.59 930.56 668.08 928.80 669.30
  C 916.74 677.67 897.36 695.29 880.51 707.49
  C 853.47 727.06 825.47 745.33 795.72 760.54
  C 772.59 772.37 750.28 786.00 728.19 799.66
  C 703.18 815.12 677.25 829.22 651.05 842.54
  Q 613.49 861.63 578.84 885.57
  C 573.71 889.11 569.38 890.57 563.57 891.72
  C 561.23 892.18 559.72 893.18 557.80 894.37
  Q 541.13 904.68 524.42 914.93
  Q 518.88 918.33 514.64 919.78
  C 510.46 921.20 505.39 921.62 501.65 923.85
  C 472.96 940.96 444.03 957.70 414.52 973.34
  Q 413.94 973.65 412.97 974.63
  Q 412.60 975.01 412.08 975.01
  C 406.84 975.02 401.52 976.72 397.81 977.49
  Q 397.35 977.58 396.94 977.82
  Q 395.70 978.54 394.23 978.12
  Q 393.79 977.99 393.43 978.28
  L 392.17 979.30
  Q 391.59 979.77 391.29 979.09
  Q 390.47 977.25 388.57 976.89
  Q 388.02 976.79 387.67 976.34
  C 386.17 974.39 383.89 973.64 382.40 972.69
  C 376.50 968.90 369.05 966.26 362.58 963.47
  C 353.92 959.75 345.82 954.68 337.37 950.18
  Q 336.93 949.95 336.43 950.00
  Q 335.84 950.06 335.42 949.83
  Q 298.43 929.54 262.74 907.01
  Q 258.98 904.64 251.66 900.87
  C 237.96 893.83 224.43 888.04 211.31 879.77
  Q 210.86 879.49 210.58 879.04
  Q 209.92 877.97 208.71 878.00
  Q 208.13 878.01 207.85 877.51
  Q 207.07 876.16 205.63 875.88
  Q 205.16 875.79 204.83 875.45
  Q 198.74 869.06 192.07 865.18
  Q 187.61 862.59 185.58 861.23
  Q 185.20 860.98 184.75 861.08
  Q 182.47 861.57 180.47 860.25
  Q 180.04 859.97 179.54 860.10
  C 178.79 860.29 178.55 860.39 177.81 860.02
  Q 164.52 853.35 151.21 846.71
  C 149.63 845.93 148.23 844.78 146.60 843.84
  C 144.94 842.88 143.82 843.29 142.04 841.93
  Q 140.47 840.73 139.78 840.40
  Q 128.31 834.83 117.00 829.02
  Q 115.79 828.39 115.32 827.92
  Q 114.98 827.57 114.54 827.35
  Q 105.43 822.82 96.35 818.24
  C 95.01 817.56 94.06 816.50 93.00 816.01
  C 88.76 814.03 83.96 811.87 80.34 809.30
  Q 79.95 809.02 79.47 809.09
  Q 78.11 809.27 77.35 807.91
  Q 77.06 807.40 76.50 807.25
  Q 74.39 806.68 73.35 804.72
  Q 73.10 804.24 72.56 804.16
  C 70.63 803.85 70.21 802.49 68.68 801.84
  Q 64.07 799.87 59.02 800.28
  Q 58.58 800.31 58.25 800.02
  Q 52.47 794.82 45.53 791.31
  Q 45.05 791.06 44.51 791.12
  C 43.39 791.25 42.73 790.39 41.73 790.12
  Q 35.92 788.58 29.99 787.56
  C 25.90 786.85 25.59 784.48 24.31 781.12
  Q 24.15 780.71 23.75 780.54
  Q 20.63 779.20 18.18 781.26
  Q 17.85 781.53 17.61 781.18
  Q 14.82 777.12 15.18 773.24
  Q 28.73 768.58 38.96 758.70
  Q 43.77 759.22 47.98 757.73
  A 0.52 0.52 0.0 0 1 48.56 758.54
  L 41.07 768.34
  A 0.44 0.43 10.6 0 0 41.54 769.02
  L 48.65 766.98
  Q 49.15 766.84 49.63 767.05
  C 78.54 779.71 108.05 791.84 133.93 809.08
  Q 162.41 828.04 177.83 837.31
  Q 178.28 837.58 178.80 837.56
  C 183.50 837.37 188.55 836.64 193.22 838.31
  C 199.19 840.45 204.75 845.02 210.07 846.65
  C 236.35 854.72 256.34 862.13 280.17 867.36
  Q 281.66 867.68 298.05 870.48
  C 313.06 873.04 327.10 878.18 341.63 882.52
  C 347.33 884.22 352.48 882.24 358.27 884.40
  Q 384.36 894.16 412.00 898.06
  Q 412.54 898.14 412.81 898.44
  Q 413.12 898.78 412.85 899.15
  L 411.89 900.50
  Q 411.42 901.17 412.23 901.22
  C 417.11 901.53 421.52 901.79 426.30 902.96
  Q 428.13 903.41 430.56 903.08
  Q 467.91 898.08 488.82 894.37
  Q 492.57 893.71 494.37 891.93
  Q 494.76 891.55 495.30 891.54
  Q 502.11 891.49 507.60 887.50
  Q 508.05 887.16 508.62 887.19
  C 523.79 887.86 538.36 879.69 552.74 872.73
  Q 553.87 872.18 554.98 872.66
  Q 555.44 872.86 555.92 872.70
  L 557.66 872.08
  A 1.96 1.96 0.0 0 0 558.40 868.86
  C 551.93 862.30 547.61 854.43 543.43 846.25
  C 536.83 833.34 528.76 821.51 520.97 809.42
  Q 520.69 808.99 521.03 808.59
  Q 521.34 808.23 521.75 808.21
  L 542.50 841.54
  C 543.11 842.88 557.49 873.20 559.80 864.02
  Q 560.76 863.70 561.15 862.74
  Q 561.33 862.28 561.82 862.34
  Q 569.83 863.45 572.53 855.75
  C 573.52 852.95 568.43 847.13 566.91 844.85
  C 549.37 818.66 535.17 790.69 519.24 763.55
  Q 512.99 752.91 508.75 741.29
  C 514.41 740.45 522.01 746.15 525.33 750.31
  Q 525.63 750.69 526.11 750.72
  L 536.99 751.41
  Q 537.42 751.43 537.78 751.66
  C 542.98 754.84 547.31 755.74 553.86 755.63
  C 570.56 755.36 586.50 755.81 603.89 754.67
  C 626.65 753.18 648.70 745.28 669.40 736.21
  C 681.25 731.02 693.17 726.20 704.75 720.41
  Q 706.90 719.33 705.25 721.08
  Q 703.60 722.83 701.70 724.30
  Q 701.33 724.58 701.50 725.02
  Q 701.55 725.15 701.59 725.27
  Q 701.64 725.43 701.78 725.35
  Q 716.26 717.73 731.75 712.47
  A 0.36 0.36 0.0 0 1 732.09 713.10
  L 728.52 715.75
  Q 728.28 715.93 728.50 716.14
  Q 728.65 716.27 728.75 716.37
  Q 728.84 716.47 728.97 716.41
  Q 738.68 712.21 745.62 709.92
  Q 746.67 709.57 747.52 710.58
  Q 747.91 711.05 748.41 710.69
  C 753.62 706.96 759.25 702.16 765.50 700.25
  C 786.54 693.82 802.10 686.41 820.20 678.34
  C 827.38 675.14 835.53 673.08 843.52 670.66
  C 850.56 668.52 857.69 665.31 864.80 662.72
  C 873.73 659.47 881.77 654.98 890.58 651.97
  Q 903.47 647.58 916.89 645.18
  Q 923.98 643.91 927.08 650.29
  Q 927.44 651.02 927.07 651.76
  Q 923.26 659.41 922.49 667.97
  Q 922.43 668.61 923.02 668.34
  Q 937.53 661.67 949.54 651.26
  C 952.12 649.02 952.00 646.89 950.29 644.22
  C 943.74 634.02 938.82 625.26 936.68 614.12
  C 936.56 613.54 936.15 613.13 935.82 612.65
  Q 935.54 612.26 935.91 611.95
  L 936.50 611.46
  Z"
/>
<path fill="#f6aea7" d="
  M 420.79 619.75
  L 422.00 621.71
  Q 421.67 621.67 421.45 621.76
  Q 420.94 621.94 421.20 622.41
  Q 442.37 660.36 448.55 670.20
  Q 506.05 761.65 555.89 857.49
  Q 556.44 858.55 556.70 857.39
  L 556.79 857.00
  Q 558.98 860.18 559.80 864.02
  C 557.49 873.20 543.11 842.88 542.50 841.54
  Q 542.87 841.38 543.03 841.09
  Q 543.27 840.64 543.01 840.20
  Q 531.97 821.97 520.52 803.98
  Q 512.84 791.91 497.61 764.41
  Q 488.34 747.69 466.85 713.70
  C 450.88 688.43 435.61 662.66 420.20 637.05
  C 419.14 635.28 413.74 625.57 412.00 625.79
  L 410.29 622.75
  L 416.70 622.53
  Q 417.22 622.51 417.63 622.19
  L 420.79 619.75
  Z"
/>
<path fill="#ffe9e7" d="
  M 422.00 621.71
  Q 443.82 660.47 451.81 673.19
  Q 508.17 762.89 556.79 857.00
  L 556.70 857.39
  Q 556.44 858.55 555.89 857.49
  Q 506.05 761.65 448.55 670.20
  Q 442.37 660.36 421.20 622.41
  Q 420.94 621.94 421.45 621.76
  Q 421.67 621.67 422.00 621.71
  Z"
/>
<path fill="#ffe9e7" d="
  M 412.00 625.79
  C 413.74 625.57 419.14 635.28 420.20 637.05
  C 435.61 662.66 450.88 688.43 466.85 713.70
  Q 488.34 747.69 497.61 764.41
  Q 512.84 791.91 520.52 803.98
  Q 531.97 821.97 543.01 840.20
  Q 543.27 840.64 543.03 841.09
  Q 542.87 841.38 542.50 841.54
  L 521.75 808.21
  L 521.00 807.21
  C 507.71 784.80 495.10 761.96 481.43 739.80
  Q 450.10 689.03 419.27 637.93
  L 418.04 635.75
  L 412.00 625.79
  Z"
/>
<path fill="#841b0b" d="
  M 521.00 807.21
  L 521.75 808.21
  Q 521.34 808.23 521.03 808.59
  Q 520.69 808.99 520.97 809.42
  C 528.76 821.51 536.83 833.34 543.43 846.25
  C 547.61 854.43 551.93 862.30 558.40 868.86
  A 1.96 1.96 0.0 0 1 557.66 872.08
  L 555.92 872.70
  Q 555.44 872.86 554.98 872.66
  Q 553.87 872.18 552.74 872.73
  C 538.36 879.69 523.79 887.86 508.62 887.19
  Q 508.05 887.16 507.60 887.50
  Q 502.11 891.49 495.30 891.54
  Q 494.76 891.55 494.37 891.93
  Q 492.57 893.71 488.82 894.37
  Q 467.91 898.08 430.56 903.08
  Q 428.13 903.41 426.30 902.96
  C 421.52 901.79 417.11 901.53 412.23 901.22
  Q 411.42 901.17 411.89 900.50
  L 412.85 899.15
  Q 413.12 898.78 412.81 898.44
  Q 412.54 898.14 412.00 898.06
  Q 384.36 894.16 358.27 884.40
  C 352.48 882.24 347.33 884.22 341.63 882.52
  C 327.10 878.18 313.06 873.04 298.05 870.48
  Q 281.66 867.68 280.17 867.36
  C 256.34 862.13 236.35 854.72 210.07 846.65
  C 204.75 845.02 199.19 840.45 193.22 838.31
  C 188.55 836.64 183.50 837.37 178.80 837.56
  Q 178.28 837.58 177.83 837.31
  Q 162.41 828.04 133.93 809.08
  C 108.05 791.84 78.54 779.71 49.63 767.05
  Q 49.15 766.84 48.65 766.98
  L 41.54 769.02
  A 0.44 0.43 10.6 0 1 41.07 768.34
  L 48.56 758.54
  A 0.52 0.52 0.0 0 0 47.98 757.73
  Q 43.77 759.22 38.96 758.70
  L 79.25 715.46
  Q 81.38 715.56 83.18 714.41
  Q 83.86 713.98 83.46 714.68
  Q 82.23 716.88 82.51 719.43
  A 0.50 0.50 0.0 0 0 83.36 719.73
  Q 90.76 712.49 100.28 717.19
  C 107.36 720.69 113.71 725.39 122.17 724.53
  A 0.36 0.36 0.0 0 1 122.47 725.14
  L 121.06 726.59
  Q 120.40 727.27 121.35 727.31
  L 138.36 727.88
  Q 139.05 727.91 139.12 728.60
  L 139.32 730.63
  Q 139.37 731.22 139.96 731.31
  C 161.26 734.60 182.50 738.02 203.78 741.45
  C 211.08 742.62 218.37 739.75 224.75 740.50
  C 235.58 741.78 245.98 740.34 256.82 739.96
  A 0.74 0.74 0.0 0 1 257.58 740.80
  L 256.99 745.26
  A 0.84 0.84 0.0 0 0 257.77 746.21
  L 263.74 746.56
  A 1.35 1.34 -10.4 0 0 265.05 744.66
  C 264.40 743.24 265.88 742.55 267.12 742.47
  C 274.59 742.04 282.32 740.57 288.74 744.46
  C 294.42 747.89 296.85 749.80 303.51 750.68
  Q 309.41 751.47 315.12 753.13
  Q 315.76 753.32 315.58 753.96
  Q 315.32 754.93 314.27 755.20
  A 0.63 0.63 0.0 0 0 314.12 756.36
  L 348.37 775.07
  Q 349.10 775.46 349.14 774.64
  C 349.21 773.04 349.92 773.30 350.94 773.94
  Q 357.62 778.10 364.40 781.99
  C 365.40 782.57 365.68 782.97 365.50 784.13
  Q 365.42 784.66 365.89 784.92
  L 390.98 798.70
  Q 391.44 798.95 391.70 798.50
  L 392.28 797.50
  Q 392.54 797.04 393.03 797.23
  L 411.72 804.53
  Q 412.19 804.72 412.65 804.51
  Q 416.59 802.72 419.80 805.68
  Q 420.22 806.07 420.78 805.96
  Q 424.72 805.18 426.66 808.54
  Q 426.94 809.01 427.47 809.09
  Q 450.98 812.93 474.24 817.75
  C 477.74 818.47 481.74 817.84 485.17 819.32
  Q 491.55 822.08 498.70 821.58
  A 0.38 0.38 0.0 0 0 498.88 820.89
  L 496.49 819.31
  Q 495.26 818.50 496.73 818.50
  L 508.95 818.50
  Q 509.49 818.50 509.61 817.97
  Q 510.37 814.63 513.91 814.70
  Q 514.49 814.71 514.86 814.28
  L 521.00 807.21
  Z"
/>
</svg>
