<?xml version="1.0" encoding="UTF-8" standalone="no"?>
<!DOCTYPE svg PUBLIC "-//W3C//DTD SVG 1.1//EN" "http://www.w3.org/Graphics/SVG/1.1/DTD/svg11.dtd">
<svg xmlns="http://www.w3.org/2000/svg" version="1.1" viewBox="0.00 0.00 1376.00 1523.00">
<g stroke-width="2.00" fill="none" stroke-linecap="butt">
<path stroke="#554600" vector-effect="non-scaling-stroke" d="
  M 1275.66 1206.95
  Q 1274.63 1205.12 1272.80 1205.00
  Q 1272.28 1204.96 1272.03 1204.51
  C 1268.69 1198.48 1266.04 1193.41 1261.73 1186.96
  C 1258.69 1182.42 1256.42 1177.22 1254.17 1172.69
  Q 1229.86 1123.60 1205.56 1074.50
  Q 1204.29 1071.92 1202.75 1069.50"
/>
<path stroke="#554600" vector-effect="non-scaling-stroke" d="
  M 1202.75 1069.50
  Q 1202.53 1068.64 1202.09 1067.86
  Q 1067.68 824.60 933.02 581.46
  Q 922.65 562.75 917.54 554.00"
/>
<path stroke="#827e5c" vector-effect="non-scaling-stroke" d="
  M 917.54 554.00
  L 917.29 553.50"
/>
<path stroke="#817f7d" vector-effect="non-scaling-stroke" d="
  M 917.29 553.50
  C 879.29 481.51 843.49 420.79 799.10 345.42
  C 760.57 279.99 724.71 215.84 692.63 147.61
  C 690.73 143.58 688.60 142.14 684.88 145.66
  C 674.24 155.70 668.54 164.01 661.00 178.05
  Q 562.13 362.04 460.29 544.41
  C 456.30 551.57 452.92 559.06 449.29 566.50"
/>
<path stroke="#827e5c" vector-effect="non-scaling-stroke" d="
  M 449.29 566.50
  L 300.00 834.46"
/>
<path stroke="#645800" vector-effect="non-scaling-stroke" d="
  M 300.00 834.46
  Q 267.23 889.96 235.62 946.13"
/>
<path stroke="#554600" vector-effect="non-scaling-stroke" d="
  M 235.62 946.13
  Q 235.38 948.87 235.29 951.54
  C 235.12 956.87 231.93 965.40 230.50 968.47
  Q 218.05 995.14 201.19 1019.22
  C 197.25 1024.85 193.13 1031.46 190.76 1036.29
  Q 176.07 1066.19 161.33 1096.08
  C 156.02 1106.85 161.86 1117.31 173.25 1119.54"
/>
<path stroke="#3d2b02" vector-effect="non-scaling-stroke" d="
  M 173.25 1119.54
  Q 173.93 1120.33 173.73 1121.54
  Q 173.65 1122.04 173.25 1122.36
  Q 170.65 1124.43 171.63 1127.95
  Q 171.78 1128.50 171.32 1128.83
  Q 170.20 1129.65 169.57 1131.29"
/>
<path stroke="#fffdd9" vector-effect="non-scaling-stroke" d="
  M 917.29 553.50
  L 917.23 555.11
  Q 917.20 555.63 916.79 555.95
  Q 908.61 562.22 898.72 565.08
  Q 898.21 565.23 897.90 565.67
  Q 897.06 566.87 895.79 567.25"
/>
<path stroke="#e1d77d" vector-effect="non-scaling-stroke" d="
  M 895.79 567.25
  Q 893.66 562.87 890.92 558.82
  C 868.44 525.58 843.47 499.25 811.93 468.53"
/>
<path stroke="#d2c57d" vector-effect="non-scaling-stroke" d="
  M 811.93 468.53
  L 797.11 453.38"
/>
<path stroke="#e1d77d" vector-effect="non-scaling-stroke" d="
  M 797.11 453.38
  Q 793.05 448.19 788.17 443.66
  Q 786.27 441.90 785.82 444.45
  Q 785.64 445.46 785.77 446.50
  Q 787.90 462.95 790.20 479.39
  C 791.42 488.07 790.75 496.73 790.81 505.53"
/>
<path stroke="#fffdd9" vector-effect="non-scaling-stroke" d="
  M 790.81 505.53
  Q 789.84 507.62 787.51 507.82
  Q 787.00 507.86 786.57 508.13
  Q 759.70 525.31 733.01 542.76
  Q 731.21 543.93 730.64 545.60
  Q 730.43 546.19 730.94 546.55
  Q 735.07 549.52 737.45 552.55
  Q 750.31 568.87 763.48 584.96
  C 773.29 596.94 783.63 610.58 793.71 622.30
  Q 794.62 623.36 796.43 624.29
  Q 796.91 624.53 796.55 624.94
  Q 795.32 626.32 796.00 627.96"
/>
<path stroke="#e1d77d" vector-effect="non-scaling-stroke" d="
  M 796.00 627.96
  C 794.61 627.41 793.50 626.99 792.51 625.75
  Q 762.37 588.21 732.19 550.70
  C 726.58 543.73 722.39 539.62 714.53 537.14
  C 710.06 535.73 708.85 544.34 708.12 548.19"
/>
<path stroke="#fffdd9" vector-effect="non-scaling-stroke" d="
  M 708.12 548.19
  Q 699.58 547.89 691.38 545.34
  C 685.58 543.54 679.51 540.18 673.73 537.22
  Q 663.29 531.89 651.90 530.64"
/>
<path stroke="#e1d77d" vector-effect="non-scaling-stroke" d="
  M 651.90 530.64
  Q 649.17 492.53 652.23 460.25
  Q 652.65 455.83 652.02 453.09
  C 651.09 449.08 646.29 449.15 643.86 451.10
  Q 642.49 452.20 641.33 455.44
  Q 632.58 479.97 619.21 502.22
  Q 613.02 512.52 609.88 518.60
  Q 591.67 553.88 573.32 589.08
  C 570.82 593.87 565.69 597.70 562.04 601.75"
/>
<path stroke="#fffdd9" vector-effect="non-scaling-stroke" d="
  M 562.04 601.75
  Q 561.00 600.91 560.72 599.74
  Q 560.59 599.22 560.94 598.82
  C 564.57 594.63 568.55 591.16 571.12 586.21
  C 583.77 561.86 595.99 537.14 609.55 513.28
  A 1.49 1.49 0.0 0 0 608.40 511.06
  Q 593.52 509.63 579.33 512.58
  C 573.50 513.79 567.78 512.90 561.92 512.64"
/>
<path stroke="#e1d77d" vector-effect="non-scaling-stroke" d="
  M 561.92 512.64
  C 562.30 503.32 560.52 494.02 560.48 484.63
  C 560.45 479.93 561.44 475.06 562.04 470.25"
/>
<path stroke="#c2b27d" vector-effect="non-scaling-stroke" d="
  M 562.04 470.25
  L 562.75 466.54"
/>
<path stroke="#e1d77d" vector-effect="non-scaling-stroke" d="
  M 562.75 466.54
  L 569.75 428.81
  Q 569.89 428.06 569.14 428.24
  C 567.00 428.75 557.86 446.47 556.24 449.51"
/>
<path stroke="#d2c57d" vector-effect="non-scaling-stroke" d="
  M 556.24 449.51
  L 542.00 473.71"
/>
<path stroke="#e1d77d" vector-effect="non-scaling-stroke" d="
  M 542.00 473.71
  Q 503.77 524.48 474.75 581.04"
/>
<path stroke="#fffdd9" vector-effect="non-scaling-stroke" d="
  M 474.75 581.04
  L 472.78 580.73
  Q 472.32 580.65 472.30 580.18
  C 472.14 575.44 460.32 568.54 456.00 567.35
  C 453.76 566.73 452.00 568.08 449.29 566.50"
/>
<path stroke="#d2c45c" vector-effect="non-scaling-stroke" d="
  M 358.16 774.35
  L 317.21 838.75"
/>
<path stroke="#e2d65c" vector-effect="non-scaling-stroke" d="
  M 317.21 838.75
  C 312.78 844.18 304.32 839.06 301.10 834.74
  Q 300.89 834.46 300.55 834.49
  Q 300.18 834.53 300.00 834.46"
/>
<path stroke="#8d7102" vector-effect="non-scaling-stroke" d="
  M 1270.47 1211.05
  Q 1260.95 1202.22 1256.76 1189.94
  C 1255.88 1187.35 1252.57 1185.22 1250.95 1182.77
  C 1246.22 1175.62 1241.06 1168.64 1236.91 1161.35
  Q 1223.31 1137.48 1210.03 1113.38"
/>
<path stroke="#967900" vector-effect="non-scaling-stroke" d="
  M 1210.03 1113.38
  Q 1205.94 1111.30 1201.96 1110.46
  C 1197.00 1109.42 1190.68 1113.62 1187.13 1116.71
  Q 1185.32 1118.29 1183.37 1118.97
  C 1161.55 1126.53 1142.71 1138.78 1121.07 1144.71
  Q 1104.57 1149.23 1088.30 1154.57
  Q 1087.77 1154.75 1087.41 1154.33
  L 1085.33 1151.89
  Q 1084.94 1151.43 1084.40 1151.70
  C 999.23 1193.42 902.04 1165.61 829.27 1111.96
  Q 811.94 1099.18 774.02 1070.49
  C 739.74 1044.56 710.46 1014.03 677.40 984.36
  C 640.51 951.27 600.60 922.95 552.49 906.72
  C 539.66 902.39 526.31 899.20 513.69 898.57
  Q 495.37 897.66 477.08 896.19
  C 457.29 894.61 437.16 889.21 416.56 892.56
  C 410.79 893.50 405.47 894.70 402.32 899.06
  C 396.14 907.60 383.88 912.15 373.38 913.76
  Q 372.02 913.97 372.01 912.60
  L 371.98 910.14
  Q 371.97 909.41 371.26 909.57
  Q 356.19 912.86 341.11 916.02
  Q 335.17 917.26 332.82 918.82
  Q 328.65 921.58 325.75 921.77
  C 314.64 922.50 304.39 923.51 293.02 926.16
  C 280.50 929.09 269.21 928.30 262.88 941.99
  Q 259.77 948.73 259.72 948.82
  Q 242.93 980.06 225.83 1011.11"
/>
<path stroke="#8d7102" vector-effect="non-scaling-stroke" d="
  M 225.83 1011.11
  Q 224.67 1013.16 223.61 1015.28
  Q 208.53 1045.47 188.10 1072.31
  C 186.65 1074.22 183.67 1076.84 182.32 1079.72
  Q 181.37 1081.75 180.13 1082.93
  C 176.32 1086.53 175.11 1089.24 173.04 1094.74
  C 171.64 1098.46 175.37 1101.30 176.31 1104.80
  Q 176.44 1105.30 176.87 1105.58
  C 179.05 1107.05 177.81 1115.56 177.95 1117.38
  Q 178.00 1117.98 177.40 1118.06
  L 174.27 1118.49
  Q 173.70 1118.57 173.46 1119.09
  L 173.25 1119.54"
/>
<path stroke="#b59e00" vector-effect="non-scaling-stroke" d="
  M 235.62 946.13
  C 240.55 948.63 241.31 942.59 242.95 939.72
  C 248.32 930.35 253.60 921.06 258.60 911.48
  Q 258.92 910.87 259.44 911.33
  C 264.61 915.93 265.91 915.97 270.17 910.61
  Q 296.99 876.85 317.21 838.75"
/>
<path stroke="#d2c45c" vector-effect="non-scaling-stroke" d="
  M 917.54 554.00
  Q 918.15 556.91 920.44 561.06
  Q 933.48 584.65 946.46 608.28
  Q 950.35 615.37 952.07 618.22
  Q 952.23 618.50 952.23 618.82
  C 952.23 619.36 954.11 621.70 954.51 622.30
  C 955.46 623.73 955.81 625.79 957.19 627.31
  Q 957.50 627.64 957.50 628.10
  Q 957.49 628.32 957.56 628.44
  Q 970.85 651.67 983.49 675.25
  C 987.14 682.05 991.08 688.64 994.79 695.43
  Q 1001.94 708.48 1002.83 710.06
  Q 1016.92 735.04 1030.45 760.32
  Q 1030.68 760.76 1031.11 761.00
  Q 1032.29 761.66 1032.35 762.91
  Q 1032.37 763.40 1032.61 763.82
  L 1105.60 895.51
  Q 1105.81 895.88 1106.19 896.06
  Q 1106.56 896.24 1106.43 896.61
  Q 1106.23 897.17 1106.52 897.67
  C 1117.55 916.75 1128.25 936.15 1138.81 955.49
  Q 1156.39 987.72 1174.25 1019.79
  Q 1185.04 1039.19 1195.96 1058.52
  Q 1200.48 1066.51 1202.75 1069.50"
/>
<path stroke="#d2c45c" vector-effect="non-scaling-stroke" d="
  M 1202.75 1069.50
  L 1202.75 1069.95
  Q 1202.75 1070.49 1202.26 1070.72
  Q 1196.76 1073.27 1192.11 1077.13
  Q 1191.69 1077.48 1191.31 1077.08
  L 1185.25 1070.73"
/>
<path stroke="#a58b00" vector-effect="non-scaling-stroke" d="
  M 562.75 466.54
  Q 561.15 468.04 562.04 470.25"
/>
<path stroke="#e2d65c" vector-effect="non-scaling-stroke" d="
  M 561.92 512.64
  Q 557.51 537.83 551.67 562.61
  C 547.86 578.81 549.27 595.85 549.25 612.00
  Q 549.24 613.00 549.61 614.62
  Q 549.72 615.11 550.14 615.37
  C 552.60 616.91 553.93 615.65 555.06 613.41
  Q 558.14 607.33 562.04 601.75"
/>
<path stroke="#e2d65c" vector-effect="non-scaling-stroke" d="
  M 651.90 530.64
  Q 652.22 543.70 652.79 556.55
  Q 652.95 560.35 654.08 564.81
  C 657.86 579.71 657.81 591.63 656.57 608.26
  Q 655.48 622.89 657.04 637.60
  Q 657.10 638.12 657.46 638.50
  C 661.02 642.24 665.31 646.14 667.91 649.77
  Q 679.05 665.27 672.74 683.88
  C 671.31 688.10 666.73 694.44 667.03 698.86
  Q 667.84 711.13 668.91 723.68
  A 1.51 1.50 -7.8 0 0 670.69 725.03
  C 672.20 724.74 672.73 722.95 673.09 721.44
  C 680.43 690.85 686.37 659.83 694.16 629.40
  Q 701.39 601.17 705.03 572.23
  Q 706.57 559.95 708.12 548.19"
/>
<path stroke="#e2d65c" vector-effect="non-scaling-stroke" d="
  M 796.00 627.96
  Q 802.98 630.53 810.01 632.97
  C 812.82 633.94 814.72 632.11 814.26 629.24
  C 807.57 587.77 796.83 547.09 790.81 505.53"
/>
<path stroke="#b59e00" vector-effect="non-scaling-stroke" d="
  M 797.11 453.38
  Q 803.33 462.13 811.93 468.53"
/>
<path stroke="#e2d65c" vector-effect="non-scaling-stroke" d="
  M 895.79 567.25
  C 899.28 574.37 902.73 581.36 906.61 588.44
  Q 991.90 744.16 1080.49 898.03
  C 1085.79 907.23 1088.42 919.90 1094.74 930.12
  Q 1138.69 1001.23 1185.25 1070.73"
/>
<path stroke="#b59e00" vector-effect="non-scaling-stroke" d="
  M 1185.25 1070.73
  Q 1177.21 1066.44 1171.34 1059.49
  C 1170.55 1058.56 1169.25 1057.56 1168.19 1057.60
  Q 1162.49 1057.82 1151.30 1059.31
  C 1145.47 1060.08 1142.57 1051.12 1135.34 1057.66
  C 1132.89 1059.87 1133.44 1062.89 1129.57 1064.62
  A 1.19 1.19 0.0 0 0 1129.51 1066.76
  L 1141.98 1073.21
  A 1.22 1.22 0.0 0 1 1141.79 1075.46
  L 1118.61 1082.78
  A 0.85 0.84 -85.7 0 1 1117.60 1081.60
  L 1119.47 1077.71
  A 0.67 0.67 0.0 0 0 1119.02 1076.77
  C 1108.33 1074.12 1099.23 1073.20 1088.83 1077.72
  C 1087.30 1078.39 1086.96 1079.35 1086.61 1080.85
  Q 1086.47 1081.42 1085.89 1081.36
  L 1064.31 1079.45
  Q 1063.80 1079.40 1063.81 1079.92
  L 1063.87 1082.60
  Q 1063.89 1083.23 1063.26 1083.16
  Q 1042.91 1081.02 1022.56 1078.89
  C 1021.16 1078.75 1018.31 1078.16 1017.53 1077.50
  C 1007.98 1069.35 1000.23 1067.22 987.95 1064.74
  C 984.52 1064.05 982.26 1062.57 981.00 1059.47
  A 0.48 0.48 0.0 0 1 981.61 1058.83
  L 996.64 1064.06
  A 0.81 0.81 0.0 0 0 997.65 1062.98
  Q 995.39 1057.70 989.75 1055.75
  Q 947.80 1041.19 911.88 1015.09
  Q 842.44 964.65 783.39 902.36
  Q 744.19 861.01 706.27 818.48
  Q 696.30 807.31 685.00 797.52
  C 673.90 787.92 663.90 783.96 650.50 778.99
  Q 610.99 764.32 572.21 754.48
  Q 560.67 751.55 554.25 751.22
  C 539.79 750.48 521.67 754.34 506.20 756.82
  C 502.79 757.36 503.33 767.44 500.69 770.17
  Q 500.32 770.56 499.78 770.61
  L 450.27 775.67
  Q 449.70 775.73 449.18 775.47
  C 440.48 771.06 433.67 768.46 424.23 771.99
  Q 422.08 772.80 420.61 773.09
  Q 420.04 773.21 419.59 772.84
  Q 407.51 763.23 391.94 762.16
  A 0.81 0.80 -79.2 0 0 391.11 762.73
  C 389.33 768.69 381.45 772.68 376.61 776.22
  Q 376.14 776.56 375.66 776.23
  Q 367.52 770.63 358.16 774.35"
/>
<path stroke="#e2d65c" vector-effect="non-scaling-stroke" d="
  M 358.16 774.35
  C 381.21 730.65 402.63 690.06 429.97 650.32
  Q 451.19 619.47 471.26 587.87
  C 472.61 585.74 473.72 583.30 474.75 581.04"
/>
<path stroke="#b59e00" vector-effect="non-scaling-stroke" d="
  M 542.00 473.71
  C 542.51 473.41 543.18 473.07 543.51 472.56
  Q 550.58 461.43 556.24 449.51"
/>
<path stroke="#7e5e02" vector-effect="non-scaling-stroke" d="
  M 1210.03 1113.38
  Q 1208.06 1115.10 1208.87 1116.39
  C 1212.83 1122.66 1216.84 1132.20 1222.43 1139.22
  A 0.37 0.36 -37.7 0 1 1222.36 1139.75
  C 1216.35 1143.94 1216.05 1151.08 1213.92 1157.42
  C 1210.03 1169.04 1203.89 1176.95 1190.52 1177.57
  C 1165.51 1178.72 1149.02 1184.97 1130.14 1201.24
  C 1127.62 1203.41 1123.26 1203.19 1120.14 1204.69
  Q 1110.07 1209.53 1100.30 1214.94
  C 1082.74 1224.67 1065.16 1233.94 1046.60 1241.65
  Q 1004.56 1259.10 958.99 1260.66
  Q 955.40 1260.79 954.33 1257.99
  A 2.03 2.02 -14.7 0 0 952.14 1256.72
  C 923.47 1260.98 892.96 1265.53 864.56 1260.70
  Q 834.28 1255.56 803.96 1250.65
  C 797.53 1249.61 793.40 1247.87 786.92 1250.39
  Q 786.41 1250.59 786.00 1250.24
  C 783.85 1248.41 781.93 1247.11 779.11 1246.28
  C 708.42 1225.48 642.24 1193.22 582.52 1149.97
  C 573.73 1143.60 562.33 1134.57 554.08 1128.42
  Q 528.70 1109.52 506.96 1099.27
  C 491.42 1091.94 470.02 1085.00 451.79 1077.42
  Q 432.03 1069.19 412.35 1060.77
  C 381.82 1047.72 346.13 1041.28 314.90 1026.15
  C 308.27 1022.93 303.89 1024.47 297.36 1027.43
  C 294.31 1028.82 289.79 1026.64 287.23 1026.11
  Q 248.68 1018.09 228.73 1013.57
  Q 227.15 1013.21 225.83 1011.11"
/>
</g>
<path fill="#040000" d="
  M 1275.66 1206.95
  Q 1274.63 1205.12 1272.80 1205.00
  Q 1272.28 1204.96 1272.03 1204.51
  C 1268.69 1198.48 1266.04 1193.41 1261.73 1186.96
  C 1258.69 1182.42 1256.42 1177.22 1254.17 1172.69
  Q 1229.86 1123.60 1205.56 1074.50
  Q 1204.29 1071.92 1202.75 1069.50
  Q 1202.53 1068.64 1202.09 1067.86
  Q 1067.68 824.60 933.02 581.46
  Q 922.65 562.75 917.54 554.00
  L 917.29 553.50
  C 879.29 481.51 843.49 420.79 799.10 345.42
  C 760.57 279.99 724.71 215.84 692.63 147.61
  C 690.73 143.58 688.60 142.14 684.88 145.66
  C 674.24 155.70 668.54 164.01 661.00 178.05
  Q 562.13 362.04 460.29 544.41
  C 456.30 551.57 452.92 559.06 449.29 566.50
  L 300.00 834.46
  Q 267.23 889.96 235.62 946.13
  Q 235.38 948.87 235.29 951.54
  C 235.12 956.87 231.93 965.40 230.50 968.47
  Q 218.05 995.14 201.19 1019.22
  C 197.25 1024.85 193.13 1031.46 190.76 1036.29
  Q 176.07 1066.19 161.33 1096.08
  C 156.02 1106.85 161.86 1117.31 173.25 1119.54
  Q 173.93 1120.33 173.73 1121.54
  Q 173.65 1122.04 173.25 1122.36
  Q 170.65 1124.43 171.63 1127.95
  Q 171.78 1128.50 171.32 1128.83
  Q 170.20 1129.65 169.57 1131.29
  Q 162.34 1128.05 155.28 1124.43
  C 141.44 1117.34 127.02 1112.30 115.06 1101.95
  C 113.06 1100.23 107.48 1100.25 104.59 1099.06
  A 0.84 0.84 0.0 0 1 104.23 1097.80
  C 106.27 1094.93 106.81 1091.30 111.29 1091.11
  Q 116.47 1090.89 121.10 1088.64
  C 123.39 1087.53 125.22 1085.19 128.13 1084.14
  Q 128.62 1083.96 128.87 1083.52
  C 129.89 1081.69 131.25 1079.99 132.23 1078.31
  C 147.82 1051.65 163.30 1024.65 177.40 997.17
  C 178.01 995.97 179.11 994.91 179.67 993.79
  Q 184.10 984.78 188.86 975.94
  C 195.50 963.63 201.88 950.16 209.16 937.63
  Q 213.14 930.78 220.03 920.86
  Q 235.80 898.17 245.50 882.25
  C 249.99 874.87 254.51 864.96 256.34 855.71
  C 258.92 842.70 263.63 833.78 271.91 821.87
  Q 282.21 807.08 286.15 800.66
  Q 323.98 738.97 362.68 666.44
  Q 368.93 654.73 379.31 642.57
  C 381.01 640.57 379.67 635.68 380.52 632.71
  Q 381.08 630.76 381.80 627.00
  Q 384.76 611.68 397.29 600.19
  Q 397.68 599.84 397.78 599.32
  Q 398.86 593.74 397.93 588.25
  C 397.22 584.07 409.51 570.59 412.43 566.91
  Q 424.03 552.36 430.30 533.07
  C 432.82 525.32 439.87 512.67 448.12 508.93
  C 457.49 504.68 463.18 488.38 466.29 479.36
  Q 466.47 478.86 466.23 478.39
  Q 464.79 475.42 467.87 474.45
  Q 468.57 474.23 468.32 473.54
  Q 467.24 470.61 469.84 469.45
  Q 470.38 469.21 470.69 468.71
  L 474.48 462.61
  Q 474.78 462.14 474.53 461.64
  Q 473.60 459.77 474.52 458.01
  C 480.34 446.86 487.12 435.46 495.43 425.34
  C 499.99 419.79 503.04 412.01 505.59 407.56
  C 509.56 400.61 514.60 394.11 517.80 386.85
  C 522.84 375.42 527.92 364.05 534.67 353.47
  C 544.22 338.48 554.46 323.72 562.75 308.00
  Q 596.01 244.88 625.86 180.08
  C 626.97 177.66 628.47 176.75 630.86 176.03
  A 2.05 2.04 -2.5 0 0 632.27 174.50
  Q 637.12 151.14 658.42 141.02
  C 660.72 139.93 663.33 138.93 665.28 137.28
  Q 675.91 128.27 686.54 123.04
  C 688.24 122.21 690.35 122.83 691.77 124.21
  C 708.66 140.66 723.28 163.13 734.82 181.44
  C 743.08 194.53 749.60 210.38 756.34 224.93
  Q 761.13 235.26 771.56 249.43
  C 787.73 271.39 798.82 286.26 811.06 305.68
  C 819.40 318.93 825.48 328.70 830.28 341.24
  C 832.93 348.15 836.06 357.83 839.20 365.43
  Q 866.86 432.29 910.83 489.65
  C 932.28 517.62 945.80 549.26 960.09 581.18
  C 961.53 584.39 962.65 587.12 965.88 589.05
  C 975.99 595.12 983.27 600.17 987.77 611.56
  C 997.95 637.37 1011.47 662.34 1026.56 685.58
  C 1038.89 704.56 1050.10 724.21 1061.03 744.03
  Q 1061.27 744.46 1061.30 744.96
  Q 1061.40 746.75 1062.75 749.03
  Q 1078.22 775.10 1091.53 794.76
  C 1098.82 805.52 1102.80 813.12 1104.44 824.81
  Q 1104.74 827.01 1105.91 828.84
  C 1110.93 836.75 1113.44 842.70 1117.35 853.30
  Q 1121.57 864.72 1128.26 874.91
  C 1138.68 890.79 1145.32 910.42 1152.52 927.96
  Q 1154.60 933.05 1162.57 946.38
  Q 1202.03 1012.37 1243.22 1077.29
  Q 1245.74 1081.28 1251.22 1094.15
  C 1253.83 1100.29 1257.98 1105.39 1261.44 1111.07
  C 1266.75 1119.77 1269.83 1131.01 1273.41 1140.61
  Q 1276.45 1148.78 1278.92 1151.14
  C 1283.97 1155.98 1289.51 1154.48 1296.12 1152.25
  Q 1320.21 1144.09 1344.35 1136.09
  C 1347.93 1134.90 1350.11 1132.28 1352.66 1130.70
  Q 1360.97 1125.56 1368.06 1131.05
  C 1371.43 1133.66 1372.03 1137.29 1368.82 1140.32
  C 1358.52 1150.08 1348.55 1158.68 1340.81 1170.80
  A 2.65 2.63 -88.0 0 1 1339.83 1171.72
  L 1275.66 1206.95
  Z"
/>
<path fill="#fefdfa" d="
  M 917.29 553.50
  L 917.23 555.11
  Q 917.20 555.63 916.79 555.95
  Q 908.61 562.22 898.72 565.08
  Q 898.21 565.23 897.90 565.67
  Q 897.06 566.87 895.79 567.25
  Q 893.66 562.87 890.92 558.82
  C 868.44 525.58 843.47 499.25 811.93 468.53
  L 797.11 453.38
  Q 793.05 448.19 788.17 443.66
  Q 786.27 441.90 785.82 444.45
  Q 785.64 445.46 785.77 446.50
  Q 787.90 462.95 790.20 479.39
  C 791.42 488.07 790.75 496.73 790.81 505.53
  Q 789.84 507.62 787.51 507.82
  Q 787.00 507.86 786.57 508.13
  Q 759.70 525.31 733.01 542.76
  Q 731.21 543.93 730.64 545.60
  Q 730.43 546.19 730.94 546.55
  Q 735.07 549.52 737.45 552.55
  Q 750.31 568.87 763.48 584.96
  C 773.29 596.94 783.63 610.58 793.71 622.30
  Q 794.62 623.36 796.43 624.29
  Q 796.91 624.53 796.55 624.94
  Q 795.32 626.32 796.00 627.96
  C 794.61 627.41 793.50 626.99 792.51 625.75
  Q 762.37 588.21 732.19 550.70
  C 726.58 543.73 722.39 539.62 714.53 537.14
  C 710.06 535.73 708.85 544.34 708.12 548.19
  Q 699.58 547.89 691.38 545.34
  C 685.58 543.54 679.51 540.18 673.73 537.22
  Q 663.29 531.89 651.90 530.64
  Q 649.17 492.53 652.23 460.25
  Q 652.65 455.83 652.02 453.09
  C 651.09 449.08 646.29 449.15 643.86 451.10
  Q 642.49 452.20 641.33 455.44
  Q 632.58 479.97 619.21 502.22
  Q 613.02 512.52 609.88 518.60
  Q 591.67 553.88 573.32 589.08
  C 570.82 593.87 565.69 597.70 562.04 601.75
  Q 561.00 600.91 560.72 599.74
  Q 560.59 599.22 560.94 598.82
  C 564.57 594.63 568.55 591.16 571.12 586.21
  C 583.77 561.86 595.99 537.14 609.55 513.28
  A 1.49 1.49 0.0 0 0 608.40 511.06
  Q 593.52 509.63 579.33 512.58
  C 573.50 513.79 567.78 512.90 561.92 512.64
  C 562.30 503.32 560.52 494.02 560.48 484.63
  C 560.45 479.93 561.44 475.06 562.04 470.25
  L 562.75 466.54
  L 569.75 428.81
  Q 569.89 428.06 569.14 428.24
  C 567.00 428.75 557.86 446.47 556.24 449.51
  L 542.00 473.71
  Q 503.77 524.48 474.75 581.04
  L 472.78 580.73
  Q 472.32 580.65 472.30 580.18
  C 472.14 575.44 460.32 568.54 456.00 567.35
  C 453.76 566.73 452.00 568.08 449.29 566.50
  C 452.92 559.06 456.30 551.57 460.29 544.41
  Q 562.13 362.04 661.00 178.05
  C 668.54 164.01 674.24 155.70 684.88 145.66
  C 688.60 142.14 690.73 143.58 692.63 147.61
  C 724.71 215.84 760.57 279.99 799.10 345.42
  C 843.49 420.79 879.29 481.51 917.29 553.50
  Z"
/>
<path fill="#c4b000" d="
  M 562.75 466.54
  Q 561.15 468.04 562.04 470.25
  C 561.44 475.06 560.45 479.93 560.48 484.63
  C 560.52 494.02 562.30 503.32 561.92 512.64
  Q 557.51 537.83 551.67 562.61
  C 547.86 578.81 549.27 595.85 549.25 612.00
  Q 549.24 613.00 549.61 614.62
  Q 549.72 615.11 550.14 615.37
  C 552.60 616.91 553.93 615.65 555.06 613.41
  Q 558.14 607.33 562.04 601.75
  C 565.69 597.70 570.82 593.87 573.32 589.08
  Q 591.67 553.88 609.88 518.60
  Q 613.02 512.52 619.21 502.22
  Q 632.58 479.97 641.33 455.44
  Q 642.49 452.20 643.86 451.10
  C 646.29 449.15 651.09 449.08 652.02 453.09
  Q 652.65 455.83 652.23 460.25
  Q 649.17 492.53 651.90 530.64
  Q 652.22 543.70 652.79 556.55
  Q 652.95 560.35 654.08 564.81
  C 657.86 579.71 657.81 591.63 656.57 608.26
  Q 655.48 622.89 657.04 637.60
  Q 657.10 638.12 657.46 638.50
  C 661.02 642.24 665.31 646.14 667.91 649.77
  Q 679.05 665.27 672.74 683.88
  C 671.31 688.10 666.73 694.44 667.03 698.86
  Q 667.84 711.13 668.91 723.68
  A 1.51 1.50 -7.8 0 0 670.69 725.03
  C 672.20 724.74 672.73 722.95 673.09 721.44
  C 680.43 690.85 686.37 659.83 694.16 629.40
  Q 701.39 601.17 705.03 572.23
  Q 706.57 559.95 708.12 548.19
  C 708.85 544.34 710.06 535.73 714.53 537.14
  C 722.39 539.62 726.58 543.73 732.19 550.70
  Q 762.37 588.21 792.51 625.75
  C 793.50 626.99 794.61 627.41 796.00 627.96
  Q 802.98 630.53 810.01 632.97
  C 812.82 633.94 814.72 632.11 814.26 629.24
  C 807.57 587.77 796.83 547.09 790.81 505.53
  C 790.75 496.73 791.42 488.07 790.20 479.39
  Q 787.90 462.95 785.77 446.50
  Q 785.64 445.46 785.82 444.45
  Q 786.27 441.90 788.17 443.66
  Q 793.05 448.19 797.11 453.38
  Q 803.33 462.13 811.93 468.53
  C 843.47 499.25 868.44 525.58 890.92 558.82
  Q 893.66 562.87 895.79 567.25
  C 899.28 574.37 902.73 581.36 906.61 588.44
  Q 991.90 744.16 1080.49 898.03
  C 1085.79 907.23 1088.42 919.90 1094.74 930.12
  Q 1138.69 1001.23 1185.25 1070.73
  Q 1177.21 1066.44 1171.34 1059.49
  C 1170.55 1058.56 1169.25 1057.56 1168.19 1057.60
  Q 1162.49 1057.82 1151.30 1059.31
  C 1145.47 1060.08 1142.57 1051.12 1135.34 1057.66
  C 1132.89 1059.87 1133.44 1062.89 1129.57 1064.62
  A 1.19 1.19 0.0 0 0 1129.51 1066.76
  L 1141.98 1073.21
  A 1.22 1.22 0.0 0 1 1141.79 1075.46
  L 1118.61 1082.78
  A 0.85 0.84 -85.7 0 1 1117.60 1081.60
  L 1119.47 1077.71
  A 0.67 0.67 0.0 0 0 1119.02 1076.77
  C 1108.33 1074.12 1099.23 1073.20 1088.83 1077.72
  C 1087.30 1078.39 1086.96 1079.35 1086.61 1080.85
  Q 1086.47 1081.42 1085.89 1081.36
  L 1064.31 1079.45
  Q 1063.80 1079.40 1063.81 1079.92
  L 1063.87 1082.60
  Q 1063.89 1083.23 1063.26 1083.16
  Q 1042.91 1081.02 1022.56 1078.89
  C 1021.16 1078.75 1018.31 1078.16 1017.53 1077.50
  C 1007.98 1069.35 1000.23 1067.22 987.95 1064.74
  C 984.52 1064.05 982.26 1062.57 981.00 1059.47
  A 0.48 0.48 0.0 0 1 981.61 1058.83
  L 996.64 1064.06
  A 0.81 0.81 0.0 0 0 997.65 1062.98
  Q 995.39 1057.70 989.75 1055.75
  Q 947.80 1041.19 911.88 1015.09
  Q 842.44 964.65 783.39 902.36
  Q 744.19 861.01 706.27 818.48
  Q 696.30 807.31 685.00 797.52
  C 673.90 787.92 663.90 783.96 650.50 778.99
  Q 610.99 764.32 572.21 754.48
  Q 560.67 751.55 554.25 751.22
  C 539.79 750.48 521.67 754.34 506.20 756.82
  C 502.79 757.36 503.33 767.44 500.69 770.17
  Q 500.32 770.56 499.78 770.61
  L 450.27 775.67
  Q 449.70 775.73 449.18 775.47
  C 440.48 771.06 433.67 768.46 424.23 771.99
  Q 422.08 772.80 420.61 773.09
  Q 420.04 773.21 419.59 772.84
  Q 407.51 763.23 391.94 762.16
  A 0.81 0.80 -79.2 0 0 391.11 762.73
  C 389.33 768.69 381.45 772.68 376.61 776.22
  Q 376.14 776.56 375.66 776.23
  Q 367.52 770.63 358.16 774.35
  C 381.21 730.65 402.63 690.06 429.97 650.32
  Q 451.19 619.47 471.26 587.87
  C 472.61 585.74 473.72 583.30 474.75 581.04
  Q 503.77 524.48 542.00 473.71
  C 542.51 473.41 543.18 473.07 543.51 472.56
  Q 550.58 461.43 556.24 449.51
  C 557.86 446.47 567.00 428.75 569.14 428.24
  Q 569.89 428.06 569.75 428.81
  L 562.75 466.54
  Z"
/>
<path fill="#a58c00" d="
  M 556.24 449.51
  Q 550.58 461.43 543.51 472.56
  C 543.18 473.07 542.51 473.41 542.00 473.71
  L 556.24 449.51
  Z"
/>
<path fill="#a58c00" d="
  M 797.11 453.38
  L 811.93 468.53
  Q 803.33 462.13 797.11 453.38
  Z"
/>
<path fill="#866600" d="
  M 562.75 466.54
  L 562.04 470.25
  Q 561.15 468.04 562.75 466.54
  Z"
/>
<path fill="#fffcb8" d="
  M 790.81 505.53
  C 796.83 547.09 807.57 587.77 814.26 629.24
  C 814.72 632.11 812.82 633.94 810.01 632.97
  Q 802.98 630.53 796.00 627.96
  Q 795.32 626.32 796.55 624.94
  Q 796.91 624.53 796.43 624.29
  Q 794.62 623.36 793.71 622.30
  C 783.63 610.58 773.29 596.94 763.48 584.96
  Q 750.31 568.87 737.45 552.55
  Q 735.07 549.52 730.94 546.55
  Q 730.43 546.19 730.64 545.60
  Q 731.21 543.93 733.01 542.76
  Q 759.70 525.31 786.57 508.13
  Q 787.00 507.86 787.51 507.82
  Q 789.84 507.62 790.81 505.53
  Z"
/>
<path fill="#fffcb8" d="
  M 562.04 601.75
  Q 558.14 607.33 555.06 613.41
  C 553.93 615.65 552.60 616.91 550.14 615.37
  Q 549.72 615.11 549.61 614.62
  Q 549.24 613.00 549.25 612.00
  C 549.27 595.85 547.86 578.81 551.67 562.61
  Q 557.51 537.83 561.92 512.64
  C 567.78 512.90 573.50 513.79 579.33 512.58
  Q 593.52 509.63 608.40 511.06
  A 1.49 1.49 0.0 0 1 609.55 513.28
  C 595.99 537.14 583.77 561.86 571.12 586.21
  C 568.55 591.16 564.57 594.63 560.94 598.82
  Q 560.59 599.22 560.72 599.74
  Q 561.00 600.91 562.04 601.75
  Z"
/>
<path fill="#fffcb8" d="
  M 708.12 548.19
  Q 706.57 559.95 705.03 572.23
  Q 701.39 601.17 694.16 629.40
  C 686.37 659.83 680.43 690.85 673.09 721.44
  C 672.73 722.95 672.20 724.74 670.69 725.03
  A 1.51 1.50 -7.8 0 1 668.91 723.68
  Q 667.84 711.13 667.03 698.86
  C 666.73 694.44 671.31 688.10 672.74 683.88
  Q 679.05 665.27 667.91 649.77
  C 665.31 646.14 661.02 642.24 657.46 638.50
  Q 657.10 638.12 657.04 637.60
  Q 655.48 622.89 656.57 608.26
  C 657.81 591.63 657.86 579.71 654.08 564.81
  Q 652.95 560.35 652.79 556.55
  Q 652.22 543.70 651.90 530.64
  Q 663.29 531.89 673.73 537.22
  C 679.51 540.18 685.58 543.54 691.38 545.34
  Q 699.58 547.89 708.12 548.19
  Z"
/>
<path fill="#fffcb8" d="
  M 917.29 553.50
  L 917.54 554.00
  Q 918.15 556.91 920.44 561.06
  Q 933.48 584.65 946.46 608.28
  Q 950.35 615.37 952.07 618.22
  Q 952.23 618.50 952.23 618.82
  C 952.23 619.36 954.11 621.70 954.51 622.30
  C 955.46 623.73 955.81 625.79 957.19 627.31
  Q 957.50 627.64 957.50 628.10
  Q 957.49 628.32 957.56 628.44
  Q 970.85 651.67 983.49 675.25
  C 987.14 682.05 991.08 688.64 994.79 695.43
  Q 1001.94 708.48 1002.83 710.06
  Q 1016.92 735.04 1030.45 760.32
  Q 1030.68 760.76 1031.11 761.00
  Q 1032.29 761.66 1032.35 762.91
  Q 1032.37 763.40 1032.61 763.82
  L 1105.60 895.51
  Q 1105.81 895.88 1106.19 896.06
  Q 1106.56 896.24 1106.43 896.61
  Q 1106.23 897.17 1106.52 897.67
  C 1117.55 916.75 1128.25 936.15 1138.81 955.49
  Q 1156.39 987.72 1174.25 1019.79
  Q 1185.04 1039.19 1195.96 1058.52
  Q 1200.48 1066.51 1202.75 1069.50
  L 1202.75 1069.95
  Q 1202.75 1070.49 1202.26 1070.72
  Q 1196.76 1073.27 1192.11 1077.13
  Q 1191.69 1077.48 1191.31 1077.08
  L 1185.25 1070.73
  Q 1138.69 1001.23 1094.74 930.12
  C 1088.42 919.90 1085.79 907.23 1080.49 898.03
  Q 991.90 744.16 906.61 588.44
  C 902.73 581.36 899.28 574.37 895.79 567.25
  Q 897.06 566.87 897.90 565.67
  Q 898.21 565.23 898.72 565.08
  Q 908.61 562.22 916.79 555.95
  Q 917.20 555.63 917.23 555.11
  L 917.29 553.50
  Z"
/>
<path fill="#a58c00" d="
  M 917.54 554.00
  Q 922.65 562.75 933.02 581.46
  Q 1067.68 824.60 1202.09 1067.86
  Q 1202.53 1068.64 1202.75 1069.50
  Q 1200.48 1066.51 1195.96 1058.52
  Q 1185.04 1039.19 1174.25 1019.79
  Q 1156.39 987.72 1138.81 955.49
  C 1128.25 936.15 1117.55 916.75 1106.52 897.67
  Q 1106.23 897.17 1106.43 896.61
  Q 1106.56 896.24 1106.19 896.06
  Q 1105.81 895.88 1105.60 895.51
  L 1032.61 763.82
  Q 1032.37 763.40 1032.35 762.91
  Q 1032.29 761.66 1031.11 761.00
  Q 1030.68 760.76 1030.45 760.32
  Q 1016.92 735.04 1002.83 710.06
  Q 1001.94 708.48 994.79 695.43
  C 991.08 688.64 987.14 682.05 983.49 675.25
  Q 970.85 651.67 957.56 628.44
  Q 957.49 628.32 957.50 628.10
  Q 957.50 627.64 957.19 627.31
  C 955.81 625.79 955.46 623.73 954.51 622.30
  C 954.11 621.70 952.23 619.36 952.23 618.82
  Q 952.23 618.50 952.07 618.22
  Q 950.35 615.37 946.46 608.28
  Q 933.48 584.65 920.44 561.06
  Q 918.15 556.91 917.54 554.00
  Z"
/>
<path fill="#fffcb8" d="
  M 449.29 566.50
  C 452.00 568.08 453.76 566.73 456.00 567.35
  C 460.32 568.54 472.14 575.44 472.30 580.18
  Q 472.32 580.65 472.78 580.73
  L 474.75 581.04
  C 473.72 583.30 472.61 585.74 471.26 587.87
  Q 451.19 619.47 429.97 650.32
  C 402.63 690.06 381.21 730.65 358.16 774.35
  L 317.21 838.75
  C 312.78 844.18 304.32 839.06 301.10 834.74
  Q 300.89 834.46 300.55 834.49
  Q 300.18 834.53 300.00 834.46
  L 449.29 566.50
  Z"
/>
<path fill="#a58c00" d="
  M 1185.25 1070.73
  L 1191.31 1077.08
  Q 1191.69 1077.48 1192.11 1077.13
  Q 1196.76 1073.27 1202.26 1070.72
  Q 1202.75 1070.49 1202.75 1069.95
  L 1202.75 1069.50
  Q 1204.29 1071.92 1205.56 1074.50
  Q 1229.86 1123.60 1254.17 1172.69
  C 1256.42 1177.22 1258.69 1182.42 1261.73 1186.96
  C 1266.04 1193.41 1268.69 1198.48 1272.03 1204.51
  Q 1272.28 1204.96 1272.80 1205.00
  Q 1274.63 1205.12 1275.66 1206.95
  L 1270.47 1211.05
  Q 1260.95 1202.22 1256.76 1189.94
  C 1255.88 1187.35 1252.57 1185.22 1250.95 1182.77
  C 1246.22 1175.62 1241.06 1168.64 1236.91 1161.35
  Q 1223.31 1137.48 1210.03 1113.38
  Q 1205.94 1111.30 1201.96 1110.46
  C 1197.00 1109.42 1190.68 1113.62 1187.13 1116.71
  Q 1185.32 1118.29 1183.37 1118.97
  C 1161.55 1126.53 1142.71 1138.78 1121.07 1144.71
  Q 1104.57 1149.23 1088.30 1154.57
  Q 1087.77 1154.75 1087.41 1154.33
  L 1085.33 1151.89
  Q 1084.94 1151.43 1084.40 1151.70
  C 999.23 1193.42 902.04 1165.61 829.27 1111.96
  Q 811.94 1099.18 774.02 1070.49
  C 739.74 1044.56 710.46 1014.03 677.40 984.36
  C 640.51 951.27 600.60 922.95 552.49 906.72
  C 539.66 902.39 526.31 899.20 513.69 898.57
  Q 495.37 897.66 477.08 896.19
  C 457.29 894.61 437.16 889.21 416.56 892.56
  C 410.79 893.50 405.47 894.70 402.32 899.06
  C 396.14 907.60 383.88 912.15 373.38 913.76
  Q 372.02 913.97 372.01 912.60
  L 371.98 910.14
  Q 371.97 909.41 371.26 909.57
  Q 356.19 912.86 341.11 916.02
  Q 335.17 917.26 332.82 918.82
  Q 328.65 921.58 325.75 921.77
  C 314.64 922.50 304.39 923.51 293.02 926.16
  C 280.50 929.09 269.21 928.30 262.88 941.99
  Q 259.77 948.73 259.72 948.82
  Q 242.93 980.06 225.83 1011.11
  Q 224.67 1013.16 223.61 1015.28
  Q 208.53 1045.47 188.10 1072.31
  C 186.65 1074.22 183.67 1076.84 182.32 1079.72
  Q 181.37 1081.75 180.13 1082.93
  C 176.32 1086.53 175.11 1089.24 173.04 1094.74
  C 171.64 1098.46 175.37 1101.30 176.31 1104.80
  Q 176.44 1105.30 176.87 1105.58
  C 179.05 1107.05 177.81 1115.56 177.95 1117.38
  Q 178.00 1117.98 177.40 1118.06
  L 174.27 1118.49
  Q 173.70 1118.57 173.46 1119.09
  L 173.25 1119.54
  C 161.86 1117.31 156.02 1106.85 161.33 1096.08
  Q 176.07 1066.19 190.76 1036.29
  C 193.13 1031.46 197.25 1024.85 201.19 1019.22
  Q 218.05 995.14 230.50 968.47
  C 231.93 965.40 235.12 956.87 235.29 951.54
  Q 235.38 948.87 235.62 946.13
  C 240.55 948.63 241.31 942.59 242.95 939.72
  C 248.32 930.35 253.60 921.06 258.60 911.48
  Q 258.92 910.87 259.44 911.33
  C 264.61 915.93 265.91 915.97 270.17 910.61
  Q 296.99 876.85 317.21 838.75
  L 358.16 774.35
  Q 367.52 770.63 375.66 776.23
  Q 376.14 776.56 376.61 776.22
  C 381.45 772.68 389.33 768.69 391.11 762.73
  A 0.81 0.80 -79.2 0 1 391.94 762.16
  Q 407.51 763.23 419.59 772.84
  Q 420.04 773.21 420.61 773.09
  Q 422.08 772.80 424.23 771.99
  C 433.67 768.46 440.48 771.06 449.18 775.47
  Q 449.70 775.73 450.27 775.67
  L 499.78 770.61
  Q 500.32 770.56 500.69 770.17
  C 503.33 767.44 502.79 757.36 506.20 756.82
  C 521.67 754.34 539.79 750.48 554.25 751.22
  Q 560.67 751.55 572.21 754.48
  Q 610.99 764.32 650.50 778.99
  C 663.90 783.96 673.90 787.92 685.00 797.52
  Q 696.30 807.31 706.27 818.48
  Q 744.19 861.01 783.39 902.36
  Q 842.44 964.65 911.88 1015.09
  Q 947.80 1041.19 989.75 1055.75
  Q 995.39 1057.70 997.65 1062.98
  A 0.81 0.81 0.0 0 1 996.64 1064.06
  L 981.61 1058.83
  A 0.48 0.48 0.0 0 0 981.00 1059.47
  C 982.26 1062.57 984.52 1064.05 987.95 1064.74
  C 1000.23 1067.22 1007.98 1069.35 1017.53 1077.50
  C 1018.31 1078.16 1021.16 1078.75 1022.56 1078.89
  Q 1042.91 1081.02 1063.26 1083.16
  Q 1063.89 1083.23 1063.87 1082.60
  L 1063.81 1079.92
  Q 1063.80 1079.40 1064.31 1079.45
  L 1085.89 1081.36
  Q 1086.47 1081.42 1086.61 1080.85
  C 1086.96 1079.35 1087.30 1078.39 1088.83 1077.72
  C 1099.23 1073.20 1108.33 1074.12 1119.02 1076.77
  A 0.67 0.67 0.0 0 1 1119.47 1077.71
  L 1117.60 1081.60
  A 0.85 0.84 -85.7 0 0 1118.61 1082.78
  L 1141.79 1075.46
  A 1.22 1.22 0.0 0 0 1141.98 1073.21
  L 1129.51 1066.76
  A 1.19 1.19 0.0 0 1 1129.57 1064.62
  C 1133.44 1062.89 1132.89 1059.87 1135.34 1057.66
  C 1142.57 1051.12 1145.47 1060.08 1151.30 1059.31
  Q 1162.49 1057.82 1168.19 1057.60
  C 1169.25 1057.56 1170.55 1058.56 1171.34 1059.49
  Q 1177.21 1066.44 1185.25 1070.73
  Z"
/>
<path fill="#c4b000" d="
  M 300.00 834.46
  Q 300.18 834.53 300.55 834.49
  Q 300.89 834.46 301.10 834.74
  C 304.32 839.06 312.78 844.18 317.21 838.75
  Q 296.99 876.85 270.17 910.61
  C 265.91 915.97 264.61 915.93 259.44 911.33
  Q 258.92 910.87 258.60 911.48
  C 253.60 921.06 248.32 930.35 242.95 939.72
  C 241.31 942.59 240.55 948.63 235.62 946.13
  Q 267.23 889.96 300.00 834.46
  Z"
/>
<path fill="#866600" d="
  M 1210.03 1113.38
  Q 1208.06 1115.10 1208.87 1116.39
  C 1212.83 1122.66 1216.84 1132.20 1222.43 1139.22
  A 0.37 0.36 -37.7 0 1 1222.36 1139.75
  C 1216.35 1143.94 1216.05 1151.08 1213.92 1157.42
  C 1210.03 1169.04 1203.89 1176.95 1190.52 1177.57
  C 1165.51 1178.72 1149.02 1184.97 1130.14 1201.24
  C 1127.62 1203.41 1123.26 1203.19 1120.14 1204.69
  Q 1110.07 1209.53 1100.30 1214.94
  C 1082.74 1224.67 1065.16 1233.94 1046.60 1241.65
  Q 1004.56 1259.10 958.99 1260.66
  Q 955.40 1260.79 954.33 1257.99
  A 2.03 2.02 -14.7 0 0 952.14 1256.72
  C 923.47 1260.98 892.96 1265.53 864.56 1260.70
  Q 834.28 1255.56 803.96 1250.65
  C 797.53 1249.61 793.40 1247.87 786.92 1250.39
  Q 786.41 1250.59 786.00 1250.24
  C 783.85 1248.41 781.93 1247.11 779.11 1246.28
  C 708.42 1225.48 642.24 1193.22 582.52 1149.97
  C 573.73 1143.60 562.33 1134.57 554.08 1128.42
  Q 528.70 1109.52 506.96 1099.27
  C 491.42 1091.94 470.02 1085.00 451.79 1077.42
  Q 432.03 1069.19 412.35 1060.77
  C 381.82 1047.72 346.13 1041.28 314.90 1026.15
  C 308.27 1022.93 303.89 1024.47 297.36 1027.43
  C 294.31 1028.82 289.79 1026.64 287.23 1026.11
  Q 248.68 1018.09 228.73 1013.57
  Q 227.15 1013.21 225.83 1011.11
  Q 242.93 980.06 259.72 948.82
  Q 259.77 948.73 262.88 941.99
  C 269.21 928.30 280.50 929.09 293.02 926.16
  C 304.39 923.51 314.64 922.50 325.75 921.77
  Q 328.65 921.58 332.82 918.82
  Q 335.17 917.26 341.11 916.02
  Q 356.19 912.86 371.26 909.57
  Q 371.97 909.41 371.98 910.14
  L 372.01 912.60
  Q 372.02 913.97 373.38 913.76
  C 383.88 912.15 396.14 907.60 402.32 899.06
  C 405.47 894.70 410.79 893.50 416.56 892.56
  C 437.16 889.21 457.29 894.61 477.08 896.19
  Q 495.37 897.66 513.69 898.57
  C 526.31 899.20 539.66 902.39 552.49 906.72
  C 600.60 922.95 640.51 951.27 677.40 984.36
  C 710.46 1014.03 739.74 1044.56 774.02 1070.49
  Q 811.94 1099.18 829.27 1111.96
  C 902.04 1165.61 999.23 1193.42 1084.40 1151.70
  Q 1084.94 1151.43 1085.33 1151.89
  L 1087.41 1154.33
  Q 1087.77 1154.75 1088.30 1154.57
  Q 1104.57 1149.23 1121.07 1144.71
  C 1142.71 1138.78 1161.55 1126.53 1183.37 1118.97
  Q 1185.32 1118.29 1187.13 1116.71
  C 1190.68 1113.62 1197.00 1109.42 1201.96 1110.46
  Q 1205.94 1111.30 1210.03 1113.38
  Z"
/>
<path fill="#755504" d="
  M 225.83 1011.11
  Q 227.15 1013.21 228.73 1013.57
  Q 248.68 1018.09 287.23 1026.11
  C 289.79 1026.64 294.31 1028.82 297.36 1027.43
  C 303.89 1024.47 308.27 1022.93 314.90 1026.15
  C 346.13 1041.28 381.82 1047.72 412.35 1060.77
  Q 432.03 1069.19 451.79 1077.42
  C 470.02 1085.00 491.42 1091.94 506.96 1099.27
  Q 528.70 1109.52 554.08 1128.42
  C 562.33 1134.57 573.73 1143.60 582.52 1149.97
  C 642.24 1193.22 708.42 1225.48 779.11 1246.28
  C 781.93 1247.11 783.85 1248.41 786.00 1250.24
  Q 786.41 1250.59 786.92 1250.39
  C 793.40 1247.87 797.53 1249.61 803.96 1250.65
  Q 834.28 1255.56 864.56 1260.70
  C 892.96 1265.53 923.47 1260.98 952.14 1256.72
  A 2.03 2.02 -14.7 0 1 954.33 1257.99
  Q 955.40 1260.79 958.99 1260.66
  Q 1004.56 1259.10 1046.60 1241.65
  C 1065.16 1233.94 1082.74 1224.67 1100.30 1214.94
  Q 1110.07 1209.53 1120.14 1204.69
  C 1123.26 1203.19 1127.62 1203.41 1130.14 1201.24
  C 1149.02 1184.97 1165.51 1178.72 1190.52 1177.57
  C 1203.89 1176.95 1210.03 1169.04 1213.92 1157.42
  C 1216.05 1151.08 1216.35 1143.94 1222.36 1139.75
  A 0.37 0.36 -37.7 0 0 1222.43 1139.22
  C 1216.84 1132.20 1212.83 1122.66 1208.87 1116.39
  Q 1208.06 1115.10 1210.03 1113.38
  Q 1223.31 1137.48 1236.91 1161.35
  C 1241.06 1168.64 1246.22 1175.62 1250.95 1182.77
  C 1252.57 1185.22 1255.88 1187.35 1256.76 1189.94
  Q 1260.95 1202.22 1270.47 1211.05
  C 1271.08 1213.76 1260.37 1223.76 1257.68 1224.69
  Q 1251.76 1226.72 1248.07 1228.83
  Q 1232.74 1237.60 1222.95 1242.46
  C 1190.46 1258.64 1158.15 1275.42 1125.27 1290.78
  Q 1107.71 1298.98 1085.05 1313.99
  C 1079.50 1317.67 1073.26 1322.46 1067.29 1326.59
  C 1063.73 1329.05 1059.88 1333.53 1056.05 1334.88
  C 1048.35 1337.59 1040.41 1339.94 1033.43 1343.95
  Q 1025.99 1348.23 1018.88 1353.03
  C 1008.33 1360.14 997.80 1365.55 987.13 1371.72
  C 975.71 1378.33 964.75 1386.14 953.78 1393.76
  C 948.63 1397.33 945.94 1397.80 938.88 1399.43
  C 933.68 1400.62 928.30 1401.28 923.25 1402.63
  C 920.03 1403.49 917.00 1404.30 913.70 1404.83
  C 912.13 1405.09 910.80 1405.95 909.41 1406.28
  Q 890.42 1410.73 885.47 1412.44
  Q 867.49 1418.67 840.19 1432.44
  Q 808.36 1448.49 776.46 1464.43
  C 767.56 1468.88 761.58 1470.86 752.52 1468.42
  Q 745.24 1466.46 738.58 1462.91
  C 677.47 1430.37 629.52 1404.95 576.19 1369.80
  Q 570.35 1365.95 566.55 1362.75
  C 564.00 1360.59 561.11 1360.10 558.96 1356.88
  Q 558.67 1356.45 558.14 1356.49
  C 555.23 1356.75 552.28 1352.67 550.40 1350.73
  Q 550.00 1350.33 549.44 1350.25
  Q 546.04 1349.74 544.45 1346.57
  Q 544.16 1346.00 543.52 1346.00
  L 542.25 1346.00
  Q 541.63 1346.00 541.18 1345.56
  L 537.80 1342.18
  Q 537.39 1341.77 536.82 1341.79
  C 534.55 1341.87 533.56 1340.07 532.23 1339.23
  Q 494.25 1315.20 453.96 1295.27
  C 437.10 1286.94 414.55 1274.29 394.43 1264.65
  Q 392.20 1263.59 389.30 1263.24
  C 385.26 1262.76 380.97 1261.83 377.32 1259.96
  C 375.68 1259.12 374.58 1259.22 373.18 1257.90
  C 355.46 1241.08 339.77 1228.57 318.72 1220.54
  C 308.78 1216.75 293.52 1212.44 283.07 1206.52
  C 267.58 1197.75 253.86 1184.15 243.10 1172.39
  Q 242.17 1171.38 241.98 1169.31
  Q 241.93 1168.74 241.40 1168.54
  C 237.47 1167.04 235.10 1165.08 230.49 1165.86
  Q 229.98 1165.95 229.70 1165.51
  C 227.40 1161.91 224.47 1165.11 222.89 1162.74
  Q 222.61 1162.32 222.14 1162.14
  Q 213.91 1159.02 207.00 1153.67
  C 204.26 1151.55 199.88 1148.75 196.96 1145.20
  Q 196.59 1144.75 196.01 1144.75
  L 194.82 1144.75
  Q 194.37 1144.75 194.05 1144.44
  L 190.42 1140.92
  Q 189.98 1140.50 189.38 1140.50
  L 188.37 1140.50
  Q 187.88 1140.50 187.52 1140.15
  L 184.16 1136.79
  Q 183.80 1136.43 183.31 1136.33
  Q 180.79 1135.81 178.60 1137.01
  Q 178.13 1137.27 177.68 1136.98
  C 175.64 1135.70 174.32 1133.48 172.26 1132.53
  Q 170.90 1131.90 169.57 1131.29
  Q 170.20 1129.65 171.32 1128.83
  Q 171.78 1128.50 171.63 1127.95
  Q 170.65 1124.43 173.25 1122.36
  Q 173.65 1122.04 173.73 1121.54
  Q 173.93 1120.33 173.25 1119.54
  L 173.46 1119.09
  Q 173.70 1118.57 174.27 1118.49
  L 177.40 1118.06
  Q 178.00 1117.98 177.95 1117.38
  C 177.81 1115.56 179.05 1107.05 176.87 1105.58
  Q 176.44 1105.30 176.31 1104.80
  C 175.37 1101.30 171.64 1098.46 173.04 1094.74
  C 175.11 1089.24 176.32 1086.53 180.13 1082.93
  Q 181.37 1081.75 182.32 1079.72
  C 183.67 1076.84 186.65 1074.22 188.10 1072.31
  Q 208.53 1045.47 223.61 1015.28
  Q 224.67 1013.16 225.83 1011.11
  Z"
/>
</svg>
